<svg width="177" height="177" viewBox="0 0 177 177" fill="none" xmlns="http://www.w3.org/2000/svg">
<g filter="url(#filter0_bdi_1_1503)">
<rect x="28.1703" y="15.1643" width="120" height="120" rx="60" transform="rotate(-0.561514 28.1703 15.1643)" fill="url(#paint0_linear_1_1503)" fill-opacity="0.93" shape-rendering="crispEdges"/>
</g>
<path d="M105.255 80.8301C105.255 81.5167 105.816 82.0839 106.493 81.9706C108.023 81.7146 109.447 80.988 110.559 79.8767C111.965 78.4701 112.755 76.5625 112.755 74.5734C112.755 72.5842 111.965 70.6766 110.559 69.2701C109.447 68.1587 108.023 67.4322 106.493 67.1762C105.816 67.0628 105.255 67.63 105.255 68.3167C105.255 69.0033 105.82 69.5447 106.486 69.7133C107.355 69.9333 108.156 70.3841 108.8 71.0283C109.741 71.9685 110.269 73.2437 110.269 74.5734C110.269 75.903 109.741 77.1782 108.8 78.1184C108.156 78.7627 107.355 79.2135 106.486 79.4334C105.82 79.602 105.255 80.1434 105.255 80.8301Z" fill="#49E4EB"/>
<path d="M107.255 87.2013C107.255 88.2352 108.097 89.0858 109.122 88.9527C112.279 88.5429 115.233 87.1018 117.508 84.8264C120.228 82.1071 121.755 78.419 121.755 74.5734C121.755 70.7277 120.228 67.0396 117.508 64.3203C115.233 62.0449 112.279 60.6038 109.122 60.194C108.097 60.0609 107.255 60.9115 107.255 61.9454C107.255 62.9794 108.1 63.8009 109.118 63.98C111.279 64.36 113.288 65.3953 114.861 66.9678C116.878 68.9849 118.011 71.7207 118.011 74.5734C118.011 77.426 116.878 80.1618 114.861 82.1789C113.288 83.7514 111.279 84.7868 109.118 85.1667C108.1 85.3458 107.255 86.1674 107.255 87.2013Z" fill="#49E4EB"/>
<path d="M58.188 67.1621L75.5553 62.061H75.5764L95.4187 56.2128C95.924 56.0615 96.4576 56.0328 96.976 56.1293C97.4944 56.2257 97.9828 56.4445 98.4013 56.7678C98.8254 57.0823 99.1693 57.4941 99.4047 57.9691C99.6401 58.4441 99.7602 58.9687 99.7552 59.4998V89.0821C99.7552 89.9841 99.4015 90.8495 98.7714 91.4893C98.1412 92.1292 97.2857 92.4914 96.3917 92.4971C96.0632 92.4979 95.736 92.4548 95.4187 92.369L77.7553 87.1612V89.6584C77.7553 90.5641 77.3987 91.4327 76.7639 92.0731C76.1292 92.7136 75.2683 93.0734 74.3707 93.0734H67.6015C66.7038 93.0734 65.8429 92.7136 65.2082 92.0731C64.5734 91.4327 64.2169 90.5641 64.2169 89.6584V83.1912L58.188 81.4197C57.4862 81.2086 56.8705 80.7748 56.4322 80.1827C55.994 79.5906 55.7567 78.8717 55.7553 78.1328V70.4491C55.7567 69.7101 55.994 68.9912 56.4322 68.3992C56.8705 67.8071 57.4862 67.3733 58.188 67.1621ZM67.6015 89.6584H74.3707V86.1794L67.6015 84.173V89.6584ZM59.1399 78.1328L66.4168 80.2672L74.3707 82.615V65.9669L59.1399 70.4491V78.1328Z" fill="#49E4EB"/>
<defs>
<filter id="filter0_bdi_1_1503" x="0.755325" y="-6.86511" width="176" height="183.439" filterUnits="userSpaceOnUse" color-interpolation-filters="sRGB">
<feFlood flood-opacity="0" result="BackgroundImageFix"/>
<feGaussianBlur in="BackgroundImageFix" stdDeviation="10.7192"/>
<feComposite in2="SourceAlpha" operator="in" result="effect1_backgroundBlur_1_1503"/>
<feColorMatrix in="SourceAlpha" type="matrix" values="0 0 0 0 0 0 0 0 0 0 0 0 0 0 0 0 0 0 127 0" result="hardAlpha"/>
<feOffset dy="14"/>
<feGaussianBlur stdDeviation="14"/>
<feComposite in2="hardAlpha" operator="out"/>
<feColorMatrix type="matrix" values="0 0 0 0 0.804167 0 0 0 0 0.804167 0 0 0 0 0.804167 0 0 0 0.25 0"/>
<feBlend mode="normal" in2="effect1_backgroundBlur_1_1503" result="effect2_dropShadow_1_1503"/>
<feBlend mode="normal" in="SourceGraphic" in2="effect2_dropShadow_1_1503" result="shape"/>
<feColorMatrix in="SourceAlpha" type="matrix" values="0 0 0 0 0 0 0 0 0 0 0 0 0 0 0 0 0 0 127 0" result="hardAlpha"/>
<feOffset dx="-2.57262" dy="2.57262"/>
<feComposite in2="hardAlpha" operator="arithmetic" k2="-1" k3="1"/>
<feColorMatrix type="matrix" values="0 0 0 0 1 0 0 0 0 1 0 0 0 0 1 0 0 0 1 0"/>
<feBlend mode="normal" in2="shape" result="effect3_innerShadow_1_1503"/>
</filter>
<linearGradient id="paint0_linear_1_1503" x1="137.582" y1="58.9237" x2="33.5398" y2="47.0988" gradientUnits="userSpaceOnUse">
<stop stop-color="#F4F4F4"/>
<stop offset="0.421875" stop-color="#F4F4F4"/>
<stop offset="1" stop-color="white"/>
</linearGradient>
</defs>
</svg>
