<svg width="177" height="177" viewBox="0 0 177 177" fill="none" xmlns="http://www.w3.org/2000/svg">
<g filter="url(#filter0_bdi_1_1498)">
<rect x="28" y="15.1643" width="120" height="120" rx="60" transform="rotate(-0.561514 28 15.1643)" fill="url(#paint0_linear_1_1498)" fill-opacity="0.93" shape-rendering="crispEdges"/>
</g>
<path d="M82.0806 54.7734V94.3734C82.0806 94.9568 81.8438 95.5164 81.4222 95.929C81.0007 96.3416 80.429 96.5734 79.8328 96.5734C79.2367 96.5734 78.665 96.3416 78.2434 95.929C77.8219 95.5164 77.5851 94.9568 77.5851 94.3734V54.7734C77.5851 54.1899 77.8219 53.6303 78.2434 53.2177C78.665 52.8051 79.2367 52.5734 79.8328 52.5734C80.429 52.5734 81.0007 52.8051 81.4222 53.2177C81.8438 53.6303 82.0806 54.1899 82.0806 54.7734ZM105.682 69.7609L100.063 71.5484V65.7734C100.063 65.1899 99.8259 64.6303 99.4043 64.2177C98.9828 63.8052 98.4111 63.5734 97.8149 63.5734C97.2188 63.5734 96.647 63.8052 96.2255 64.2177C95.804 64.6303 95.5672 65.1899 95.5672 65.7734V71.5484L89.9478 69.7609C89.6694 69.6671 89.3746 69.6291 89.081 69.6493C88.7874 69.6694 88.5009 69.7473 88.2386 69.8782C87.9764 70.0091 87.7438 70.1903 87.5547 70.4111C87.3656 70.632 87.2239 70.8878 87.1381 71.1634C87.0419 71.4376 87.0028 71.728 87.023 72.0173C87.0433 72.3066 87.1226 72.589 87.2561 72.8479C87.3897 73.1067 87.5748 73.3368 87.8006 73.5245C88.0265 73.7122 88.2884 73.8538 88.571 73.9409L94.1904 75.7284L90.7064 80.4034C90.5322 80.6378 90.4071 80.9037 90.3382 81.1856C90.2693 81.4676 90.2581 81.76 90.3051 82.0463C90.3521 82.3325 90.4564 82.6068 90.6121 82.8534C90.7677 83.1 90.9716 83.3141 91.2121 83.4834C91.6984 83.8206 92.3004 83.9576 92.8889 83.865C93.4773 83.7725 94.0051 83.4577 94.359 82.9884L97.8149 78.3134L101.271 82.9884C101.625 83.4577 102.153 83.7725 102.741 83.865C103.329 83.9576 103.931 83.8206 104.418 83.4834C104.658 83.3141 104.862 83.1 105.018 82.8534C105.173 82.6068 105.278 82.3325 105.325 82.0463C105.372 81.76 105.361 81.4676 105.292 81.1856C105.223 80.9037 105.098 80.6378 104.923 80.4034L101.439 75.7284L107.059 73.9409C107.341 73.8538 107.603 73.7122 107.829 73.5245C108.055 73.3368 108.24 73.1067 108.374 72.8479C108.507 72.589 108.586 72.3066 108.607 72.0173C108.627 71.728 108.588 71.4376 108.492 71.1634C108.406 70.8878 108.264 70.632 108.075 70.4111C107.886 70.1903 107.653 70.0091 107.391 69.8782C107.129 69.7473 106.842 69.6694 106.549 69.6493C106.255 69.6291 105.96 69.6671 105.682 69.7609ZM135.465 71.1634C135.379 70.8878 135.237 70.632 135.048 70.4111C134.859 70.1903 134.627 70.0091 134.364 69.8782C134.102 69.7473 133.816 69.6694 133.522 69.6493C133.228 69.6291 132.934 69.6671 132.655 69.7609L127.036 71.5484V65.7734C127.036 65.1899 126.799 64.6303 126.377 64.2177C125.956 63.8052 125.384 63.5734 124.788 63.5734C124.192 63.5734 123.62 63.8052 123.199 64.2177C122.777 64.6303 122.54 65.1899 122.54 65.7734V71.5484L116.921 69.7609C116.643 69.6671 116.348 69.6291 116.054 69.6493C115.76 69.6694 115.474 69.7473 115.212 69.8782C114.95 70.0091 114.717 70.1903 114.528 70.4111C114.339 70.632 114.197 70.8878 114.111 71.1634C114.015 71.4376 113.976 71.728 113.996 72.0173C114.016 72.3066 114.096 72.589 114.229 72.8479C114.363 73.1067 114.548 73.3368 114.774 73.5245C115 73.7122 115.262 73.8538 115.544 73.9409L121.164 75.7284L117.679 80.4034C117.505 80.6378 117.38 80.9037 117.311 81.1856C117.242 81.4676 117.231 81.76 117.278 82.0463C117.325 82.3325 117.429 82.6068 117.585 82.8534C117.741 83.1 117.945 83.3141 118.185 83.4834C118.672 83.8206 119.274 83.9576 119.862 83.865C120.45 83.7725 120.978 83.4577 121.332 82.9884L124.788 78.3134L128.244 82.9884C128.598 83.4577 129.126 83.7725 129.714 83.865C130.302 83.9576 130.905 83.8206 131.391 83.4834C131.631 83.3141 131.835 83.1 131.991 82.8534C132.147 82.6068 132.251 82.3325 132.298 82.0463C132.345 81.76 132.334 81.4676 132.265 81.1856C132.196 80.9037 132.071 80.6378 131.897 80.4034L128.413 75.7284L134.032 73.9409C134.315 73.8538 134.576 73.7122 134.802 73.5245C135.028 73.3368 135.213 73.1067 135.347 72.8479C135.48 72.589 135.56 72.3066 135.58 72.0173C135.6 71.728 135.561 71.4376 135.465 71.1634Z" fill="#47CFFF"/>
<path d="M67.2517 59.5734H43.9184C43.2996 59.5734 42.7061 59.8266 42.2685 60.2774C41.8309 60.7281 41.5851 61.3395 41.5851 61.9769V70.795C41.5851 84.225 52.6392 88.6867 54.8559 89.4378C55.3262 89.6186 55.844 89.6186 56.3142 89.4378C58.5309 88.6867 69.5851 84.225 69.5851 70.795V61.9769C69.5851 61.3395 69.3392 60.7281 68.9017 60.2774C68.4641 59.8266 67.8706 59.5734 67.2517 59.5734ZM61.4913 73.2737L57.4663 74.6257L59.9601 78.156C60.0501 78.2829 60.1148 78.4269 60.1503 78.5797C60.1859 78.7326 60.1916 78.8911 60.1672 79.0463C60.1428 79.2014 60.0887 79.35 60.0081 79.4834C59.9275 79.6168 59.8219 79.7324 59.6976 79.8235C59.5017 79.9804 59.2603 80.065 59.0122 80.0638C58.8278 80.0621 58.6462 80.0164 58.4818 79.9304C58.3173 79.8444 58.1744 79.7204 58.0642 79.5681L55.5851 76.0378L53.1059 79.5681C52.9957 79.7204 52.8528 79.8444 52.6884 79.9304C52.5239 80.0164 52.3424 80.0621 52.158 80.0638C51.9098 80.065 51.6685 79.9804 51.4726 79.8235C51.3483 79.7324 51.2427 79.6168 51.1621 79.4834C51.0815 79.35 51.0274 79.2014 51.003 79.0463C50.9786 78.8911 50.9843 78.7326 51.0198 78.5797C51.0554 78.4269 51.1201 78.2829 51.2101 78.156L53.7038 74.6257L49.6788 73.2737C49.3856 73.1771 49.1413 72.9649 48.9992 72.6835C48.8572 72.4021 48.8289 72.0743 48.9205 71.7715C49.0175 71.4683 49.2262 71.2165 49.5017 71.0704C49.7773 70.9242 50.0975 70.8955 50.3934 70.9903L54.4184 72.3424V67.9859C54.4184 67.6671 54.5413 67.3615 54.7601 67.1361C54.9789 66.9107 55.2757 66.7841 55.5851 66.7841C55.8945 66.7841 56.1912 66.9107 56.41 67.1361C56.6288 67.3615 56.7517 67.6671 56.7517 67.9859V72.3424L60.7768 70.9903C61.0727 70.8955 61.3929 70.9242 61.6684 71.0704C61.944 71.2165 62.1527 71.4683 62.2497 71.7715C62.3413 72.0743 62.313 72.4021 62.1709 72.6835C62.0289 72.9649 61.7846 73.1771 61.4913 73.2737Z" fill="#47CFFF"/>
<defs>
<filter id="filter0_bdi_1_1498" x="0.585052" y="-6.86511" width="176" height="183.439" filterUnits="userSpaceOnUse" color-interpolation-filters="sRGB">
<feFlood flood-opacity="0" result="BackgroundImageFix"/>
<feGaussianBlur in="BackgroundImageFix" stdDeviation="10.7192"/>
<feComposite in2="SourceAlpha" operator="in" result="effect1_backgroundBlur_1_1498"/>
<feColorMatrix in="SourceAlpha" type="matrix" values="0 0 0 0 0 0 0 0 0 0 0 0 0 0 0 0 0 0 127 0" result="hardAlpha"/>
<feOffset dy="14"/>
<feGaussianBlur stdDeviation="14"/>
<feComposite in2="hardAlpha" operator="out"/>
<feColorMatrix type="matrix" values="0 0 0 0 0.804167 0 0 0 0 0.804167 0 0 0 0 0.804167 0 0 0 0.25 0"/>
<feBlend mode="normal" in2="effect1_backgroundBlur_1_1498" result="effect2_dropShadow_1_1498"/>
<feBlend mode="normal" in="SourceGraphic" in2="effect2_dropShadow_1_1498" result="shape"/>
<feColorMatrix in="SourceAlpha" type="matrix" values="0 0 0 0 0 0 0 0 0 0 0 0 0 0 0 0 0 0 127 0" result="hardAlpha"/>
<feOffset dx="-2.57262" dy="2.57262"/>
<feComposite in2="hardAlpha" operator="arithmetic" k2="-1" k3="1"/>
<feColorMatrix type="matrix" values="0 0 0 0 1 0 0 0 0 1 0 0 0 0 1 0 0 0 1 0"/>
<feBlend mode="normal" in2="shape" result="effect3_innerShadow_1_1498"/>
</filter>
<linearGradient id="paint0_linear_1_1498" x1="137.412" y1="58.9237" x2="33.3695" y2="47.0988" gradientUnits="userSpaceOnUse">
<stop stop-color="#F4F4F4"/>
<stop offset="0.421875" stop-color="#F4F4F4"/>
<stop offset="1" stop-color="white"/>
</linearGradient>
</defs>
</svg>
