<svg width="56" height="56" viewBox="0 0 56 56" fill="none" xmlns="http://www.w3.org/2000/svg">
<ellipse cx="28" cy="27.6586" rx="28" ry="27.5" fill="#EDEDFF"/>
<path d="M18.1058 38.0528C16.8673 36.8143 17.6885 34.2163 17.0558 32.6951C16.4231 31.174 14 29.8413 14 28.1586C14 26.4759 16.3962 25.197 17.0558 23.622C17.7154 22.047 16.8673 19.5028 18.1058 18.2643C19.3442 17.0259 21.9423 17.847 23.4635 17.2143C24.9846 16.5816 26.3173 14.1586 28 14.1586C29.6827 14.1586 30.9615 16.5547 32.5365 17.2143C34.1115 17.874 36.6558 17.0259 37.8942 18.2643C39.1327 19.5028 38.3115 22.1009 38.9442 23.622C39.5769 25.1432 42 26.4759 42 28.1586C42 29.8413 39.6038 31.1201 38.9442 32.6951C38.2846 34.2701 39.1327 36.8143 37.8942 38.0528C36.6558 39.2913 34.0577 38.4701 32.5365 39.1028C31.0154 39.7355 29.6827 42.1586 28 42.1586C26.3173 42.1586 25.0385 39.7624 23.4635 39.1028C21.8885 38.4432 19.3442 39.2913 18.1058 38.0528Z" stroke="#928EF2" stroke-width="2" stroke-linecap="round" stroke-linejoin="round"/>
<path d="M32 24.1586L24 32.1586" stroke="#928EF2" stroke-width="2" stroke-linecap="round" stroke-linejoin="round"/>
<path d="M25 26.1586C25.5523 26.1586 26 25.7109 26 25.1586C26 24.6063 25.5523 24.1586 25 24.1586C24.4477 24.1586 24 24.6063 24 25.1586C24 25.7109 24.4477 26.1586 25 26.1586Z" stroke="#928EF2" stroke-width="2" stroke-linecap="round" stroke-linejoin="round"/>
<path d="M31 32.1586C31.5523 32.1586 32 31.7109 32 31.1586C32 30.6063 31.5523 30.1586 31 30.1586C30.4477 30.1586 30 30.6063 30 31.1586C30 31.7109 30.4477 32.1586 31 32.1586Z" stroke="#928EF2" stroke-width="2" stroke-linecap="round" stroke-linejoin="round"/>
</svg>
