<svg width="66" height="64" viewBox="0 0 66 64" fill="none" xmlns="http://www.w3.org/2000/svg">
<circle cx="44.3846" cy="42.4883" r="21.5" fill="#F5C9E9"/>
<path d="M10.3895 51.4835C7.82407 48.9181 9.52503 43.5364 8.21445 40.3854C6.90387 37.2344 1.88464 34.4739 1.88464 30.9883C1.88464 27.5027 6.84811 24.8537 8.21445 21.5912C9.5808 18.3287 7.82407 13.0585 10.3895 10.4931C12.9548 7.9277 18.3366 9.62867 21.4875 8.31809C24.6385 7.00751 27.3991 1.98828 30.8846 1.98828C34.3702 1.98828 37.0193 6.95174 40.2818 8.31809C43.5443 9.68444 48.8144 7.9277 51.3798 10.4931C53.9452 13.0585 52.2443 18.4402 53.5548 21.5912C54.8654 24.7421 59.8846 27.5027 59.8846 30.9883C59.8846 34.4739 54.9212 37.1229 53.5548 40.3854C52.1885 43.6479 53.9452 48.9181 51.3798 51.4835C48.8144 54.0489 43.4327 52.3479 40.2818 53.6585C37.1308 54.969 34.3702 59.9883 30.8846 59.9883C27.3991 59.9883 24.75 55.0248 21.4875 53.6585C18.225 52.2921 12.9548 54.0489 10.3895 51.4835Z" stroke="#303030" stroke-width="3" stroke-linecap="round" stroke-linejoin="round"/>
<path d="M42.8846 23.9883L26.8756 39.9883L18.8846 31.9883" stroke="#303030" stroke-width="3" stroke-linecap="round" stroke-linejoin="round"/>
</svg>
