<svg xmlns="http://www.w3.org/2000/svg" xmlns:xlink="http://www.w3.org/1999/xlink" viewBox="0 0 28.61 31.81"><defs><style>.cls-1{fill-opacity:0.93;fill:url(#Dégradé_sans_nom_2);}.cls-2{fill:#363e6c;}.cls-3{fill:#fff;}.cls-4{fill:#eff2fb;}.cls-5{fill:#37bff0;}.cls-6{fill:#bbcae9;}.cls-7{fill:#121212;fill-rule:evenodd;}</style><linearGradient id="Dégradé_sans_nom_2" x1="213.44" y1="62.19" x2="188.75" y2="64.71" gradientTransform="matrix(1, 0, 0, -1, -187.99, 79.23)" gradientUnits="userSpaceOnUse"><stop offset="0" stop-color="#f4f3f4"/><stop offset="0.42" stop-color="#f4f3f4"/><stop offset="1" stop-color="#fff"/></linearGradient></defs><g id="Calque_2" data-name="Calque 2"><g id="Calque_1-2" data-name="Calque 1"><rect class="cls-1" x="0.1" y="0.09" width="28.41" height="31.63" rx="3.23" transform="translate(-0.13 0.11) rotate(-0.46)"/><path class="cls-2" d="M2.76,3.68,2.6,3.8a.45.45,0,0,0,.1.14.46.46,0,0,0,.16.11.4.4,0,0,0,.19,0,.39.39,0,0,0,.15,0A.47.47,0,0,0,3.32,4a.31.31,0,0,0,.09-.11.33.33,0,0,0,0-.15.37.37,0,0,0,0-.12.36.36,0,0,0-.07-.1l-.09-.07-.11,0L3,3.34l-.09-.06a.19.19,0,0,1,0-.07.11.11,0,0,1,0-.08.15.15,0,0,1,.1,0s.07,0,.09,0a.18.18,0,0,1,.07,0,.19.19,0,0,1,.06.07l.18-.1A.44.44,0,0,0,3.35,3a.34.34,0,0,0-.14-.09A.34.34,0,0,0,3,2.9a.58.58,0,0,0-.19,0,.28.28,0,0,0-.13.11.25.25,0,0,0,0,.17.32.32,0,0,0,0,.14.24.24,0,0,0,.08.09l.1.07.09,0,.13.06a.16.16,0,0,1,.08.05.12.12,0,0,1,0,.09.13.13,0,0,1,0,.1.2.2,0,0,1-.11,0,.25.25,0,0,1-.12,0l-.09-.07A.44.44,0,0,1,2.76,3.68Zm.79-.37v.17H4V3.3Zm.13-.26v1h.2V3Zm.64.76a.13.13,0,0,1,0-.06l0,0h.2l.1,0v-.1l0,0-.09,0-.13,0a.4.4,0,0,0-.21.07.18.18,0,0,0-.07.17.25.25,0,0,0,0,.13.39.39,0,0,0,.1.08.27.27,0,0,0,.13,0A.27.27,0,0,0,4.5,4,.25.25,0,0,0,4.6,4a.16.16,0,0,0,0-.12l0-.09a.29.29,0,0,1,0,.09.17.17,0,0,1-.06.06l-.09,0H4.38a.1.1,0,0,1,0,0A.07.07,0,0,1,4.32,3.81Zm-.09-.3,0,0,.08,0h.16l.05,0,0,0a.09.09,0,0,1,0,0V4h.2V3.51a.18.18,0,0,0,0-.13.25.25,0,0,0-.12-.08.32.32,0,0,0-.17,0,.58.58,0,0,0-.19,0l-.14.06ZM5,3.29v.17h.46V3.28ZM5.07,3V4h.21l0-1Zm.47,0a.13.13,0,0,0,0,.09.16.16,0,0,0,.09,0,.12.12,0,0,0,.09,0,.16.16,0,0,0,0-.09.11.11,0,0,0,0-.08s-.06,0-.09,0A.12.12,0,0,0,5.54,3Zm0,.29V4h.2V3.28Zm.51.48L6,3.89,6.07,4l.12,0,.15,0A.32.32,0,0,0,6.54,4a.27.27,0,0,0,.07-.18.2.2,0,0,0,0-.11.31.31,0,0,0-.09-.07l-.11-.05-.09,0,0,0a.06.06,0,0,1,0,0,.06.06,0,0,1,0,0h.06l.11,0,.1.07.09-.13L6.5,3.31l-.1,0H6.28l-.13,0-.1.07a.2.2,0,0,0,0,.11.21.21,0,0,0,0,.12.27.27,0,0,0,.08.07l.1,0,.1,0,0,0s0,0,0,.05a.08.08,0,0,1,0,0l-.07,0H6.24l-.07,0Zm.61-.49v.17h.46V3.26ZM6.81,3l0,1H7V3Zm.48,0a.11.11,0,0,0,0,.09.11.11,0,0,0,.08,0,.11.11,0,0,0,.09-.2.1.1,0,0,0-.09,0,.18.18,0,0,0-.09,0A.11.11,0,0,0,7.29,3Zm0,.29V4h.21V3.26Zm.63.36a.23.23,0,0,1,0-.11.14.14,0,0,1,.08-.07.2.2,0,0,1,.11,0h.09l.08,0,.06.06V3.31s-.06,0-.1-.06l-.14,0a.47.47,0,0,0-.21.06.32.32,0,0,0-.15.13.36.36,0,0,0,0,.21.46.46,0,0,0,0,.2A.37.37,0,0,0,7.93,4a.42.42,0,0,0,.22,0l.14,0,.1-.06V3.72a.17.17,0,0,1-.06.06.2.2,0,0,1-.08,0l-.09,0a.2.2,0,0,1-.11,0A.27.27,0,0,1,8,3.74.21.21,0,0,1,7.94,3.62Z"/><rect class="cls-3" x="2.5" y="5.23" width="24.21" height="24.21" rx="2.42" transform="translate(-0.21 0.18) rotate(-0.68)"/><path class="cls-4" d="M23.57,13.84h0a.12.12,0,0,1,.12.12l.12,10.25a.12.12,0,0,1-.12.12h0a.12.12,0,0,1-.12-.12L23.45,14A.11.11,0,0,1,23.57,13.84Z"/><path class="cls-5" d="M23.65,21.1h0a.22.22,0,0,1,.21.2l0,2.83a.2.2,0,0,1-.2.2h0a.2.2,0,0,1-.2-.2l0-2.82A.2.2,0,0,1,23.65,21.1Z"/><path class="cls-6" d="M23.49,26.08h.08v-.66h-.08l-.17.13v.08l.17-.13h0Zm.29-.47h.08a.13.13,0,0,1,.14-.13.12.12,0,0,1,.12.12c0,.05,0,.09-.1.18l-.24.25v.06h.43V26H23.9l.15-.16c.12-.13.16-.19.16-.26A.2.2,0,0,0,24,25.4.2.2,0,0,0,23.78,25.61Z"/><path class="cls-4" d="M22,13.86h0a.12.12,0,0,1,.12.12l.13,10.25a.13.13,0,0,1-.12.12h0a.13.13,0,0,1-.13-.12L21.91,14A.12.12,0,0,1,22,13.86Z"/><path class="cls-5" d="M22.12,21.12h0a.2.2,0,0,1,.2.2l0,2.82a.21.21,0,0,1-.2.21h0a.21.21,0,0,1-.21-.2l0-2.83A.2.2,0,0,1,22.12,21.12Z"/><path class="cls-6" d="M22,26.1h.08v-.67H22l-.18.13v.09l.18-.13h0Zm.46,0h.08v-.66h-.08l-.17.13v.08l.17-.12h0Z"/><path class="cls-4" d="M20.58,13.87h0a.12.12,0,0,1,.12.12l.12,10.25a.13.13,0,0,1-.12.13h0a.13.13,0,0,1-.12-.12L20.46,14A.13.13,0,0,1,20.58,13.87Z"/><path class="cls-5" d="M20.66,20.33h0a.2.2,0,0,1,.2.2l0,3.63a.2.2,0,0,1-.2.21h0a.2.2,0,0,1-.2-.2l0-3.64A.2.2,0,0,1,20.66,20.33Z"/><path class="cls-6" d="M20.5,26.12h.08v-.66H20.5l-.18.13v.08l.18-.12h0Zm.53,0c.16,0,.24-.14.24-.35s-.09-.34-.25-.33-.24.13-.24.34S20.88,26.12,21,26.12Zm0-.07c-.1,0-.16-.11-.16-.27s.05-.27.15-.27.17.1.17.27S21.13,26.05,21,26.05Z"/><path class="cls-4" d="M19,13.89h0a.13.13,0,0,1,.12.12l.12,10.25a.12.12,0,0,1-.12.12h0a.11.11,0,0,1-.12-.11L18.85,14A.13.13,0,0,1,19,13.89Z"/><path class="cls-5" d="M19.08,23.17h0a.2.2,0,0,1,.2.2v.81a.2.2,0,0,1-.2.2h0a.19.19,0,0,1-.2-.19v-.81A.22.22,0,0,1,19.08,23.17Z"/><path class="cls-7" d="M4.08,9.37a0,0,0,0,1,0,0l.2-.23h.05a0,0,0,0,1,0,.05l-.14.16,1.1-.07s0,0,0,0,0,0,0,0l-1.11.06.16.15s0,0,0,.05h0Z"/><path class="cls-7" d="M24.82,9.28s0,0,0,0L24.58,9a0,0,0,0,0,0,0,0,0,0,0,0,0,0l.17.14-1.11.1a0,0,0,0,0,0,0s0,0,0,0l1.1-.09-.14.16s0,0,0,0h.05Z"/><path class="cls-2" d="M7.88,9.19A.24.24,0,0,1,8,9.28a.24.24,0,0,1,.07.18A.28.28,0,0,1,8,9.68a.4.4,0,0,1-.27.09H7.3V8.65h.44A.4.4,0,0,1,8,8.72a.26.26,0,0,1,.09.21A.29.29,0,0,1,8,9.1.38.38,0,0,1,7.88,9.19Zm-.4-.06H7.7a.25.25,0,0,0,.15-.05A.17.17,0,0,0,7.9,9a.14.14,0,0,0-.06-.12.21.21,0,0,0-.15-.05H7.48Zm.23.49a.25.25,0,0,0,.16,0,.19.19,0,0,0,0-.13.17.17,0,0,0,0-.13.29.29,0,0,0-.17-.05H7.48v.36Zm1.41-.73v.87H8.94V9.57a.33.33,0,0,1-.11.15.32.32,0,0,1-.19,0,.33.33,0,0,1-.25-.09A.41.41,0,0,1,8.3,9.4V8.89h.18v.49a.24.24,0,0,0,.06.18.21.21,0,0,0,.16.06.23.23,0,0,0,.18-.07.28.28,0,0,0,.06-.2V8.89Zm.54,0A.37.37,0,0,1,9.91,9a.37.37,0,0,1,.12.21H9.85a.11.11,0,0,0-.06-.11A.17.17,0,0,0,9.66,9a.15.15,0,0,0-.11,0,.11.11,0,0,0,0,.08.09.09,0,0,0,0,.07s0,0,.06,0l.12,0,.16.05a.23.23,0,0,1,.1.07.2.2,0,0,1,0,.14A.23.23,0,0,1,10,9.7a.34.34,0,0,1-.22.07.4.4,0,0,1-.26-.08.33.33,0,0,1-.13-.21h.18a.23.23,0,0,0,.06.12.33.33,0,0,0,.15,0,.15.15,0,0,0,.1,0,.12.12,0,0,0,0-.09.11.11,0,0,0,0-.08l-.07,0-.12,0-.15,0a.41.41,0,0,1-.11-.07.29.29,0,0,1,0-.14.25.25,0,0,1,.08-.18A.42.42,0,0,1,9.66,8.87Zm.57-.24a.1.1,0,0,1,.11-.11.12.12,0,0,1,.09,0,.09.09,0,0,1,0,.07.1.1,0,0,1,0,.08.11.11,0,0,1-.08,0,.12.12,0,0,1-.09,0A.09.09,0,0,1,10.23,8.63Zm.21.25v.87h-.18V8.88Zm.74,0a.32.32,0,0,1,.25.1.39.39,0,0,1,.09.28v.51h-.18V9.26a.24.24,0,0,0-.06-.18A.21.21,0,0,0,11.11,9a.24.24,0,0,0-.17.07.33.33,0,0,0-.06.21v.46H10.7V8.88h.19v.19A.25.25,0,0,1,11,8.92.33.33,0,0,1,11.18,8.86Zm1.4.4a.21.21,0,0,1,0,.08h-.67a.28.28,0,0,0,.07.2.24.24,0,0,0,.18.07.25.25,0,0,0,.15,0,.19.19,0,0,0,.07-.12h.2a.46.46,0,0,1-.07.16.44.44,0,0,1-.15.12.59.59,0,0,1-.2,0,.4.4,0,0,1-.22-.06.28.28,0,0,1-.15-.15.48.48,0,0,1-.06-.24.6.6,0,0,1,0-.24.46.46,0,0,1,.15-.16.56.56,0,0,1,.23-.05.48.48,0,0,1,.22.05.36.36,0,0,1,.15.15A.35.35,0,0,1,12.58,9.26Zm-.18,0a.26.26,0,0,0,0-.14A.2.2,0,0,0,12.28,9a.24.24,0,0,0-.12,0,.29.29,0,0,0-.18.07.27.27,0,0,0-.07.19Zm.68-.4a.33.33,0,0,1,.25.07.37.37,0,0,1,.12.21h-.18A.17.17,0,0,0,13.08,9,.18.18,0,0,0,13,9a.12.12,0,0,0,0,.09.07.07,0,0,0,0,.06s0,0,.06,0l.12,0,.16,0a.23.23,0,0,1,.1.07.22.22,0,0,1,.05.14.2.2,0,0,1-.09.18.31.31,0,0,1-.22.07.4.4,0,0,1-.26-.07.33.33,0,0,1-.13-.22h.18a.23.23,0,0,0,.06.12.24.24,0,0,0,.15,0,.15.15,0,0,0,.1,0,.1.1,0,0,0,0-.09.09.09,0,0,0,0-.07l-.07,0-.12,0-.15,0a.26.26,0,0,1-.11-.07.25.25,0,0,1,0-.13.22.22,0,0,1,.08-.18A.35.35,0,0,1,13.08,8.86Zm.88,0a.39.39,0,0,1,.25.08.31.31,0,0,1,.11.21h-.17A.23.23,0,0,0,14.09,9,.25.25,0,0,0,14,9a.18.18,0,0,0-.11,0,.16.16,0,0,0,0,.09.08.08,0,0,0,0,.07l.07,0,.12,0,.15,0a.31.31,0,0,1,.11.08.2.2,0,0,1,0,.14.19.19,0,0,1-.08.18.36.36,0,0,1-.22.07.46.46,0,0,1-.27-.08.37.37,0,0,1-.12-.21h.18a.11.11,0,0,0,.06.11.25.25,0,0,0,.15,0,.13.13,0,0,0,.1,0,.12.12,0,0,0,0-.08.11.11,0,0,0,0-.08l-.07,0-.12,0-.16,0-.1-.07a.21.21,0,0,1,0-.14.25.25,0,0,1,.08-.18A.33.33,0,0,1,14,8.85Zm1.74.58a.26.26,0,0,1,0,.15.23.23,0,0,1-.12.12.38.38,0,0,1-.19,0,.46.46,0,0,1-.21,0A.31.31,0,0,1,15,9.59a.36.36,0,0,1-.07-.17h.2a.14.14,0,0,0,.06.12.2.2,0,0,0,.15.06.17.17,0,0,0,.12,0,.16.16,0,0,0,0-.11.15.15,0,0,0,0-.1.18.18,0,0,0-.09-.06l-.13,0-.17-.07a.28.28,0,0,1-.12-.1.25.25,0,0,1,0-.16.29.29,0,0,1,0-.16.28.28,0,0,1,.13-.11.54.54,0,0,1,.19,0,.35.35,0,0,1,.27.08.28.28,0,0,1,.12.21h-.2a.17.17,0,0,0-.06-.1.15.15,0,0,0-.13,0,.16.16,0,0,0-.12,0,.14.14,0,0,0-.05.11.17.17,0,0,0,0,.1l.08,0,.14.05.17.07a.21.21,0,0,1,.11.1A.23.23,0,0,1,15.7,9.43Zm.66.14v.15h-.11A.28.28,0,0,1,16,9.66.3.3,0,0,1,16,9.43V9h-.13V8.85H16V8.63h.19v.22h.21V9h-.21v.43a.11.11,0,0,0,.13.13Zm.56-.73a.39.39,0,0,1,.2.05.28.28,0,0,1,.12.16v-.2h.18v.87h-.18v-.2a.44.44,0,0,1-.12.15.37.37,0,0,1-.21.06.35.35,0,0,1-.2-.05.36.36,0,0,1-.14-.16.41.41,0,0,1,0-.23.45.45,0,0,1,0-.24.36.36,0,0,1,.14-.16A.42.42,0,0,1,16.92,8.84ZM17,9a.26.26,0,0,0-.27.29.36.36,0,0,0,.07.22.27.27,0,0,0,.2.07.32.32,0,0,0,.14,0,.24.24,0,0,0,.09-.11.33.33,0,0,0,0-.15.37.37,0,0,0,0-.15.32.32,0,0,0-.1-.1A.28.28,0,0,0,17,9Zm1.14.57v.16H18a.33.33,0,0,1-.21-.07.28.28,0,0,1-.07-.22V9H17.6V8.84h.12V8.63h.19v.21h.21V9h-.21v.43a.13.13,0,0,0,0,.1.12.12,0,0,0,.09,0Zm1-.33v.08h-.68a.28.28,0,0,0,.08.2.22.22,0,0,0,.17.07.25.25,0,0,0,.15-.05.16.16,0,0,0,.08-.12h.19a.33.33,0,0,1-.07.16.26.26,0,0,1-.14.11.45.45,0,0,1-.2,0,.4.4,0,0,1-.22-.05.39.39,0,0,1-.16-.15.6.6,0,0,1,0-.48.46.46,0,0,1,.15-.16.56.56,0,0,1,.23-.05.4.4,0,0,1,.22.05.43.43,0,0,1,.15.15A.46.46,0,0,1,19.14,9.23Zm-.18,0a.26.26,0,0,0,0-.14A.2.2,0,0,0,18.84,9l-.12,0a.24.24,0,0,0-.18.07.28.28,0,0,0-.08.19ZM19.54,9a.33.33,0,0,1,.12-.14.41.41,0,0,1,.19,0V9H19.8a.29.29,0,0,0-.19.06.21.21,0,0,0-.07.19v.44h-.18V8.84h.19Zm.84-.19a.32.32,0,0,1,.2.06A.29.29,0,0,1,20.7,9v-.2h.18v.88a.51.51,0,0,1-.05.22.43.43,0,0,1-.15.15.48.48,0,0,1-.22.05.56.56,0,0,1-.3-.08A.42.42,0,0,1,20,9.81h.18a.18.18,0,0,0,.09.12.25.25,0,0,0,.16,0,.28.28,0,0,0,.18-.06.3.3,0,0,0,.06-.2V9.5a.36.36,0,0,1-.11.16.37.37,0,0,1-.21.06.36.36,0,0,1-.2-.06A.29.29,0,0,1,20,9.51.66.66,0,0,1,20,9a.44.44,0,0,1,.14-.16A.46.46,0,0,1,20.38,8.82Zm.05.16a.22.22,0,0,0-.19.08.28.28,0,0,0-.07.21.33.33,0,0,0,.07.21.28.28,0,0,0,.2.08.28.28,0,0,0,.13,0,.32.32,0,0,0,.1-.1.4.4,0,0,0,0-.15.41.41,0,0,0,0-.16l-.1-.1A.29.29,0,0,0,20.43,9Zm.81-.15.27.64.24-.65H22l-.53,1.3h-.2l.19-.44L21,8.83Z"/><path class="cls-6" d="M18.87,26.15c.16,0,.25-.14.24-.35s-.09-.34-.24-.34-.25.14-.24.35S18.72,26.15,18.87,26.15Zm0-.08c-.1,0-.16-.1-.16-.26s.05-.27.16-.28.16.11.16.27S19,26.07,18.87,26.07Zm.6.07c.16,0,.26-.13.25-.36s-.13-.33-.25-.33a.22.22,0,0,0-.23.23.21.21,0,0,0,.22.22.19.19,0,0,0,.18-.11h0c0,.18-.06.28-.17.28a.13.13,0,0,1-.14-.09h-.08A.21.21,0,0,0,19.47,26.14Zm0-.31a.14.14,0,0,1-.15-.15.15.15,0,1,1,.15.15Z"/><path class="cls-4" d="M17.27,13.91h0a.14.14,0,0,1,.13.12l.12,10.25a.12.12,0,0,1-.12.12h0a.12.12,0,0,1-.13-.11L17.15,14A.14.14,0,0,1,17.27,13.91Z"/><rect class="cls-5" x="17.17" y="19.56" width="0.4" height="4.84" rx="0.2" transform="translate(-0.26 0.21) rotate(-0.68)"/><path class="cls-6" d="M17.18,26.17c.15,0,.24-.14.24-.35s-.09-.34-.25-.34-.24.14-.24.35S17,26.17,17.18,26.17Zm0-.08c-.11,0-.16-.1-.17-.26s.06-.27.16-.28.16.11.17.27S17.28,26.09,17.18,26.09Zm.61.07c.14,0,.24-.08.24-.19a.17.17,0,0,0-.14-.17h0a.16.16,0,0,0,.11-.15.2.2,0,0,0-.22-.18c-.12,0-.21.08-.21.18a.16.16,0,0,0,.12.15h0a.18.18,0,0,0-.14.17C17.55,26.08,17.65,26.16,17.79,26.16Zm0-.07a.15.15,0,0,1-.16-.12c0-.08.07-.13.16-.13s.16.05.16.12A.15.15,0,0,1,17.79,26.09Zm0-.32a.13.13,0,0,1-.14-.11c0-.07.06-.11.14-.11a.11.11,0,0,1,.13.1A.12.12,0,0,1,17.79,25.77Z"/><path class="cls-4" d="M15.66,13.93h0a.13.13,0,0,1,.12.12L15.9,24.3a.12.12,0,0,1-.12.12h0a.12.12,0,0,1-.12-.12l-.12-10.24A.12.12,0,0,1,15.66,13.93Z"/><rect class="cls-5" x="15.54" y="17.56" width="0.4" height="6.86" rx="0.2" transform="translate(-0.25 0.19) rotate(-0.68)"/><path class="cls-6" d="M15.56,26.19c.16,0,.25-.14.24-.35s-.09-.34-.24-.34-.25.14-.24.35S15.41,26.19,15.56,26.19Zm0-.08c-.1,0-.16-.1-.16-.27s0-.27.16-.27.16.11.16.27S15.67,26.11,15.56,26.11Zm.41.06h.09l.28-.59V25.5H15.9v.07h.35Z"/><path class="cls-4" d="M14,14h0a.12.12,0,0,1,.12.12l.13,10.25a.12.12,0,0,1-.12.12h0a.13.13,0,0,1-.13-.12l-.12-10.24A.13.13,0,0,1,14,14Z"/><rect class="cls-5" x="13.86" y="20.01" width="0.4" height="4.44" rx="0.2" transform="translate(-0.26 0.17) rotate(-0.68)"/><path class="cls-6" d="M13.87,26.21c.15,0,.24-.14.24-.35s-.09-.34-.25-.34-.24.14-.24.35S13.71,26.21,13.87,26.21Zm0-.08c-.11,0-.16-.1-.17-.27s.06-.27.16-.27.16.11.17.27S14,26.13,13.87,26.13Zm.63.07a.23.23,0,0,0,.23-.23.22.22,0,0,0-.23-.22.19.19,0,0,0-.18.11h0c0-.17.06-.27.17-.27a.12.12,0,0,1,.14.09h.08a.21.21,0,0,0-.22-.17c-.16,0-.25.14-.25.36S14.37,26.2,14.5,26.2Zm0-.07a.16.16,0,0,1-.15-.16.14.14,0,0,1,.15-.14.13.13,0,0,1,.15.14A.16.16,0,0,1,14.49,26.13Z"/><path class="cls-4" d="M12.27,14h0a.13.13,0,0,1,.12.12l.12,10.25a.12.12,0,0,1-.12.12h0a.12.12,0,0,1-.12-.12L12.15,14.1A.12.12,0,0,1,12.27,14Z"/><rect class="cls-5" x="12.16" y="18.82" width="0.4" height="5.65" rx="0.2" transform="matrix(1, -0.01, 0.01, 1, -0.26, 0.15)"/><path class="cls-6" d="M12.17,26.23c.16,0,.25-.14.24-.35s-.09-.34-.24-.34-.25.14-.24.35S12,26.23,12.17,26.23Zm0-.08c-.1,0-.16-.1-.16-.27s.06-.27.16-.27.16.11.16.27S12.28,26.15,12.17,26.15Zm.62.07A.22.22,0,0,0,13,26a.21.21,0,0,0-.22-.22.2.2,0,0,0-.15.07h0l0-.22H13v-.08H12.6l0,.38h.07a.16.16,0,0,1,.15-.08.15.15,0,0,1,.15.15.16.16,0,0,1-.15.16.14.14,0,0,1-.15-.12h-.08A.21.21,0,0,0,12.79,26.22Z"/><path class="cls-4" d="M10.57,14h0a.14.14,0,0,1,.13.12l.12,10.25a.12.12,0,0,1-.12.12h0a.11.11,0,0,1-.12-.12l-.13-10.24A.13.13,0,0,1,10.57,14Z"/><rect class="cls-5" x="10.47" y="19.64" width="0.4" height="4.84" rx="0.2" transform="translate(-0.26 0.13) rotate(-0.68)"/><path class="cls-6" d="M10.48,26.25c.15,0,.24-.14.24-.35s-.09-.34-.25-.34-.24.14-.24.35S10.33,26.25,10.48,26.25Zm0-.08c-.1,0-.16-.1-.17-.27s.06-.27.16-.27.16.11.17.27S10.58,26.17,10.48,26.17Zm.7.06h.08v-.14h.09V26h-.09v-.46h-.12a4,4,0,0,0-.28.46v.07h.33ZM10.93,26a3.84,3.84,0,0,1,.24-.39h0V26Z"/><path class="cls-4" d="M8.88,14h0a.12.12,0,0,1,.12.12l.12,10.25A.12.12,0,0,1,9,24.5H9a.12.12,0,0,1-.12-.12L8.76,14.14A.12.12,0,0,1,8.88,14Z"/><rect class="cls-5" x="8.77" y="19.66" width="0.4" height="4.84" rx="0.2" transform="translate(-0.26 0.11) rotate(-0.68)"/><path class="cls-6" d="M8.79,26.27c.15,0,.24-.14.24-.35s-.1-.34-.25-.34-.25.14-.24.35S8.63,26.27,8.79,26.27Zm0-.08c-.1,0-.16-.1-.16-.27s.06-.26.16-.27.16.11.16.27S8.89,26.19,8.78,26.19Zm.52-.25h.09c.09,0,.15,0,.15.13s-.06.12-.15.12a.14.14,0,0,1-.15-.12H9.16a.23.23,0,0,0,.46,0,.16.16,0,0,0-.16-.16h0a.17.17,0,0,0,.14-.16.19.19,0,0,0-.21-.17.21.21,0,0,0-.22.19h.08c0-.07.06-.11.14-.11a.1.1,0,0,1,.12.1.12.12,0,0,1-.13.12H9.3Z"/><path class="cls-4" d="M7.19,14h0a.13.13,0,0,1,.12.12L7.43,24.4a.13.13,0,0,1-.12.13h0a.12.12,0,0,1-.12-.12L7.07,14.16A.13.13,0,0,1,7.19,14Z"/><rect class="cls-5" x="7.09" y="22.1" width="0.4" height="2.42" rx="0.2" transform="translate(-0.28 0.09) rotate(-0.68)"/><path class="cls-6" d="M7.09,26.29c.16,0,.24-.14.24-.35s-.09-.34-.25-.34-.24.14-.24.35S6.94,26.29,7.09,26.29Zm0-.08c-.1,0-.16-.1-.16-.26s.05-.27.16-.28.16.11.16.27S7.2,26.21,7.09,26.21Zm.37-.41h.08a.13.13,0,0,1,.14-.13.12.12,0,0,1,.13.11c0,.06,0,.09-.11.19l-.23.24v.06h.44v-.08H7.58L7.74,26c.12-.13.15-.18.15-.25a.2.2,0,0,0-.21-.19A.21.21,0,0,0,7.46,25.8Z"/><path class="cls-4" d="M5.57,14.05h0a.12.12,0,0,1,.12.12l.12,10.25a.11.11,0,0,1-.12.12h0a.12.12,0,0,1-.12-.12L5.45,14.18A.12.12,0,0,1,5.57,14.05Z"/><rect class="cls-5" x="5.46" y="18.89" width="0.4" height="5.65" rx="0.2" transform="matrix(1, -0.01, 0.01, 1, -0.26, 0.07)"/><path class="cls-6" d="M5.56,26.3c.15,0,.24-.13.24-.34s-.1-.34-.25-.34-.24.14-.24.34S5.4,26.31,5.56,26.3Zm0-.07c-.11,0-.17-.1-.17-.27s.06-.27.16-.27.16.11.16.27S5.66,26.23,5.56,26.23Zm.54.06h.08v-.67H6.09l-.17.13v.09l.17-.13h0Z"/></g></g></svg>