<svg xmlns="http://www.w3.org/2000/svg" xmlns:xlink="http://www.w3.org/1999/xlink" viewBox="0 0 32.35 16.98"><defs><style>.cls-1{fill-opacity:0.93;fill:url(#Dégradé_sans_nom_2);}.cls-2,.cls-6,.cls-8{fill:none;}.cls-2{stroke-width:0.86px;stroke:url(#Dégradé_sans_nom_12);}.cls-3{fill:#363e6c;}.cls-4{fill:#4eb053;}.cls-5{fill:url(#Dégradé_sans_nom_11);}.cls-6{stroke:#24b8d2;}.cls-6,.cls-8{stroke-linecap:round;stroke-linejoin:round;stroke-width:1.72px;}.cls-7{fill:url(#Dégradé_sans_nom_10);}.cls-8{stroke:#7175b6;}</style><linearGradient id="Dégradé_sans_nom_2" x1="240.81" y1="158.57" x2="213.79" y2="164.48" gradientTransform="matrix(1, 0, 0, -1, -212.44, 169.73)" gradientUnits="userSpaceOnUse"><stop offset="0" stop-color="#f4f3f4"/><stop offset="0.42" stop-color="#f4f3f4"/><stop offset="1" stop-color="#fff"/></linearGradient><linearGradient id="Dégradé_sans_nom_12" x1="112.34" y1="257.21" x2="117.41" y2="244.53" gradientTransform="matrix(0.93, 0.36, 0.36, -0.93, -181.02, 202.59)" gradientUnits="userSpaceOnUse"><stop offset="0" stop-color="#dadada"/><stop offset="1" stop-color="#fff" stop-opacity="0"/></linearGradient><linearGradient id="Dégradé_sans_nom_11" x1="114.36" y1="251.83" x2="116.14" y2="247.18" gradientTransform="matrix(0.93, 0.36, 0.36, -0.93, -181.02, 202.59)" gradientUnits="userSpaceOnUse"><stop offset="0" stop-color="#71c8dd"/><stop offset="1" stop-color="#fff" stop-opacity="0"/></linearGradient><linearGradient id="Dégradé_sans_nom_10" x1="113.54" y1="253.95" x2="116.81" y2="245.5" gradientTransform="matrix(0.93, 0.36, 0.36, -0.93, -181.02, 202.59)" gradientUnits="userSpaceOnUse"><stop offset="0" stop-color="#5a61a9"/><stop offset="1" stop-color="#fff" stop-opacity="0"/></linearGradient></defs><g id="Calque_2" data-name="Calque 2"><g id="Calque_1-2" data-name="Calque 1"><rect class="cls-1" x="0.05" y="0.11" width="32.24" height="16.75" rx="1.86" transform="translate(-0.07 0.13) rotate(-0.46)"/><path class="cls-2" d="M5,2.88l.07,13.45M17.36,2.82l.07,13.46M11.28,2.85l.07,13.45M23.57,2.8l.06,13.45M8.05,2.86l.07,13.46M20.47,2.81l.06,13.45M14.32,2.84l.07,13.45M26.67,2.78l.07,13.46M2.5,14l27.3-.12M2.47,8.2l27.3-.11m-27.28,3L29.78,11M2.46,5.29l27.3-.12"/><path class="cls-3" d="M2.67,5a.33.33,0,0,0,0,.15.47.47,0,0,0,.1.1.35.35,0,0,0,.14,0,.2.2,0,0,0,.11,0l.09,0,.07-.06v.2L3.1,5.4l-.16,0a.57.57,0,0,1-.18,0,.31.31,0,0,1-.15-.1.5.5,0,0,1-.1-.14.48.48,0,0,1,0-.18.34.34,0,0,1,0-.18.36.36,0,0,1,.24-.24.58.58,0,0,1,.19,0l.15,0,.12.07v.2l-.07-.06a.19.19,0,0,0-.09,0H3a.28.28,0,0,0-.13,0,.27.27,0,0,0-.11.1A.33.33,0,0,0,2.67,5Zm.7.15a.42.42,0,0,1,0-.16.36.36,0,0,1,.28-.14.29.29,0,0,1,.16,0A.22.22,0,0,1,4,5a.28.28,0,0,1,0,.32.22.22,0,0,1-.11.1.42.42,0,0,1-.16,0,.38.38,0,0,1-.16,0,.4.4,0,0,1-.12-.1A.42.42,0,0,1,3.37,5.12Zm.17,0a.11.11,0,0,0,0,.08.1.1,0,0,0,0,.06.15.15,0,0,0,.21,0,.21.21,0,0,0,0-.18.16.16,0,0,0-.21,0,.12.12,0,0,0,0,0A.15.15,0,0,0,3.54,5.12Zm1-.06A.12.12,0,0,0,4.5,5s0,0-.07,0L4.37,5l0,0s0,0,0,.06v.35H4.16V4.83h.16v.09a.23.23,0,0,1,.07-.07.17.17,0,0,1,.1,0,.18.18,0,0,1,.15.06A.21.21,0,0,1,4.69,5v.37H4.53Zm.28-.22h.35V5H4.81Zm.1-.2h.15v.77H4.91Zm.48.59s0,0,0,0,0,0,0,0h.11l0,0a.14.14,0,0,0,0-.07l0,.07a.17.17,0,0,1,0,.1l-.08.05-.1,0-.1,0-.07-.06a.17.17,0,0,1,0-.1.15.15,0,0,1,.06-.13.25.25,0,0,1,.16-.05h.1l.07,0,0,0V5.2l-.07,0-.09,0H5.44l0,0S5.39,5.21,5.39,5.23ZM5.33,5l-.06-.11.11,0,.14,0,.13,0a.22.22,0,0,1,.09.07.15.15,0,0,1,0,.09v.41H5.62V5s0,0,0,0l0,0,0,0H5.43L5.37,5Zm.75.12s0,.07,0,.09,0,0,.06.06l.08,0h.08l.06,0,0,0v.16l-.08,0H6.23A.36.36,0,0,1,6,5.28a.42.42,0,0,1,0-.16A.25.25,0,0,1,6,5a.23.23,0,0,1,.11-.11.41.41,0,0,1,.16,0h.11l.08,0v.17a.1.1,0,0,0,0,0L6.31,5H6.24L6.16,5s0,0-.06.06A.19.19,0,0,0,6.08,5.12Zm.44-.28h.35V5H6.52Zm.1-.2h.16v.77H6.62ZM7.55,5a.28.28,0,0,0,0,.15l.1.1a.32.32,0,0,0,.14,0l.11,0L8,5.2l.07-.06v.2L8,5.41l-.16,0a.48.48,0,0,1-.18,0,.4.4,0,0,1-.15-.1.5.5,0,0,1-.1-.14.52.52,0,0,1,0-.18.58.58,0,0,1,0-.19.71.71,0,0,1,.1-.14.38.38,0,0,1,.15-.09.52.52,0,0,1,.18,0,.37.37,0,0,1,.16,0l.12.07v.2A.19.19,0,0,0,8,4.76l-.09,0H7.83a.35.35,0,0,0-.14,0,.32.32,0,0,0-.1.1A.24.24,0,0,0,7.55,5Zm.9-.14v.57H8.29V4.84ZM8.61,5l0,0h0s0,0,0,0,0,0,0,0a.15.15,0,0,0,0,.07l0,0a.21.21,0,0,1,0-.12.22.22,0,0,1,.07-.09.11.11,0,0,1,.08,0h.06l0,0Zm.44.42a.42.42,0,0,1-.16,0,.52.52,0,0,1-.11-.1.41.41,0,0,1,0-.16.38.38,0,0,1,0-.16.35.35,0,0,1,.11-.1.31.31,0,0,1,.17,0,.29.29,0,0,1,.16,0,.24.24,0,0,1,.1.1.33.33,0,0,1,0,.15v0H8.84V5.07h.37l0,0v0a.14.14,0,0,0,0-.07.1.1,0,0,0,0,0l-.07,0A.13.13,0,0,0,9,5a.09.09,0,0,0,0,.06.15.15,0,0,0,0,.1.25.25,0,0,0,0,.09s0,0,.05.06a.13.13,0,0,0,.09,0,.15.15,0,0,0,.09,0l.06-.06.14,0a.34.34,0,0,1-.12.12A.48.48,0,0,1,9.05,5.43Zm.57-.19a.06.06,0,0,0,0,0l0,0h.05l.07,0a.1.1,0,0,0,.05,0,.14.14,0,0,0,0-.07l0,.07a.12.12,0,0,1,0,.09.16.16,0,0,1-.08.06l-.1,0-.1,0-.08-.06a.3.3,0,0,1,0-.1.15.15,0,0,1,.06-.13.19.19,0,0,1,.16,0h.1s.05,0,.07,0l0,0v.07l-.08,0H9.66l0,0S9.62,5.22,9.62,5.24ZM9.56,5,9.5,4.9l.11-.05.14,0,.13,0,.09.06A.17.17,0,0,1,10,5v.41H9.85V5s0,0,0,0l0,0H9.66L9.6,5Zm.55-.16h.35V5h-.35Zm.1-.2h.15v.77h-.15Zm.64.78a.27.27,0,0,1-.16,0,.22.22,0,0,1-.11-.1.34.34,0,0,1,0-.32.27.27,0,0,1,.11-.1.34.34,0,0,1,.32,0,.24.24,0,0,1,.1.1.34.34,0,0,1,0,.16v0h-.51v-.1H11l0,.06v0A.17.17,0,0,0,11,5a.1.1,0,0,0-.05,0s0,0-.06,0a.11.11,0,0,0-.08,0,.1.1,0,0,0,0,.06.26.26,0,0,0,0,.2l0,.06.08,0,.09,0L11,5.23l.14,0a.34.34,0,0,1-.12.12A.29.29,0,0,1,10.85,5.43Zm.88-1h.16v1h-.16Zm-.47.68a.29.29,0,0,1,0-.16.24.24,0,0,1,.1-.1.31.31,0,0,1,.13,0,.28.28,0,0,1,.13,0,.24.24,0,0,1,.09.11.33.33,0,0,1,0,.15.35.35,0,0,1,0,.16.24.24,0,0,1-.09.11.28.28,0,0,1-.13,0,.31.31,0,0,1-.13,0,.27.27,0,0,1-.1-.11A.25.25,0,0,1,11.26,5.13Zm.17,0s0,.07,0,.09a.1.1,0,0,0,.05.06l.08,0,.07,0,.06-.06a.2.2,0,0,0,0-.09.29.29,0,0,0,0-.09l-.06,0-.07,0L11.5,5a.1.1,0,0,0-.05.06A.11.11,0,0,0,11.43,5.13Z"/><path class="cls-4" d="M26.11,4.75l.21,0v.69h.17V4.51l-.38.08Zm1.27.37a.41.41,0,0,0,0-.16l-.1-.1a.28.28,0,0,0-.13,0h-.07l-.07,0L27,4.68h.34V4.53H26.9L26.78,5l.08,0,.08,0H27l.08,0a.18.18,0,0,1,.07,0,.19.19,0,0,1,0,.08.11.11,0,0,1,0,.08.1.1,0,0,1-.06.05l-.09,0-.08,0-.08,0-.06-.05-.09.14.09.06.1,0,.15,0a.25.25,0,0,0,.12,0l.11,0a.24.24,0,0,0,.08-.09A.51.51,0,0,0,27.38,5.12Zm.12-.39a.23.23,0,0,0,0,.11.2.2,0,0,0,.08.08.2.2,0,0,0,.11,0,.27.27,0,0,0,.12,0,.3.3,0,0,0,.08-.08.31.31,0,0,0,0-.22.2.2,0,0,0-.08-.08.24.24,0,0,0-.12,0,.2.2,0,0,0-.11,0,.16.16,0,0,0-.08.08A.2.2,0,0,0,27.5,4.73Zm.13,0s0,0,0-.05l0,0,0,0,.05,0,0,0a.13.13,0,0,1,0,.1l0,0h-.1l0,0A.43.43,0,0,0,27.63,4.73Zm.43.47a.2.2,0,0,0,0,.11.3.3,0,0,0,.08.08.24.24,0,0,0,.12,0,.2.2,0,0,0,.11,0,.3.3,0,0,0,.08-.08.22.22,0,0,0,0-.22A.2.2,0,0,0,28.4,5a.2.2,0,0,0-.11,0,.24.24,0,0,0-.12,0,.2.2,0,0,0-.08.08A.2.2,0,0,0,28.06,5.2Zm.14,0a.09.09,0,0,1,0,0l0,0h.09s0,0,0,0a.13.13,0,0,1,0,.1l0,0h-.09l0,0A.09.09,0,0,1,28.2,5.2Zm0-.67-.63.87h.16l.63-.87Z"/><path class="cls-4" d="M29.52,4.61l.49.6-1,0Z"/><path class="cls-5" d="M8.31,9.31a7.31,7.31,0,0,0-6-.3l0,4.42,27.28,0,0-2.85a3.69,3.69,0,0,0-5.13-1.28c-3.32,1.78-5.38,1-7-.3a3,3,0,0,0-3.58.13A5.65,5.65,0,0,1,8.31,9.31Z"/><path class="cls-6" d="M2.34,9a7.25,7.25,0,0,1,6,.3,5.61,5.61,0,0,0,5.58-.15A3,3,0,0,1,17.46,9c1.61,1.33,3.67,2.08,7,.3a3.68,3.68,0,0,1,5.12,1.27"/><path class="cls-7" d="M13.1,9.89C7.57.72,2.59,11.59,2.38,11.59v1.5a2.2,2.2,0,0,0,2.2,2.19l22.85,0a2.21,2.21,0,0,0,2.2-2.2V8.73c-2.65,4.56-4.25,3.58-4.71,2.52C23.83,9.11,21,5.72,18.3,9.33S13.71,11.21,13.1,9.89Z"/><path class="cls-8" d="M2.4,11.58c.22,0,5.19-10.85,10.7-1.69.61,1.32,2.49,3,5.18-.56s5.53-.23,6.6,1.92c.47,1.06,2.06,2,4.7-2.52"/></g></g></svg>