<svg xmlns="http://www.w3.org/2000/svg" xmlns:xlink="http://www.w3.org/1999/xlink" viewBox="0 0 497.13 317.67"><defs><style>.cls-1{fill:#d0d0d0;}.cls-12,.cls-13,.cls-16,.cls-17,.cls-19,.cls-2,.cls-28,.cls-29,.cls-30,.cls-31,.cls-32,.cls-4,.cls-8{fill:none;}.cls-23,.cls-24,.cls-3,.cls-36,.cls-5{fill:#fff;}.cls-3{fill-opacity:0.93;}.cls-4{stroke-width:0.43px;stroke:url(#Dégradé_sans_nom);}.cls-6{fill:#c7eaff;}.cls-7{fill:#49bafd;}.cls-19,.cls-24,.cls-8{stroke:#94adc2;stroke-width:0.36px;}.cls-9{fill:#141414;}.cls-10{fill:#ffe1e8;}.cls-11{fill:#625ffb;}.cls-12,.cls-13,.cls-31,.cls-32{stroke:#141414;}.cls-12,.cls-13,.cls-16,.cls-17,.cls-29,.cls-30,.cls-31,.cls-32{stroke-linecap:round;stroke-linejoin:round;}.cls-12,.cls-13,.cls-16,.cls-17{stroke-width:0.72px;}.cls-13,.cls-17,.cls-19,.cls-24,.cls-29,.cls-32{isolation:isolate;}.cls-13,.cls-17,.cls-29,.cls-32{opacity:0.4;}.cls-14{fill:#94adc2;}.cls-15{fill:#56eaff;}.cls-16,.cls-17,.cls-35,.cls-36{stroke:#fff;}.cls-18{fill:#ff83be;}.cls-19{opacity:0.3;}.cls-20{fill:url(#Dégradé_sans_nom_2);}.cls-21{fill:url(#Dégradé_sans_nom_3);}.cls-22{fill:url(#Dégradé_sans_nom_4);}.cls-23{stroke:#625ffb;stroke-width:1.79px;}.cls-24{opacity:0.5;}.cls-25{clip-path:url(#clip-path);}.cls-26{fill:#93adc2;}.cls-27{fill:#76cbfd;}.cls-28{stroke:#c5e0f5;}.cls-28,.cls-36{stroke-width:0.27px;}.cls-29,.cls-30{stroke:#000;stroke-width:0.4px;}.cls-31,.cls-32{stroke-width:0.54px;}.cls-33{fill:#ffd546;}.cls-34{mask:url(#mask);}.cls-35{fill:#f5577a;stroke-width:0.81px;}</style><linearGradient id="Dégradé_sans_nom" x1="248.57" y1="539.24" x2="248.57" y2="986.77" gradientTransform="matrix(1, 0, 0, -1, 0, 841.89)" gradientUnits="userSpaceOnUse"><stop offset="0" stop-color="#d1d1d1"/><stop offset="1" stop-color="#fff"/></linearGradient><linearGradient id="Dégradé_sans_nom_2" x1="220.88" y1="735.78" x2="220.88" y2="668.32" gradientTransform="matrix(1, 0, 0, -1, 0, 841.89)" gradientUnits="userSpaceOnUse"><stop offset="0" stop-color="#5ce4f8"/><stop offset="1" stop-color="#d3efff" stop-opacity="0"/></linearGradient><linearGradient id="Dégradé_sans_nom_3" x1="220.7" y1="753.33" x2="220.7" y2="668.32" gradientTransform="matrix(1, 0, 0, -1, 0, 841.89)" gradientUnits="userSpaceOnUse"><stop offset="0" stop-color="#f064a7"/><stop offset="1" stop-color="#fff8de" stop-opacity="0"/></linearGradient><linearGradient id="Dégradé_sans_nom_4" x1="295.06" y1="754.58" x2="295.06" y2="668.32" gradientTransform="matrix(1, 0, 0, -1, 0, 841.89)" gradientUnits="userSpaceOnUse"><stop offset="0" stop-color="#eee"/><stop offset="1" stop-color="#c4c4c4" stop-opacity="0"/></linearGradient><clipPath id="clip-path"><rect class="cls-2" x="309.73" y="60.83" width="6.44" height="6.44"/></clipPath><mask id="mask" x="456.62" y="19.63" width="22.35" height="33" maskUnits="userSpaceOnUse"><g id="mask0_1_462" data-name="mask0 1 462"><rect class="cls-1" x="459.32" y="19.99" width="16.14" height="16.14" rx="5.38"/></g></mask></defs><g id="Calque_2" data-name="Calque 2"><g id="Calque_1-2" data-name="Calque 1"><rect class="cls-3" width="497.13" height="317.67" rx="12.76"/><rect class="cls-4" x="0.21" y="0.21" width="496.71" height="317.25" rx="12.55"/><rect class="cls-5" x="216.89" y="220.23" width="128.43" height="75.27" rx="12.53"/><path class="cls-6" d="M327.81,258h0a3.76,3.76,0,0,1,3.76,3.76v21.47a3.76,3.76,0,0,1-3.76,3.76h0a3.76,3.76,0,0,1-3.76-3.76V261.8A3.76,3.76,0,0,1,327.81,258Z"/><path class="cls-7" d="M327.81,272.36h0a3.76,3.76,0,0,1,3.76,3.75v7.16a3.76,3.76,0,0,1-3.76,3.76h0a3.76,3.76,0,0,1-3.76-3.76v-7.16A3.75,3.75,0,0,1,327.81,272.36Z"/><path class="cls-6" d="M312.42,258h0a3.76,3.76,0,0,1,3.76,3.76v21.47a3.76,3.76,0,0,1-3.76,3.76h0a3.76,3.76,0,0,1-3.76-3.76V261.8A3.76,3.76,0,0,1,312.42,258Z"/><path class="cls-7" d="M312.42,278.44h0a3.76,3.76,0,0,1,3.76,3.76v1.07a3.76,3.76,0,0,1-3.76,3.76h0a3.76,3.76,0,0,1-3.76-3.76V282.2A3.76,3.76,0,0,1,312.42,278.44Z"/><path class="cls-6" d="M297,258h0a3.75,3.75,0,0,1,3.75,3.76v21.47A3.75,3.75,0,0,1,297,287h0a3.76,3.76,0,0,1-3.76-3.76V261.8A3.76,3.76,0,0,1,297,258Z"/><path class="cls-7" d="M297,266.63h0a3.75,3.75,0,0,1,3.75,3.76v12.88A3.75,3.75,0,0,1,297,287h0a3.76,3.76,0,0,1-3.76-3.76V270.39A3.76,3.76,0,0,1,297,266.63Z"/><path class="cls-6" d="M281.64,258h0a3.75,3.75,0,0,1,3.75,3.76v21.47a3.75,3.75,0,0,1-3.75,3.76h0a3.76,3.76,0,0,1-3.76-3.76V261.8A3.76,3.76,0,0,1,281.64,258Z"/><path class="cls-7" d="M281.64,269.13h0a3.76,3.76,0,0,1,3.75,3.76v10.38a3.75,3.75,0,0,1-3.75,3.76h0a3.76,3.76,0,0,1-3.76-3.76V272.89A3.76,3.76,0,0,1,281.64,269.13Z"/><path class="cls-6" d="M266.25,258h0A3.75,3.75,0,0,1,270,261.8v21.47a3.75,3.75,0,0,1-3.75,3.76h0a3.76,3.76,0,0,1-3.76-3.76V261.8A3.76,3.76,0,0,1,266.25,258Z"/><path class="cls-7" d="M266.25,272.36h0a3.75,3.75,0,0,1,3.75,3.75v7.16a3.75,3.75,0,0,1-3.75,3.76h0a3.76,3.76,0,0,1-3.76-3.76v-7.16A3.75,3.75,0,0,1,266.25,272.36Z"/><path class="cls-6" d="M250.86,258h0a3.75,3.75,0,0,1,3.75,3.76v21.47a3.75,3.75,0,0,1-3.75,3.76h0a3.76,3.76,0,0,1-3.76-3.76V261.8A3.76,3.76,0,0,1,250.86,258Z"/><path class="cls-7" d="M250.86,265.2h0a3.75,3.75,0,0,1,3.75,3.76v14.31a3.75,3.75,0,0,1-3.75,3.76h0a3.76,3.76,0,0,1-3.76-3.76V269A3.76,3.76,0,0,1,250.86,265.2Z"/><path class="cls-6" d="M235.47,258h0a3.75,3.75,0,0,1,3.75,3.76v21.47a3.75,3.75,0,0,1-3.75,3.76h0a3.76,3.76,0,0,1-3.76-3.76V261.8A3.76,3.76,0,0,1,235.47,258Z"/><path class="cls-7" d="M235.47,276.29h0a3.76,3.76,0,0,1,3.75,3.76v3.22a3.75,3.75,0,0,1-3.75,3.76h0a3.76,3.76,0,0,1-3.76-3.76v-3.22A3.76,3.76,0,0,1,235.47,276.29Z"/><path class="cls-8" d="M331.57,237.91a.81.81,0,0,1-.81.81.81.81,0,1,1,.81-.81Zm-1.61,3a.8.8,0,0,1,.8-.81.81.81,0,1,1,0,1.61A.8.8,0,0,1,330,240.87Zm0,2.95a.81.81,0,0,1,.8-.81.82.82,0,0,1,.81.81.81.81,0,0,1-.81.8A.8.8,0,0,1,330,243.82Z"/><path class="cls-9" d="M232.62,240.08l2,3h1.27l-2.12-3Zm-1.29-3.28v6.26h1.06V236.8Zm.63.91h1.26a1.54,1.54,0,0,1,.63.13.95.95,0,0,1,.58.93,1.05,1.05,0,0,1-.15.57,1,1,0,0,1-.43.36,1.54,1.54,0,0,1-.63.12H232v.87h1.3a2.75,2.75,0,0,0,1.19-.24,1.79,1.79,0,0,0,.78-.68,2,2,0,0,0,0-2.05,1.79,1.79,0,0,0-.78-.68,2.75,2.75,0,0,0-1.19-.24H232Zm6.4,5.44a2.6,2.6,0,0,0,1.23-.27,2.16,2.16,0,0,0,.83-.84l-.83-.34a1.38,1.38,0,0,1-.49.5,1.53,1.53,0,0,1-.69.16,1.33,1.33,0,0,1-.65-.16,1.07,1.07,0,0,1-.39-.47,1.91,1.91,0,0,1-.14-.76,2,2,0,0,1,.15-.75,1.07,1.07,0,0,1,.39-.47,1.25,1.25,0,0,1,.63-.16,1,1,0,0,1,.53.14.89.89,0,0,1,.35.37,1.15,1.15,0,0,1,.14.57.41.41,0,0,1,0,.17,1.09,1.09,0,0,1,0,.14l.29-.41h-2.79v.66h3.62s0-.06,0-.12,0-.1,0-.15a2.33,2.33,0,0,0-.26-1.13,1.71,1.71,0,0,0-.69-.72,2.56,2.56,0,0,0-2.25,0,1.84,1.84,0,0,0-.75.74,2.4,2.4,0,0,0-.26,1.14,2.34,2.34,0,0,0,.26,1.12,1.85,1.85,0,0,0,.73.76A2.39,2.39,0,0,0,238.36,243.15Zm2.27-4.2,2.13,4.49L244.9,239h-1.07l-1.07,2.66L241.69,239Zm6.53,4.2a2.6,2.6,0,0,0,1.23-.27,2.16,2.16,0,0,0,.83-.84l-.83-.34a1.38,1.38,0,0,1-.49.5,1.53,1.53,0,0,1-.69.16,1.33,1.33,0,0,1-.65-.16,1.07,1.07,0,0,1-.39-.47A1.91,1.91,0,0,1,246,241a2,2,0,0,1,.15-.75,1.07,1.07,0,0,1,.39-.47,1.23,1.23,0,0,1,.63-.16,1,1,0,0,1,.53.14.89.89,0,0,1,.35.37,1.15,1.15,0,0,1,.14.57.41.41,0,0,1,0,.17,1.09,1.09,0,0,1-.05.14l.29-.41h-2.79v.66h3.62s0-.06,0-.12V241a2.33,2.33,0,0,0-.25-1.13,1.71,1.71,0,0,0-.69-.72,2.56,2.56,0,0,0-2.25,0,1.84,1.84,0,0,0-.75.74,2.4,2.4,0,0,0-.26,1.14,2.34,2.34,0,0,0,.26,1.12,1.85,1.85,0,0,0,.73.76A2.33,2.33,0,0,0,247.16,243.15Zm5.68-2.59v2.5h1v-2.61a1.68,1.68,0,0,0-.37-1.16,1.3,1.3,0,0,0-1.06-.43,1.49,1.49,0,0,0-.75.18,1.38,1.38,0,0,0-.5.54V239h-1v4.11h1v-2.5a.9.9,0,0,1,.12-.48.73.73,0,0,1,.32-.33,1.06,1.06,0,0,1,.48-.11.69.69,0,0,1,.58.23A1.09,1.09,0,0,1,252.84,240.56Zm3.22.89V239h-1v2.61a1.73,1.73,0,0,0,.37,1.16,1.33,1.33,0,0,0,1.06.43,1.42,1.42,0,0,0,.74-.18,1.33,1.33,0,0,0,.51-.54v.63h1V239h-1v2.5a1,1,0,0,1-.12.5.89.89,0,0,1-.32.32,1.06,1.06,0,0,1-.48.11.7.7,0,0,1-.58-.25A1.1,1.1,0,0,1,256.06,241.45Zm5.67,1.7a2.56,2.56,0,0,0,1.22-.27,2.26,2.26,0,0,0,.84-.84l-.84-.34a1.31,1.31,0,0,1-.49.5,1.46,1.46,0,0,1-.69.16,1.29,1.29,0,0,1-.64-.16,1,1,0,0,1-.39-.47,1.91,1.91,0,0,1-.14-.76,2,2,0,0,1,.14-.75,1.09,1.09,0,0,1,.4-.47,1.21,1.21,0,0,1,.62-.16,1,1,0,0,1,.53.14.86.86,0,0,1,.36.37,1.14,1.14,0,0,1,.13.57.61.61,0,0,1,0,.17c0,.06,0,.1-.05.14l.29-.41H260.2v.66h3.61a.35.35,0,0,0,0-.12.76.76,0,0,0,0-.15,2.33,2.33,0,0,0-.25-1.13,1.68,1.68,0,0,0-.7-.72,2.22,2.22,0,0,0-1.11-.25,2.28,2.28,0,0,0-1.13.27,1.73,1.73,0,0,0-.75.74,2.29,2.29,0,0,0-.26,1.14,2.23,2.23,0,0,0,.26,1.12,1.79,1.79,0,0,0,.73.76A2.33,2.33,0,0,0,261.73,243.15Zm8.77-2.47h1.92a2,2,0,0,1-.24.59,2.15,2.15,0,0,1-.4.5,1.83,1.83,0,0,1-.58.33,2.44,2.44,0,0,1-1.86-.17,2.17,2.17,0,0,1-.79-.8,2.42,2.42,0,0,1-.28-1.2,2.38,2.38,0,0,1,.29-1.19,2.14,2.14,0,0,1,.79-.79,2.17,2.17,0,0,1,1.1-.28,2.12,2.12,0,0,1,1.11.27,2,2,0,0,1,.73.71l.86-.57a3,3,0,0,0-1.58-1.22,3.56,3.56,0,0,0-1.12-.17,3.51,3.51,0,0,0-1.31.24,2.9,2.9,0,0,0-1.05.67,3.11,3.11,0,0,0-.69,1,3.42,3.42,0,0,0-.24,1.3,3.52,3.52,0,0,0,.24,1.32,3.18,3.18,0,0,0,.68,1,3.39,3.39,0,0,0,1.05.68,3.66,3.66,0,0,0,1.3.23,3.13,3.13,0,0,0,1.33-.27,2.82,2.82,0,0,0,1-.75,3.34,3.34,0,0,0,.59-1.08,4.07,4.07,0,0,0,.18-1.31h-3Zm5-1.73h-1v4.11h1Zm1.23,1,.46-.82a.69.69,0,0,0-.33-.23,1.16,1.16,0,0,0-.42-.07,1,1,0,0,0-.61.22,1.63,1.63,0,0,0-.47.61,2,2,0,0,0-.18.87l.32.19a1.88,1.88,0,0,1,.06-.51.74.74,0,0,1,.23-.35.56.56,0,0,1,.39-.13.67.67,0,0,1,.3.06A1.27,1.27,0,0,1,276.7,240Zm1.73,1.8a.58.58,0,0,1,.09-.33.69.69,0,0,1,.29-.2,1.17,1.17,0,0,1,.49-.08,2.29,2.29,0,0,1,.66.09,2,2,0,0,1,.6.28v-.49a1.19,1.19,0,0,0-.28-.21,1.79,1.79,0,0,0-.5-.22,2.5,2.5,0,0,0-.71-.09,1.78,1.78,0,0,0-1.19.36,1.17,1.17,0,0,0-.42,1,1.24,1.24,0,0,0,.2.71,1.2,1.2,0,0,0,.52.45,1.72,1.72,0,0,0,.72.15,2.1,2.1,0,0,0,.7-.12,1.37,1.37,0,0,0,.57-.4.93.93,0,0,0,.23-.66l-.14-.53a.94.94,0,0,1-.15.53,1,1,0,0,1-.39.34,1.11,1.11,0,0,1-.52.12,1.29,1.29,0,0,1-.4-.07.64.64,0,0,1-.27-.22A.69.69,0,0,1,278.43,241.78Zm-.3-1.76.27-.15a1.62,1.62,0,0,1,.44-.16,2.09,2.09,0,0,1,.89,0,1,1,0,0,1,.28.12.49.49,0,0,1,.18.2.67.67,0,0,1,.07.33v2.74h.95v-2.93a1,1,0,0,0-.23-.69,1.34,1.34,0,0,0-.61-.44,2.5,2.5,0,0,0-.9-.15,3,3,0,0,0-1,.16,4.38,4.38,0,0,0-.71.33Zm5.14,5V239h-1V245Zm3.41-4a2.42,2.42,0,0,0-.27-1.18,1.92,1.92,0,0,0-.74-.73,2,2,0,0,0-1-.26,1.58,1.58,0,0,0-.92.27,1.65,1.65,0,0,0-.6.74,3.28,3.28,0,0,0,0,2.31,1.73,1.73,0,0,0,.6.75,1.65,1.65,0,0,0,.92.26,2,2,0,0,0,1-.25,2,2,0,0,0,.74-.74A2.41,2.41,0,0,0,286.68,241Zm-1,0a1.3,1.3,0,0,1-.17.7,1.12,1.12,0,0,1-.45.44,1.31,1.31,0,0,1-.62.14,1.1,1.1,0,0,1-.55-.14,1.26,1.26,0,0,1-.45-.44,1.37,1.37,0,0,1-.17-.7,1.41,1.41,0,0,1,.17-.71,1.23,1.23,0,0,1,.45-.43,1.11,1.11,0,0,1,.55-.15,1.32,1.32,0,0,1,.62.15,1.06,1.06,0,0,1,.45.44A1.28,1.28,0,0,1,285.68,241Zm2.89-4.93h-1v7h1Zm1.68,4.48v2.5h1v-2.64a2.18,2.18,0,0,0-.16-.87,1.12,1.12,0,0,0-.49-.54,1.49,1.49,0,0,0-.77-.18,1.36,1.36,0,0,0-.79.23,1.6,1.6,0,0,0-.5.62,2.07,2.07,0,0,0-.18.88h.23a.9.9,0,0,1,.12-.48.78.78,0,0,1,.32-.33,1,1,0,0,1,.47-.11.66.66,0,0,1,.58.23A1,1,0,0,1,290.25,240.56Z"/><rect class="cls-5" x="79.95" y="220.23" width="128" height="75.27" rx="12.53"/><path class="cls-10" d="M190.73,258h0a3.75,3.75,0,0,1,3.75,3.76v21.47a3.75,3.75,0,0,1-3.75,3.76h0a3.76,3.76,0,0,1-3.76-3.76V261.8A3.76,3.76,0,0,1,190.73,258Z"/><path class="cls-11" d="M190.73,270.87h0a3.75,3.75,0,0,1,3.75,3.76v8.64a3.75,3.75,0,0,1-3.75,3.76h0a3.76,3.76,0,0,1-3.76-3.76v-8.64A3.76,3.76,0,0,1,190.73,270.87Z"/><path class="cls-10" d="M175.33,258h0a3.76,3.76,0,0,1,3.76,3.76v21.47a3.76,3.76,0,0,1-3.76,3.76h0a3.75,3.75,0,0,1-3.75-3.76V261.8A3.75,3.75,0,0,1,175.33,258Z"/><path class="cls-11" d="M175.33,277.53h0a3.75,3.75,0,0,1,3.76,3.75v2a3.76,3.76,0,0,1-3.76,3.76h0a3.75,3.75,0,0,1-3.75-3.76v-2A3.75,3.75,0,0,1,175.33,277.53Z"/><path class="cls-10" d="M159.94,258h0a3.76,3.76,0,0,1,3.76,3.76v21.47a3.76,3.76,0,0,1-3.76,3.76h0a3.75,3.75,0,0,1-3.75-3.76V261.8A3.75,3.75,0,0,1,159.94,258Z"/><path class="cls-11" d="M159.94,264.69h0a3.76,3.76,0,0,1,3.76,3.76v14.82a3.76,3.76,0,0,1-3.76,3.76h0a3.75,3.75,0,0,1-3.75-3.76V268.45A3.76,3.76,0,0,1,159.94,264.69Z"/><path class="cls-10" d="M144.55,258h0a3.76,3.76,0,0,1,3.76,3.76v21.47a3.76,3.76,0,0,1-3.76,3.76h0a3.75,3.75,0,0,1-3.75-3.76V261.8A3.75,3.75,0,0,1,144.55,258Z"/><path class="cls-11" d="M144.55,267.54h0a3.76,3.76,0,0,1,3.76,3.76v12a3.76,3.76,0,0,1-3.76,3.76h0a3.75,3.75,0,0,1-3.75-3.76v-12A3.76,3.76,0,0,1,144.55,267.54Z"/><path class="cls-10" d="M129.16,258h0a3.76,3.76,0,0,1,3.76,3.76v21.47a3.76,3.76,0,0,1-3.76,3.76h0a3.75,3.75,0,0,1-3.75-3.76V261.8A3.75,3.75,0,0,1,129.16,258Z"/><path class="cls-11" d="M129.16,270.87h0a3.76,3.76,0,0,1,3.76,3.76v8.64a3.76,3.76,0,0,1-3.76,3.76h0a3.75,3.75,0,0,1-3.75-3.76v-8.64A3.75,3.75,0,0,1,129.16,270.87Z"/><path class="cls-10" d="M113.77,258h0a3.76,3.76,0,0,1,3.76,3.76v21.47a3.76,3.76,0,0,1-3.76,3.76h0a3.76,3.76,0,0,1-3.76-3.76V261.8A3.76,3.76,0,0,1,113.77,258Z"/><path class="cls-11" d="M113.77,263.27h0a3.76,3.76,0,0,1,3.76,3.76v16.24a3.76,3.76,0,0,1-3.76,3.76h0a3.76,3.76,0,0,1-3.76-3.76V267A3.76,3.76,0,0,1,113.77,263.27Z"/><path class="cls-10" d="M98.38,258h0a3.76,3.76,0,0,1,3.76,3.76v21.47A3.76,3.76,0,0,1,98.38,287h0a3.76,3.76,0,0,1-3.76-3.76V261.8A3.76,3.76,0,0,1,98.38,258Z"/><path class="cls-11" d="M98.38,275.15h0a3.76,3.76,0,0,1,3.76,3.76v4.36A3.76,3.76,0,0,1,98.38,287h0a3.76,3.76,0,0,1-3.76-3.76v-4.36A3.76,3.76,0,0,1,98.38,275.15Z"/><path class="cls-8" d="M194.48,237.06a.81.81,0,1,1-.8-.8A.8.8,0,0,1,194.48,237.06Zm-1.61,3a.81.81,0,1,1,.81.8A.81.81,0,0,1,192.87,240Zm0,2.95a.81.81,0,1,1,1.61,0,.81.81,0,0,1-1.61,0Z"/><path class="cls-9" d="M94.06,235.78H95.7v5.29h1.07v-5.29h1.65v-1H94.06Zm4.35,3.93-.57.57a3.69,3.69,0,0,0,.44.45,2.83,2.83,0,0,0,.62.34,2.45,2.45,0,0,0,.78.12,1.57,1.57,0,0,0,1.07-.35,1.19,1.19,0,0,0,.4-.94,1,1,0,0,0-.18-.61,1.44,1.44,0,0,0-.45-.39,4.61,4.61,0,0,0-.63-.3l-.45-.18a1.44,1.44,0,0,1-.33-.2A.38.38,0,0,1,99,238a.29.29,0,0,1,.13-.26.59.59,0,0,1,.34-.09,1.26,1.26,0,0,1,.59.15,1.6,1.6,0,0,1,.49.4l.54-.58a2.07,2.07,0,0,0-.41-.36,2.2,2.2,0,0,0-1.18-.36,2.08,2.08,0,0,0-.71.12,1.16,1.16,0,0,0-.52.37,1.16,1.16,0,0,0,0,1.24,1.41,1.41,0,0,0,.45.39,4.58,4.58,0,0,0,.56.25c.18.07.34.13.48.2a.86.86,0,0,1,.32.22.45.45,0,0,1,.12.31.39.39,0,0,1-.15.32.63.63,0,0,1-.41.11,1.22,1.22,0,0,1-.41-.07,1.69,1.69,0,0,1-.41-.23A3.45,3.45,0,0,1,98.41,239.71Zm3.57-5.62v7h.94v-7Zm2.46,2.86-1.78,1.7,2,2.42h1.18l-2-2.42,1.77-1.7Zm6,1.13,2,3h1.27l-2.12-3Zm-1.29-3.28v6.27h1.06V234.8Zm.63.91h1.26a1.54,1.54,0,0,1,.63.13,1,1,0,0,1,.43.36,1,1,0,0,1,.15.57,1.05,1.05,0,0,1-.15.57,1,1,0,0,1-.43.36,1.54,1.54,0,0,1-.63.13h-1.26v.86h1.31a2.73,2.73,0,0,0,1.18-.24,1.88,1.88,0,0,0,.79-.68,2.08,2.08,0,0,0,0-2.05,1.88,1.88,0,0,0-.79-.68,2.73,2.73,0,0,0-1.18-.24h-1.31Zm6.41,5.44a2.58,2.58,0,0,0,1.22-.27,2.14,2.14,0,0,0,.83-.83l-.83-.34a1.28,1.28,0,0,1-.49.49,1.53,1.53,0,0,1-.69.16,1.26,1.26,0,0,1-.64-.16,1,1,0,0,1-.4-.47,1.92,1.92,0,0,1-.13-.76,1.82,1.82,0,0,1,.14-.75,1.07,1.07,0,0,1,.39-.47,1.28,1.28,0,0,1,.63-.16,1,1,0,0,1,.53.14,1,1,0,0,1,.36.37,1.18,1.18,0,0,1,.13.58.61.61,0,0,1,0,.16,1,1,0,0,1-.06.14l.3-.41h-2.79v.66h3.61a.35.35,0,0,0,0-.12c0-.05,0-.1,0-.15a2.41,2.41,0,0,0-.25-1.12,1.7,1.7,0,0,0-.7-.73,2.22,2.22,0,0,0-1.11-.25,2.32,2.32,0,0,0-1.14.27,1.84,1.84,0,0,0-.75.74,2.4,2.4,0,0,0-.26,1.14,2.34,2.34,0,0,0,.26,1.12,1.81,1.81,0,0,0,.74.76A2.22,2.22,0,0,0,116.24,241.15Zm4,1.88V237h-1V243Zm3.41-4a2.25,2.25,0,0,0-.28-1.17,1.86,1.86,0,0,0-.73-.74,2,2,0,0,0-1-.26,1.61,1.61,0,0,0-.92.27,1.79,1.79,0,0,0-.6.74,3.44,3.44,0,0,0,0,2.31,1.89,1.89,0,0,0,.6.75,1.6,1.6,0,0,0,.92.26,2,2,0,0,0,1-.25,1.92,1.92,0,0,0,.73-.74A2.3,2.3,0,0,0,123.61,239Zm-1,0a1.39,1.39,0,0,1-.17.7,1.14,1.14,0,0,1-.46.44,1.26,1.26,0,0,1-.62.15,1.1,1.1,0,0,1-.54-.15,1.18,1.18,0,0,1-.45-.44,1.37,1.37,0,0,1-.17-.7,1.41,1.41,0,0,1,.17-.71,1.23,1.23,0,0,1,.45-.43,1.1,1.1,0,0,1,.54-.15,1.26,1.26,0,0,1,.62.15,1.14,1.14,0,0,1,.46.44A1.37,1.37,0,0,1,122.61,239Zm1.61,0a2.22,2.22,0,0,0,.28,1.12,2.16,2.16,0,0,0,.8.76,2.34,2.34,0,0,0,1.14.26,2.29,2.29,0,0,0,1.12-.26,2.16,2.16,0,0,0,.8-.76,2.13,2.13,0,0,0,.29-1.12,2,2,0,0,0-1.09-1.87,2.19,2.19,0,0,0-1.12-.28,2.24,2.24,0,0,0-1.14.28,2.06,2.06,0,0,0-.8.75A2.14,2.14,0,0,0,124.22,239Zm1,0a1.34,1.34,0,0,1,.16-.68,1.15,1.15,0,0,1,.44-.46,1.18,1.18,0,0,1,.63-.16,1.16,1.16,0,0,1,.61.16,1.17,1.17,0,0,1,.45.46,1.34,1.34,0,0,1,.16.68,1.39,1.39,0,0,1-.16.68,1.21,1.21,0,0,1-.45.45,1.16,1.16,0,0,1-.61.16,1.18,1.18,0,0,1-1.07-.61A1.39,1.39,0,0,1,125.21,239Zm5.32-2.06h-1v4.12h1Zm1.22,1,.47-.82a.69.69,0,0,0-.33-.23,1.16,1.16,0,0,0-.42-.07,1,1,0,0,0-.61.22,1.72,1.72,0,0,0-.47.61,2,2,0,0,0-.18.87l.32.19a1.88,1.88,0,0,1,.06-.51.73.73,0,0,1,.22-.35.66.66,0,0,1,.4-.13.6.6,0,0,1,.29.06A.88.88,0,0,1,131.75,238Zm.56-1v.85h2.34V237Zm.69-1.43v5.55h1v-5.55Z"/><rect class="cls-5" x="354.12" y="45.08" width="128.13" height="250.54" rx="12.53"/><path class="cls-12" d="M466.23,270.35v-5"/><path class="cls-12" d="M467.45,269.13l-1.22,1.22L465,269.13"/><path class="cls-13" d="M468.16,267.31h.39a1.54,1.54,0,0,1,1.53,1.53v2a1.54,1.54,0,0,1-1.53,1.53h-4.63a1.54,1.54,0,0,1-1.54-1.54v-2a1.53,1.53,0,0,1,1.53-1.53h.39"/><path class="cls-9" d="M393.35,279.9h5.73v-1.18h-3.27l2.14-2.09a3.47,3.47,0,0,0,.74-1,2.36,2.36,0,0,0,.29-1.14,2,2,0,0,0-.16-.77,2.12,2.12,0,0,0-.47-.73,2.35,2.35,0,0,0-.8-.54,2.81,2.81,0,0,0-1.13-.21,2.77,2.77,0,0,0-1.46.36,2.35,2.35,0,0,0-.91,1,3.23,3.23,0,0,0-.3,1.43H395a2.14,2.14,0,0,1,.16-.87,1.29,1.29,0,0,1,.48-.57,1.31,1.31,0,0,1,.74-.21,1.35,1.35,0,0,1,.55.11,1.28,1.28,0,0,1,.4.27,1,1,0,0,1,.25.39,1.15,1.15,0,0,1,.08.41,1.7,1.7,0,0,1-.09.57,2.85,2.85,0,0,1-.29.54,5.59,5.59,0,0,1-.47.56Zm12.23-2.45a2.74,2.74,0,0,0-.3-1.32,2.27,2.27,0,0,0-.81-.87,2.17,2.17,0,0,0-1.14-.31,2.56,2.56,0,0,0-.62.07,2.49,2.49,0,0,0-.58.2l.48-1.72h2.9v-1.12h-3.86l-1,4.14a4.89,4.89,0,0,1,.71-.37A3.39,3.39,0,0,1,402,276a4.74,4.74,0,0,1,.65-.05,1.91,1.91,0,0,1,.8.17,1.39,1.39,0,0,1,.58.49,1.44,1.44,0,0,1,.22.79,1.61,1.61,0,0,1-.19.78,1.33,1.33,0,0,1-.54.51,2.08,2.08,0,0,1-.87.17,2,2,0,0,1-.71-.14,3,3,0,0,1-.67-.39,3,3,0,0,1-.52-.54l-.74.92a4.19,4.19,0,0,0,.67.66,3.43,3.43,0,0,0,.91.49,3.82,3.82,0,0,0,1.22.18,3.53,3.53,0,0,0,1-.15,3,3,0,0,0,.9-.47,2.15,2.15,0,0,0,.62-.81A2.52,2.52,0,0,0,405.58,277.45Zm.75-3.39a1.73,1.73,0,0,0,.88,1.58,1.85,1.85,0,0,0,2.55-.66,1.9,1.9,0,0,0,.23-.92,1.84,1.84,0,0,0-.23-.91,1.82,1.82,0,0,0-.65-.67,1.86,1.86,0,0,0-2.56.67A1.83,1.83,0,0,0,406.33,274.06Zm1,0a.84.84,0,0,1,.11-.45.8.8,0,0,1,.28-.32.83.83,0,0,1,.44-.12.77.77,0,0,1,.45.12.84.84,0,0,1,.3.32,1.06,1.06,0,0,1,.1.45,1.14,1.14,0,0,1-.1.45.87.87,0,0,1-.3.33.77.77,0,0,1-.45.12.75.75,0,0,1-.72-.45A.88.88,0,0,1,407.32,274.06Zm3.49,4.17a1.89,1.89,0,0,0,.23.91,1.72,1.72,0,0,0,.65.66,1.89,1.89,0,0,0,.95.24,1.84,1.84,0,0,0,.95-.24,1.63,1.63,0,0,0,.64-.66,1.88,1.88,0,0,0,0-1.84,1.6,1.6,0,0,0-.64-.65,1.75,1.75,0,0,0-.95-.25,1.8,1.8,0,0,0-.95.25,1.69,1.69,0,0,0-.65.65A1.89,1.89,0,0,0,410.81,278.23Zm1,0a1.13,1.13,0,0,1,.09-.45.89.89,0,0,1,.29-.32.85.85,0,0,1,.45-.13.79.79,0,0,1,.44.13.74.74,0,0,1,.29.32,1,1,0,0,1,0,.9.83.83,0,0,1-.29.33.78.78,0,0,1-.44.12.84.84,0,0,1-.45-.12,1,1,0,0,1-.29-.33A1.2,1.2,0,0,1,411.81,278.22Zm.62-5.84-5.21,7.52h1.15l5.21-7.52Z"/><path class="cls-14" d="M395.77,266.21a2.72,2.72,0,0,1-1.11-.23,1.89,1.89,0,0,1-.81-.78l.53-.33a1.57,1.57,0,0,0,1.41.71,1.25,1.25,0,0,0,.78-.2.67.67,0,0,0,.28-.59.71.71,0,0,0-.1-.39.84.84,0,0,0-.4-.31,4.45,4.45,0,0,0-.91-.25q-1.38-.3-1.38-1.41a1.38,1.38,0,0,1,.21-.76,1.42,1.42,0,0,1,.58-.5,2,2,0,0,1,.86-.18,2,2,0,0,1,1,.25,2.38,2.38,0,0,1,.72.61l-.5.41a2.82,2.82,0,0,0-.53-.44,1.28,1.28,0,0,0-.73-.2,1.2,1.2,0,0,0-.7.2.67.67,0,0,0-.27.58.74.74,0,0,0,.09.36.72.72,0,0,0,.33.28,3,3,0,0,0,.71.22,2.68,2.68,0,0,1,1.28.56,1.28,1.28,0,0,1,.39,1,1.35,1.35,0,0,1-.23.78,1.37,1.37,0,0,1-.62.48A2.36,2.36,0,0,1,395.77,266.21Zm2.51-.09V261h.64v2.14a1.25,1.25,0,0,1,.38-.38,1.11,1.11,0,0,1,.58-.15,1.14,1.14,0,0,1,.88.35,1.35,1.35,0,0,1,.35,1v2.17h-.64v-2a1,1,0,0,0-.2-.68.67.67,0,0,0-.53-.23.78.78,0,0,0-.59.25.89.89,0,0,0-.23.63v2.06Zm5.13.08a1.52,1.52,0,0,1-1.42-.86,2,2,0,0,1-.21-.95,2,2,0,0,1,.21-.93,1.48,1.48,0,0,1,.58-.63,1.52,1.52,0,0,1,.84-.23,1.47,1.47,0,0,1,.84.23,1.42,1.42,0,0,1,.58.63,2,2,0,0,1,.21.93,2,2,0,0,1-.21.95,1.52,1.52,0,0,1-1.42.86Zm0-.59a.9.9,0,0,0,.71-.32,1.33,1.33,0,0,0,.28-.9,1.27,1.27,0,0,0-.28-.88.93.93,0,0,0-1.42,0,1.33,1.33,0,0,0-.28.88,1.38,1.38,0,0,0,.28.9A.9.9,0,0,0,403.41,265.61Zm2.3,2v-4.89h.58l0,.49a1.29,1.29,0,0,1,.45-.42,1.25,1.25,0,0,1,.61-.15,1.55,1.55,0,0,1,.84.22,1.43,1.43,0,0,1,.57.62,2.18,2.18,0,0,1,0,1.91,1.4,1.4,0,0,1-.57.63,1.55,1.55,0,0,1-.84.22,1.27,1.27,0,0,1-.58-.14,1.44,1.44,0,0,1-.44-.38v1.89Zm1.64-2a.93.93,0,0,0,.72-.32,1.33,1.33,0,0,0,.29-.9,1.28,1.28,0,0,0-.29-.88,1,1,0,0,0-1.44,0,1.27,1.27,0,0,0-.28.88,1.33,1.33,0,0,0,.28.9A.93.93,0,0,0,407.35,265.61Zm2.32,2v-4.89h.57l0,.49a1.41,1.41,0,0,1,.46-.42,1.21,1.21,0,0,1,.6-.15,1.55,1.55,0,0,1,.84.22,1.45,1.45,0,0,1,.58.62,2.28,2.28,0,0,1,0,1.91,1.42,1.42,0,0,1-.58.63,1.55,1.55,0,0,1-.84.22,1.2,1.2,0,0,1-.57-.14,1.33,1.33,0,0,1-.44-.38v1.89Zm1.63-2a.94.94,0,0,0,.73-.32,1.33,1.33,0,0,0,.29-.9,1.28,1.28,0,0,0-.29-.88,1,1,0,0,0-1.45,0,1.27,1.27,0,0,0-.28.88,1.33,1.33,0,0,0,.28.9A.93.93,0,0,0,411.3,265.61Zm2.44.51v-3.44h.63v3.44Zm.31-4.08a.41.41,0,0,1-.43-.43.41.41,0,0,1,.12-.3.42.42,0,0,1,.31-.13.36.36,0,0,1,.29.13.38.38,0,0,1,.13.3.42.42,0,0,1-.13.31A.38.38,0,0,1,414.05,262Zm1.28,4.08v-3.44h.58l0,.45a1.33,1.33,0,0,1,.4-.38,1.25,1.25,0,0,1,1.46.2,1.35,1.35,0,0,1,.35,1v2.17h-.64v-2a1,1,0,0,0-.2-.68.67.67,0,0,0-.52-.23.82.82,0,0,0-.6.25.89.89,0,0,0-.23.63v2.06Zm5.07,1.48a1.64,1.64,0,0,1-1.5-.79l.52-.35a1,1,0,0,0,1,.55.84.84,0,0,0,.7-.3,1.47,1.47,0,0,0,.24-.92v-.38a1.2,1.2,0,0,1-.43.34,1.19,1.19,0,0,1-.54.12,1.71,1.71,0,0,1-.79-.19,1.35,1.35,0,0,1-.55-.56,1.8,1.8,0,0,1-.2-.89,1.71,1.71,0,0,1,.2-.88,1.35,1.35,0,0,1,.55-.56,1.59,1.59,0,0,1,.79-.19,1.2,1.2,0,0,1,.57.13,1.24,1.24,0,0,1,.45.37l0-.42H422v3.11a2,2,0,0,1-.4,1.35A1.47,1.47,0,0,1,420.4,267.6Zm0-2.3a.89.89,0,0,0,.7-.29,1.12,1.12,0,0,0,.27-.78,1.08,1.08,0,0,0-.27-.77.92.92,0,0,0-.7-.29.91.91,0,0,0-.68.29,1.12,1.12,0,0,0-.25.77,1.16,1.16,0,0,0,.25.78A.87.87,0,0,0,420.41,265.3Z"/><rect class="cls-15" x="364.14" y="259.83" width="21.48" height="21.48" rx="7.16"/><path class="cls-16" d="M377.36,276.29h-4.91c-1.8,0-3.18-.65-2.79-3.27l.46-3.55c.24-1.3,1.07-1.8,1.8-1.8h6c.74,0,1.52.53,1.8,1.8l.46,3.55C380.5,275.35,379.16,276.29,377.36,276.29Z"/><path class="cls-17" d="M377.44,267.54a2.55,2.55,0,0,0-5.09,0"/><path class="cls-16" d="M376.64,270.18h0"/><path class="cls-16" d="M373.22,270.18h0"/><path class="cls-12" d="M466.23,241.72v-5"/><path class="cls-12" d="M467.45,240.5l-1.22,1.22L465,240.5"/><path class="cls-13" d="M468.16,238.68h.39a1.53,1.53,0,0,1,1.53,1.53v2a1.53,1.53,0,0,1-1.53,1.53h-4.63a1.54,1.54,0,0,1-1.54-1.53v-2a1.53,1.53,0,0,1,1.53-1.53h.39"/><path class="cls-9" d="M395.94,247.58a3.86,3.86,0,0,0,1.41-.23,2.27,2.27,0,0,0,1-.68,1.59,1.59,0,0,0,.35-1,1.85,1.85,0,0,0-.28-1,2.06,2.06,0,0,0-.78-.74,2.68,2.68,0,0,0-1.25-.28,2.6,2.6,0,0,0-1.21.28,2.13,2.13,0,0,0-.83.74,2.1,2.1,0,0,0-.29,1.1h1.19a.94.94,0,0,1,.33-.74,1.17,1.17,0,0,1,.82-.3,1.06,1.06,0,0,1,.56.13.81.81,0,0,1,.35.36,1.25,1.25,0,0,1,.11.53,1.09,1.09,0,0,1-.1.46,1,1,0,0,1-.29.37,1.33,1.33,0,0,1-.45.26,2,2,0,0,1-.62.09Zm.38,3.82a3.16,3.16,0,0,0,1.35-.27,2.18,2.18,0,0,0,.91-.75,2,2,0,0,0,.31-1.12,2,2,0,0,0-.22-1,1.71,1.71,0,0,0-.63-.65,2.94,2.94,0,0,0-.94-.38,5.21,5.21,0,0,0-1.16-.13v.72a2.5,2.5,0,0,1,.69.09,1.63,1.63,0,0,1,.53.25,1.06,1.06,0,0,1,.34.39,1.19,1.19,0,0,1,.12.54,1.17,1.17,0,0,1-.16.64,1,1,0,0,1-.45.4,1.54,1.54,0,0,1-.67.14,1.74,1.74,0,0,1-.69-.14,1.23,1.23,0,0,1-.49-.41,1.19,1.19,0,0,1-.17-.63h-1.27a2.2,2.2,0,0,0,.18.88,2.5,2.5,0,0,0,.52.73,2.34,2.34,0,0,0,.81.49A3.16,3.16,0,0,0,396.32,251.4Zm9-2.58a2.74,2.74,0,0,0-.3-1.32,2.37,2.37,0,0,0-.82-.87,2.12,2.12,0,0,0-1.14-.31,3.08,3.08,0,0,0-.61.06,2,2,0,0,0-.58.21l.47-1.72h2.9v-1.12h-3.85l-1,4.13a6,6,0,0,1,.71-.36,2.65,2.65,0,0,1,.64-.17,3.55,3.55,0,0,1,.64-.06,1.79,1.79,0,0,1,.81.18,1.31,1.31,0,0,1,.79,1.27,1.54,1.54,0,0,1-.19.79,1.14,1.14,0,0,1-.54.5,1.88,1.88,0,0,1-.87.17,1.83,1.83,0,0,1-.71-.14,3.13,3.13,0,0,1-.66-.38,3.85,3.85,0,0,1-.53-.54l-.74.91a4.8,4.8,0,0,0,.68.67,3.15,3.15,0,0,0,.91.48,3.76,3.76,0,0,0,1.22.19,3.58,3.58,0,0,0,1-.15,3,3,0,0,0,.9-.48,2.24,2.24,0,0,0,.62-.8A2.66,2.66,0,0,0,405.29,248.82Zm.74-3.39a1.93,1.93,0,0,0,.23.92,1.82,1.82,0,0,0,1.6.9,1.81,1.81,0,0,0,1-.25,1.67,1.67,0,0,0,.64-.65,1.83,1.83,0,0,0,.24-.92,1.8,1.8,0,0,0-.24-.92,1.63,1.63,0,0,0-.64-.66,1.95,1.95,0,0,0-1.91,0,1.79,1.79,0,0,0-.65.66A1.9,1.9,0,0,0,406,245.43Zm1,0a.94.94,0,0,1,.11-.45.85.85,0,0,1,.29-.33.82.82,0,0,1,.44-.11.79.79,0,0,1,.45.11.85.85,0,0,1,.29.33.94.94,0,0,1,.11.45,1.06,1.06,0,0,1-.11.45,1,1,0,0,1-.29.33.79.79,0,0,1-.45.12.83.83,0,0,1-.44-.12,1,1,0,0,1-.29-.33A1.06,1.06,0,0,1,407,245.43Zm3.49,4.16a1.77,1.77,0,0,0,.24.91,1.79,1.79,0,0,0,.64.67,1.9,1.9,0,0,0,1,.24,1.8,1.8,0,0,0,.94-.24,1.68,1.68,0,0,0,.65-.67,1.94,1.94,0,0,0,0-1.83,1.65,1.65,0,0,0-.65-.66,1.8,1.8,0,0,0-.94-.24,1.9,1.9,0,0,0-1,.24,1.84,1.84,0,0,0-.88,1.58Zm1,0a1,1,0,0,1,.1-.44.89.89,0,0,1,.29-.32.77.77,0,0,1,.45-.13.72.72,0,0,1,.44.13.81.81,0,0,1,.29.32,1,1,0,0,1,.11.44.94.94,0,0,1-.11.45.74.74,0,0,1-.73.45.94.94,0,0,1-.45-.11,1,1,0,0,1-.29-.34A1,1,0,0,1,411.51,249.58Zm.62-5.83-5.2,7.52h1.15l5.21-7.52Z"/><path class="cls-14" d="M395.29,237.49v-4.4h-1.57v-.62h3.8v.62H396v4.4Zm2.83,0v-3.44h.59l0,.54a1,1,0,0,1,.43-.45,1.16,1.16,0,0,1,.63-.18l.21,0,.17,0v.62l-.2,0h-.26a1,1,0,0,0-.68.26.88.88,0,0,0-.28.68v2Zm3.64,0a1.42,1.42,0,0,1-.87-.23.88.88,0,0,1-.33-.74.9.9,0,0,1,.22-.61,1.62,1.62,0,0,1,.58-.4,1.92,1.92,0,0,1,.74-.15,1,1,0,0,1,.4,0,1.43,1.43,0,0,1,.33.15v-.43a.6.6,0,0,0-.18-.52.85.85,0,0,0-.51-.12,2.21,2.21,0,0,0-.64.11,2.08,2.08,0,0,0-.58.27l-.3-.5a3,3,0,0,1,.7-.32,2.87,2.87,0,0,1,.82-.13,1.51,1.51,0,0,1,1,.27,1.17,1.17,0,0,1,.32.94v1.73c0,.09,0,.14.07.16a1,1,0,0,0,.33,0v.42l-.24.07a1.43,1.43,0,0,1-.29,0,.55.55,0,0,1-.33-.08.53.53,0,0,1-.14-.31,1.29,1.29,0,0,1-.48.29A2.51,2.51,0,0,1,401.76,237.54Zm0-.56a2.17,2.17,0,0,0,.54-.09.92.92,0,0,0,.39-.23.45.45,0,0,0,.13-.38.3.3,0,0,0-.2-.28,1,1,0,0,0-.48-.07,1.13,1.13,0,0,0-.49.1.92.92,0,0,0-.36.22.53.53,0,0,0-.13.33.36.36,0,0,0,.17.3A.76.76,0,0,0,401.77,237Zm3.56.51L404,234.05h.66l.95,2.58.95-2.58h.63l-1.28,3.44Zm3.73.07a1.71,1.71,0,0,1-.86-.2,1.43,1.43,0,0,1-.58-.61,2.12,2.12,0,0,1-.21-1,2,2,0,0,1,.21-1,1.44,1.44,0,0,1,.56-.63A1.6,1.6,0,0,1,409,234a1.33,1.33,0,0,1,.8.24,1.49,1.49,0,0,1,.51.62,1.92,1.92,0,0,1,.18.84v.17H408a1.31,1.31,0,0,0,.29.88,1,1,0,0,0,.73.29,1,1,0,0,0,.61-.18,1.36,1.36,0,0,0,.4-.54l.49.33a1.74,1.74,0,0,1-.62.73A1.69,1.69,0,0,1,409.06,237.56Zm-1-2.24h1.8a1,1,0,0,0-.29-.6.74.74,0,0,0-.57-.23.9.9,0,0,0-.62.21A1,1,0,0,0,408.08,235.32Zm3.15,2.17v-5.14h.64v5.14Z"/><rect class="cls-18" x="364.14" y="231.2" width="21.48" height="21.48" rx="7.16"/><path class="cls-17" d="M376.82,240l-3.48,3.48"/><path class="cls-16" d="M373.34,243.52,369.27,241a.71.71,0,0,1,.17-1.3l9.61-2.78a.72.72,0,0,1,.89.9l-2.85,9.53a.72.72,0,0,1-1.3.17Z"/><path class="cls-12" d="M466.23,213.08v-5"/><path class="cls-12" d="M467.45,211.87l-1.22,1.21L465,211.87"/><path class="cls-13" d="M468.16,210h.39a1.54,1.54,0,0,1,1.53,1.54v2a1.54,1.54,0,0,1-1.53,1.53h-4.63a1.54,1.54,0,0,1-1.54-1.54v-2a1.54,1.54,0,0,1,1.53-1.53h.39"/><path class="cls-9" d="M393.32,221.2h6.19v-1.1H398l-.18.1h-2.61l1.92-2.82v3.25l-.07.11v1.89h1.3v-7.51h-.76Zm8.24-2.32a4.78,4.78,0,0,1,.12-1.11,3.16,3.16,0,0,1,.33-.87,1.71,1.71,0,0,1,.54-.56,1.23,1.23,0,0,1,.68-.2,1.25,1.25,0,0,1,.7.2,1.68,1.68,0,0,1,.53.56,2.87,2.87,0,0,1,.34.87,4.78,4.78,0,0,1,.12,1.11,4.69,4.69,0,0,1-.12,1.1,2.87,2.87,0,0,1-.34.87,1.82,1.82,0,0,1-.53.57,1.25,1.25,0,0,1-.7.19,1.22,1.22,0,0,1-.68-.19,1.85,1.85,0,0,1-.54-.57,3.16,3.16,0,0,1-.33-.87A4.69,4.69,0,0,1,401.56,218.88Zm-1.25,0a5.12,5.12,0,0,0,.37,2,3.17,3.17,0,0,0,1,1.35,2.68,2.68,0,0,0,3.06,0,3.17,3.17,0,0,0,1-1.35,5.81,5.81,0,0,0,0-4.08,3.26,3.26,0,0,0-1-1.36,2.68,2.68,0,0,0-3.06,0,3.26,3.26,0,0,0-1,1.36A5.12,5.12,0,0,0,400.31,218.88Zm6.6-2.09a1.94,1.94,0,0,0,.23.93,1.79,1.79,0,0,0,.66.65,1.76,1.76,0,0,0,.94.25,1.81,1.81,0,0,0,1-.25,1.67,1.67,0,0,0,.64-.65,1.84,1.84,0,0,0,.24-.93,1.77,1.77,0,0,0-.24-.91,1.72,1.72,0,0,0-.64-.67,1.9,1.9,0,0,0-1-.24,1.79,1.79,0,0,0-1.83,1.82Zm1,0a1,1,0,0,1,.1-.45.89.89,0,0,1,.29-.32.83.83,0,0,1,.44-.12.79.79,0,0,1,.45.12.89.89,0,0,1,.29.32,1,1,0,0,1,0,.9,1,1,0,0,1-.29.34.79.79,0,0,1-.45.11.82.82,0,0,1-.44-.11,1,1,0,0,1-.29-.34A1,1,0,0,1,407.91,216.79Zm3.48,4.17a1.79,1.79,0,0,0,.24.91,1.87,1.87,0,0,0,.64.67,2,2,0,0,0,1,.23,1.9,1.9,0,0,0,.94-.23,1.74,1.74,0,0,0,.65-.67,1.94,1.94,0,0,0,0-1.83,1.65,1.65,0,0,0-.65-.66,1.81,1.81,0,0,0-.94-.25,1.91,1.91,0,0,0-1,.25,1.84,1.84,0,0,0-.88,1.58Zm1,0a1.05,1.05,0,0,1,.1-.44.75.75,0,0,1,.29-.32.77.77,0,0,1,.45-.13.72.72,0,0,1,.44.13.65.65,0,0,1,.29.32.93.93,0,0,1,.11.44,1,1,0,0,1-.11.45.72.72,0,0,1-.29.33.78.78,0,0,1-.44.12.78.78,0,0,1-.74-.45A1.14,1.14,0,0,1,412.39,221Zm.62-5.83-5.2,7.51H409l5.21-7.51Z"/><path class="cls-14" d="M394,208.85v-5h3.24v.62h-2.59V206h2.36v.62h-2.36v1.64h2.68v.61Zm4,0v-3.43h.57l0,.44a1.3,1.3,0,0,1,.4-.37,1.07,1.07,0,0,1,.59-.16,1.19,1.19,0,0,1,.88.35,1.35,1.35,0,0,1,.34,1v2.17h-.63v-2a1,1,0,0,0-.2-.67.66.66,0,0,0-.53-.23.78.78,0,0,0-.59.24.85.85,0,0,0-.23.64v2Zm4.92.08a1.19,1.19,0,0,1-.74-.19A.86.86,0,0,1,402,208v-2h-.69v-.55H402v-1.23h.64v1.23h1V206h-1v1.91a.49.49,0,0,0,.12.38.67.67,0,0,0,.38.09l.26,0,.23-.09v.59a.92.92,0,0,1-.29.08Zm2.7,0a1.74,1.74,0,0,1-.86-.21,1.43,1.43,0,0,1-.58-.61,2.09,2.09,0,0,1-.21-1,2,2,0,0,1,.21-.95,1.58,1.58,0,0,1,.57-.63,1.55,1.55,0,0,1,.84-.22,1.33,1.33,0,0,1,.8.24,1.46,1.46,0,0,1,.51.61,2,2,0,0,1,.17.85v.17h-2.47a1.37,1.37,0,0,0,.29.87,1.07,1.07,0,0,0,1.34.12,1.38,1.38,0,0,0,.41-.54l.49.32a1.64,1.64,0,0,1-.63.73A1.67,1.67,0,0,1,405.66,208.93Zm-1-2.25h1.81a1.1,1.1,0,0,0-.29-.6.8.8,0,0,0-.58-.23.89.89,0,0,0-.62.22A1,1,0,0,0,404.68,206.68Zm3.15,2.17v-3.43h.59l0,.53a1.16,1.16,0,0,1,.43-.45,1.24,1.24,0,0,1,.63-.17h.21l.17,0V206a.77.77,0,0,0-.2,0h-.26a.92.92,0,0,0-.68.26.87.87,0,0,0-.28.68v2Zm4,.08a1.16,1.16,0,0,1-.73-.19.86.86,0,0,1-.25-.73v-2h-.7v-.55h.7v-1.23h.63v1.23h1V206h-1v1.91a.49.49,0,0,0,.12.38.69.69,0,0,0,.38.09,1.24,1.24,0,0,0,.27,0l.23-.09v.59a1.08,1.08,0,0,1-.3.08A2.07,2.07,0,0,1,411.81,208.93Zm2.28,0a1.36,1.36,0,0,1-.87-.24.86.86,0,0,1-.33-.73.88.88,0,0,1,.22-.61,1.51,1.51,0,0,1,.58-.4,1.88,1.88,0,0,1,.74-.15,1,1,0,0,1,.4,0,.91.91,0,0,1,.33.15v-.43c0-.27-.06-.44-.18-.52a.85.85,0,0,0-.51-.12,2.17,2.17,0,0,0-.64.1,2.09,2.09,0,0,0-.58.28l-.3-.51a3.5,3.5,0,0,1,.7-.31,2.56,2.56,0,0,1,.82-.13,1.51,1.51,0,0,1,1,.27,1.15,1.15,0,0,1,.32.94v1.73c0,.09,0,.14.07.15a.66.66,0,0,0,.32,0v.41a1,1,0,0,1-.23.07,1,1,0,0,1-.29,0,.47.47,0,0,1-.33-.09.45.45,0,0,1-.14-.3,1.24,1.24,0,0,1-.49.28A2.36,2.36,0,0,1,414.09,208.91Zm0-.57a1.8,1.8,0,0,0,.54-.08A.93.93,0,0,0,415,208a.46.46,0,0,0,.13-.37.34.34,0,0,0-.2-.29,1.16,1.16,0,0,0-.48-.07,1.53,1.53,0,0,0-.49.1,1.06,1.06,0,0,0-.36.23.45.45,0,0,0-.13.32.37.37,0,0,0,.17.31A.67.67,0,0,0,414.1,208.34Zm2.8.51v-3.43h.63v3.43Zm.31-4.08a.41.41,0,0,1-.43-.43.41.41,0,0,1,.12-.3.46.46,0,0,1,.31-.13.39.39,0,0,1,.29.13.38.38,0,0,1,.13.3.42.42,0,0,1-.13.31A.38.38,0,0,1,417.21,204.77Zm1.28,4.08v-3.43h.58l0,.44a1.3,1.3,0,0,1,.4-.37,1.06,1.06,0,0,1,.58-.16,1.16,1.16,0,0,1,.88.35,1.35,1.35,0,0,1,.35,1v2.17h-.64v-2a.93.93,0,0,0-.2-.67.64.64,0,0,0-.52-.23.78.78,0,0,0-.59.24.85.85,0,0,0-.23.64v2Zm3.69,0v-3.43h.58l0,.47a1,1,0,0,1,.37-.4,1,1,0,0,1,.57-.16,1.1,1.1,0,0,1,.62.17,1,1,0,0,1,.38.49,1,1,0,0,1,.39-.47,1,1,0,0,1,.63-.19,1.08,1.08,0,0,1,.83.34,1.45,1.45,0,0,1,.31,1v2.17h-.65v-2a1.08,1.08,0,0,0-.17-.67.53.53,0,0,0-.46-.22.69.69,0,0,0-.56.25,1.1,1.1,0,0,0-.2.66v2h-.64v-2a1,1,0,0,0-.17-.67.54.54,0,0,0-.46-.22.68.68,0,0,0-.56.26,1,1,0,0,0-.2.65v2Zm7,.08a1.74,1.74,0,0,1-.86-.21,1.4,1.4,0,0,1-.57-.61,2.09,2.09,0,0,1-.21-1,2,2,0,0,1,.21-.95,1.49,1.49,0,0,1,.56-.63,1.54,1.54,0,0,1,.83-.22,1.34,1.34,0,0,1,.81.24,1.37,1.37,0,0,1,.5.61,1.86,1.86,0,0,1,.19.85v.17h-2.47a1.31,1.31,0,0,0,.28.87,1.07,1.07,0,0,0,1.34.12,1.38,1.38,0,0,0,.41-.54l.48.32a1.62,1.62,0,0,1-.62.73A1.65,1.65,0,0,1,429.2,208.93Zm-1-2.25H430a1,1,0,0,0-.28-.6.8.8,0,0,0-.58-.23.89.89,0,0,0-.62.22A1.08,1.08,0,0,0,428.22,206.68Zm3.16,2.17v-3.43H432l0,.44a1.3,1.3,0,0,1,.4-.37,1.07,1.07,0,0,1,.59-.16,1.19,1.19,0,0,1,.88.35,1.35,1.35,0,0,1,.34,1v2.17h-.63v-2a1,1,0,0,0-.2-.67.66.66,0,0,0-.53-.23.78.78,0,0,0-.59.24.85.85,0,0,0-.23.64v2Zm4.92.08a1.19,1.19,0,0,1-.74-.19.86.86,0,0,1-.25-.73v-2h-.69v-.55h.69v-1.23H436v1.23h1V206h-1v1.91a.49.49,0,0,0,.12.38.67.67,0,0,0,.38.09l.26,0,.23-.09v.59a.92.92,0,0,1-.29.08Z"/><rect class="cls-11" x="364.14" y="202.56" width="21.48" height="21.48" rx="7.16"/><path class="cls-16" d="M373.31,212.58v2.08"/><path class="cls-16" d="M374.37,213.62h-2.12"/><path class="cls-16" d="M376.92,212.64h-.06"/><path class="cls-16" d="M377.93,214.63h-.06"/><path class="cls-17" d="M372.88,206.86a.75.75,0,0,0,.76.74h.58a1.18,1.18,0,0,1,1.18,1.15v.37"/><path class="cls-16" d="M377.51,217.93c-1.66,0-3.3,0-4.91,0a3,3,0,0,1-3.09-3v-2.58a3,3,0,0,1,3.09-3c1.62,0,3.26,0,4.91,0a3,3,0,0,1,3.09,3v2.58A3,3,0,0,1,377.51,217.93Z"/><path class="cls-18" d="M418.18,189.32a54,54,0,0,1-43.72-85.81l19.67,14.29A29.73,29.73,0,0,0,418.18,165Z"/><path class="cls-7" d="M472.56,133.59a54.05,54.05,0,0,1-54.43,55.73l.19-24.32a29.73,29.73,0,0,0,29.93-30.65Z"/><path class="cls-11" d="M374.27,103.77a54.05,54.05,0,0,1,98,31.18l-24.32.15A29.73,29.73,0,0,0,394,118Z"/><path class="cls-5" d="M423.44,98.73l2.91-4.12h.9v5H426V98.36l.14-.08V96.36l-1.08,1.5h1.84l.12-.16h1v1Zm6.35-1.62a3.24,3.24,0,0,0,.07.65,1.43,1.43,0,0,0,.19.49,1,1,0,0,0,.28.32.7.7,0,0,0,.38.11.67.67,0,0,0,.37-.11.93.93,0,0,0,.3-.32,1.66,1.66,0,0,0,.18-.49,2.64,2.64,0,0,0,.07-.65,2.48,2.48,0,0,0-.07-.63,1.63,1.63,0,0,0-.18-.5.89.89,0,0,0-.3-.31.61.61,0,0,0-.37-.12.64.64,0,0,0-.38.12.94.94,0,0,0-.28.31,1.41,1.41,0,0,0-.19.5A3,3,0,0,0,429.79,97.11Zm-1.16,0a3.45,3.45,0,0,1,.25-1.39,2.11,2.11,0,0,1,.74-.89,2.11,2.11,0,0,1,2.2,0,2,2,0,0,1,.72.89,4,4,0,0,1,0,2.79,2,2,0,0,1-.72.9,2.17,2.17,0,0,1-2.2,0,2.14,2.14,0,0,1-.74-.9A3.47,3.47,0,0,1,428.63,97.11Zm4.61-1.31a1.27,1.27,0,0,1,.18-.67,1.33,1.33,0,0,1,1.18-.66,1.3,1.3,0,0,1,.68.18,1.33,1.33,0,0,1,.49.48,1.32,1.32,0,0,1,0,1.33,1.33,1.33,0,0,1-.49.48,1.3,1.3,0,0,1-.68.17,1.29,1.29,0,0,1-1.18-.65A1.26,1.26,0,0,1,433.24,95.8Zm.89,0a.48.48,0,0,0,.06.24.56.56,0,0,0,.16.18.53.53,0,0,0,.24.06.45.45,0,0,0,.24-.06A.42.42,0,0,0,435,96a.46.46,0,0,0,.05-.23.53.53,0,0,0-.05-.25.46.46,0,0,0-.17-.17.45.45,0,0,0-.24-.06.53.53,0,0,0-.24.06.65.65,0,0,0-.16.17A.5.5,0,0,0,434.13,95.79Zm2.66,2.64a1.26,1.26,0,0,1,.18-.66,1.37,1.37,0,0,1,2.35,0,1.39,1.39,0,0,1,0,1.33,1.37,1.37,0,0,1-2.35,0A1.27,1.27,0,0,1,436.79,98.43Zm.89,0a.53.53,0,0,0,.06.24.44.44,0,0,0,.16.17.51.51,0,0,0,.48,0,.44.44,0,0,0,.16-.17.55.55,0,0,0,.07-.24.48.48,0,0,0-.07-.23.4.4,0,0,0-.16-.18.45.45,0,0,0-.48,0,.44.44,0,0,0-.16.17A.48.48,0,0,0,437.68,98.43Zm.05-3.82h1.12l-3.84,5h-1.12Z"/><path class="cls-5" d="M439.8,165.53l2.23-2.31a4.89,4.89,0,0,0,.34-.4,1.31,1.31,0,0,0,.23-.35,1,1,0,0,0,.08-.38.64.64,0,0,0-.05-.23.82.82,0,0,0-.12-.2.64.64,0,0,0-.22-.14.77.77,0,0,0-.71.06.78.78,0,0,0-.27.32,1.42,1.42,0,0,0-.08.48H440a2.24,2.24,0,0,1,.22-1,1.64,1.64,0,0,1,.67-.71,2.1,2.1,0,0,1,1.09-.27,2.12,2.12,0,0,1,.83.15,1.61,1.61,0,0,1,.59.37,1.52,1.52,0,0,1,.37.51,1.38,1.38,0,0,1,.12.56,1.5,1.5,0,0,1-.2.75,2.77,2.77,0,0,1-.52.62l-1.17,1h2v1.11Zm8.88-1.6a1.68,1.68,0,0,1-.17.77,1.62,1.62,0,0,1-.48.53,2,2,0,0,1-.65.3,2.5,2.5,0,0,1-.72.1,3,3,0,0,1-.82-.1,2.44,2.44,0,0,1-.66-.23,3.38,3.38,0,0,1-.53-.32l.47-1a3.25,3.25,0,0,0,.43.29,2.44,2.44,0,0,0,.44.19,1.55,1.55,0,0,0,.4.06,1.66,1.66,0,0,0,.53-.07.68.68,0,0,0,.32-.25.65.65,0,0,0,.12-.4.57.57,0,0,0-.14-.4,1,1,0,0,0-.36-.23,1.41,1.41,0,0,0-.47-.07l-.43,0a2.23,2.23,0,0,0-.48.09,2.27,2.27,0,0,0-.5.2l.71-2.9h2.89v1h-2l-.28.89a2,2,0,0,1,.41-.13,3.42,3.42,0,0,1,.46,0,1.57,1.57,0,0,1,.74.19,1.46,1.46,0,0,1,.57.56A1.78,1.78,0,0,1,448.68,163.93Zm.45-2.22a1.3,1.3,0,0,1,.17-.66,1.41,1.41,0,0,1,.49-.48,1.34,1.34,0,0,1,.69-.18,1.36,1.36,0,0,1,1.18.66,1.21,1.21,0,0,1,.18.66,1.31,1.31,0,0,1-.67,1.15,1.41,1.41,0,0,1-.69.17,1.44,1.44,0,0,1-.69-.17,1.27,1.27,0,0,1-.66-1.15Zm.89,0a.54.54,0,0,0,.06.25.44.44,0,0,0,.16.17.51.51,0,0,0,.48,0,.44.44,0,0,0,.16-.17.53.53,0,0,0,.06-.24.48.48,0,0,0-.06-.24.44.44,0,0,0-.16-.17.45.45,0,0,0-.48,0,.44.44,0,0,0-.16.17A.46.46,0,0,0,450,161.7Zm2.65,2.65a1.27,1.27,0,0,1,.18-.67,1.41,1.41,0,0,1,.49-.48,1.41,1.41,0,0,1,1.38,0,1.23,1.23,0,0,1,.48.48,1.32,1.32,0,0,1,0,1.33,1.23,1.23,0,0,1-.48.48,1.41,1.41,0,0,1-1.38,0,1.41,1.41,0,0,1-.49-.48A1.26,1.26,0,0,1,452.67,164.35Zm.9,0a.46.46,0,0,0,.06.23.41.41,0,0,0,.15.17.45.45,0,0,0,.25.07.35.35,0,0,0,.23-.07.4.4,0,0,0,.17-.17.46.46,0,0,0,.06-.23.48.48,0,0,0-.06-.24.37.37,0,0,0-.17-.18.41.41,0,0,0-.23-.06.54.54,0,0,0-.25.06.41.41,0,0,0-.15.17A.51.51,0,0,0,453.57,164.35Zm.05-3.83h1.12l-3.85,5h-1.11Z"/><path class="cls-5" d="M373.76,150.4a4,4,0,0,0,1.07-.14,1.81,1.81,0,0,0,.76-.43,1,1,0,0,0,.28-.72,1.22,1.22,0,0,0-.2-.7,1.42,1.42,0,0,0-.6-.5,2.13,2.13,0,0,0-1-.19,2,2,0,0,0-.93.21,1.53,1.53,0,0,0-.62.56,1.51,1.51,0,0,0-.21.79h1.1a.57.57,0,0,1,.19-.43.67.67,0,0,1,.47-.16.73.73,0,0,1,.32.06.39.39,0,0,1,.18.18.43.43,0,0,1,.07.25.48.48,0,0,1-.07.26.64.64,0,0,1-.19.22,1.13,1.13,0,0,1-.29.15,1.44,1.44,0,0,1-.37.05Zm.3,2.54a2.74,2.74,0,0,0,1.05-.18,1.63,1.63,0,0,0,.67-.53,1.28,1.28,0,0,0,.24-.77,1.23,1.23,0,0,0-.17-.65,1.27,1.27,0,0,0-.47-.45,2.27,2.27,0,0,0-.72-.25,4.22,4.22,0,0,0-.9-.09v.62a1.7,1.7,0,0,1,.47.05.84.84,0,0,1,.33.15.6.6,0,0,1,.2.22.64.64,0,0,1,.06.28.69.69,0,0,1-.09.36.52.52,0,0,1-.26.2.84.84,0,0,1-.37.07,1.09,1.09,0,0,1-.39-.08.6.6,0,0,1-.28-.24.68.68,0,0,1-.11-.41h-1.19a1.51,1.51,0,0,0,.13.63,1.91,1.91,0,0,0,.38.56,1.78,1.78,0,0,0,.61.37A2.09,2.09,0,0,0,374.06,152.94Zm6.5-1.72a1.71,1.71,0,0,0-.21-.88,1.4,1.4,0,0,0-.57-.56,1.47,1.47,0,0,0-.74-.2,2.31,2.31,0,0,0-.46,0,1.23,1.23,0,0,0-.41.13l.28-.9h2v-1h-2.9l-.7,2.89a2.9,2.9,0,0,1,.5-.2l.48-.09.43,0a1.78,1.78,0,0,1,.47.07.83.83,0,0,1,.36.23.59.59,0,0,1,.14.4.69.69,0,0,1-.12.41.66.66,0,0,1-.32.24,1.64,1.64,0,0,1-.53.08,1.25,1.25,0,0,1-.4-.07,2.72,2.72,0,0,1-.44-.18,2,2,0,0,1-.42-.3l-.48,1a4,4,0,0,0,.53.33,3.53,3.53,0,0,0,.65.23,3.61,3.61,0,0,0,.84.09,2.82,2.82,0,0,0,.71-.09,2.06,2.06,0,0,0,.65-.31,1.49,1.49,0,0,0,.47-.53A1.57,1.57,0,0,0,380.56,151.22ZM381,149a1.42,1.42,0,0,0,.17.67,1.33,1.33,0,0,0,.49.48,1.44,1.44,0,0,0,.69.17,1.41,1.41,0,0,0,.69-.17,1.31,1.31,0,0,0,.67-1.15,1.23,1.23,0,0,0-.18-.66A1.35,1.35,0,0,0,381,149Zm.89,0a.48.48,0,0,1,.06-.24.44.44,0,0,1,.16-.17.45.45,0,0,1,.48,0,.37.37,0,0,1,.16.17.48.48,0,0,1,.06.24.5.5,0,0,1-.06.24.37.37,0,0,1-.16.17.45.45,0,0,1-.48,0,.44.44,0,0,1-.16-.17A.53.53,0,0,1,381.9,149Zm2.65,2.64a1.26,1.26,0,0,0,.18.66,1.41,1.41,0,0,0,.49.48,1.34,1.34,0,0,0,.69.18,1.31,1.31,0,0,0,.69-.18,1.23,1.23,0,0,0,.48-.48,1.32,1.32,0,0,0,0-1.33,1.23,1.23,0,0,0-.48-.48,1.31,1.31,0,0,0-.69-.18,1.34,1.34,0,0,0-.69.18,1.41,1.41,0,0,0-.49.48A1.27,1.27,0,0,0,384.55,151.64Zm.9,0a.54.54,0,0,1,.06-.25.49.49,0,0,1,.15-.17.54.54,0,0,1,.25-.06.41.41,0,0,1,.23.06.48.48,0,0,1,.17.18.48.48,0,0,1,.06.24.46.46,0,0,1-.06.23.42.42,0,0,1-.17.18.41.41,0,0,1-.23.06.54.54,0,0,1-.25-.06.44.44,0,0,1-.15-.18A.46.46,0,0,1,385.45,151.64Zm.05-3.82-3.84,5h1.11l3.85-5Z"/><path class="cls-8" d="M468.65,60.74a.81.81,0,0,1-.81.8.81.81,0,0,1,0-1.61A.81.81,0,0,1,468.65,60.74ZM467,63.69a.81.81,0,0,1,.8-.81.81.81,0,1,1,0,1.62A.81.81,0,0,1,467,63.69Zm0,3a.8.8,0,0,1,.8-.8.81.81,0,1,1-.8.8Z"/><path class="cls-9" d="M368.42,59.62h1.07v6.27h-1.07Zm2,6.27h-1.37v-1h1.34a2.63,2.63,0,0,0,.86-.13,1.85,1.85,0,0,0,1.14-1.07,2.45,2.45,0,0,0,.17-.93,2.38,2.38,0,0,0-.17-.93,1.82,1.82,0,0,0-.46-.68,1.86,1.86,0,0,0-.68-.4,2.63,2.63,0,0,0-.86-.13h-1.34v-1h1.37a3.37,3.37,0,0,1,1.68.4,2.76,2.76,0,0,1,1.13,1.09,3.2,3.2,0,0,1,.41,1.65,3.26,3.26,0,0,1-.41,1.65,2.82,2.82,0,0,1-1.13,1.09A3.47,3.47,0,0,1,370.44,65.89Zm4.78-1.28a.65.65,0,0,0,.1.36.61.61,0,0,0,.26.21,1.07,1.07,0,0,0,.41.07,1.27,1.27,0,0,0,.52-.11,1,1,0,0,0,.38-.34,1,1,0,0,0,.15-.54l.15.54a1,1,0,0,1-.24.66,1.45,1.45,0,0,1-.57.39,2.11,2.11,0,0,1-.7.13,1.57,1.57,0,0,1-.71-.16,1.27,1.27,0,0,1-.53-.44,1.29,1.29,0,0,1-.2-.72,1.18,1.18,0,0,1,.42-.95,1.78,1.78,0,0,1,1.19-.35,2.48,2.48,0,0,1,.71.08,2.14,2.14,0,0,1,.5.22,1.54,1.54,0,0,1,.28.21v.5a2,2,0,0,0-.59-.29,2.39,2.39,0,0,0-.66-.09,1.37,1.37,0,0,0-.5.08.61.61,0,0,0-.28.21A.58.58,0,0,0,375.22,64.61Zm-.31-1.77-.39-.68a4.15,4.15,0,0,1,.72-.33,3.1,3.1,0,0,1,1-.16,2.26,2.26,0,0,1,.9.16,1.41,1.41,0,0,1,.62.43A1.08,1.08,0,0,1,378,63v2.94H377V63.14a.61.61,0,0,0-.07-.32.52.52,0,0,0-.18-.21.78.78,0,0,0-.28-.11,1.22,1.22,0,0,0-.34,0,1.93,1.93,0,0,0-.55.07,2.25,2.25,0,0,0-.44.16Zm4.17-2.71a.58.58,0,0,1,.18-.42.65.65,0,0,1,.43-.17.6.6,0,0,1,.43.17.58.58,0,0,1,0,.84.56.56,0,0,1-.43.17.6.6,0,0,1-.43-.17A.58.58,0,0,1,379.08,60.13Zm.14,1.64h.94v4.12h-.94Zm2.27-2.86h1v7h-1Zm5.85,2.86-2.69,6.09h-1l1.08-2.46L383,61.77h1.11L385.47,65,385,65l1.29-3.23Zm4.09,2.51.2-.9h2.91l.2.9Zm1.64-2.88-1,2.29,0,.24-.87,2H390l3.06-6.62,3.06,6.62h-1.19L394.09,64l0-.26Zm4.35,2.43a1.41,1.41,0,0,0,.17.69,1.24,1.24,0,0,0,.46.45,1.19,1.19,0,0,0,.65.17,1.69,1.69,0,0,0,.56-.09,1.38,1.38,0,0,0,.48-.25.9.9,0,0,0,.3-.35v1.06a1.42,1.42,0,0,1-.58.34,2.53,2.53,0,0,1-.8.13,2.44,2.44,0,0,1-1.15-.27,2.24,2.24,0,0,1-.8-.76,2.19,2.19,0,0,1-.28-1.12,2.17,2.17,0,0,1,.28-1.12,2.13,2.13,0,0,1,.8-.75,2.33,2.33,0,0,1,1.15-.28,2.28,2.28,0,0,1,.8.13,1.31,1.31,0,0,1,.58.34v1.06a1,1,0,0,0-.31-.36,1.92,1.92,0,0,0-.47-.25,1.77,1.77,0,0,0-.56-.09,1.25,1.25,0,0,0-1.11.64A1.37,1.37,0,0,0,397.42,63.83Zm3.12-2.06h2.33v.85h-2.33Zm.69-1.43h1v5.55h-1Zm2.27-.21a.58.58,0,0,1,.18-.42.65.65,0,0,1,.43-.17.59.59,0,0,1,.43,1,.54.54,0,0,1-.43.17.6.6,0,0,1-.43-.17A.58.58,0,0,1,403.5,60.13Zm.14,1.64h.95v4.12h-.95Zm1.65,0h1.06l1.07,2.66,1.08-2.66h1.06l-2.14,4.49Zm4.84-1.64a.58.58,0,0,1,.18-.42.63.63,0,0,1,.43-.17.61.61,0,0,1,.43.17.59.59,0,0,1-.43,1,.59.59,0,0,1-.43-.17A.58.58,0,0,1,410.13,60.13Zm.13,1.64h.95v4.12h-.95Zm1.71,0h2.34v.85H412Zm.69-1.43h1v5.55h-1Zm2.28-.21a.57.57,0,0,1,.17-.42.65.65,0,0,1,.43-.17.59.59,0,0,1,.43,1,.54.54,0,0,1-.43.17.6.6,0,0,1-.43-.17A.57.57,0,0,1,414.94,60.13Zm.13,1.64H416v4.12h-.95ZM419.14,66a2.23,2.23,0,0,1-1.11-.27,1.82,1.82,0,0,1-.73-.75,2.61,2.61,0,0,1,0-2.27A1.82,1.82,0,0,1,418,62a2.56,2.56,0,0,1,2.25,0,1.65,1.65,0,0,1,.7.73,2.29,2.29,0,0,1,.25,1.12.92.92,0,0,1,0,.16.31.31,0,0,1,0,.11h-3.61v-.66h2.79l-.3.41a.64.64,0,0,0,.06-.14.61.61,0,0,0,0-.16,1.14,1.14,0,0,0-.13-.57.88.88,0,0,0-.36-.38,1,1,0,0,0-.53-.13,1.12,1.12,0,0,0-.62.16,1,1,0,0,0-.4.46,1.86,1.86,0,0,0-.14.75,1.88,1.88,0,0,0,.13.76,1,1,0,0,0,.4.47,1.19,1.19,0,0,0,.64.16,1.41,1.41,0,0,0,.69-.16,1.28,1.28,0,0,0,.49-.49l.84.34a2.23,2.23,0,0,1-.84.83A2.59,2.59,0,0,1,419.14,66Zm3.21-1.44a4.43,4.43,0,0,0,.39.37,1.75,1.75,0,0,0,.42.23,1.15,1.15,0,0,0,.41.08.62.62,0,0,0,.4-.12.38.38,0,0,0,.15-.32.49.49,0,0,0-.11-.31.91.91,0,0,0-.33-.22,3.89,3.89,0,0,0-.48-.2,4.46,4.46,0,0,1-.55-.25,1.41,1.41,0,0,1-.45-.39,1.16,1.16,0,0,1,0-1.24,1.11,1.11,0,0,1,.51-.36,2,2,0,0,1,1.35,0,2.25,2.25,0,0,1,.54.26,2.14,2.14,0,0,1,.42.37l-.54.57a1.69,1.69,0,0,0-.49-.39,1.19,1.19,0,0,0-.59-.16.63.63,0,0,0-.35.09.32.32,0,0,0-.13.26.35.35,0,0,0,.12.26,1.36,1.36,0,0,0,.32.2l.46.19a5.07,5.07,0,0,1,.62.29,1.39,1.39,0,0,1,.46.4.93.93,0,0,1,.17.6,1.21,1.21,0,0,1-.39.94,1.56,1.56,0,0,1-1.08.35,2.45,2.45,0,0,1-.78-.12,2.83,2.83,0,0,1-.62-.34,3.57,3.57,0,0,1-.43-.45Z"/><rect class="cls-5" x="79.95" y="45.08" width="265.22" height="157.48" rx="12.53"/><line class="cls-19" x1="112.16" y1="87.49" x2="329.42" y2="87.49"/><line class="cls-19" x1="112.16" y1="144.76" x2="329.42" y2="144.76"/><line class="cls-19" x1="112.16" y1="116.12" x2="329.42" y2="116.12"/><line class="cls-19" x1="112.16" y1="173.39" x2="329.42" y2="173.39"/><path class="cls-14" d="M94.45,89.24a1.15,1.15,0,0,1-.74-.24,1.22,1.22,0,0,1-.44-.67l.48-.16a.85.85,0,0,0,.12.26.69.69,0,0,0,.23.22.59.59,0,0,0,.34.09.85.85,0,0,0,.57-.18.87.87,0,0,0,0-1.16.77.77,0,0,0-.59-.22h-.25V86.7h.25a.66.66,0,0,0,.52-.2.73.73,0,0,0,.19-.52.56.56,0,0,0-.21-.49.74.74,0,0,0-.46-.14.54.54,0,0,0-.31.09.88.88,0,0,0-.21.22,1.2,1.2,0,0,0-.13.25l-.47-.19a1.38,1.38,0,0,1,.46-.65,1.1,1.1,0,0,1,.67-.22,1.22,1.22,0,0,1,.86.3,1,1,0,0,1,.34.82,1,1,0,0,1-.17.58,1.1,1.1,0,0,1-.45.38,1,1,0,0,1,.52.4,1.14,1.14,0,0,1,.2.66,1.25,1.25,0,0,1-.33.9A1.28,1.28,0,0,1,94.45,89.24Zm3.12,0a1,1,0,0,1-1-.54,5.21,5.21,0,0,1,0-3.31,1.1,1.1,0,0,1,1.91,0,5.21,5.21,0,0,1,0,3.31A1,1,0,0,1,97.57,89.24Zm0-.51a.58.58,0,0,0,.41-.15,1,1,0,0,0,.22-.53,7.32,7.32,0,0,0,0-2A1,1,0,0,0,98,85.5a.58.58,0,0,0-.41-.15.56.56,0,0,0-.41.15,1,1,0,0,0-.23.53,7.32,7.32,0,0,0,0,2,1,1,0,0,0,.23.53A.56.56,0,0,0,97.57,88.73Zm2,.44V84.91h.56v1.86l1.78-1.86h.72l-1.93,2,2,2.27H102L100.09,87v2.16Z"/><path class="cls-14" d="M95.18,117.81v-3.6l-.8.51-.27-.44,1.2-.74h.39v4.27Zm2.63,0a1.42,1.42,0,0,1-.69-.18,1.34,1.34,0,0,1-.51-.49l.44-.28a1,1,0,0,0,.33.33.77.77,0,0,0,.43.12.74.74,0,0,0,.59-.22.94.94,0,0,0,.21-.65.92.92,0,0,0-.19-.62.6.6,0,0,0-.49-.22.64.64,0,0,0-.35.1.53.53,0,0,0-.23.24h-.48v-2.42H99V114H97.4v1.33a.76.76,0,0,1,.54-.21,1.16,1.16,0,0,1,.61.16,1.15,1.15,0,0,1,.42.45,1.52,1.52,0,0,1,.15.71,1.36,1.36,0,0,1-.36,1A1.28,1.28,0,0,1,97.81,117.84Zm2,0v-4.26h.55v1.85l1.79-1.85h.72l-1.94,2,2,2.27h-.73l-1.86-2.16v2.16Z"/><path class="cls-14" d="M94.69,146.44v-3.6l-.81.52-.27-.44,1.2-.75h.39v4.27Zm2.81.07a1,1,0,0,1-1-.54,3.93,3.93,0,0,1-.27-1.66,3.85,3.85,0,0,1,.27-1.65,1.11,1.11,0,0,1,1.92,0,4,4,0,0,1,.26,1.65,4.13,4.13,0,0,1-.26,1.66A1,1,0,0,1,97.5,146.51Zm0-.51a.56.56,0,0,0,.41-.15,1,1,0,0,0,.22-.53,5.26,5.26,0,0,0,.08-1,5.38,5.38,0,0,0-.08-1,1,1,0,0,0-.22-.52.57.57,0,0,0-.41-.16.58.58,0,0,0-.41.16,1.05,1.05,0,0,0-.23.52,5.52,5.52,0,0,0-.07,1,5.4,5.4,0,0,0,.07,1,1.09,1.09,0,0,0,.23.53A.58.58,0,0,0,97.5,146Zm2,.44v-4.26H100V144l1.79-1.86h.72l-1.94,2,2,2.27h-.72L100,144.28v2.16Z"/><path class="cls-14" d="M100.88,175.14a1,1,0,0,1-1-.54,5.21,5.21,0,0,1,0-3.31,1.1,1.1,0,0,1,1.91,0,5.21,5.21,0,0,1,0,3.31A1,1,0,0,1,100.88,175.14Zm0-.5a.54.54,0,0,0,.4-.16.9.9,0,0,0,.23-.53,7.32,7.32,0,0,0,0-2,.94.94,0,0,0-.23-.53.54.54,0,0,0-.4-.15.58.58,0,0,0-.41.15,1,1,0,0,0-.23.53,7.32,7.32,0,0,0,0,2,1,1,0,0,0,.23.53A.58.58,0,0,0,100.88,174.64Z"/><path class="cls-14" d="M315.29,187.6l1.66-4.26h.49l1.66,4.26h-.63l-.4-1.09h-1.76l-.41,1.09ZM316.5,186h1.38l-.68-1.85Zm4.05,1.68a1,1,0,0,1-.75-.29,1.2,1.2,0,0,1-.28-.86v-1.84h.54v1.73a.81.81,0,0,0,.17.57.55.55,0,0,0,.44.19.69.69,0,0,0,.5-.2.74.74,0,0,0,.2-.56v-1.73h.54v2.92h-.49l0-.38a1.21,1.21,0,0,1-.35.32A1,1,0,0,1,320.55,187.67Zm3.33,1.19a1.39,1.39,0,0,1-1.27-.67l.44-.3a.89.89,0,0,0,.83.46.72.72,0,0,0,.6-.25,1.28,1.28,0,0,0,.2-.78V187a1,1,0,0,1-.36.28,1,1,0,0,1-.46.11,1.4,1.4,0,0,1-.68-.17,1.18,1.18,0,0,1-.47-.47,1.61,1.61,0,0,1-.16-.76,1.53,1.53,0,0,1,.16-.74,1.21,1.21,0,0,1,.47-.48,1.39,1.39,0,0,1,.68-.16,1.06,1.06,0,0,1,.48.11,1.15,1.15,0,0,1,.38.31l0-.35h.48v2.64a1.62,1.62,0,0,1-.35,1.14A1.2,1.2,0,0,1,323.88,188.86Zm0-2a.78.78,0,0,0,.59-.25.93.93,0,0,0,.24-.67.88.88,0,0,0-.24-.65.75.75,0,0,0-.59-.25.72.72,0,0,0-.57.25.92.92,0,0,0-.22.65,1,1,0,0,0,.22.67A.76.76,0,0,0,323.89,186.91Z"/><path class="cls-14" d="M289.71,187.69a1.25,1.25,0,0,1-1-.38,1.61,1.61,0,0,1-.31-1h.55a1,1,0,0,0,.2.66.89.89,0,0,0,1.15,0,1,1,0,0,0,.19-.66v-2.93h.57v2.93a1.61,1.61,0,0,1-.32,1A1.25,1.25,0,0,1,289.71,187.69Zm3.12,0a1,1,0,0,1-.75-.29,1.21,1.21,0,0,1-.29-.86v-1.84h.54v1.73a.86.86,0,0,0,.17.57.56.56,0,0,0,.44.19.69.69,0,0,0,.51-.2.78.78,0,0,0,.2-.56v-1.73h.54v2.92h-.49l0-.38a1.09,1.09,0,0,1-.35.32A1,1,0,0,1,292.83,187.67Zm2.15-.07v-4.36h.55v4.36Z"/><path class="cls-14" d="M261.92,187.69a1.25,1.25,0,0,1-1-.38,1.61,1.61,0,0,1-.31-1h.55a1,1,0,0,0,.19.66.76.76,0,0,0,.58.21.73.73,0,0,0,.58-.21,1,1,0,0,0,.19-.66v-2.93h.57v2.93a1.61,1.61,0,0,1-.32,1A1.26,1.26,0,0,1,261.92,187.69Zm3.11,0a1,1,0,0,1-.74-.29,1.17,1.17,0,0,1-.29-.86v-1.84h.54v1.73a.86.86,0,0,0,.17.57.55.55,0,0,0,.44.19.67.67,0,0,0,.5-.2.75.75,0,0,0,.21-.56v-1.73h.54v2.92h-.5l0-.38a1.21,1.21,0,0,1-.35.32A1,1,0,0,1,265,187.67Zm2.16-.07v-2.92h.49l0,.38a1.3,1.3,0,0,1,.34-.32,1,1,0,0,1,.5-.13,1,1,0,0,1,.75.29,1.15,1.15,0,0,1,.29.86v1.84h-.54v-1.73a.81.81,0,0,0-.17-.57.55.55,0,0,0-.44-.19.66.66,0,0,0-.51.2.76.76,0,0,0-.19.54v1.75Z"/><path class="cls-14" d="M230.68,187.6v-4.26h.55l1.33,2.11,1.32-2.11h.56v4.26h-.57v-3.29l-1.15,1.87h-.32l-1.16-1.87v3.29Zm5.48.05a1.14,1.14,0,0,1-.73-.2.82.82,0,0,1-.1-1.15,1.34,1.34,0,0,1,.49-.34,1.72,1.72,0,0,1,.63-.12,1,1,0,0,1,.35,0,.84.84,0,0,1,.27.13v-.36a.53.53,0,0,0-.15-.45.72.72,0,0,0-.43-.1,2,2,0,0,0-1,.32l-.25-.43a2.49,2.49,0,0,1,.59-.26,2.09,2.09,0,0,1,.7-.11,1.29,1.29,0,0,1,.83.22,1,1,0,0,1,.27.81v1.46c0,.08,0,.12.06.14a.84.84,0,0,0,.28,0v.35l-.2.06a1.07,1.07,0,0,1-.25,0,.47.47,0,0,1-.28-.07.43.43,0,0,1-.12-.27,1,1,0,0,1-.41.25A2.28,2.28,0,0,1,236.16,187.65Zm0-.48a2.11,2.11,0,0,0,.46-.07.89.89,0,0,0,.34-.21.42.42,0,0,0,.11-.31.28.28,0,0,0-.18-.25,1.18,1.18,0,0,0-.41-.06,1.3,1.3,0,0,0-.41.09.86.86,0,0,0-.31.19.45.45,0,0,0-.11.28.33.33,0,0,0,.14.26A.66.66,0,0,0,236.17,187.17Zm2.49,1.69a2.26,2.26,0,0,1-.47-.05v-.5l.2,0,.22,0a.48.48,0,0,0,.33-.09,1,1,0,0,0,.18-.32l.13-.36-1.15-2.91h.57l.82,2.25.79-2.25h.56l-1.25,3.43a1.41,1.41,0,0,1-.34.56A.82.82,0,0,1,238.66,188.86Z"/><path class="cls-14" d="M201.57,187.6l1.66-4.26h.49l1.66,4.26h-.63l-.4-1.09h-1.76l-.41,1.09Zm1.21-1.61h1.38l-.68-1.85Zm3.07,2.84v-4.15h.48l0,.41a1.33,1.33,0,0,1,.39-.36,1.11,1.11,0,0,1,.52-.12,1.3,1.3,0,0,1,.71.19,1.23,1.23,0,0,1,.49.52,1.94,1.94,0,0,1,0,1.63,1.26,1.26,0,0,1-.49.53,1.3,1.3,0,0,1-.71.19,1,1,0,0,1-.5-.12,1.16,1.16,0,0,1-.37-.33v1.61Zm1.39-1.66a.75.75,0,0,0,.61-.28,1.07,1.07,0,0,0,.25-.76,1,1,0,0,0-.25-.75.78.78,0,0,0-.61-.27.81.81,0,0,0-.62.27,1.14,1.14,0,0,0-.23.75,1.17,1.17,0,0,0,.23.76A.79.79,0,0,0,207.24,187.17Zm2,.43v-2.92h.5l0,.46a1,1,0,0,1,.36-.39,1.14,1.14,0,0,1,.54-.14h.18l.15,0v.53l-.17,0h-.23a.82.82,0,0,0-.58.23.71.71,0,0,0-.23.57v1.67Z"/><path class="cls-14" d="M173.48,187.6v-4.26H174l1.33,2.11,1.32-2.11h.56v4.26h-.57v-3.29l-1.15,1.87h-.32L174,184.31v3.29Zm5.48.05a1.14,1.14,0,0,1-.73-.2.82.82,0,0,1-.1-1.15,1.34,1.34,0,0,1,.49-.34,1.72,1.72,0,0,1,.63-.12,1,1,0,0,1,.35,0,.84.84,0,0,1,.27.13v-.36a.53.53,0,0,0-.15-.45.72.72,0,0,0-.43-.1,1.86,1.86,0,0,0-.55.09,2,2,0,0,0-.49.23L178,185a2.49,2.49,0,0,1,.59-.26,2.09,2.09,0,0,1,.7-.11,1.29,1.29,0,0,1,.83.22,1,1,0,0,1,.27.81v1.46c0,.08,0,.12.06.14a.84.84,0,0,0,.28,0v.35l-.2.06a1.07,1.07,0,0,1-.25,0,.47.47,0,0,1-.28-.07.43.43,0,0,1-.12-.27,1,1,0,0,1-.41.25A2.28,2.28,0,0,1,179,187.65Zm0-.48a2.11,2.11,0,0,0,.46-.07.82.82,0,0,0,.34-.21.42.42,0,0,0,.11-.31.28.28,0,0,0-.18-.25,1.18,1.18,0,0,0-.41-.06,1.3,1.3,0,0,0-.41.09.86.86,0,0,0-.31.19.45.45,0,0,0-.11.28.36.36,0,0,0,.14.26A.68.68,0,0,0,179,187.17Zm2.34.43v-2.92h.5l0,.46a1,1,0,0,1,.37-.39,1.08,1.08,0,0,1,.53-.14h.19l.14,0v.53l-.17,0h-.22a.82.82,0,0,0-.58.23.72.72,0,0,0-.24.57v1.67Z"/><path class="cls-14" d="M144,187.6v-4.26h2.79v.52h-2.24v1.3h2v.53h-2v1.91Zm4.55.07a1.44,1.44,0,0,1-.73-.18,1.18,1.18,0,0,1-.49-.52,1.78,1.78,0,0,1-.18-.83,1.73,1.73,0,0,1,.18-.81,1.18,1.18,0,0,1,.48-.53,1.28,1.28,0,0,1,.71-.19,1.1,1.1,0,0,1,.68.2,1.22,1.22,0,0,1,.43.52,1.72,1.72,0,0,1,.15.72v.15h-2.09a1,1,0,0,0,.24.74.86.86,0,0,0,.63.25A.8.8,0,0,0,149,187a1.16,1.16,0,0,0,.34-.45l.42.27a1.43,1.43,0,0,1-.53.62A1.4,1.4,0,0,1,148.52,187.67Zm-.83-1.91h1.53a.87.87,0,0,0-.24-.51.69.69,0,0,0-.5-.2.77.77,0,0,0-.52.18A.87.87,0,0,0,147.69,185.76Zm4.15,1.91a1.14,1.14,0,0,1-.52-.13,1.33,1.33,0,0,1-.39-.36l0,.42h-.48v-4.36H151v1.81a1.19,1.19,0,0,1,.38-.33,1.1,1.1,0,0,1,.49-.11,1.3,1.3,0,0,1,.71.19,1.23,1.23,0,0,1,.49.52,1.74,1.74,0,0,1,.18.82,1.8,1.8,0,0,1-.18.82,1.33,1.33,0,0,1-1.2.71Zm0-.5a.75.75,0,0,0,.61-.28,1,1,0,0,0,.25-.75,1.07,1.07,0,0,0-.25-.76.82.82,0,0,0-1.22,0,1.12,1.12,0,0,0-.24.76,1.09,1.09,0,0,0,.24.75A.75.75,0,0,0,151.82,187.17Z"/><path class="cls-14" d="M117.07,187.69a1.25,1.25,0,0,1-1-.38,1.61,1.61,0,0,1-.31-1h.55a1,1,0,0,0,.2.66.89.89,0,0,0,1.15,0,1,1,0,0,0,.19-.66v-2.93h.57v2.93a1.61,1.61,0,0,1-.32,1A1.26,1.26,0,0,1,117.07,187.69Zm3,0a1.16,1.16,0,0,1-.74-.2.76.76,0,0,1-.29-.63.81.81,0,0,1,.19-.52,1.39,1.39,0,0,1,.5-.34,1.67,1.67,0,0,1,.62-.12,1,1,0,0,1,.35,0,.75.75,0,0,1,.27.13v-.36a.56.56,0,0,0-.14-.45.75.75,0,0,0-.44-.1,1.91,1.91,0,0,0-.55.09,2,2,0,0,0-.49.23l-.25-.43a2.49,2.49,0,0,1,.59-.26,2.09,2.09,0,0,1,.7-.11,1.29,1.29,0,0,1,.83.22,1,1,0,0,1,.28.81v1.46c0,.08,0,.12.06.14a.79.79,0,0,0,.27,0v.35l-.2.06a1,1,0,0,1-.25,0,.5.5,0,0,1-.28-.07.49.49,0,0,1-.12-.27,1,1,0,0,1-.41.25A2.19,2.19,0,0,1,120.08,187.65Zm0-.48a2,2,0,0,0,.46-.07.76.76,0,0,0,.34-.21.39.39,0,0,0,.11-.31.28.28,0,0,0-.18-.25,1.15,1.15,0,0,0-.41-.06,1.36,1.36,0,0,0-.41.09.74.74,0,0,0-.3.19.4.4,0,0,0-.11.28.3.3,0,0,0,.14.26A.64.64,0,0,0,120.08,187.17Zm2.35.43v-2.92h.49l0,.38a1.16,1.16,0,0,1,.34-.32.93.93,0,0,1,.5-.13,1,1,0,0,1,.75.3,1.15,1.15,0,0,1,.29.85v1.84h-.54v-1.73a.86.86,0,0,0-.17-.57.57.57,0,0,0-.45-.19.65.65,0,0,0-.5.2.77.77,0,0,0-.2.54v1.75Z"/><path class="cls-20" d="M128.45,125.07c-5.16-3.15-12.53,30.78-15.57,48.14l216,.36a8.54,8.54,0,0,0-.71-1.79c-.18-1.43-1.08-2.86-4.12-7.16-5.3-4.44-10.08-3.64-11.81-2.68-.6.36-2.36,1.39-4.65,2.68-3.15.86-5.25-1.79-5.91-3.22a79.91,79.91,0,0,1-4.3-10.56c-1.71-6.15-4.53-4.59-5.72-3-.48.42-1.86,1.61-3.58,3-3,.72-4.95-4-5.55-6.44-1.25-4.12-4.15-13.24-5.73-16.82-2.14-3.58-5.07-1.85-6.26-.54-1.73,2.69-5.51,8.52-6.8,10.38s-2.8,1.85-3.4,1.61a14.77,14.77,0,0,1-3.4-2.33,3.69,3.69,0,0,0-3.58,0L250.68,139c-1.26-.18-1.26,0-2-.71-1-.58-2.93-6.33-3.76-9.13a36.89,36.89,0,0,0-2.68-6.09c-3.87-3.29-6.27,7.22-7,12.89-.72,5.13-2.19,15.89-2.33,17.9a37.92,37.92,0,0,1-1.79,7.51c-.89,1.79-1.61,1.08-2.51.54a16.13,16.13,0,0,0-5.54-6.27c-2.09-.83-6.73-2.86-8.59-4.29a4.47,4.47,0,0,0-4.66-.54,6.91,6.91,0,0,1-3.93,1.26c-2.58,0-4.54-3.7-5.19-5.55-1-2-3.22-6.52-3.94-8.23a19.88,19.88,0,0,0-4.12-6.27c-3.4-2.32-5.54.54-7.15,2.33-2.33,1.43-3.76-.18-5-2.33-1.43-1.72-3.93-10-5-14-.47-1.31-2-5.15-4.11-10-3-4.72-6.39.18-7.7,3.22-2.86,6.74-8.84,20.65-9.84,22.37-1.25,2.15-2,2.33-4.12,2.33s-6.2-4.12-7.87-6.26c-.6-.42-2-1.11-2.86-.54-2,2.29-3.58,1.55-4.12.89C133.34,128.59,129.88,125.5,128.45,125.07Z"/><path class="cls-15" d="M328.55,173.57a.86.86,0,0,1-.82-.59c-3-9.46-8.78-10.88-12-10.88a11.4,11.4,0,0,0-5.59,1.94c-1.53.88-3,1.7-4.51,1.48-4.27-.62-6.17-6.16-7.87-11.06-1.24-3.62-2.52-7.36-4.3-7.3-.6,0-1.33.92-2,1.79-1.05,1.29-2.23,2.75-4,2.75-3.8,0-5.62-6.34-7.55-13-1.62-5.68-3.48-12.12-6.16-12.29-2.09-.16-4.08,3.42-5.9,6.55-2.32,4-4.72,8.07-8,7a6.7,6.7,0,0,1-2.29-1.5,3.46,3.46,0,0,0-2.52-1.24,3.94,3.94,0,0,0-2.54,1.44,3.4,3.4,0,0,1-2.75,1.33c-2.16-.29-3.3-3.82-4.76-8.29-1.1-3.43-2.62-8.13-4.18-8.13-3,0-4.68,13.22-5.79,22-1.52,11.95-2.39,18.18-5.35,17.86-1-.12-1.58-1-2.22-2.08a12.41,12.41,0,0,0-3.73-4.2,6,6,0,0,0-1.76-.87,21.91,21.91,0,0,1-3.05-1.29,35.75,35.75,0,0,1-3.91-2.31,5.54,5.54,0,0,0-2.66-1.22,4,4,0,0,0-2.88.73,5.82,5.82,0,0,1-2.49.94c-4.41.41-7-5.41-9.43-11-2.14-4.84-4.34-9.86-7.25-9.86a3.89,3.89,0,0,0-2.94,1.64,4.93,4.93,0,0,1-3.69,2c-3.7,0-5.84-6.91-8.33-14.91-1.93-6.2-4.32-13.93-6.85-13.93-2.15,0-4.1,4.9-6.58,11.11a146.94,146.94,0,0,1-6.79,15.18c-1.14,2.14-2.45,3.31-4,3.56-1.85.31-4-.71-6.65-3.2a17.94,17.94,0,0,1-1.28-1.4c-1-1.21-2-2.37-3.19-2.27a2.24,2.24,0,0,0-1.32.69,3.52,3.52,0,0,1-2.13,1c-1.75,0-3.18-1.48-4.56-3s-2.6-2.84-4-2.84c-3.37,0-7.58,14.1-14.11,47.17a.87.87,0,0,1-1,.69.85.85,0,0,1-.68-1c8.09-41,11.67-48.54,15.79-48.54,2.11,0,3.77,1.81,5.22,3.4,1.12,1.23,2.33,2.49,3.21,2.45a1.82,1.82,0,0,0,1.1-.59,3.85,3.85,0,0,1,2.29-1.08c2.06-.15,3.44,1.45,4.65,2.87a15.94,15.94,0,0,0,1.14,1.26c2.22,2.07,3.91,3,5.18,2.76,1-.16,1.92-1,2.79-2.68a145.3,145.3,0,0,0,6.71-15c2.94-7.33,4.87-12.18,8.19-12.18,3.78,0,6,7,8.48,15.11,1.91,6.12,4.27,13.73,6.7,13.73,1,0,1.58-.55,2.44-1.46a5.53,5.53,0,0,1,4.19-2.16c4,0,6.35,5.27,8.81,10.86,2.24,5.07,4.53,10.3,7.71,10a4.15,4.15,0,0,0,1.78-.71,5.64,5.64,0,0,1,4-1,7.15,7.15,0,0,1,3.39,1.51,33.57,33.57,0,0,0,3.74,2.2,20.17,20.17,0,0,0,2.83,1.21,7.81,7.81,0,0,1,2.18,1.07,14.21,14.21,0,0,1,4.23,4.72c.3.49.75,1.24.93,1.26,1.43-.39,2.66-10,3.47-16.39,1.8-14.16,3.3-23.43,7.49-23.43,2.81,0,4.27,4.52,5.82,9.3.9,2.79,2.26,7,3.35,7.14.35,0,.73-.3,1.32-.88a5.6,5.6,0,0,1,3.65-1.92,5,5,0,0,1,3.76,1.67,5.35,5.35,0,0,0,1.7,1.17c2,.67,4-2.84,6-6.21,2.18-3.73,4.48-7.58,7.5-7.39,3.89.24,5.73,6.68,7.69,13.51,1.59,5.54,3.39,11.83,5.9,11.83.95,0,1.83-1.08,2.68-2.13s1.92-2.37,3.31-2.42c3-.11,4.4,3.85,6,8.45,1.53,4.44,3.26,9.47,6.5,9.93.94.14,2.07-.5,3.4-1.26a12.77,12.77,0,0,1,6.44-2.18c3,0,10.19,1.18,13.61,12.07a.85.85,0,0,1-.56,1.06Z"/><path class="cls-21" d="M121.11,160.69c-3.44.28-7,8.59-8.41,12.7l216,.18c0-2.15-.36-5.67-.53-7.16-.18-.65-.68-2.43-1.26-4.29-1.43-3.44-3.7-4.42-4.65-4.48a28.81,28.81,0,0,1-3.76-.89c-2.15-.86-4.35-4.54-5.19-6.27L311.52,146c-1.19-2.68-3.76-8.41-4.47-9.84-1.08-1.79-1.43-2-2.69-2.51-2.43-.57-5.3,5.85-6.44,9.13l-3.22,8.77-2.33,6.8a74.14,74.14,0,0,1-3.58,7.52c-.71.89-1.07.71-2-.18-2-1.87-3.7-1.61-4.3-1.26-.24.12-1,.47-2.15.9-1.43.86-3-1.19-3.58-2.33a52.41,52.41,0,0,0-4.47-6.44c-2.15-2.51-3.58-2.15-4.47-2.15-1.58,0-4,2.15-5,3.22a20.22,20.22,0,0,1-3.76,2.87c-2.44,1.57-5.43-.66-6.62-2l-3.76-5.19a16.42,16.42,0,0,0-2.87-2.51c-2.86-1.79-5.54,1.43-7,3.22a2.08,2.08,0,0,1-2.69,1.08c-.36-.12-1.47-1-3-3.58-1.86-3.44-3.76-10.26-4.48-13.24l-4.11-18.26-3.76-17c-.3-1.49-1.22-5.48-2.5-9.48-1.62-5-2.51-4.66-3.58-5-2.15,0-4,5.73-4.66,8.59-1.43,6.09-4.47,19-5.19,22.2a89.68,89.68,0,0,1-3.58,11.27,37.08,37.08,0,0,1-2.32,3.94c-2.51,3.22-3.58,1.61-5.55,0-3.44-3.3-6.68-.18-7.87,1.79l-3.23,6.08c-.29.42-1.18,1.61-2.32,3a4.24,4.24,0,0,1-6.27-1.07L168,135.81c-.48-.6-1.79-2.15-3.22-3.58a4.28,4.28,0,0,0-4.66,0c-3.22,1.07-7.15,11.81-8.59,15a67.89,67.89,0,0,1-3.75,7c-.12.12-.72.75-2.15,2.33a3.62,3.62,0,0,1-4.12.89L137,155c-3.58-.9-5.73,6.08-7,7.69-1.43,1.61-2,.9-3.22.18C122.9,160.15,122.72,160.69,121.11,160.69Z"/><path class="cls-18" d="M113,173.56a.74.74,0,0,1-.32-.07,1,1,0,0,1-.46-1.23c3.19-8.58,6.29-12.76,9.49-12.76a7.63,7.63,0,0,1,4.77,2c1,.72,1.53,1.13,2.14,1,1.05-.26,1.66-1.61,2.37-3.17.78-1.71,1.65-3.64,3.4-4.68,2.11-1.25,3.8-.19,5.27.74a6.38,6.38,0,0,0,2.89,1.23c3.69.27,6.55-6.17,9.31-12.4,3-6.76,5.8-13.13,10.25-13.49,3.77-.31,6.3,3.9,8.76,8,2.29,3.77,4.44,7.33,7.09,6.67,2-.5,3.4-3.08,4.88-5.82,1.83-3.41,3.73-6.93,7.25-7.15a5.32,5.32,0,0,1,4.13,1.82c.75.68,1.25,1.1,1.91,1.1h0c4,0,7.42-14.55,10.14-26.24,3.15-13.6,5.09-21.29,8.33-21.35h0c3.81,0,6.29,11,10.34,30.46,3.14,15.17,7.46,35.93,11.84,35.93h0c.76,0,1.44-.78,2.23-1.67,1.2-1.35,2.67-3,5.22-2.92,3.15.13,4.9,2.81,6.59,5.4,1.51,2.31,2.92,4.49,5.25,5.06,2.56.63,4.39-1.2,6.34-3.14s4.31-4.3,7.45-3.1c2.66,1,4.49,4,6.12,6.64,1.77,2.89,2.95,4.6,4.2,4.21a5.2,5.2,0,0,0,.87-.45,4.34,4.34,0,0,1,3.2-.83,4.7,4.7,0,0,1,2.72,1.64,3.35,3.35,0,0,0,.54.49c1.17.37,4.39-8.93,5.95-13.42,4-11.57,6.93-19.19,10.53-19.19h.12c2.79.12,4.77,4.94,7.07,10.51,2.36,5.75,5,12.24,8.43,12.88l.42.05a8.07,8.07,0,0,1,4.75,1.61c2.07,1.84,4.55,5.89,4.55,14.8a.89.89,0,0,1-.85.94.91.91,0,0,1-.86-.94c0-8.15-2.12-11.74-3.91-13.32a6.68,6.68,0,0,0-3.81-1.2,3.26,3.26,0,0,1-.58-.07c-4.28-.79-7-7.49-9.7-13.95-1.8-4.38-3.85-9.34-5.58-9.41h-.05c-2.7,0-6.3,10.38-8.93,18-3.52,10.17-5.48,15.45-8.07,14.55a3.38,3.38,0,0,1-1.19-.91,3.19,3.19,0,0,0-1.81-1.14,2.87,2.87,0,0,0-2.12.61,6,6,0,0,1-1.21.61c-2.55.81-4.27-2-6.09-5-1.46-2.39-3.12-5.1-5.26-5.91s-3.83.81-5.74,2.71c-2.07,2.07-4.43,4.41-7.84,3.58-3-.73-4.73-3.42-6.29-5.8s-2.95-4.52-5.25-4.61c-1.75,0-2.84,1.11-4,2.36-1,1.09-1.95,2.21-3.42,2.23-5.32.06-8.86-14.74-13.56-37.4-2.55-12.24-6-29-8.67-29h0c-2.1,0-4.77,11.54-6.73,19.93-3.31,14.23-6.45,27.67-11.81,27.67h0a4.5,4.5,0,0,1-3-1.53,3.84,3.84,0,0,0-3-1.39c-2.6.16-4.19,3.11-5.87,6.23-1.59,3-3.24,6-6,6.7-3.79.94-6.37-3.34-8.89-7.46-2.19-3.62-4.43-7.32-7.21-7.14-3.47.28-6.2,6.45-8.84,12.43-3,6.79-6.11,13.83-11,13.46a7.94,7.94,0,0,1-3.62-1.48c-1.49-.94-2.39-1.43-3.62-.72s-2,2.33-2.67,3.85c-.83,1.83-1.69,3.72-3.53,4.17-1.35.34-2.43-.47-3.48-1.25a6.11,6.11,0,0,0-3.81-1.64c-1.35,0-4.17,1.5-7.91,11.59A.9.9,0,0,1,113,173.56Z"/><rect class="cls-22" x="284.32" y="87.31" width="21.48" height="86.26"/><path class="cls-11" d="M294.88,138.49l2.32,4h-4.65Z"/><path class="cls-11" d="M294.88,127l2.32,4h-4.65Z"/><path class="cls-11" d="M294.88,115.59l2.32,4h-4.65Z"/><path class="cls-11" d="M294.88,104.13l2.32,4h-4.65Z"/><path class="cls-11" d="M294.88,93l2.32,4h-4.65Z"/><circle class="cls-23" cx="295.06" cy="147.44" r="2.33"/><path class="cls-8" d="M330.49,60.74a.81.81,0,1,1-.8-.81A.8.8,0,0,1,330.49,60.74Zm-1.61,2.95a.81.81,0,1,1,.81.81A.81.81,0,0,1,328.88,63.69Zm0,3a.81.81,0,1,1,.81.81A.8.8,0,0,1,328.88,66.64Z"/><rect class="cls-24" x="275.55" y="56.71" width="46.17" height="13.96" rx="5.19"/><g class="cls-25"><path class="cls-26" d="M313.51,63.13l1.23,1.23L316,63.13l.37.38-1.61,1.61-1.61-1.61Z"/></g><path class="cls-14" d="M282.39,65.55V61.29H283l1.32,2.11,1.33-2.11h.56v4.26h-.57V62.26l-1.16,1.87h-.31L283,62.26v3.29Zm5.81.07a1.46,1.46,0,0,1-.72-.19,1.42,1.42,0,0,1-.49-.54,1.73,1.73,0,0,1-.18-.81,1.65,1.65,0,0,1,.18-.79,1.42,1.42,0,0,1,.49-.54,1.36,1.36,0,0,1,.72-.19,1.28,1.28,0,0,1,.71.19,1.37,1.37,0,0,1,.5.54,1.65,1.65,0,0,1,.18.79,1.73,1.73,0,0,1-.18.81,1.33,1.33,0,0,1-1.21.73Zm0-.5a.72.72,0,0,0,.6-.28,1.12,1.12,0,0,0,.24-.76,1.09,1.09,0,0,0-.24-.75.74.74,0,0,0-.6-.27.79.79,0,0,0-.61.27,1.14,1.14,0,0,0-.23.75,1.17,1.17,0,0,0,.23.76A.77.77,0,0,0,288.2,65.12Zm2,.43V62.63h.49l0,.38a1.16,1.16,0,0,1,.34-.32.93.93,0,0,1,.5-.13,1,1,0,0,1,.75.3,1.15,1.15,0,0,1,.29.85v1.84h-.54V63.82a.86.86,0,0,0-.17-.57.57.57,0,0,0-.45-.19.65.65,0,0,0-.5.2.77.77,0,0,0-.2.54v1.75Zm4.21.07a1.13,1.13,0,0,1-.63-.16.76.76,0,0,1-.21-.62V63.1H293v-.47h.59V61.58h.54v1.05H295v.47h-.85v1.62a.42.42,0,0,0,.11.33.56.56,0,0,0,.32.07.83.83,0,0,0,.22,0A.66.66,0,0,0,295,65v.51a1.31,1.31,0,0,1-.25.06A1.53,1.53,0,0,1,294.4,65.62Zm1.09-.07V61.19H296V63a1,1,0,0,1,.32-.32.9.9,0,0,1,.49-.13,1,1,0,0,1,.75.3,1.11,1.11,0,0,1,.29.85v1.84h-.54V63.82a.86.86,0,0,0-.17-.57.55.55,0,0,0-.44-.19.66.66,0,0,0-.51.2.76.76,0,0,0-.19.54v1.75Zm3.17,0V61.19h.54v4.36Zm1.56,1.26a2.26,2.26,0,0,1-.47,0v-.5l.21,0,.21,0a.47.47,0,0,0,.33-.09,1,1,0,0,0,.18-.32l.13-.36-1.15-2.91h.57l.82,2.25.79-2.25h.56l-1.25,3.43a1.31,1.31,0,0,1-.34.56A.82.82,0,0,1,300.22,66.81Z"/><path class="cls-14" d="M243,65.91V61.65h2.75v.52h-2.2v1.3h2V64h-2v1.38h2.28v.53Zm3.16,0,1.14-1.56-1-1.36h.64l.67.94.67-.94h.62l-1,1.35,1.16,1.57h-.64l-.82-1.15-.81,1.15Zm3.39,1.23V63H250l0,.41a1.12,1.12,0,0,1,.39-.36,1.07,1.07,0,0,1,.51-.13,1.43,1.43,0,0,1,.72.19,1.37,1.37,0,0,1,.48.53,1.73,1.73,0,0,1,.18.81,1.77,1.77,0,0,1-.18.82,1.3,1.3,0,0,1-.48.53A1.43,1.43,0,0,1,251,66a1,1,0,0,1-.49-.12,1.06,1.06,0,0,1-.37-.33v1.61Zm1.39-1.66a.8.8,0,0,0,.62-.28,1.12,1.12,0,0,0,.24-.76,1.09,1.09,0,0,0-.24-.75.82.82,0,0,0-1.23,0,1.09,1.09,0,0,0-.24.75,1.12,1.12,0,0,0,.24.76A.8.8,0,0,0,250.93,65.48Zm3.24.5a1.46,1.46,0,0,1-.73-.18,1.23,1.23,0,0,1-.49-.52,1.78,1.78,0,0,1-.18-.83,1.73,1.73,0,0,1,.18-.81,1.4,1.4,0,0,1,.48-.54,1.42,1.42,0,0,1,.71-.19,1.13,1.13,0,0,1,.69.21,1.22,1.22,0,0,1,.43.52,1.72,1.72,0,0,1,.15.72v.14h-2.1a1.18,1.18,0,0,0,.24.75.85.85,0,0,0,.63.24.81.81,0,0,0,.51-.15,1.18,1.18,0,0,0,.35-.45l.41.27a1.43,1.43,0,0,1-.53.62A1.4,1.4,0,0,1,254.17,66Zm-.83-1.92h1.53a.87.87,0,0,0-.24-.51.66.66,0,0,0-.49-.19.79.79,0,0,0-.53.18A1,1,0,0,0,253.34,64.06Zm2.71,1.85V63h.49l0,.37a1.27,1.27,0,0,1,.34-.31,1,1,0,0,1,.5-.14,1,1,0,0,1,.75.3,1.14,1.14,0,0,1,.29.85v1.85h-.54V64.18a.78.78,0,0,0-.17-.57.56.56,0,0,0-.44-.2.66.66,0,0,0-.51.21.73.73,0,0,0-.19.54v1.75Zm4.19.06a2,2,0,0,1-.69-.13,1.4,1.4,0,0,1-.55-.42l.36-.35a1.09,1.09,0,0,0,.91.42.78.78,0,0,0,.43-.1.35.35,0,0,0,.15-.32.29.29,0,0,0-.16-.27,2.14,2.14,0,0,0-.59-.17,2.34,2.34,0,0,1-.49-.15.8.8,0,0,1-.34-.26.77.77,0,0,1-.13-.45.73.73,0,0,1,.15-.46.94.94,0,0,1,.38-.3,1.37,1.37,0,0,1,.54-.1,1.33,1.33,0,0,1,1.08.45l-.32.38a.75.75,0,0,0-.33-.26,1,1,0,0,0-.43-.08.58.58,0,0,0-.38.1.31.31,0,0,0-.13.25.26.26,0,0,0,.14.25,2.18,2.18,0,0,0,.53.17,2.45,2.45,0,0,1,.54.17.89.89,0,0,1,.36.29.74.74,0,0,1,.14.46.75.75,0,0,1-.33.65A1.42,1.42,0,0,1,260.24,66Zm3,0a1.44,1.44,0,0,1-.73-.18,1.2,1.2,0,0,1-.5-.52,1.92,1.92,0,0,1-.17-.83,1.86,1.86,0,0,1,.17-.81,1.4,1.4,0,0,1,.48-.54,1.43,1.43,0,0,1,.72-.19,1.12,1.12,0,0,1,.68.21,1.22,1.22,0,0,1,.43.52,1.72,1.72,0,0,1,.15.72v.14h-2.1a1.13,1.13,0,0,0,.25.75.93.93,0,0,0,1.13.09,1.09,1.09,0,0,0,.35-.45l.41.27a1.36,1.36,0,0,1-.53.62A1.39,1.39,0,0,1,263.2,66Zm-.84-1.92h1.54a1,1,0,0,0-.25-.51.66.66,0,0,0-.49-.19.75.75,0,0,0-.52.18A.91.91,0,0,0,262.36,64.06ZM266.1,66a1.93,1.93,0,0,1-.69-.13,1.33,1.33,0,0,1-.55-.42l.36-.35a1.09,1.09,0,0,0,.91.42.75.75,0,0,0,.42-.1.33.33,0,0,0,.16-.32.3.3,0,0,0-.16-.27,2.14,2.14,0,0,0-.59-.17,2.17,2.17,0,0,1-.49-.15.74.74,0,0,1-.34-.26.71.71,0,0,1-.13-.45.73.73,0,0,1,.15-.46.88.88,0,0,1,.38-.3,1.32,1.32,0,0,1,.53-.1,1.33,1.33,0,0,1,1.09.45l-.33.38a.68.68,0,0,0-.32-.26,1,1,0,0,0-.43-.08.63.63,0,0,0-.39.1.34.34,0,0,0-.13.25.26.26,0,0,0,.15.25,2,2,0,0,0,.53.17,2.36,2.36,0,0,1,.53.17,1,1,0,0,1,.37.29.74.74,0,0,1,.13.46.75.75,0,0,1-.32.65A1.42,1.42,0,0,1,266.1,66Z"/><circle class="cls-18" cx="236.72" cy="64.05" r="2.15"/><path class="cls-14" d="M205.71,65.55V61.29h.55v4.26Zm1.37,0V62.63h.49l0,.38a1.3,1.3,0,0,1,.34-.32.93.93,0,0,1,.5-.13,1,1,0,0,1,.75.3,1.15,1.15,0,0,1,.29.85v1.84h-.54V63.82a.86.86,0,0,0-.17-.57.55.55,0,0,0-.44-.19.66.66,0,0,0-.51.2.76.76,0,0,0-.19.54v1.75Zm4.39.07a1.49,1.49,0,0,1-.72-.19,1.42,1.42,0,0,1-.49-.54,2,2,0,0,1,0-1.6,1.42,1.42,0,0,1,.49-.54,1.39,1.39,0,0,1,.72-.19,1.29,1.29,0,0,1,.62.14,1.35,1.35,0,0,1,.47.39l-.44.32a.73.73,0,0,0-.65-.35.79.79,0,0,0-.61.27,1.17,1.17,0,0,0-.23.76,1.14,1.14,0,0,0,.23.75.77.77,0,0,0,.61.28.74.74,0,0,0,.66-.35l.43.31a1.28,1.28,0,0,1-.47.4A1.41,1.41,0,0,1,211.47,65.62Zm2.79,0a1.42,1.42,0,0,1-.71-.19,1.45,1.45,0,0,1-.5-.54,1.86,1.86,0,0,1-.17-.81,1.77,1.77,0,0,1,.17-.79,1.45,1.45,0,0,1,.5-.54,1.44,1.44,0,0,1,1.43,0,1.35,1.35,0,0,1,.49.54,1.65,1.65,0,0,1,.18.79,1.73,1.73,0,0,1-.18.81,1.35,1.35,0,0,1-.49.54A1.43,1.43,0,0,1,214.26,65.62Zm0-.5a.75.75,0,0,0,.61-.28,1.11,1.11,0,0,0,.23-.76,1.09,1.09,0,0,0-.23-.75.78.78,0,0,0-.61-.27.76.76,0,0,0-.6.27,1.09,1.09,0,0,0-.24.75,1.12,1.12,0,0,0,.24.76A.73.73,0,0,0,214.26,65.12Zm2,.43V62.63h.49l0,.4a.84.84,0,0,1,.31-.34.86.86,0,0,1,.48-.13,1,1,0,0,1,.54.14.83.83,0,0,1,.31.42,1,1,0,0,1,.33-.4,1,1,0,0,1,1.25.13,1.25,1.25,0,0,1,.26.85v1.85h-.55V63.81a.9.9,0,0,0-.15-.57.46.46,0,0,0-.39-.18.58.58,0,0,0-.47.21.87.87,0,0,0-.17.56v1.72H218V63.81a.9.9,0,0,0-.15-.57.48.48,0,0,0-.39-.18.55.55,0,0,0-.47.22.84.84,0,0,0-.17.55v1.72Zm6,.07a1.44,1.44,0,0,1-.73-.18,1.26,1.26,0,0,1-.5-.52,1.92,1.92,0,0,1-.17-.83,1.86,1.86,0,0,1,.17-.81,1.26,1.26,0,0,1,.49-.53,1.28,1.28,0,0,1,.71-.19,1.1,1.1,0,0,1,.68.2,1.22,1.22,0,0,1,.43.52,1.72,1.72,0,0,1,.15.72v.14h-2.1a1.11,1.11,0,0,0,.25.75.84.84,0,0,0,.62.25.76.76,0,0,0,.51-.16,1.09,1.09,0,0,0,.35-.45l.42.27a1.43,1.43,0,0,1-.53.62A1.4,1.4,0,0,1,222.25,65.62Zm-.84-1.91H223a.88.88,0,0,0-.25-.51.66.66,0,0,0-.49-.2.77.77,0,0,0-.52.18A.93.93,0,0,0,221.41,63.71Z"/><circle class="cls-27" cx="200.57" cy="63.69" r="2.15"/><path class="cls-9" d="M95,62.76a2.31,2.31,0,0,1,.29-1.17,2.24,2.24,0,0,1,.79-.77,2.17,2.17,0,0,1,1.06-.27,2.34,2.34,0,0,1,1.45.43,2.22,2.22,0,0,1,.51.45V60.18a2.69,2.69,0,0,0-.85-.49,3.11,3.11,0,0,0-1.14-.17,3.44,3.44,0,0,0-1.29.23,3,3,0,0,0-1,.67,3.26,3.26,0,0,0-.69,1,3.38,3.38,0,0,0-.24,1.3,3.46,3.46,0,0,0,.24,1.3,3.21,3.21,0,0,0,.69,1,3,3,0,0,0,1,.67,3.44,3.44,0,0,0,1.29.23,3.11,3.11,0,0,0,1.14-.17,2.69,2.69,0,0,0,.85-.49V64.08a2.48,2.48,0,0,1-1.15.77,2.55,2.55,0,0,1-.81.12,2.17,2.17,0,0,1-1.06-.27,2.36,2.36,0,0,1-.79-.78A2.32,2.32,0,0,1,95,62.76Zm6.69.14,2,3H105l-2.12-3Zm-1.28-3.28v6.27h1V59.62Zm.62.92h1.26a1.54,1.54,0,0,1,.63.12,1,1,0,0,1,.43.36,1,1,0,0,1,.15.57,1.05,1.05,0,0,1-.15.57,1,1,0,0,1-.43.36,1.39,1.39,0,0,1-.63.13h-1.26v.87h1.31a2.57,2.57,0,0,0,1.18-.25,1.81,1.81,0,0,0,.79-.68,1.89,1.89,0,0,0,.27-1,1.85,1.85,0,0,0-.27-1,1.81,1.81,0,0,0-.79-.68,2.57,2.57,0,0,0-1.18-.25h-1.31Zm5.86,1.54,1.91,3.23,1.9-3.23.44,3.81h1.09l-.86-6.58-2.57,4.25-2.57-4.25-.86,6.58h1.09Zm9.8,2.2H120l-.2-.9h-2.91Zm1.64-2.88,1,2.32,0,.26.85,1.91h1.19l-3.06-6.62-3.06,6.62h1.19l.87-2,0-.24Zm6.36,2v2.51h1V63.27a1.68,1.68,0,0,0-.37-1.16,1.33,1.33,0,0,0-1.06-.43,1.45,1.45,0,0,0-.74.18,1.28,1.28,0,0,0-.5.55v-.64h-1v4.12h1V63.38a1,1,0,0,1,.11-.48.82.82,0,0,1,.32-.32,1,1,0,0,1,.48-.12.72.72,0,0,1,.58.23A1.07,1.07,0,0,1,124.72,63.38Zm2.83,1.23a.58.58,0,0,1,.09-.33.64.64,0,0,1,.29-.21,1.32,1.32,0,0,1,.49-.08,2.34,2.34,0,0,1,.66.09,1.91,1.91,0,0,1,.59.29v-.5a1.14,1.14,0,0,0-.27-.21,2.14,2.14,0,0,0-.5-.22,2.52,2.52,0,0,0-.71-.08,1.78,1.78,0,0,0-1.19.35,1.18,1.18,0,0,0-.42.95,1.22,1.22,0,0,0,.2.72,1.24,1.24,0,0,0,.52.44A1.58,1.58,0,0,0,128,66a2.11,2.11,0,0,0,.7-.13,1.45,1.45,0,0,0,.57-.39,1,1,0,0,0,.23-.66l-.14-.54a1,1,0,0,1-.15.54,1.07,1.07,0,0,1-.39.34,1.24,1.24,0,0,1-.52.11,1,1,0,0,1-.4-.07.71.71,0,0,1-.27-.21A.75.75,0,0,1,127.55,64.61Zm-.3-1.77.27-.15a2,2,0,0,1,.44-.16,1.9,1.9,0,0,1,.54-.07,1.29,1.29,0,0,1,.35,0,.78.78,0,0,1,.28.11.52.52,0,0,1,.18.21.61.61,0,0,1,.07.32v2.75h1V63a1.08,1.08,0,0,0-.23-.69,1.38,1.38,0,0,0-.61-.43,2.29,2.29,0,0,0-.9-.16,3.21,3.21,0,0,0-1,.16,4.38,4.38,0,0,0-.71.33Zm4.2-3.93v7h1v-7Zm5.85,2.86h-1L135,65l.46,0-1.32-3.26H133l1.66,3.63-1.08,2.46h1Zm0,0v.85h2.34v-.85Zm.69-1.43v5.55h1V60.34Zm2.28-.21a.58.58,0,0,0,.18.42.59.59,0,0,0,.43.17.59.59,0,0,0,.43-1,.61.61,0,0,0-.43-.17.63.63,0,0,0-.43.17A.58.58,0,0,0,140.27,60.13Zm.13,1.64v4.12h.95V61.77Zm2.93,2.06a1.32,1.32,0,0,1,.62-1.15,1.35,1.35,0,0,1,.66-.17,1.71,1.71,0,0,1,.55.09,1.82,1.82,0,0,1,.48.25,1,1,0,0,1,.31.36V62.15a1.37,1.37,0,0,0-.58-.34,2.37,2.37,0,0,0-.81-.13,2.29,2.29,0,0,0-1.14.28,2.06,2.06,0,0,0-.8.75,2.17,2.17,0,0,0-.29,1.12,2.2,2.2,0,0,0,.29,1.12,2.16,2.16,0,0,0,.8.76,2.4,2.4,0,0,0,1.14.27,2.64,2.64,0,0,0,.81-.13,1.49,1.49,0,0,0,.58-.34V64.45a1,1,0,0,1-.31.35,1.25,1.25,0,0,1-.47.25,1.77,1.77,0,0,1-.56.09A1.25,1.25,0,0,1,144,65a1.21,1.21,0,0,1-.45-.45A1.31,1.31,0,0,1,143.33,63.83Zm4.3.78a.67.67,0,0,1,.08-.33.7.7,0,0,1,.29-.21,1.36,1.36,0,0,1,.49-.08,2.41,2.41,0,0,1,.67.09,2.15,2.15,0,0,1,.59.29v-.5a1.54,1.54,0,0,0-.28-.21,2.14,2.14,0,0,0-.5-.22,2.48,2.48,0,0,0-.71-.08,1.78,1.78,0,0,0-1.19.35,1.18,1.18,0,0,0-.42.95,1.29,1.29,0,0,0,.2.72,1.24,1.24,0,0,0,.52.44,1.61,1.61,0,0,0,.72.16,2.11,2.11,0,0,0,.7-.13,1.45,1.45,0,0,0,.57-.39,1,1,0,0,0,.23-.66l-.14-.54a1,1,0,0,1-.15.54,1.07,1.07,0,0,1-.39.34,1.21,1.21,0,0,1-.52.11,1.05,1.05,0,0,1-.4-.07.71.71,0,0,1-.27-.21A.74.74,0,0,1,147.63,64.61Zm-.31-1.77.27-.15a2,2,0,0,1,.44-.16,1.9,1.9,0,0,1,.54-.07,1.25,1.25,0,0,1,.35,0,.78.78,0,0,1,.28.11.52.52,0,0,1,.18.21.61.61,0,0,1,.07.32v2.75h1V63a1.14,1.14,0,0,0-.22-.69,1.41,1.41,0,0,0-.62-.43,2.29,2.29,0,0,0-.9-.16,3.21,3.21,0,0,0-1,.16,4.38,4.38,0,0,0-.71.33Zm4.21-3.93v7h1v-7Zm6.25,4,2,3h1.27l-2.13-3Zm-1.29-3.28v6.27h1.06V59.62Zm.63.92h1.26a1.54,1.54,0,0,1,.63.12,1,1,0,0,1,.42.36,1,1,0,0,1,.16.57,1,1,0,0,1-.16.57.93.93,0,0,1-.42.36,1.39,1.39,0,0,1-.63.13h-1.26v.87h1.3a2.54,2.54,0,0,0,1.18-.25,1.71,1.71,0,0,0,.79-.68,1.82,1.82,0,0,0,.28-1,1.77,1.77,0,0,0-.28-1,1.71,1.71,0,0,0-.79-.68,2.54,2.54,0,0,0-1.18-.25h-1.3Zm6.4,5.44a2.6,2.6,0,0,0,1.23-.28,2.14,2.14,0,0,0,.83-.83l-.83-.34a1.35,1.35,0,0,1-.49.49,1.41,1.41,0,0,1-.69.16,1.23,1.23,0,0,1-.65-.16,1,1,0,0,1-.39-.47,1.88,1.88,0,0,1-.14-.76,2,2,0,0,1,.15-.75,1,1,0,0,1,.39-.46,1.14,1.14,0,0,1,.63-.16,1,1,0,0,1,.53.13.86.86,0,0,1,.35.38,1.15,1.15,0,0,1,.14.57.41.41,0,0,1,0,.16.72.72,0,0,1,0,.14l.29-.41H162v.66h3.62s0-.06,0-.11v-.16a2.29,2.29,0,0,0-.25-1.12,1.68,1.68,0,0,0-.69-.73,2.39,2.39,0,0,0-1.11-.25,2.29,2.29,0,0,0-1.14.27,1.84,1.84,0,0,0-.75.74,2.61,2.61,0,0,0,0,2.27,1.88,1.88,0,0,0,.73.75A2.23,2.23,0,0,0,163.52,66Zm4,1.88V61.77h-1v6.09Zm3.41-4a2.35,2.35,0,0,0-.28-1.17,1.88,1.88,0,0,0-.74-.74,2,2,0,0,0-1-.26,1.58,1.58,0,0,0-.92.27,1.7,1.7,0,0,0-.6.74,2.93,2.93,0,0,0-.21,1.16,2.88,2.88,0,0,0,.21,1.15,1.62,1.62,0,0,0,.6.75,1.58,1.58,0,0,0,.92.26,2,2,0,0,0,1-.25,2,2,0,0,0,.74-.74A2.41,2.41,0,0,0,170.9,63.83Zm-1,0a1.36,1.36,0,0,1-.17.71,1.1,1.1,0,0,1-.45.43,1.29,1.29,0,0,1-.62.15,1.11,1.11,0,0,1-.55-.15,1.21,1.21,0,0,1-.44-.43,1.57,1.57,0,0,1,0-1.42,1.21,1.21,0,0,1,.44-.43,1.11,1.11,0,0,1,.55-.15,1.29,1.29,0,0,1,.62.15,1.06,1.06,0,0,1,.45.44A1.28,1.28,0,0,1,169.89,63.83Zm1.61,0a2.2,2.2,0,0,0,.29,1.12,2.16,2.16,0,0,0,.8.76,2.33,2.33,0,0,0,1.13.27,2.3,2.3,0,0,0,1.13-.27,2.24,2.24,0,0,0,.8-.76,2.2,2.2,0,0,0,.29-1.12,2.17,2.17,0,0,0-.29-1.12,2.13,2.13,0,0,0-.8-.75,2.2,2.2,0,0,0-1.13-.28,2.23,2.23,0,0,0-1.13.28,2.06,2.06,0,0,0-.8.75A2.17,2.17,0,0,0,171.5,63.83Zm1,0a1.37,1.37,0,0,1,.16-.68,1.09,1.09,0,0,1,.44-.46,1.27,1.27,0,0,1,.62-.16,1.3,1.3,0,0,1,.62.16,1.17,1.17,0,0,1,.45.46,1.53,1.53,0,0,1,0,1.36,1.32,1.32,0,0,1-.45.46,1.3,1.3,0,0,1-.62.16,1.27,1.27,0,0,1-.62-.16,1.21,1.21,0,0,1-.44-.46A1.37,1.37,0,0,1,172.5,63.83Zm5.32-2.06h-1v4.12h1Zm1.22,1,.47-.81a.65.65,0,0,0-.33-.24,1.54,1.54,0,0,0-.42-.07,1,1,0,0,0-.61.23,1.72,1.72,0,0,0-.48.6,2,2,0,0,0-.18.87l.33.19a1.88,1.88,0,0,1,.06-.51.73.73,0,0,1,.22-.35.62.62,0,0,1,.4-.12.65.65,0,0,1,.29,0A1,1,0,0,1,179,62.8Zm.56-1v.85h2.33v-.85Zm.69-1.43v5.55h1V60.34Z"/><path class="cls-9" d="M80.79,26.08V33.6h1.29V26.08Zm2.43,7.52a4.2,4.2,0,0,0,2-.47,3.43,3.43,0,0,0,1.36-1.31,4.25,4.25,0,0,0,0-4,3.43,3.43,0,0,0-1.36-1.31,4.2,4.2,0,0,0-2-.47H81.57v1.19h1.61a3.37,3.37,0,0,1,1,.16,2.19,2.19,0,0,1,.82.49,2.08,2.08,0,0,1,.55.8,3,3,0,0,1,.2,1.12,2.93,2.93,0,0,1-.2,1.11,2.12,2.12,0,0,1-.55.81,2.17,2.17,0,0,1-.82.48,3.09,3.09,0,0,1-1,.16H81.57v1.2ZM89,32.06a.62.62,0,0,1,.45-.64,1.42,1.42,0,0,1,.59-.1,3,3,0,0,1,.8.11,2.32,2.32,0,0,1,.71.34v-.59a1.55,1.55,0,0,0-.34-.26,2.62,2.62,0,0,0-.6-.26,3,3,0,0,0-.85-.1,2.1,2.1,0,0,0-1.42.43,1.39,1.39,0,0,0-.51,1.13A1.48,1.48,0,0,0,88,33a1.39,1.39,0,0,0,.63.54,2,2,0,0,0,.86.18,2.44,2.44,0,0,0,.84-.15,1.57,1.57,0,0,0,.68-.47,1.14,1.14,0,0,0,.28-.79l-.17-.65a1.11,1.11,0,0,1-.64,1,1.33,1.33,0,0,1-.63.14,1.46,1.46,0,0,1-.48-.08.71.71,0,0,1-.44-.69ZM88.59,30a1.91,1.91,0,0,1,.32-.19,2.26,2.26,0,0,1,.52-.19,2.39,2.39,0,0,1,.66-.09,1.86,1.86,0,0,1,.42.05.82.82,0,0,1,.33.14.64.64,0,0,1,.22.24.87.87,0,0,1,.08.39v3.3h1.14V30.07a1.25,1.25,0,0,0-.27-.82,1.7,1.7,0,0,0-.74-.53,3,3,0,0,0-1.07-.18,3.61,3.61,0,0,0-1.23.19,4.67,4.67,0,0,0-.86.4Zm5.27,2-.68.68a3,3,0,0,0,.53.54,3.08,3.08,0,0,0,.74.41,2.79,2.79,0,0,0,.93.15,1.87,1.87,0,0,0,1.29-.42,1.44,1.44,0,0,0,.48-1.13,1.19,1.19,0,0,0-.21-.73,1.69,1.69,0,0,0-.55-.47,6.53,6.53,0,0,0-.75-.36l-.55-.22a1.62,1.62,0,0,1-.39-.24.43.43,0,0,1-.13-.31.34.34,0,0,1,.16-.31.7.7,0,0,1,.4-.11,1.5,1.5,0,0,1,.71.18,2,2,0,0,1,.59.48l.65-.69a2.13,2.13,0,0,0-.5-.44,2.6,2.6,0,0,0-.65-.31,2.48,2.48,0,0,0-1.61,0,1.28,1.28,0,0,0-.62.44,1.22,1.22,0,0,0-.23.75,1.28,1.28,0,0,0,.2.73,1.73,1.73,0,0,0,.54.47,4.43,4.43,0,0,0,.67.3c.22.08.41.16.58.24a1,1,0,0,1,.38.27.48.48,0,0,1,.14.36.46.46,0,0,1-.18.39.76.76,0,0,1-.48.14,1.47,1.47,0,0,1-.5-.09,2,2,0,0,1-.49-.27A3.38,3.38,0,0,1,93.86,32Zm5.48-6.75H98.18V33.6h1.16Zm2,5.37v3h1.17V30.43a2.5,2.5,0,0,0-.19-1.05,1.37,1.37,0,0,0-.58-.65,1.88,1.88,0,0,0-.93-.21,1.57,1.57,0,0,0-1,.28,1.76,1.76,0,0,0-.6.74,2.38,2.38,0,0,0-.22,1.05h.28a1.18,1.18,0,0,1,.14-.58,1,1,0,0,1,.39-.39,1.15,1.15,0,0,1,.57-.14.83.83,0,0,1,.69.28A1.3,1.3,0,0,1,101.36,30.59Zm3.77-5.37H104V33.6h1.17Zm4.09,5.91a2.72,2.72,0,0,0-.33-1.39,2.26,2.26,0,0,0-.88-.88,2.39,2.39,0,0,0-1.2-.31,2,2,0,0,0-1.09.31,2.1,2.1,0,0,0-.74.89,3.64,3.64,0,0,0,0,2.75,2,2,0,0,0,.74.89,2,2,0,0,0,1.09.31,2.48,2.48,0,0,0,1.2-.3,2.35,2.35,0,0,0,.88-.89A2.76,2.76,0,0,0,109.22,31.13Zm-1.2,0a1.59,1.59,0,0,1-.21.84,1.28,1.28,0,0,1-.54.54,1.56,1.56,0,0,1-.74.18,1.31,1.31,0,0,1-.66-.18,1.67,1.67,0,0,1-.54-.52,1.79,1.79,0,0,1-.2-.86,1.7,1.7,0,0,1,.2-.85,1.55,1.55,0,0,1,.54-.54,1.31,1.31,0,0,1,.66-.18,1.56,1.56,0,0,1,.74.18,1.28,1.28,0,0,1,.54.54A1.62,1.62,0,0,1,108,31.13Zm1.93,0a2.62,2.62,0,0,0,.34,1.34,2.54,2.54,0,0,0,1,.91,2.76,2.76,0,0,0,1.36.32,2.7,2.7,0,0,0,1.35-.32,2.47,2.47,0,0,0,1-.91,2.55,2.55,0,0,0-1-3.59,2.7,2.7,0,0,0-1.35-.33,2.77,2.77,0,0,0-1.36.33,2.4,2.4,0,0,0-1.3,2.25Zm1.19,0a1.8,1.8,0,0,1,.19-.82,1.4,1.4,0,0,1,.53-.55,1.56,1.56,0,0,1,1.49,0,1.36,1.36,0,0,1,.54.55,1.68,1.68,0,0,1,.19.82,1.64,1.64,0,0,1-.19.81,1.5,1.5,0,0,1-.54.55,1.56,1.56,0,0,1-1.49,0,1.55,1.55,0,0,1-.53-.55A1.76,1.76,0,0,1,111.14,31.13Zm6,.93a.72.72,0,0,1,.1-.4.76.76,0,0,1,.35-.24,1.39,1.39,0,0,1,.59-.1,2.9,2.9,0,0,1,.79.11,2.21,2.21,0,0,1,.71.34v-.59a1.45,1.45,0,0,0-.33-.26,2.84,2.84,0,0,0-.6-.26,3.05,3.05,0,0,0-.85-.1,2.12,2.12,0,0,0-1.43.43,1.39,1.39,0,0,0-.51,1.13,1.48,1.48,0,0,0,.24.86,1.5,1.5,0,0,0,.63.54,2.11,2.11,0,0,0,.86.18,2.4,2.4,0,0,0,.84-.15,1.61,1.61,0,0,0,.69-.47,1.19,1.19,0,0,0,.28-.79l-.17-.65a1.18,1.18,0,0,1-.19.65,1.12,1.12,0,0,1-.46.4,1.26,1.26,0,0,1-.62.14,1.42,1.42,0,0,1-.48-.08.78.78,0,0,1-.33-.26A.75.75,0,0,1,117.11,32.06ZM116.74,30a2.44,2.44,0,0,1,.32-.19,2.35,2.35,0,0,1,.53-.19,2.32,2.32,0,0,1,.65-.09,1.86,1.86,0,0,1,.42.05.94.94,0,0,1,.34.14.61.61,0,0,1,.21.24.75.75,0,0,1,.09.39v3.3h1.13V30.07a1.3,1.3,0,0,0-.26-.82,1.68,1.68,0,0,0-.75-.53,2.89,2.89,0,0,0-1.07-.18,3.51,3.51,0,0,0-1.22.19,4.67,4.67,0,0,0-.86.4Zm6.19-1.29h-1.14V33.6h1.14Zm1.48,1.23.55-1a.81.81,0,0,0-.39-.27,1.44,1.44,0,0,0-.51-.09,1.2,1.2,0,0,0-.73.27,2,2,0,0,0-.57.73,2.44,2.44,0,0,0-.21,1l.38.23a2.22,2.22,0,0,1,.08-.62.9.9,0,0,1,.27-.42.72.72,0,0,1,.47-.15,1,1,0,0,1,.36.07A1.81,1.81,0,0,1,124.41,29.89Zm5.06-4.67V33.6h1.18V25.22Zm-4.09,5.91a2.67,2.67,0,0,0,.34,1.38,2.28,2.28,0,0,0,.88.89,2.47,2.47,0,0,0,1.19.3,1.85,1.85,0,0,0,1.08-.31,2,2,0,0,0,.74-.89,3.52,3.52,0,0,0,0-2.75,2,2,0,0,0-.74-.89,1.85,1.85,0,0,0-1.08-.31,2.38,2.38,0,0,0-1.19.31,2.19,2.19,0,0,0-.88.88A2.63,2.63,0,0,0,125.38,31.13Zm1.21,0a1.62,1.62,0,0,1,.2-.85,1.4,1.4,0,0,1,.54-.54,1.56,1.56,0,0,1,.74-.18,1.3,1.3,0,0,1,.65.18,1.34,1.34,0,0,1,.54.54,1.6,1.6,0,0,1,.21.85,1.69,1.69,0,0,1-.21.86,1.42,1.42,0,0,1-.54.52,1.3,1.3,0,0,1-.65.18,1.56,1.56,0,0,1-.74-.18,1.4,1.4,0,0,1-.54-.54A1.58,1.58,0,0,1,126.59,31.13Z"/><rect class="cls-5" x="24.67" y="19.99" width="40.4" height="275.57" rx="9.42"/><rect class="cls-28" x="34.16" y="265.07" width="21.26" height="21.26" rx="7.94"/><path class="cls-29" d="M46.37,273.35v-.45a1.77,1.77,0,0,0-1.77-1.77H42.26a1.76,1.76,0,0,0-1.76,1.77v5.34A1.76,1.76,0,0,0,42.26,280h2.35a1.76,1.76,0,0,0,1.76-1.76v-.45"/><path class="cls-30" d="M49.63,275.57H43.85"/><path class="cls-30" d="M48.22,274.17l1.41,1.4L48.22,277"/><rect class="cls-28" x="34.22" y="163.8" width="21.26" height="21.26" rx="7.94"/><path class="cls-31" d="M46.19,169.32H43a1.86,1.86,0,0,0-1.87,1.81v5.23a1.86,1.86,0,0,0,1.87,1.9h3.89a1.89,1.89,0,0,0,1.82-1.9v-4.47Z"/><path class="cls-31" d="M46.06,169.31v1.42A1.25,1.25,0,0,0,47.31,172c.65,0,1.3,0,1.35,0"/><path class="cls-32" d="M46,175.55H43.34"/><path class="cls-32" d="M45,173.14H43.34"/><rect class="cls-28" x="34.22" y="136.89" width="21.26" height="21.26" rx="7.94"/><path class="cls-31" d="M47.89,150.29a4.3,4.3,0,0,1-4.86.86,1.82,1.82,0,0,0-.61-.17c-.51,0-1.15.5-1.48.17s.17-1,.17-1.48a1.89,1.89,0,0,0-.17-.61,4.31,4.31,0,1,1,7,1.23Z"/><path class="cls-32" d="M46.54,147.43h0"/><path class="cls-32" d="M44.81,147.43h0"/><path class="cls-32" d="M43.09,147.43h0"/><rect class="cls-28" x="34.22" y="109.99" width="21.26" height="21.26" rx="7.94"/><path class="cls-32" d="M43,119.89v2.77"/><path class="cls-32" d="M44.86,118.56v4.1"/><path class="cls-32" d="M46.71,121.35v1.31"/><path class="cls-31" d="M46.74,116.58H43a2.08,2.08,0,0,0-2.14,2.25v3.56A2.08,2.08,0,0,0,43,124.65h3.79a2.08,2.08,0,0,0,2.14-2.26v-3.56A2.07,2.07,0,0,0,46.74,116.58Z"/><rect class="cls-28" x="34.22" y="83.08" width="21.26" height="21.26" rx="7.94"/><path class="cls-32" d="M46.89,97V91.34"/><path class="cls-31" d="M48.58,95.29,46.89,97l-1.69-1.7"/><path class="cls-32" d="M42.77,90.21v5.65"/><path class="cls-31" d="M41.08,91.91l1.69-1.7,1.69,1.7"/><rect class="cls-28" x="34.22" y="56.17" width="21.26" height="21.26" rx="7.94"/><path class="cls-31" d="M48.88,67.51H47.19a1.12,1.12,0,1,1,0-2.24h1.69"/><path class="cls-31" d="M47.38,66.36h-.13"/><path class="cls-31" d="M43.08,62.75h3.61A2.19,2.19,0,0,1,48.88,65v3a2.19,2.19,0,0,1-2.19,2.2H43.08a2.2,2.2,0,0,1-2.2-2.2V65A2.2,2.2,0,0,1,43.08,62.75Z"/><path class="cls-32" d="M42.78,64.65H45"/><rect class="cls-33" x="34.08" y="29.14" width="21.52" height="21.52" rx="8.07"/><path class="cls-31" d="M41.08,37.46c0-1.1,0-1.46,1.46-1.46S44,36.36,44,37.46s0,1.47-1.47,1.47S41.08,38.56,41.08,37.46Z"/><path class="cls-32" d="M45.68,37.46c0-1.1,0-1.46,1.47-1.46s1.46.36,1.46,1.46,0,1.47-1.46,1.47S45.68,38.56,45.68,37.46Z"/><path class="cls-31" d="M41.08,42.06c0-1.09,0-1.46,1.46-1.46S44,41,44,42.06s0,1.47-1.47,1.47S41.08,43.16,41.08,42.06Z"/><path class="cls-31" d="M45.68,42.06c0-1.09,0-1.46,1.47-1.46s1.46.37,1.46,1.46,0,1.47-1.46,1.47S45.68,43.16,45.68,42.06Z"/><rect class="cls-1" x="459.32" y="19.99" width="16.14" height="16.14" rx="5.38"/><g class="cls-34"><rect class="cls-2" x="451.65" y="25.5" width="32.29" height="21.26" transform="translate(415.6 502.41) rotate(-88.03)"/></g><rect class="cls-28" x="439.01" y="20.12" width="15.87" height="15.87" rx="5.25"/><path class="cls-31" d="M447,30.16c1.89,0,2.77-.24,2.85-1.22s-.61-.91-.61-2.11a2.26,2.26,0,0,0-4.49,0c0,1.2-.61,1.13-.61,2.11S445.05,30.16,447,30.16Z"/><path class="cls-32" d="M447.75,31.17a1.06,1.06,0,0,1-1.64,0"/><circle class="cls-35" cx="452.73" cy="21.2" r="1.35"/><rect class="cls-36" x="146.43" y="20.12" width="135.06" height="15.87" rx="7.94"/><path class="cls-14" d="M167.48,29.88a1.71,1.71,0,0,1-.75-.16,1.27,1.27,0,0,1-.56-.52l.37-.23a1,1,0,0,0,.39.36,1.08,1.08,0,0,0,.56.13.9.9,0,0,0,.53-.14.45.45,0,0,0,.19-.4.44.44,0,0,0-.07-.26.51.51,0,0,0-.27-.21,2.89,2.89,0,0,0-.62-.17q-.93-.21-.93-1a1,1,0,0,1,.14-.51.93.93,0,0,1,.39-.34,1.38,1.38,0,0,1,.59-.12,1.32,1.32,0,0,1,.7.17,1.61,1.61,0,0,1,.48.41l-.33.28a2.6,2.6,0,0,0-.36-.3.87.87,0,0,0-.5-.13.75.75,0,0,0-.47.14.43.43,0,0,0-.18.38.51.51,0,0,0,.06.25.57.57,0,0,0,.23.19,2.77,2.77,0,0,0,.48.15,1.72,1.72,0,0,1,.86.38.86.86,0,0,1,.26.65.85.85,0,0,1-.57.85A1.52,1.52,0,0,1,167.48,29.88Zm2.71,0a1.15,1.15,0,0,1-.59-.14,1,1,0,0,1-.39-.41,1.46,1.46,0,0,1-.14-.66,1.48,1.48,0,0,1,.14-.65,1,1,0,0,1,.95-.57.87.87,0,0,1,.54.16.93.93,0,0,1,.35.41,1.4,1.4,0,0,1,.12.58v.11H169.5a.85.85,0,0,0,.19.59.63.63,0,0,0,.5.2.69.69,0,0,0,.41-.12.86.86,0,0,0,.27-.36l.33.22a1,1,0,0,1-1,.64Zm-.67-1.52h1.22a.68.68,0,0,0-.19-.4.51.51,0,0,0-.39-.16.6.6,0,0,0-.42.15A.71.71,0,0,0,169.52,28.35Zm2.81,1.51a.93.93,0,0,1-.59-.16.59.59,0,0,1-.22-.5.61.61,0,0,1,.15-.41.91.91,0,0,1,.39-.27,1.24,1.24,0,0,1,.5-.1.59.59,0,0,1,.27,0,.5.5,0,0,1,.22.1v-.29a.43.43,0,0,0-.12-.36.61.61,0,0,0-.34-.08,1.44,1.44,0,0,0-.44.07,1.42,1.42,0,0,0-.39.19l-.2-.34a1.56,1.56,0,0,1,.47-.21,1.77,1.77,0,0,1,.56-.09,1,1,0,0,1,.66.18.79.79,0,0,1,.22.64v1.16c0,.06,0,.1.05.11a.61.61,0,0,0,.21,0v.28l-.16.05-.19,0a.35.35,0,0,1-.23-.06.41.41,0,0,1-.09-.21.91.91,0,0,1-.33.2A1.87,1.87,0,0,1,172.33,29.86Zm0-.38a1.91,1.91,0,0,0,.37-.06.72.72,0,0,0,.27-.16.38.38,0,0,0,.09-.25.25.25,0,0,0-.14-.2.82.82,0,0,0-.33,0,1.14,1.14,0,0,0-.33.07A.6.6,0,0,0,172,29a.29.29,0,0,0-.09.22.24.24,0,0,0,.11.2A.5.5,0,0,0,172.33,29.48Zm1.84.34V27.5h.4l0,.36a.72.72,0,0,1,.29-.31.88.88,0,0,1,.42-.11h.15l.11,0v.42l-.13,0h-.18a.65.65,0,0,0-.46.18.59.59,0,0,0-.19.46v1.33Zm2.77.05a1.1,1.1,0,0,1-.57-.15,1,1,0,0,1-.39-.42,1.34,1.34,0,0,1-.14-.64A1.31,1.31,0,0,1,176,28a1,1,0,0,1,.39-.43,1.1,1.1,0,0,1,.57-.15,1.14,1.14,0,0,1,.49.11,1,1,0,0,1,.37.31l-.34.26a.58.58,0,0,0-.52-.29.61.61,0,0,0-.48.22.89.89,0,0,0-.19.61.88.88,0,0,0,.19.6.61.61,0,0,0,.48.22.59.59,0,0,0,.52-.28l.34.25a1,1,0,0,1-.37.32A1.13,1.13,0,0,1,176.94,29.87Zm1.34-.05V26.35h.43V27.8a.92.92,0,0,1,.26-.26.71.71,0,0,1,.39-.1.78.78,0,0,1,.6.24.92.92,0,0,1,.23.67v1.47h-.43V28.45a.67.67,0,0,0-.14-.46.45.45,0,0,0-.35-.16.53.53,0,0,0-.4.17.61.61,0,0,0-.16.43v1.39Zm3.83,0V26.35h.43V27.8a.92.92,0,0,1,.26-.26.71.71,0,0,1,.39-.1.78.78,0,0,1,.6.24.92.92,0,0,1,.23.67v1.47h-.43V28.45a.67.67,0,0,0-.14-.46.46.46,0,0,0-.35-.16.51.51,0,0,0-.4.17.57.57,0,0,0-.16.43v1.39Zm3.5.05a1.11,1.11,0,0,1-.58-.14,1,1,0,0,1-.39-.41,1.46,1.46,0,0,1-.14-.66,1.48,1.48,0,0,1,.14-.65,1,1,0,0,1,.38-.42,1.1,1.1,0,0,1,.57-.15.89.89,0,0,1,.54.16,1,1,0,0,1,.35.41,1.4,1.4,0,0,1,.12.58v.11h-1.67a.85.85,0,0,0,.19.59.63.63,0,0,0,.5.2.69.69,0,0,0,.41-.12.86.86,0,0,0,.27-.36l.33.22a1.14,1.14,0,0,1-.42.49A1.16,1.16,0,0,1,185.61,29.87ZM185,28.35h1.22A.68.68,0,0,0,186,28a.53.53,0,0,0-.39-.16.6.6,0,0,0-.42.15A.71.71,0,0,0,185,28.35Zm2.16,1.47V27.5h.39l0,.36a.72.72,0,0,1,.29-.31.89.89,0,0,1,.43-.11h.14l.12,0v.42l-.14,0h-.18a.65.65,0,0,0-.46.18.63.63,0,0,0-.19.46v1.33Zm2.77.05a1.11,1.11,0,0,1-.58-.14.91.91,0,0,1-.39-.41,1.46,1.46,0,0,1-.14-.66,1.48,1.48,0,0,1,.14-.65,1,1,0,0,1,.38-.42,1.1,1.1,0,0,1,.57-.15.89.89,0,0,1,.54.16.91.91,0,0,1,.34.41,1.27,1.27,0,0,1,.13.58v.11h-1.68a.9.9,0,0,0,.2.59.62.62,0,0,0,.5.2.63.63,0,0,0,.4-.12.87.87,0,0,0,.28-.36l.33.22a1.14,1.14,0,0,1-.42.49A1.16,1.16,0,0,1,189.88,29.87Zm-.66-1.52h1.22a.75.75,0,0,0-.19-.4.54.54,0,0,0-.4-.16.59.59,0,0,0-.41.15A.66.66,0,0,0,189.22,28.35Zm2.44,1.52a.31.31,0,0,1-.32-.32.29.29,0,0,1,.09-.22.29.29,0,0,1,.23-.1.34.34,0,0,1,.32.32.29.29,0,0,1-.1.23A.29.29,0,0,1,191.66,29.87Zm1.17,0a.32.32,0,0,1-.23-.09.33.33,0,0,1-.1-.23.3.3,0,0,1,.1-.22.29.29,0,0,1,.23-.1.34.34,0,0,1,.32.32.29.29,0,0,1-.1.23A.29.29,0,0,1,192.83,29.87Zm1.17,0a.36.36,0,0,1-.24-.09.32.32,0,0,1-.09-.23.29.29,0,0,1,.09-.22.33.33,0,0,1,.24-.1.28.28,0,0,1,.22.1.3.3,0,0,1,.1.22.33.33,0,0,1-.1.23A.31.31,0,0,1,194,29.87Z"/><path class="cls-31" d="M159.17,30.65a2.7,2.7,0,1,0-2.69-2.7A2.7,2.7,0,0,0,159.17,30.65Z"/><path class="cls-32" d="M161.05,30,162.11,31"/></g></g></svg>