<svg xmlns="http://www.w3.org/2000/svg" xmlns:xlink="http://www.w3.org/1999/xlink" viewBox="0 0 114.04 56.45"><defs><style>.cls-1{fill-opacity:0.93;fill:url(#Dégradé_sans_nom_2);}.cls-2{fill:#313131;}.cls-3{fill:#eae0f0;}.cls-4{fill:#8178b7;}.cls-5{fill:none;stroke:#615ba4;stroke-width:0.86px;}</style><linearGradient id="Dégradé_sans_nom_2" x1="318.1" y1="73.19" x2="223.34" y2="95.22" gradientTransform="matrix(0, 1, 1, 0, -26.11, -247.1)" gradientUnits="userSpaceOnUse"><stop offset="0" stop-color="#f4f3f4"/><stop offset="0.42" stop-color="#f4f3f4"/><stop offset="1" stop-color="#fff"/></linearGradient></defs><g id="Calque_2" data-name="Calque 2"><g id="Calque_1-2" data-name="Calque 1"><rect class="cls-1" x="29.22" y="-28.65" width="55.59" height="113.74" rx="11.72" transform="translate(28.26 84.97) rotate(-89.46)"/><path class="cls-2" d="M49.2,15.57l1.48,0L50.56,18l-1.37,0ZM49,26l1.37,0v2.31l-1.48,0ZM51.61,20a3.67,3.67,0,0,0-.45-.72,1.69,1.69,0,0,0-.56-.51,1.33,1.33,0,0,0-.73-.21,1.61,1.61,0,0,0-.7.11.89.89,0,0,0-.42.33,1.1,1.1,0,0,0-.14.53.89.89,0,0,0,.28.72,2.61,2.61,0,0,0,.81.5l1.07.45a5.31,5.31,0,0,1,.86.43,3.83,3.83,0,0,1,.77.61,2.47,2.47,0,0,1,.54.84,2.7,2.7,0,0,1,.18,1.11,2.66,2.66,0,0,1-.47,1.48,2.77,2.77,0,0,1-1.2.94,4.78,4.78,0,0,1-1.85.27A3.77,3.77,0,0,1,48,26.54a4.61,4.61,0,0,1-1.28-.94,4.05,4.05,0,0,1-.82-1.28l1.46-.93a6.09,6.09,0,0,0,.63,1,2.55,2.55,0,0,0,.75.65,2.22,2.22,0,0,0,.95.23,1.79,1.79,0,0,0,.73-.1.91.91,0,0,0,.44-.37,1.14,1.14,0,0,0,.17-.63,1,1,0,0,0-.26-.74,2.36,2.36,0,0,0-.74-.54c-.31-.16-.64-.31-1-.46a7.4,7.4,0,0,1-.79-.36,4.08,4.08,0,0,1-.81-.59,2.88,2.88,0,0,1-.64-.85,2.71,2.71,0,0,1-.21-1.18,2,2,0,0,1,.45-1.23,2.84,2.84,0,0,1,1.16-.89,3.82,3.82,0,0,1,1.65-.29,3.75,3.75,0,0,1,1.56.34,3.37,3.37,0,0,1,1,.79,3.6,3.6,0,0,1,.65,1Zm2.31,5.1,5.7-7.65,1.33,0-.28,9.57-2-.06.07-2.4.17-.15L59,20.59l-2.35,3.16,3.42.1.24-.2,2,.05-.05,1.67Zm9.84,1.24a1.06,1.06,0,0,1,.34-.77,1.08,1.08,0,0,1,.81-.3,1,1,0,0,1,.8.35,1.06,1.06,0,0,1,.29.79,1,1,0,0,1-.33.75,1.06,1.06,0,0,1-.82.31,1.14,1.14,0,0,1-.8-.35A1.1,1.1,0,0,1,63.76,26.37Zm5.94-2.32a1.9,1.9,0,0,0,.21,1,1.78,1.78,0,0,0,.61.64,1.85,1.85,0,0,0,.91.25,1.93,1.93,0,0,0,.91-.19A1.71,1.71,0,0,0,73,25.1a2,2,0,0,0,0-1.9,1.58,1.58,0,0,0-.62-.66,1.79,1.79,0,0,0-.9-.26,1.92,1.92,0,0,0-.92.21,1.64,1.64,0,0,0-.65.63A1.87,1.87,0,0,0,69.7,24.05Zm2.12-6.19,2.48.07-3.17,3.52-.36.12a1.71,1.71,0,0,1,.71-.46,2.95,2.95,0,0,1,1.93.16,2.88,2.88,0,0,1,.92.66,2.94,2.94,0,0,1,.63,1,3,3,0,0,1,.21,1.28,3.4,3.4,0,0,1-.56,1.88,3.2,3.2,0,0,1-1.36,1.16,4.39,4.39,0,0,1-1.87.34,4.31,4.31,0,0,1-1.85-.45,3.27,3.27,0,0,1-1.3-1.23A3.43,3.43,0,0,1,67.79,24a3.16,3.16,0,0,1,.31-1.31,5,5,0,0,1,.72-1.11Zm12,6.8a3.23,3.23,0,0,1-.36,1.45,2.72,2.72,0,0,1-.88,1,3.67,3.67,0,0,1-1.2.56,5.16,5.16,0,0,1-1.36.15,5.67,5.67,0,0,1-1.57-.25A4.87,4.87,0,0,1,77.22,27a5.63,5.63,0,0,1-.89-.76l1-1.5a4.85,4.85,0,0,0,.72.64,4.25,4.25,0,0,0,.83.46,2.64,2.64,0,0,0,.83.18,2.76,2.76,0,0,0,1-.16,1.52,1.52,0,0,0,.68-.53,1.59,1.59,0,0,0,.26-.9,1.37,1.37,0,0,0-.25-.88,1.52,1.52,0,0,0-.69-.55,2.32,2.32,0,0,0-1-.22,4.49,4.49,0,0,0-.81,0,4.75,4.75,0,0,0-.88.18,4.55,4.55,0,0,0-1,.39L78.6,18l5.21.14,0,1.7L80,19.76l-.63,2a2.11,2.11,0,0,1,.76-.24,3.91,3.91,0,0,1,.84-.06,2.71,2.71,0,0,1,1.42.42,2.8,2.8,0,0,1,1,1.13A3.32,3.32,0,0,1,83.78,24.66Zm1.73-4.12A2.15,2.15,0,0,1,86,19.22a2.64,2.64,0,0,1,1.12-.83,3.6,3.6,0,0,1,1.55-.27,3.69,3.69,0,0,1,1.51.36,2.57,2.57,0,0,1,1.08.89,2.18,2.18,0,0,1,.39,1.34,2.27,2.27,0,0,1-.29,1.1,2.25,2.25,0,0,1-.71.76,3.25,3.25,0,0,1-1,.45,4,4,0,0,1-1.14.13A3.82,3.82,0,0,1,87.36,23a3.09,3.09,0,0,1-1-.51,2.15,2.15,0,0,1-.88-1.91Zm1.83.24a1.25,1.25,0,0,0,.14.65,1.42,1.42,0,0,0,.43.45,1.23,1.23,0,0,0,.61.16,1.18,1.18,0,0,0,.62-.13,1.09,1.09,0,0,0,.43-.42,1.23,1.23,0,0,0,.19-.64,1.41,1.41,0,0,0-.14-.65,1,1,0,0,0-.41-.45,1.36,1.36,0,0,0-.62-.17,1.27,1.27,0,0,0-.63.14,1,1,0,0,0-.45.42A1.25,1.25,0,0,0,87.34,20.78ZM85,25.19A2.54,2.54,0,0,1,85.37,24a2.56,2.56,0,0,1,.82-.85,3.46,3.46,0,0,1,1.12-.47,4.13,4.13,0,0,1,1.2-.13,4.47,4.47,0,0,1,1.18.19,3.42,3.42,0,0,1,1.08.54,2.6,2.6,0,0,1,.78.9,2.48,2.48,0,0,1,.27,1.25,2.55,2.55,0,0,1-.31,1.14,2.77,2.77,0,0,1-.78.86,3.7,3.7,0,0,1-1.09.54,3.94,3.94,0,0,1-1.29.15,4.27,4.27,0,0,1-1.3-.22A3.71,3.71,0,0,1,86,27.24a2.64,2.64,0,0,1-.73-.9A2.57,2.57,0,0,1,85,25.19ZM87,25a1.57,1.57,0,0,0,.17.81,1.49,1.49,0,0,0,.52.51,1.79,1.79,0,0,0,.73.18,1.57,1.57,0,0,0,.72-.14,1.37,1.37,0,0,0,.56-.48,1.51,1.51,0,0,0,.23-.8,1.42,1.42,0,0,0-.19-.73,1.61,1.61,0,0,0-.53-.54,1.47,1.47,0,0,0-.71-.21,1.46,1.46,0,0,0-1.29.68A1.44,1.44,0,0,0,87,25Z"/><path class="cls-2" d="M46.73,36.74l2.21.06,0-.75L46.75,36Zm.1-3.62,2.21.06,0-.75-2.21-.07Zm0,1.67,2.08.06,0-.75-2.08-.05Zm-.51-2.44-.13,4.37.87,0,.12-4.38ZM50.34,36a.58.58,0,0,1,.06-.21.34.34,0,0,1,.18-.12.73.73,0,0,1,.31,0,1.56,1.56,0,0,1,.44.07,1.2,1.2,0,0,1,.37.2v-.38a.72.72,0,0,0-.2-.16,1.67,1.67,0,0,0-.35-.15,2.21,2.21,0,0,0-.48-.07,1.31,1.31,0,0,0-.84.22.94.94,0,0,0-.19,1.16,1,1,0,0,0,.37.32,1.36,1.36,0,0,0,.5.12,1.42,1.42,0,0,0,.5-.08,1,1,0,0,0,.4-.27.7.7,0,0,0,.17-.46l-.09-.38a.69.69,0,0,1-.1.36.88.88,0,0,1-.25.22,1,1,0,0,1-.34.06.7.7,0,0,1-.25,0,.36.36,0,0,1-.16-.14A.43.43,0,0,1,50.34,36Zm-.28-1.18.2-.1a1.74,1.74,0,0,1,.32-.1,2.34,2.34,0,0,1,.38,0,.93.93,0,0,1,.24,0,.39.39,0,0,1,.17.09.31.31,0,0,1,.12.14.66.66,0,0,1,0,.21l-.05,1.86.78,0,.06-2a.82.82,0,0,0-.15-.5,1,1,0,0,0-.44-.32,1.89,1.89,0,0,0-.66-.13,2.06,2.06,0,0,0-.72.09,4.82,4.82,0,0,0-.56.21Zm3.82-.7-.8,0L53,36.92l.8,0Zm.82.86.39-.67a.58.58,0,0,0-.23-.18.72.72,0,0,0-.29-.06.68.68,0,0,0-.45.15,1.18,1.18,0,0,0-.35.41,1.44,1.44,0,0,0-.15.6l.22.24a.88.88,0,0,1,.06-.35.51.51,0,0,1,.17-.23.38.38,0,0,1,.26-.07.39.39,0,0,1,.2,0A.55.55,0,0,1,54.7,34.93Zm2.64.36L57.29,37l.84,0,0-1.83a1.21,1.21,0,0,0-.22-.82,1,1,0,0,0-.76-.31,1,1,0,0,0-.53.11.93.93,0,0,0-.35.36v-.43l-.81,0L55.44,37l.81,0,0-1.75a.62.62,0,0,1,.08-.31.41.41,0,0,1,.2-.19.6.6,0,0,1,.3-.07.41.41,0,0,1,.36.16A.64.64,0,0,1,57.34,35.29Zm2.94,1.9a1.81,1.81,0,0,0,.9-.18,1.44,1.44,0,0,0,.61-.59l-.7-.24a.71.71,0,0,1-.32.3.85.85,0,0,1-.46.09.69.69,0,0,1-.41-.12.62.62,0,0,1-.24-.31,1.24,1.24,0,0,1-.07-.49,1.38,1.38,0,0,1,.1-.5.75.75,0,0,1,.25-.3.68.68,0,0,1,.41-.09.58.58,0,0,1,.33.09.56.56,0,0,1,.21.25.68.68,0,0,1,.07.36.52.52,0,0,1,0,.11.3.3,0,0,1,0,.1l.23-.28-1.87,0,0,.5,2.58.07s0-.06,0-.1,0-.08,0-.12a1.64,1.64,0,0,0-.16-.79,1.15,1.15,0,0,0-.49-.51,1.67,1.67,0,0,0-.81-.2,1.71,1.71,0,0,0-.83.16,1.29,1.29,0,0,0-.55.51,1.4,1.4,0,0,0-.21.78,1.57,1.57,0,0,0,.16.8,1.31,1.31,0,0,0,.53.54A1.74,1.74,0,0,0,60.28,37.19Zm4.42-4.82-.14,4.88.82,0,.14-4.87Zm-2.46,3.37a1.63,1.63,0,0,0,.17.82,1.35,1.35,0,0,0,.5.53,1.33,1.33,0,0,0,.67.19,1.06,1.06,0,0,0,.64-.16,1.21,1.21,0,0,0,.46-.51,2.08,2.08,0,0,0,0-1.6,1.31,1.31,0,0,0-.42-.53,1.21,1.21,0,0,0-.63-.2,1.45,1.45,0,0,0-.68.16,1.27,1.27,0,0,0-.53.5A1.51,1.51,0,0,0,62.24,35.74Zm.84,0a.78.78,0,0,1,.12-.44.65.65,0,0,1,.29-.28.71.71,0,0,1,.4-.09.62.62,0,0,1,.34.11.66.66,0,0,1,.28.29.91.91,0,0,1,.1.45.88.88,0,0,1-.13.45.78.78,0,0,1-.29.28.72.72,0,0,1-.35.08.77.77,0,0,1-.39-.11.74.74,0,0,1-.28-.3A.87.87,0,0,1,63.08,35.77Zm4.69-2,1.17,0-.1,3.57.9,0,.1-3.57,1.18,0,0-.81L67.79,33Zm4.53-1.18-.81,0-.14,4.87.81,0Zm1,3.16-.05,1.75.81,0,0-1.87a1.36,1.36,0,0,0-.09-.6.76.76,0,0,0-.31-.39,1.27,1.27,0,0,0-.55-.14,1,1,0,0,0-.58.15,1,1,0,0,0-.36.43,1.66,1.66,0,0,0-.13.61h.16a.67.67,0,0,1,.08-.31.45.45,0,0,1,.21-.2.58.58,0,0,1,.3-.07.44.44,0,0,1,.36.16A.81.81,0,0,1,73.26,35.75Zm1.63-2.2a.42.42,0,0,0,.14.33.46.46,0,0,0,.34.14.44.44,0,0,0,.34-.12.39.39,0,0,0,.15-.32.41.41,0,0,0-.13-.33.46.46,0,0,0-.34-.14.5.5,0,0,0-.34.12A.43.43,0,0,0,74.89,33.55ZM75,34.67l-.08,2.87.78,0,.09-2.88Zm1.74,1.93-.41.5a3.63,3.63,0,0,0,.35.3,1.88,1.88,0,0,0,.45.22,1.69,1.69,0,0,0,.56.1,1.17,1.17,0,0,0,.78-.21.81.81,0,0,0,.3-.67.72.72,0,0,0-.1-.43,1.05,1.05,0,0,0-.31-.28,4.11,4.11,0,0,0-.42-.21l-.34-.15a.75.75,0,0,1-.22-.13.23.23,0,0,1-.07-.17.16.16,0,0,1,.08-.15.38.38,0,0,1,.22,0,.84.84,0,0,1,.42.12,1.25,1.25,0,0,1,.36.28l.38-.49a1.57,1.57,0,0,0-.32-.24,1.38,1.38,0,0,0-.39-.18,1.33,1.33,0,0,0-.45-.08,1.31,1.31,0,0,0-.53.08.76.76,0,0,0-.37.26.6.6,0,0,0-.15.42.79.79,0,0,0,.1.45,1,1,0,0,0,.31.29,2.64,2.64,0,0,0,.38.18l.35.14a.86.86,0,0,1,.2.15.26.26,0,0,1,.07.19.28.28,0,0,1-.1.2.44.44,0,0,1-.25.06A.74.74,0,0,1,77.3,37a1.17,1.17,0,0,1-.28-.16A1.64,1.64,0,0,1,76.69,36.6Zm5.55-1.3,1.21,2.08,1.33-2L85,37.83l.93,0-.52-4.61L83.49,36l-1.75-2.88L81,37.72l.93,0Zm4.16,1.13a1.52,1.52,0,0,0,.18.8,1.43,1.43,0,0,0,.55.54A1.81,1.81,0,0,0,88,38a1.78,1.78,0,0,0,.81-.16,1.46,1.46,0,0,0,.59-.51,1.49,1.49,0,0,0,.23-.79,1.39,1.39,0,0,0-.19-.79,1.36,1.36,0,0,0-.55-.54A1.77,1.77,0,0,0,88,35a1.82,1.82,0,0,0-.82.16,1.53,1.53,0,0,0-.59.51A1.43,1.43,0,0,0,86.4,36.43Zm.82,0a.83.83,0,0,1,.11-.43.78.78,0,0,1,.29-.28.86.86,0,0,1,.39-.09.77.77,0,0,1,.39.11.7.7,0,0,1,.26.3.85.85,0,0,1,.1.43,1,1,0,0,1-.12.43.83.83,0,0,1-.28.28.86.86,0,0,1-.39.09.84.84,0,0,1-.39-.11,1,1,0,0,1-.27-.3A.88.88,0,0,1,87.22,36.46Zm4.84-.18L92,38l.83,0,.06-1.84a1.17,1.17,0,0,0-.23-.81,1,1,0,0,0-.76-.32.87.87,0,0,0-.52.12.89.89,0,0,0-.36.36v-.44l-.81,0L90.15,38,91,38,91,36.25a.62.62,0,0,1,.08-.31.52.52,0,0,1,.2-.19.62.62,0,0,1,.31-.07.47.47,0,0,1,.36.16A.78.78,0,0,1,92.06,36.28Zm1.29-1.09,0,.69,1.78,0,0-.69Zm.53-1-.11,3.87.78,0,.11-3.88Zm2.55-.93-.81,0-.14,4.87.81,0Zm.95,3.16,0,1.75.82,0,0-1.87a1.36,1.36,0,0,0-.09-.6.81.81,0,0,0-.31-.39,1.16,1.16,0,0,0-.56-.14.91.91,0,0,0-.57.15.93.93,0,0,0-.36.42,1.56,1.56,0,0,0-.13.62h.16a.63.63,0,0,1,.08-.32.46.46,0,0,1,.2-.19.62.62,0,0,1,.31-.07.41.41,0,0,1,.35.16A.67.67,0,0,1,97.38,36.44Z"/><circle class="cls-3" cx="24.59" cy="28.22" r="15.44"/><circle class="cls-4" cx="24.59" cy="28.22" r="8.01"/><circle class="cls-5" cx="24.59" cy="28.22" r="7.82"/></g></g></svg>