<svg xmlns="http://www.w3.org/2000/svg" xmlns:xlink="http://www.w3.org/1999/xlink" viewBox="0 0 33 33.08"><defs><style>.cls-1{fill-opacity:0.93;fill:url(#Dégradé_sans_nom_2);}.cls-2{fill:#fff;}.cls-3{fill:url(#Dégradé_sans_nom_9);}.cls-4{fill:url(#Dégradé_sans_nom_8);}.cls-5{fill:url(#Dégradé_sans_nom_7);}.cls-6{fill:#313131;}.cls-7{fill:#404040;}.cls-8{fill:#363e6c;}</style><linearGradient id="Dégradé_sans_nom_2" x1="216.95" y1="139.71" x2="188.52" y2="142.93" gradientTransform="matrix(1, 0, 0, -1, -187.62, 157.71)" gradientUnits="userSpaceOnUse"><stop offset="0" stop-color="#f4f3f4"/><stop offset="0.42" stop-color="#f4f3f4"/><stop offset="1" stop-color="#fff"/></linearGradient><linearGradient id="Dégradé_sans_nom_9" x1="99.16" y1="236.61" x2="129.76" y2="223.37" gradientTransform="matrix(0.93, 0.36, 0.36, -0.93, -174.41, 193.37)" gradientUnits="userSpaceOnUse"><stop offset="0" stop-color="#fff6b7"/><stop offset="1" stop-color="#e9446e"/></linearGradient><linearGradient id="Dégradé_sans_nom_8" x1="96.85" y1="231.26" x2="127.45" y2="218.03" gradientTransform="matrix(0.93, 0.36, 0.36, -0.93, -174.41, 193.37)" gradientUnits="userSpaceOnUse"><stop offset="0" stop-color="#ffea87"/><stop offset="1" stop-color="#ee7433"/></linearGradient><linearGradient id="Dégradé_sans_nom_7" x1="102.89" y1="245.22" x2="133.49" y2="231.99" gradientTransform="matrix(0.93, 0.36, 0.36, -0.93, -174.41, 193.37)" gradientUnits="userSpaceOnUse"><stop offset="0" stop-color="#bb9fcc"/><stop offset="1" stop-color="#6163aa"/></linearGradient></defs><g id="Calque_2" data-name="Calque 2"><g id="Calque_1-2" data-name="Calque 1"><rect class="cls-1" x="0.1" y="0.1" width="32.79" height="32.88" rx="3.59" transform="translate(-0.13 0.13) rotate(-0.46)"/><path class="cls-2" d="M27,18.08A10.91,10.91,0,1,1,16,7.29,10.91,10.91,0,0,1,27,18.08Zm-18.54.2A7.64,7.64,0,1,0,16,10.57,7.64,7.64,0,0,0,8.45,18.28Z"/><path class="cls-3" d="M27.8,21.06a12.07,12.07,0,0,1-2,4.15,11.75,11.75,0,0,1-12.36,4.34l1.46-5.71a5.75,5.75,0,0,0,2.3.13,5.93,5.93,0,0,0,4.88-4.37Z"/><path class="cls-4" d="M16.5,29.92A11.82,11.82,0,0,1,4.63,19.16a.85.85,0,0,1,.86-.91l4.1,0a1,1,0,0,1,1,.88,6,6,0,0,0,1.69,3.26A6,6,0,0,0,16.44,24Z"/><path class="cls-5" d="M16.26,7.24a.85.85,0,0,1,.89-.87,11.85,11.85,0,0,1,8.69,4.73,11.82,11.82,0,0,1,1.79,10.56L22,19.9a5.88,5.88,0,0,0-.89-5.28A5.88,5.88,0,0,0,19,12.86a6,6,0,0,0-1.79-.56,1,1,0,0,1-.91-1Z"/><path class="cls-6" d="M13.68,16.6l.11.15a.51.51,0,0,0,.13.09.41.41,0,0,0,.16,0,.18.18,0,0,0,.13,0,.14.14,0,0,0,.06-.11.15.15,0,0,0,0-.1.2.2,0,0,0-.1-.07l-.19-.08-.13,0-.14-.09a.76.76,0,0,1-.11-.14.59.59,0,0,1,0-.2.36.36,0,0,1,.07-.24.46.46,0,0,1,.2-.16.61.61,0,0,1,.28-.06.76.76,0,0,1,.27.05,1,1,0,0,1,.2.13.51.51,0,0,1,.11.16l-.29.17a.25.25,0,0,0-.08-.1.18.18,0,0,0-.09-.06.27.27,0,0,0-.12,0,.16.16,0,0,0-.12,0,.1.1,0,0,0,0,.09.12.12,0,0,0,0,.09.35.35,0,0,0,.12.07l.19.07a.8.8,0,0,1,.16.08.27.27,0,0,1,.12.09.42.42,0,0,1,.09.14.33.33,0,0,1,0,.17.51.51,0,0,1-.05.22.47.47,0,0,1-.32.25.49.49,0,0,1-.21,0,.93.93,0,0,1-.29-.05,1.14,1.14,0,0,1-.23-.15.8.8,0,0,1-.15-.21Zm1.53.21a.14.14,0,0,0,0,.07.13.13,0,0,0,.06,0l.07,0a.2.2,0,0,0,.11,0,.27.27,0,0,0,.08-.07.28.28,0,0,0,0-.13l0,.14a.34.34,0,0,1,0,.17.45.45,0,0,1-.14.1.41.41,0,0,1-.19,0,.52.52,0,0,1-.18,0,.33.33,0,0,1-.14-.12.35.35,0,0,1-.05-.18.28.28,0,0,1,.1-.23.45.45,0,0,1,.3-.09h.17l.13.05a.12.12,0,0,1,.08.05v.15l-.13-.06-.15,0-.1,0a.1.1,0,0,0,0,0A.14.14,0,0,0,15.21,16.81Zm-.15-.39-.12-.23a1,1,0,0,1,.21-.08.77.77,0,0,1,.27,0,.69.69,0,0,1,.25,0,.34.34,0,0,1,.17.11.28.28,0,0,1,.06.18v.73h-.33v-.65a.14.14,0,0,0,0-.07s0,0,0-.05l-.07,0h-.22l-.11,0Zm1.14-1.05h.35l0,1.76h-.35Zm1.22,1.77a.66.66,0,0,1-.32-.07.44.44,0,0,1-.2-.18.6.6,0,0,1,0-.58.46.46,0,0,1,.2-.19.77.77,0,0,1,.62,0,.47.47,0,0,1,.19.18.77.77,0,0,1,.07.28v.05s0,0,0,0H17v-.19h.64l-.08.11a.05.05,0,0,0,0,0,.08.08,0,0,0,0,0,.24.24,0,0,0,0-.12.12.12,0,0,0-.07-.07.17.17,0,0,0-.1,0,.18.18,0,0,0-.13,0,.16.16,0,0,0-.08.1.74.74,0,0,0,0,.17,1.57,1.57,0,0,0,0,.16.24.24,0,0,0,.09.11.25.25,0,0,0,.13,0,.24.24,0,0,0,.15,0,.21.21,0,0,0,.11-.1l.3.07a.51.51,0,0,1-.22.24A.8.8,0,0,1,17.42,17.14Z"/><path class="cls-7" d="M14.14,18.39h.13a1.79,1.79,0,0,0-.13.41,2.6,2.6,0,0,0,0,.85,1.9,1.9,0,0,0,.14.4h-.13a1.38,1.38,0,0,1-.15-.4,1.51,1.51,0,0,1,0-.42,1.53,1.53,0,0,1,0-.43A2,2,0,0,1,14.14,18.39Zm.29.27v-.13h.83l-.56,1.19h-.15L15,18.66Zm1.79.64a.48.48,0,0,1,0,.18.38.38,0,0,1-.09.13.57.57,0,0,1-.13.08l-.16,0a.54.54,0,0,1-.19,0,.34.34,0,0,1-.14-.09.58.58,0,0,1-.1-.12l.12-.09a.39.39,0,0,0,.08.1l.1.07a.28.28,0,0,0,.13,0,.23.23,0,0,0,.14,0,.2.2,0,0,0,.09-.09.33.33,0,0,0,0-.15.23.23,0,0,0,0-.14.2.2,0,0,0-.09-.09.32.32,0,0,0-.14,0h-.1l-.1,0-.1.07.15-.64h.56v.12h-.45l-.08.31.09,0h.09A.27.27,0,0,1,16,19a.29.29,0,0,1,.13.14A.39.39,0,0,1,16.22,19.3Zm.18-.54a.32.32,0,0,1,0-.14.28.28,0,0,1,.09-.1.32.32,0,0,1,.14,0,.21.21,0,0,1,.14,0,.32.32,0,0,1,.1.1.28.28,0,0,1,0,.13.32.32,0,0,1,0,.14.28.28,0,0,1-.09.1.33.33,0,0,1-.14,0,.21.21,0,0,1-.14,0,.22.22,0,0,1-.1-.09A.35.35,0,0,1,16.4,18.76Zm.12,0a.22.22,0,0,0,0,.08.34.34,0,0,0,.06.06l.08,0a.13.13,0,0,0,.08,0,.09.09,0,0,0,0-.06.11.11,0,0,0,0-.08.19.19,0,0,0,0-.07.1.1,0,0,0-.05-.06.11.11,0,0,0-.08,0,.12.12,0,0,0-.08,0s0,0,0,.06A.19.19,0,0,0,16.52,18.76Zm.5.67a.25.25,0,0,1,.13-.24.29.29,0,0,1,.14,0,.32.32,0,0,1,.14,0,.22.22,0,0,1,.09.1.28.28,0,0,1,0,.13.23.23,0,0,1,0,.14.22.22,0,0,1-.09.1.29.29,0,0,1-.14,0,.23.23,0,0,1-.14,0,.2.2,0,0,1-.09-.09A.25.25,0,0,1,17,19.43Zm.12,0a.24.24,0,0,0,0,.08l.05.06.08,0a.11.11,0,0,0,.08,0,.1.1,0,0,0,.05-.06.19.19,0,0,0,0-.07.19.19,0,0,0,0-.08.1.1,0,0,0-.05-.06.17.17,0,0,0-.16,0,.1.1,0,0,0-.05.06A.19.19,0,0,0,17.14,19.43Zm.15-.93h.13l-.75,1.2h-.13ZM18.42,20h-.13a1.79,1.79,0,0,0,.13-.41,2,2,0,0,0,0-.42,2,2,0,0,0,0-.43,1.87,1.87,0,0,0-.13-.4h.12a1.38,1.38,0,0,1,.15.4,1.54,1.54,0,0,1,.06.43,2,2,0,0,1-.05.42A1.53,1.53,0,0,1,18.42,20Z"/><path class="cls-8" d="M4.65,4.85V4.64h.62a.77.77,0,0,1,0,.27.51.51,0,0,1-.12.23.62.62,0,0,1-.2.15.61.61,0,0,1-.28.06.75.75,0,0,1-.26,0,.69.69,0,0,1-.22-.14A.77.77,0,0,1,4,5a.77.77,0,0,1,0-.27.58.58,0,0,1,0-.26.6.6,0,0,1,.14-.21.54.54,0,0,1,.22-.13.75.75,0,0,1,.26,0,.61.61,0,0,1,.24,0,.4.4,0,0,1,.18.1.67.67,0,0,1,.14.15L5,4.45a.44.44,0,0,0-.13-.14.46.46,0,0,0-.21,0,.46.46,0,0,0-.2,0,.43.43,0,0,0-.15.15.4.4,0,0,0-.06.22.41.41,0,0,0,.06.23.29.29,0,0,0,.14.15.37.37,0,0,0,.21.06l.14,0L4.88,5,5,5a.47.47,0,0,0,0-.1Zm.85-.94h.23v1.4H5.5ZM6,4.9A.4.4,0,0,1,6,4.68a.33.33,0,0,1,.16-.15.48.48,0,0,1,.24-.06.44.44,0,0,1,.23.06.33.33,0,0,1,.16.15.4.4,0,0,1,.06.22.44.44,0,0,1-.06.23.46.46,0,0,1-.16.15.46.46,0,0,1-.23,0,.6.6,0,0,1-.24,0A.46.46,0,0,1,6,5.13.44.44,0,0,1,6,4.9Zm.24,0a.51.51,0,0,0,0,.13.34.34,0,0,0,.09.08.2.2,0,0,0,.11,0,.23.23,0,0,0,.11,0L6.6,5a.28.28,0,0,0,0-.13.24.24,0,0,0,0-.12.2.2,0,0,0-.08-.08.22.22,0,0,0-.22,0s-.06,0-.08.08A.24.24,0,0,0,6.19,4.9Zm1.12-1v1.4H7.08V3.92Zm.68,1a.44.44,0,0,1-.06.23.4.4,0,0,1-.14.15.46.46,0,0,1-.2,0,.35.35,0,0,1-.18-.06.39.39,0,0,1-.13-.15.53.53,0,0,1,0-.23.43.43,0,0,1,0-.23.33.33,0,0,1,.12-.14.3.3,0,0,1,.18-.06.46.46,0,0,1,.2,0,.4.4,0,0,1,.14.15A.45.45,0,0,1,8,4.91Zm-.24,0a.26.26,0,0,0-.11-.21l-.11,0-.11,0a.3.3,0,0,0-.08.08.28.28,0,0,0,0,.13.25.25,0,0,0,0,.13.24.24,0,0,0,.08.09l.1,0a.24.24,0,0,0,.12,0A.15.15,0,0,0,7.72,5,.25.25,0,0,0,7.75,4.9Zm.62.16a.08.08,0,0,0,0,.06.1.1,0,0,0,0,0l.07,0,.1,0a.46.46,0,0,0,.07-.07.3.3,0,0,0,0-.1l0,.11a.2.2,0,0,1,0,.13.25.25,0,0,1-.12.08.34.34,0,0,1-.28,0,.24.24,0,0,1-.11-.09.24.24,0,0,1,0-.15.26.26,0,0,1,.08-.19.43.43,0,0,1,.24-.07l.14,0,.1,0s.05,0,.06,0V5L8.65,5,8.53,5,8.44,5a.09.09,0,0,0,0,0A.14.14,0,0,0,8.37,5.06Zm-.09-.33L8.2,4.57a.84.84,0,0,1,.16-.07.64.64,0,0,1,.2,0,.54.54,0,0,1,.19,0,.25.25,0,0,1,.13.09.24.24,0,0,1,0,.14v.59H8.7V4.78a.07.07,0,0,0,0,0,.09.09,0,0,0,0-.05l-.05,0H8.54l-.11,0a.12.12,0,0,0-.09,0Zm.91-.81h.23v1.4H9.19Zm1.22,1a.36.36,0,0,0,.08.12.38.38,0,0,0,.11.08.27.27,0,0,0,.12,0,.17.17,0,0,0,.13,0A.12.12,0,0,0,10.9,5a.15.15,0,0,0,0-.1l-.09-.06-.14-.06-.11,0-.1-.07a.24.24,0,0,1-.09-.11.33.33,0,0,1,0-.15.32.32,0,0,1,0-.19.44.44,0,0,1,.15-.12.57.57,0,0,1,.42,0,.38.38,0,0,1,.14.11.47.47,0,0,1,.09.12l-.2.11a.21.21,0,0,0-.06-.08l-.08-.06-.1,0a.12.12,0,0,0-.11,0,.09.09,0,0,0,0,.08.11.11,0,0,0,0,.08l.09.07.16.06.12,0,.1.08a.41.41,0,0,1,.07.11.32.32,0,0,1,0,.14.33.33,0,0,1,0,.17.53.53,0,0,1-.1.12.61.61,0,0,1-.14.07.45.45,0,0,1-.16,0,.54.54,0,0,1-.22-.05.66.66,0,0,1-.17-.12A.42.42,0,0,1,10.23,5Zm.88-.4h.51v.2h-.51Zm.15-.29h.22V5.32h-.22Zm.7.86a.13.13,0,0,0,0,.06l0,0h.07a.16.16,0,0,0,.1,0,.13.13,0,0,0,.07-.06.17.17,0,0,0,0-.1l0,.1a.22.22,0,0,1-.05.14l-.11.08-.15,0a.32.32,0,0,1-.14,0,.31.31,0,0,1-.11-.09.26.26,0,0,1,0-.14A.23.23,0,0,1,12,4.89a.33.33,0,0,1,.24-.07l.13,0,.11,0,.06,0V5l-.11,0a.27.27,0,0,0-.13,0H12.2a.1.1,0,0,0,0,0A.13.13,0,0,0,12.14,5.07Zm-.09-.34L12,4.58a.59.59,0,0,1,.16-.07.66.66,0,0,1,.21,0,.58.58,0,0,1,.19,0,.38.38,0,0,1,.13.09.23.23,0,0,1,0,.14v.59h-.22V4.79s0,0,0-.06l0,0-.05,0h-.18l-.09,0Zm.8-.23h.51v.2h-.51ZM13,4.21h.22V5.33H13Zm.52,0a.16.16,0,0,1,.05-.09.15.15,0,0,1,.1,0,.15.15,0,0,1,.09,0,.11.11,0,0,1,0,.09.13.13,0,0,1,0,.1.15.15,0,0,1-.1,0,.14.14,0,0,1-.14-.13Zm0,.32h.23v.83h-.22ZM14.1,5a.32.32,0,0,0,.09.08l.09,0h.08l.07,0a.08.08,0,0,0,0-.06s0,0,0,0a.09.09,0,0,0-.06,0l-.1,0-.11,0a.24.24,0,0,1-.09-.08.23.23,0,0,1,0-.13.16.16,0,0,1,0-.12.27.27,0,0,1,.1-.08l.15,0h.13l.12,0,.09.07-.1.14a.41.41,0,0,0-.11-.07l-.12,0h-.06a.05.05,0,0,0,0,0,.05.05,0,0,0,0,0,.09.09,0,0,0,.06,0l.1,0,.12.06a.22.22,0,0,1,.09.07.28.28,0,0,1,0,.13.22.22,0,0,1-.08.19.31.31,0,0,1-.22.07.41.41,0,0,1-.16,0,.31.31,0,0,1-.13-.06L14,5.19Zm.68-.53h.51V4.7h-.51Zm.15-.29h.22V5.33h-.23Zm.52,0a.18.18,0,0,1,0-.1.18.18,0,0,1,.2,0,.13.13,0,0,1,0,.1.11.11,0,0,1,0,.09.14.14,0,0,1-.2,0A.15.15,0,0,1,15.45,4.19Zm0,.32h.22v.82h-.22Zm.69.41a.28.28,0,0,0,0,.13.24.24,0,0,0,.09.08.21.21,0,0,0,.12,0h.1l.09-.05L16.67,5v.24l-.12.06-.16,0a.59.59,0,0,1-.23,0A.5.5,0,0,1,16,5.15a.46.46,0,0,1-.06-.23A.44.44,0,0,1,16,4.69a.5.5,0,0,1,.17-.15.59.59,0,0,1,.23,0l.16,0,.12.06v.24l-.07-.07-.09,0-.1,0a.24.24,0,0,0-.12,0,.2.2,0,0,0-.09.09A.21.21,0,0,0,16.17,4.92Z"/></g></g></svg>