<svg width="51" height="126" viewBox="0 0 51 126" fill="none" xmlns="http://www.w3.org/2000/svg">
<path d="M39.3394 119.168C39.0571 119.168 38.7479 119.185 38.4252 119.238C38.3446 119.256 38.2639 119.273 38.1832 119.291C38.1025 119.308 38.0219 119.326 37.9278 119.343C37.7664 119.378 37.5917 119.431 37.4169 119.501C36.7043 119.746 35.938 120.149 35.1582 120.622C34.4053 121.06 33.639 121.55 32.9533 122.006C32.2676 122.461 31.6626 122.899 31.2324 123.197C30.8022 123.495 30.5468 123.687 30.5468 123.687C30.5468 123.687 30.614 123.722 30.7484 123.792C30.8829 123.845 31.0711 123.95 31.2996 124.038C31.7836 124.213 32.4559 124.441 33.2222 124.651C33.4104 124.703 33.6121 124.756 33.8138 124.791C34.0154 124.826 34.2305 124.861 34.4322 124.896C34.849 124.949 35.2792 125.001 35.7094 125.019C36.5564 125.071 37.4303 124.931 38.1698 124.668C39.6487 124.143 40.657 122.952 41.2754 121.971C41.9073 120.972 42.1628 120.149 42.1628 120.149C42.1628 120.149 41.6519 119.729 40.8183 119.466C40.415 119.308 39.9176 119.168 39.3394 119.168Z" fill="#DBDBDB"/>
<path d="M41.6096 111.513C41.26 110.795 40.8029 110.164 40.3323 109.551C40.1038 109.253 39.8483 108.973 39.6063 108.71C39.4853 108.57 39.3643 108.448 39.2433 108.343C39.1223 108.22 39.0148 108.097 38.8938 107.975C38.4367 107.519 38.0199 107.151 37.7241 106.906C37.4283 106.643 37.2401 106.486 37.2401 106.486C37.2401 106.486 37.2401 106.836 37.2536 107.397C37.267 107.975 37.3073 108.746 37.4014 109.639C37.4956 110.515 37.6434 111.513 37.8586 112.477C38.0871 113.405 38.3829 114.316 38.7459 115.069C38.8266 115.262 38.9341 115.437 39.0282 115.612C39.0686 115.7 39.1223 115.77 39.1761 115.857C39.2299 115.927 39.2702 115.997 39.324 116.068C39.5391 116.348 39.7542 116.576 39.9828 116.786C40.1979 116.996 40.4265 117.154 40.6416 117.294C40.8567 117.434 41.0718 117.556 41.2735 117.627C42.0801 117.924 42.6582 117.872 42.6582 117.872C42.6582 117.872 42.7523 116.978 42.6582 115.752C42.6045 115.139 42.5238 114.438 42.349 113.72C42.3087 113.545 42.2549 113.352 42.2011 113.177C42.1473 112.985 42.0936 112.809 42.0398 112.617C41.9188 112.231 41.7843 111.864 41.6096 111.513Z" fill="#DBDBDB"/>
<path d="M30.1686 113.633C30.1148 113.562 30.0476 113.492 29.9535 113.387C29.7652 113.177 29.4829 112.879 29.1065 112.617C28.9182 112.476 28.7166 112.336 28.4746 112.214C28.246 112.091 27.9771 111.986 27.7217 111.863C27.1839 111.653 26.5386 111.531 25.7991 111.548C25.4227 111.566 25.0462 111.583 24.6429 111.636C24.2396 111.688 23.8228 111.758 23.406 111.846C22.9892 111.933 22.559 112.039 22.1557 112.144C21.7523 112.249 21.349 112.354 20.9726 112.459C20.2197 112.669 19.5474 112.862 19.0769 113.019C18.5929 113.177 18.3105 113.265 18.3105 113.265C18.3105 113.265 18.5525 113.492 18.9828 113.825C19.1844 114 19.4399 114.193 19.7357 114.403C19.8701 114.508 20.0314 114.631 20.1928 114.736C20.3541 114.841 20.5289 114.946 20.7037 115.069C21.0532 115.279 21.4297 115.507 21.8196 115.7C22.0212 115.805 22.2094 115.892 22.4111 115.997C22.5052 116.05 22.6128 116.102 22.7069 116.137C22.8144 116.172 22.9086 116.208 23.0161 116.26C23.8497 116.558 24.6832 116.751 25.4496 116.751C27.0091 116.698 28.2057 115.927 29.0258 115.192C29.4291 114.824 29.7518 114.456 29.9535 114.176C30.1686 113.895 30.2761 113.72 30.2761 113.72C30.2761 113.72 30.2089 113.685 30.1686 113.633Z" fill="#DBDBDB"/>
<path d="M28.0191 107.712C28.2073 108.535 28.5166 109.218 28.8527 109.779C29.014 110.059 29.2022 110.287 29.377 110.48C29.5652 110.672 29.74 110.847 29.9148 110.988C30.2643 111.268 30.587 111.46 30.8156 111.566C30.9231 111.618 31.0307 111.653 31.0979 111.671C31.1651 111.688 31.2055 111.706 31.2055 111.706C31.2055 111.706 31.2727 111.496 31.3668 111.145C31.4609 110.795 31.5685 110.287 31.6491 109.656C31.8239 108.43 31.9046 106.801 31.5416 105.225C31.3668 104.419 31.071 103.63 30.7349 102.912C30.4122 102.177 30.0358 101.476 29.6862 100.898C29.5115 100.618 29.3501 100.32 29.2022 100.092C29.0543 99.8468 28.9199 99.6366 28.7989 99.4615C28.5703 99.1111 28.409 98.9185 28.409 98.9185C28.409 98.9185 28.3283 99.2513 28.2342 99.7943C28.1267 100.337 28.0057 101.126 27.9116 102.001C27.8578 102.457 27.8175 102.93 27.7906 103.42C27.7637 103.893 27.7637 104.384 27.7637 104.892C27.7637 105.382 27.7906 105.873 27.8309 106.363C27.8443 106.836 27.9116 107.309 28.0191 107.712Z" fill="#DBDBDB"/>
<path d="M19.481 102.544C19.3465 102.281 19.1448 101.896 18.8356 101.511C18.5398 101.108 18.1499 100.705 17.6659 100.319C17.1954 99.9341 16.6173 99.5837 15.8913 99.3385C15.6493 99.2509 15.3938 99.1808 15.1384 99.1283C14.8829 99.0582 14.6141 99.0057 14.3452 98.9531C13.0007 98.6904 11.468 98.5853 10.3118 98.4977C9.14215 98.4101 8.30859 98.3926 8.30859 98.3926C8.30859 98.3926 8.59093 98.8655 9.07493 99.5487C9.54549 100.249 10.2715 101.108 11.0782 101.931C11.1992 102.054 11.3336 102.176 11.4546 102.299C11.5218 102.369 11.589 102.421 11.6563 102.492C11.7235 102.544 11.7907 102.597 11.8579 102.667C12.1268 102.894 12.4092 103.105 12.6915 103.315C12.9738 103.507 13.2562 103.7 13.5385 103.84C13.8208 103.998 14.1032 104.138 14.3855 104.226C15.8913 104.716 17.2088 104.418 18.1499 103.98C19.1045 103.543 19.6826 103 19.6826 103C19.6826 103 19.6154 102.824 19.481 102.544Z" fill="#DBDBDB"/>
<path d="M19.9774 100.267C20.2463 100.67 20.5152 100.968 20.7169 101.143C20.9186 101.318 21.053 101.406 21.053 101.406C21.053 101.406 21.5101 100.705 21.9403 99.6014C22.384 98.4804 22.8277 96.9389 22.8142 95.2923C22.8142 94.6792 22.7739 94.0486 22.6798 93.453C22.6395 93.1553 22.5722 92.8575 22.505 92.5597C22.4378 92.2794 22.384 91.9641 22.3168 91.6838C22.1958 91.1934 22.0748 90.7204 21.9403 90.3C21.9 90.1949 21.8731 90.0898 21.8462 89.9847C21.8059 89.8796 21.7925 89.792 21.7521 89.6869C21.6983 89.4942 21.6446 89.3191 21.5908 89.1614C21.3757 88.5133 21.2143 88.1279 21.2143 88.1279C21.2143 88.1279 20.7976 88.9337 20.3136 90.1774C20.1926 90.4927 20.0716 90.8255 19.9371 91.1759C19.8699 91.351 19.8161 91.5437 19.7489 91.7189C19.6817 91.894 19.6413 92.0867 19.5741 92.2794C19.359 93.0326 19.1708 93.8559 19.0363 94.6617C18.9826 94.977 18.9422 95.2748 18.9153 95.5726C18.8884 95.8704 18.875 96.1681 18.875 96.4484C18.875 97.3243 19.0094 98.0775 19.2111 98.7256C19.4262 99.3562 19.7086 99.8642 19.9774 100.267Z" fill="#DBDBDB"/>
<path d="M9.42392 89.407C9.7197 89.4245 9.98859 89.4245 10.244 89.3895C11.2524 89.3019 11.9246 88.9866 11.9246 88.9866C11.9246 88.9866 11.9112 88.8115 11.8305 88.4962C11.7902 88.3385 11.7364 88.1633 11.6692 87.9531C11.6154 87.7429 11.5347 87.5152 11.4406 87.27C11.2389 86.7795 10.97 86.254 10.5801 85.711C10.486 85.5884 10.3919 85.4657 10.2844 85.3081C10.1768 85.168 10.0693 85.0453 9.94826 84.9052C9.70626 84.6425 9.42392 84.3797 9.1147 84.1345C8.79203 83.9067 8.44248 83.679 8.06603 83.4513C7.71648 83.2236 7.32659 83.0134 6.95014 82.8032C6.18381 82.3828 5.36369 82.0149 4.62425 81.6821C3.89825 81.3493 3.26635 81.069 2.7958 80.8763C2.32524 80.6836 2.04291 80.561 2.04291 80.561C2.04291 80.561 2.15046 80.9114 2.35213 81.4894C2.45969 81.7697 2.58069 82.12 2.72858 82.4879C2.88991 82.8557 3.06469 83.2586 3.26636 83.679C3.46802 84.0994 3.69658 84.5373 3.92513 84.9753C3.97891 85.0804 4.04613 85.1855 4.11336 85.2906C4.18058 85.3957 4.23436 85.5008 4.31502 85.6059C4.44947 85.8161 4.58391 86.0263 4.7318 86.219C5.01414 86.6219 5.30991 87.0072 5.61914 87.3576C5.76703 87.5327 5.92836 87.7079 6.08969 87.848C6.25103 87.9882 6.41236 88.1283 6.58714 88.2684C7.24592 88.7764 7.91814 89.0567 8.53659 89.2143C8.84581 89.337 9.14159 89.3895 9.42392 89.407Z" fill="#DBDBDB"/>
<path d="M12.437 84.7295C12.5043 85.4127 12.6522 85.9907 12.8135 86.4812C12.8942 86.7264 12.9883 86.9366 13.0689 87.1118C13.1496 87.3045 13.2572 87.4446 13.3244 87.5673C13.4723 87.8125 13.5933 87.9351 13.5933 87.9351C13.5933 87.9351 14.1848 87.4271 14.8436 86.5162C15.0049 86.2885 15.1797 86.0433 15.3411 85.763C15.5158 85.4827 15.6906 85.185 15.8519 84.8521C16.1746 84.204 16.4569 83.4858 16.6452 82.6976C16.6989 82.5049 16.7258 82.2947 16.7662 82.0845C16.8065 81.8743 16.8334 81.6641 16.8603 81.4539C16.9141 81.0335 16.9409 80.6131 16.9544 80.1927C16.9678 79.3519 16.9813 78.5286 16.9275 77.7929C16.9006 77.425 16.8737 77.0922 16.8468 76.7769C16.8334 76.4616 16.8065 76.1988 16.7796 75.9711C16.7393 75.5157 16.6989 75.2529 16.6989 75.2529C16.6989 75.2529 16.4973 75.4806 16.1746 75.8835C15.8519 76.2864 15.4083 76.847 14.9377 77.5301C14.4806 78.2133 14.01 79.0015 13.5933 79.8423C13.3782 80.2627 13.1899 80.7007 13.0152 81.1386C12.8538 81.559 12.7194 81.9969 12.6253 82.4173C12.5312 82.8377 12.4774 83.2406 12.437 83.626C12.4236 83.8187 12.4102 84.0113 12.4102 84.1865C12.4102 84.2741 12.4102 84.3617 12.4102 84.4493C12.4236 84.5544 12.4236 84.6419 12.437 84.7295Z" fill="#DBDBDB"/>
<path d="M3.54922 72.0304C3.83155 72.2931 4.12733 72.5033 4.40967 72.696C4.98778 73.0639 5.539 73.2741 6.03645 73.4142C7.01789 73.6769 7.73045 73.6069 7.73045 73.6069C7.73045 73.6069 7.81112 72.8537 7.6229 71.7851C7.58256 71.5224 7.5019 71.2421 7.43467 70.9268C7.36745 70.629 7.27334 70.3137 7.13889 69.9809C7.01789 69.6656 6.87 69.3153 6.68178 68.9824C6.58767 68.8073 6.49356 68.6496 6.386 68.4745C6.33223 68.3869 6.27845 68.2993 6.21123 68.2117C6.15745 68.1241 6.10367 68.0365 6.03645 67.9489C5.06844 66.5826 3.50889 65.1988 2.27199 64.0602C1.6401 63.4997 1.07544 63.0092 0.672102 62.6589C0.255323 62.3436 -0.00012207 62.1509 -0.00012207 62.1509C-0.00012207 62.1509 0.0402114 62.5362 0.120878 63.1493C0.201545 63.7624 0.322545 64.6208 0.524212 65.5667C0.739324 66.5126 1.0351 67.5461 1.38466 68.527C1.46533 68.7722 1.57288 69.0175 1.68044 69.2452C1.78799 69.4729 1.89555 69.7006 2.0031 69.9283C2.23166 70.3663 2.47366 70.7692 2.72911 71.1195C2.998 71.4698 3.25344 71.7851 3.54922 72.0304Z" fill="#DBDBDB"/>
<path d="M9.55871 73.1512C9.55871 73.1512 10.2444 72.8534 11.0779 72.2053C11.5082 71.8725 11.9653 71.4521 12.4089 70.9441C12.624 70.6813 12.8392 70.4186 13.0408 70.1033C13.2559 69.8055 13.4576 69.4727 13.6324 69.1223C13.8072 68.772 13.9685 68.3866 14.1029 68.0012C14.2374 67.6159 14.3315 67.213 14.4525 66.8101C14.6811 66.0043 14.8289 65.1986 14.9365 64.4804C15.0709 63.7622 15.1516 63.1316 15.2054 62.6761C15.2457 62.2207 15.2592 61.9404 15.2592 61.9404C15.2592 61.9404 15.0172 62.0981 14.6273 62.3608C14.2374 62.6411 13.6996 63.044 13.0946 63.5345C12.503 64.0424 11.8443 64.6555 11.2796 65.3212C10.7015 65.9868 10.1772 66.7225 9.80071 67.4757C9.59904 67.8436 9.47804 68.2115 9.37049 68.5793C9.26293 68.9472 9.19571 69.2975 9.14193 69.6303C9.08815 69.9631 9.07471 70.2959 9.06126 70.5937C9.04782 70.8915 9.08815 71.1893 9.11504 71.4345C9.26293 72.5031 9.55871 73.1512 9.55871 73.1512Z" fill="#DBDBDB"/>
<path d="M1.98921 49.0481C2.02954 49.451 2.09676 49.8539 2.16398 50.2568C2.31187 51.045 2.47321 51.7983 2.75554 52.4464C3.11854 53.3222 3.54877 54.0054 4.01932 54.5484C4.48988 55.0914 4.96044 55.4943 5.41755 55.7921C6.31833 56.3877 7.01744 56.5628 7.01744 56.5628C7.01744 56.5628 7.07122 56.3877 7.13844 56.0724C7.19222 55.7571 7.28633 55.3191 7.32666 54.7761C7.367 54.2331 7.35355 53.6025 7.246 52.8843C7.15188 52.1836 6.97711 51.3954 6.64099 50.5721C6.53344 50.2918 6.39899 50.0115 6.26455 49.7313C6.19733 49.5911 6.1301 49.451 6.04944 49.2934C5.98221 49.1532 5.90155 48.9956 5.83433 48.8554C5.45788 48.1372 5.0411 47.4015 4.61088 46.7184C4.1941 46.0177 3.76388 45.3521 3.40088 44.7915C2.67487 43.6529 2.12365 42.8472 2.12365 42.8472C2.12365 42.8472 2.04298 43.4252 1.94887 44.3361C1.8951 44.7915 1.88165 45.3346 1.86821 45.9301C1.85476 46.5257 1.85476 47.1563 1.88165 47.8219C1.90854 48.2248 1.94887 48.6452 1.98921 49.0481Z" fill="#DBDBDB"/>
<path d="M13.6736 54.3383C13.7677 54.2332 13.8483 54.1281 13.929 54.023C14.0097 53.9179 14.1038 53.7953 14.1844 53.6902C14.3592 53.4625 14.5206 53.2173 14.6684 52.972C14.8163 52.7268 14.9508 52.464 15.0852 52.2188C15.2197 51.9385 15.3541 51.6933 15.4751 51.4481C15.6902 51.0101 15.8784 50.5722 16.0398 50.1693C16.1204 49.9591 16.2011 49.7665 16.2683 49.5913C16.3356 49.3986 16.4028 49.2409 16.47 49.0833C16.712 48.4527 16.833 48.0498 16.833 48.0498C16.833 48.0498 16.0801 48.2075 15.018 48.5753C14.7626 48.6629 14.4668 48.768 14.1844 48.8906C13.9021 49.0132 13.6063 49.1534 13.2971 49.311C12.6921 49.6088 12.0871 49.9767 11.5224 50.3971C11.0788 50.7124 10.7023 51.0802 10.3662 51.4481C9.85532 52.0261 9.47888 52.6567 9.23688 53.2873C9.00832 53.9004 8.88732 54.5135 8.83354 55.0215C8.77977 55.547 8.76632 55.9849 8.80665 56.3002C8.83354 56.6155 8.87388 56.7907 8.87388 56.7907C8.87388 56.7907 9.58643 56.7381 10.5275 56.4053C11.4821 56.055 12.7056 55.4419 13.6736 54.3383Z" fill="#DBDBDB"/>
<path d="M7.70247 36.9965C8.03858 37.6797 8.41503 38.2577 8.77803 38.6957C9.50403 39.5715 10.1359 39.9919 10.1359 39.9919C10.1359 39.9919 10.23 39.8342 10.3645 39.5715C10.4989 39.2912 10.6603 38.8883 10.8216 38.3803C10.9829 37.8724 11.1174 37.2593 11.1846 36.5411C11.2115 36.1907 11.2115 35.8054 11.2115 35.4025C11.2115 34.9996 11.1846 34.5792 11.1174 34.1238C11.0501 33.6683 10.956 33.1954 10.8485 32.7049C10.7947 32.4597 10.7275 32.2144 10.6603 31.9517C10.593 31.7064 10.5393 31.4612 10.472 31.1985C10.2031 30.2 9.89392 29.2015 9.59814 28.2907C9.45025 27.8352 9.30236 27.4148 9.18136 27.0295C9.06036 26.6441 8.93936 26.3113 8.84525 26.031C8.65703 25.4529 8.53603 25.1201 8.53603 25.1201C8.53603 25.1201 8.38814 25.4529 8.18647 26.031C8.06547 26.3113 7.95792 26.6616 7.85036 27.0645C7.72936 27.4674 7.60836 27.9053 7.48736 28.3607C7.43358 28.5884 7.36636 28.8337 7.31258 29.0789C7.2588 29.3242 7.20503 29.5694 7.16469 29.8497C7.08402 30.3752 7.00336 30.9007 6.94958 31.4437C6.8958 31.9867 6.85547 32.5122 6.85547 33.0202C6.85547 33.5457 6.8958 34.0537 6.96302 34.5266C7.11091 35.4901 7.36636 36.2958 7.70247 36.9965Z" fill="#DBDBDB"/>
<path d="M17.8809 39.5541C18.1632 39.3264 18.4455 39.0636 18.7144 38.8009C18.9699 38.5381 19.2119 38.2578 19.4539 37.9776C19.6824 37.6973 19.9244 37.4345 20.1261 37.1718C20.3278 36.909 20.516 36.6463 20.6773 36.4186C20.758 36.296 20.8387 36.1909 20.9059 36.0858C20.9731 35.9807 21.0403 35.8931 21.1076 35.8055C21.3496 35.4552 21.484 35.2449 21.484 35.2449C21.484 35.2449 21.2151 35.2099 20.758 35.1574C20.3009 35.1223 19.669 35.0698 18.9564 35.1048C18.2573 35.1398 17.4507 35.2274 16.6709 35.3851C16.4692 35.4376 16.281 35.4727 16.0793 35.5252C15.8911 35.5778 15.7029 35.6478 15.5281 35.7179C15.1651 35.858 14.8155 36.0157 14.5063 36.2084C14.1971 36.4011 13.9148 36.6113 13.6593 36.839C13.4039 37.0667 13.2022 37.3295 13.014 37.5747C12.651 38.0827 12.3955 38.6257 12.2208 39.0986C12.046 39.5716 11.9788 40.0095 11.9384 40.3073C11.8981 40.6226 11.8846 40.7978 11.8846 40.7978C11.8846 40.7978 12.5838 41.008 13.5652 41.008C14.0626 41.008 14.6273 40.9729 15.2189 40.8328C15.8239 40.7102 16.4423 40.4825 17.0473 40.1321C17.3162 40.0095 17.5985 39.7993 17.8809 39.5541Z" fill="#DBDBDB"/>
<path d="M14.7618 22.0722C14.9365 22.843 15.1785 23.5086 15.434 24.0691C15.9314 25.1552 16.4558 25.7683 16.4558 25.7683C16.4558 25.7683 16.9667 25.3303 17.4775 24.4545C17.612 24.2268 17.733 23.9815 17.854 23.7013C17.975 23.4385 18.1094 23.1232 18.217 22.8079C18.4321 22.1423 18.5934 21.354 18.6607 20.4256C18.7413 19.5148 18.7279 18.4813 18.6607 17.4127C18.5934 16.3442 18.5262 15.2932 18.4321 14.3123C18.338 13.3488 18.2439 12.4905 18.1767 11.8774C18.096 11.2643 18.0557 10.8965 18.0557 10.8965C18.0557 10.8965 18.0019 10.9666 17.9078 11.0892C17.8271 11.2293 17.6927 11.422 17.5313 11.6672C17.2221 12.1577 16.7919 12.8584 16.3617 13.6641C15.9449 14.5049 15.5281 15.4684 15.192 16.4493C14.8693 17.4478 14.6408 18.4813 14.5601 19.4447C14.5466 19.6899 14.5332 19.9176 14.5332 20.1454C14.5332 20.3731 14.5466 20.6008 14.5601 20.8285C14.6139 21.2664 14.6811 21.6868 14.7618 22.0722Z" fill="#DBDBDB"/>
<path d="M24.0257 27.958C24.187 27.8879 24.3349 27.8179 24.4962 27.7303C24.5769 27.6952 24.6441 27.6602 24.7248 27.6077C24.8054 27.5726 24.8861 27.5201 24.9668 27.485C25.5987 27.1522 26.1633 26.7493 26.6608 26.3815C27.1717 26.0311 27.6019 25.6808 27.8977 25.4181C28.0456 25.2779 28.1666 25.1728 28.2472 25.1028C28.3279 25.0327 28.3817 24.9977 28.3817 24.9977C28.3817 24.9977 28.3145 24.9626 28.1935 24.9101C28.0725 24.8575 27.8977 24.7699 27.696 24.6824C27.2792 24.5072 26.6742 24.2619 25.9751 24.0517C25.6256 23.9466 25.2626 23.8415 24.8727 23.754C24.6844 23.7189 24.4828 23.6664 24.2946 23.6313C24.1063 23.5963 23.9047 23.5788 23.7164 23.5613C22.9367 23.4737 22.1434 23.4737 21.4443 23.6313C20.7587 23.789 20.194 24.1043 19.7234 24.4546C19.4814 24.6298 19.2798 24.8225 19.0915 25.0327C18.9168 25.2429 18.7689 25.4531 18.6344 25.6633C18.1101 26.4866 17.9219 27.1873 17.9219 27.1873C17.9219 27.1873 18.5538 27.6252 19.5083 27.9755C19.9789 28.1507 20.5435 28.3083 21.1485 28.3784C21.7535 28.4485 22.372 28.4309 23.0442 28.3083C23.3803 28.2032 23.7164 28.0981 24.0257 27.958Z" fill="#DBDBDB"/>
<path d="M25.8546 13.1736C25.9756 13.524 26.0697 13.7166 26.0697 13.7166C26.0697 13.7166 26.11 13.6991 26.1772 13.6641C26.2444 13.6291 26.3386 13.5765 26.4461 13.5064C26.6747 13.3663 26.9973 13.1386 27.3334 12.8058C28.0057 12.1226 28.8392 11.1066 29.3636 9.35496C29.5383 8.7769 29.7131 8.1463 29.8476 7.48066C30.0223 6.63985 30.1702 5.74649 30.2912 4.88817C30.4257 4.04736 30.5467 3.22407 30.6273 2.48836C30.8156 1.05199 30.9231 0.000976562 30.9231 0.000976562C30.9231 0.000976562 30.5198 0.316279 29.9282 0.859301C29.6325 1.12205 29.2963 1.45487 28.9199 1.82273C28.5569 2.2081 28.1939 2.64602 27.8174 3.11897C27.5889 3.39924 27.3738 3.69702 27.1587 4.01233C27.1049 4.08239 27.0511 4.16998 26.9973 4.24005C26.9436 4.31011 26.9032 4.3977 26.8494 4.48528C26.7553 4.64293 26.6612 4.8181 26.5537 4.97575C26.1772 5.64139 25.868 6.32455 25.6529 7.0077C25.505 7.44562 25.4109 7.91858 25.3571 8.33898C25.3033 8.75939 25.263 9.17979 25.263 9.58267C25.2496 10.3884 25.3437 11.1066 25.4647 11.7197C25.5857 12.3328 25.7336 12.8233 25.8546 13.1736Z" fill="#DBDBDB"/>
<path d="M34.7683 18.166C35.1716 18.0609 35.5481 17.9383 35.8976 17.8157C36.2472 17.7106 36.5699 17.6055 36.8387 17.5004C37.3631 17.2902 37.6992 17.1326 37.6992 17.1326C37.6992 17.1326 37.0942 16.537 36.1665 15.8188C35.7094 15.4509 35.1582 15.0656 34.5666 14.6977C33.9885 14.3474 33.3701 14.0321 32.7382 13.7868C32.2676 13.5942 31.7971 13.454 31.34 13.384C29.9686 13.2263 28.8796 13.7343 28.1939 14.3649C27.8444 14.6627 27.5889 14.978 27.4276 15.1882C27.3469 15.2933 27.2797 15.3984 27.2394 15.4685C27.1991 15.5385 27.1856 15.5736 27.1856 15.5736C27.1856 15.5736 27.3066 15.7312 27.5352 15.9764C27.7637 16.2217 28.0998 16.537 28.5301 16.8698C28.9468 17.2026 29.4577 17.553 30.0089 17.8332C30.2913 17.9734 30.5871 18.096 30.8963 18.1836C31.2055 18.2887 31.5147 18.3587 31.8508 18.4113C32.8188 18.5689 33.8272 18.3763 34.7683 18.166Z" fill="#DBDBDB"/>
<path d="M49.1677 120.517C48.8988 120.482 48.5761 120.429 48.1997 120.359C48.0115 120.324 47.8098 120.307 47.6081 120.254C47.4065 120.202 47.1779 120.149 46.9628 120.096C46.5057 119.991 46.0217 119.886 45.4973 119.764C44.9865 119.606 44.4352 119.448 43.8706 119.291C43.5882 119.203 43.2924 119.133 43.0101 119.028C42.7278 118.923 42.432 118.818 42.1362 118.713C41.5581 118.502 40.9531 118.31 40.375 118.047C38.0222 117.136 35.7635 115.857 34.1099 114.841C33.7065 114.579 33.3166 114.333 32.994 114.123C32.8192 114.018 32.6713 113.913 32.5234 113.825C32.3755 113.738 32.2545 113.633 32.1335 113.545C31.663 113.212 31.4075 113.02 31.4075 113.02C31.4075 113.02 31.1386 112.827 30.6681 112.494C30.211 112.144 29.5656 111.601 28.7859 110.988C27.2666 109.674 25.2634 107.852 23.4484 105.768C21.62 103.701 19.9394 101.424 18.7563 99.6543C18.5949 99.4441 18.4739 99.2164 18.3395 99.0062C18.2051 98.796 18.0841 98.6033 17.9765 98.4106C17.7479 98.0428 17.5463 97.7275 17.3715 97.4472C17.1967 97.1844 17.0892 96.9567 17.0085 96.8166C16.9278 96.6589 16.8741 96.5889 16.8741 96.5889C16.8741 96.5889 16.6993 96.2736 16.39 95.7306C16.2422 95.4503 16.0405 95.135 15.8388 94.7321C15.6372 94.3292 15.4086 93.8913 15.1532 93.4008C15.0322 93.1556 14.8977 92.9103 14.7633 92.6476C14.6288 92.3848 14.5078 92.1046 14.3734 91.8068C14.1045 91.2287 13.8356 90.6156 13.5398 90.0025C13.2844 89.3544 13.002 88.6888 12.7332 88.0231C12.6659 87.848 12.5987 87.6903 12.518 87.5152C12.4508 87.34 12.397 87.1648 12.3298 86.9897C12.2088 86.6393 12.0744 86.289 11.9534 85.9387C10.9585 83.1184 10.1249 80.1931 9.65437 77.951C9.58715 77.6707 9.53337 77.408 9.46615 77.1452C9.41237 76.9 9.34515 76.6547 9.31826 76.427C9.23759 75.9716 9.15692 75.5687 9.10315 75.2359C8.98214 74.5702 8.91492 74.2024 8.91492 74.2024C8.91492 74.2024 8.90148 74.1148 8.86114 73.9396C8.83426 73.7645 8.79392 73.5017 8.75359 73.1689C8.69981 72.8361 8.64603 72.4332 8.59225 71.9777C8.52503 71.5223 8.43092 70.9968 8.39059 70.4187C8.33681 69.8407 8.26959 69.2276 8.20237 68.562C8.18892 68.4043 8.16203 68.2291 8.14859 68.0715C8.13514 67.8963 8.1217 67.7387 8.10825 67.546C8.09481 67.1957 8.06792 66.8453 8.04103 66.4775C7.92003 65.0411 7.92003 63.4821 7.89314 61.9406C7.93348 60.3991 7.93348 58.8576 8.04103 57.4038C8.05448 57.0534 8.08137 56.6856 8.10825 56.3352C8.1217 56.1601 8.1217 55.9849 8.14859 55.8272C8.16203 55.6521 8.18892 55.4944 8.20237 55.3192C8.26959 54.6711 8.33681 54.0405 8.39059 53.4625C8.44437 52.8844 8.52503 52.3764 8.59225 51.9035C8.65948 51.448 8.71326 51.0451 8.75359 50.7123C8.80737 50.3795 8.83426 50.1168 8.86114 49.9416C8.90148 49.7664 8.91492 49.6613 8.91492 49.6613C8.91492 49.6613 8.98214 49.2935 9.10315 48.6278C9.15692 48.295 9.23759 47.8921 9.31826 47.4367C9.35859 47.209 9.41237 46.9637 9.46615 46.7185C9.51992 46.4557 9.58715 46.193 9.65437 45.9127C10.1249 43.6706 10.9585 40.7628 11.9534 37.9251C12.0878 37.5747 12.2088 37.2244 12.3298 36.874C12.397 36.6989 12.4508 36.5237 12.518 36.3485C12.5853 36.1734 12.6525 36.0157 12.7332 35.8405C13.0155 35.1574 13.2844 34.4918 13.5398 33.8612C13.8222 33.2305 14.1045 32.6175 14.3734 32.0569C14.5078 31.7766 14.6288 31.4789 14.7633 31.2161C14.8977 30.9534 15.0322 30.7081 15.1532 30.4629C15.3952 29.9724 15.6372 29.5345 15.8388 29.1316C16.0405 28.7287 16.2422 28.4134 16.39 28.1332C16.6993 27.5726 16.8741 27.2748 16.8741 27.2748C16.8741 27.2748 16.9278 27.1872 17.0085 27.0471C17.0892 26.907 17.2102 26.6793 17.3715 26.4165C17.5328 26.1538 17.7479 25.8209 17.9765 25.4531C18.0975 25.2604 18.2185 25.0677 18.3395 24.8575C18.4739 24.6473 18.6084 24.4371 18.7563 24.2094C19.9394 22.4402 21.62 20.163 23.4484 18.096C25.2768 16.0115 27.2666 14.1898 28.7859 12.876C29.5656 12.2629 30.211 11.7199 30.6681 11.3696C31.1386 11.0367 31.4075 10.8441 31.4075 10.8441C31.4075 10.8441 31.6764 10.6514 32.1335 10.3186C32.2545 10.231 32.3755 10.1434 32.5234 10.0383C32.6713 9.9507 32.8192 9.8456 32.994 9.7405C33.1015 9.67043 33.2225 9.60036 33.3435 9.51278C33.357 9.51278 33.357 9.51278 33.3704 9.51278C33.6662 9.54781 34.083 9.56533 34.5804 9.5303C35.5753 9.47775 36.866 9.19748 37.9953 8.3917C38.5869 8.00633 39.1381 7.46331 39.6221 6.88526C39.8507 6.58747 40.1061 6.3072 40.3347 6.00942C40.5632 5.72915 40.7649 5.43136 40.9531 5.15109C41.3161 4.59055 41.6522 4.10008 41.8673 3.73223C42.0824 3.36438 42.2034 3.13666 42.2034 3.13666C42.2034 3.13666 41.9346 3.11914 41.4774 3.11914C41.0203 3.11914 40.3884 3.13666 39.6759 3.20672C39.5011 3.22424 39.3129 3.24176 39.1247 3.27679C38.9364 3.31183 38.7482 3.34686 38.56 3.38189C38.1835 3.45196 37.7937 3.55706 37.4172 3.66216C36.6509 3.9074 35.8845 4.20518 35.293 4.6431C34.688 5.06351 34.2174 5.58901 33.8679 6.11452C33.5318 6.65754 33.3166 7.20056 33.1553 7.70855C33.0074 8.19902 32.9402 8.63694 32.9133 8.93472C32.8999 8.98727 32.8999 9.05734 32.8999 9.10989C32.8595 9.14493 32.8058 9.16244 32.7654 9.19748C32.6041 9.30258 32.4428 9.40768 32.2949 9.49526C32.147 9.60036 32.026 9.68795 31.905 9.77553C31.4344 10.1083 31.1655 10.3186 31.1655 10.3186C31.1655 10.3186 30.8966 10.5112 30.4261 10.8441C29.969 11.1944 29.3102 11.7374 28.517 12.368C26.9843 13.6818 24.9676 15.5386 23.1257 17.6406C21.2838 19.7426 19.5898 22.0198 18.3798 23.824C18.2185 24.0342 18.0975 24.2619 17.9631 24.4721C17.8286 24.6823 17.7076 24.875 17.5866 25.0677C17.3446 25.4356 17.1429 25.7684 16.9816 26.0311C16.8068 26.2939 16.6993 26.5216 16.6052 26.6617C16.5245 26.8019 16.4707 26.8895 16.4707 26.8895C16.4707 26.8895 16.2959 27.2048 15.9733 27.7653C15.8119 28.0456 15.6237 28.3784 15.4086 28.7813C15.2069 29.1842 14.9784 29.6396 14.7229 30.1301C14.5885 30.3753 14.4675 30.6381 14.333 30.9008C14.1986 31.1636 14.0776 31.4613 13.9432 31.7416C13.6743 32.3197 13.3919 32.9328 13.1096 33.5634C12.8407 34.2115 12.5718 34.8771 12.2895 35.5778C12.2223 35.753 12.155 35.9281 12.0744 36.0858C12.0072 36.261 11.9534 36.4361 11.8862 36.6113C11.7517 36.9616 11.6307 37.3295 11.4963 37.6798C10.4879 40.5351 9.64092 43.4779 9.17037 45.7376C9.10315 46.0178 9.04937 46.2806 8.98214 46.5433C8.92837 46.8061 8.86114 47.0338 8.82081 47.279C8.74014 47.7345 8.65948 48.1549 8.6057 48.4877C8.4847 49.1533 8.40403 49.5387 8.40403 49.5387C8.40403 49.5387 8.39059 49.6438 8.35025 49.819C8.30992 49.9941 8.28303 50.2569 8.22925 50.6072C8.18892 50.94 8.1217 51.3605 8.05448 51.8159C7.98725 52.2888 7.90659 52.8143 7.85281 53.3924C7.79903 53.9705 7.73181 54.6011 7.66459 55.2667C7.65114 55.4419 7.62425 55.5995 7.61081 55.7747C7.59736 55.9499 7.58392 56.125 7.57048 56.3002C7.55703 56.6505 7.53014 57.0009 7.50325 57.3862C7.38225 58.8401 7.38225 60.3991 7.34192 61.9581C7.38225 63.5171 7.38225 65.0761 7.50325 66.53C7.53014 66.8979 7.54359 67.2482 7.57048 67.5985C7.58392 67.7737 7.58392 67.9489 7.61081 68.1065C7.62425 68.2817 7.65114 68.4569 7.66459 68.6145C7.73181 69.2802 7.79903 69.9108 7.85281 70.4888C7.90659 71.0669 8.0007 71.5924 8.05448 72.0653C8.1217 72.5383 8.17548 72.9412 8.22925 73.274C8.28303 73.6068 8.30992 73.8696 8.35025 74.0622C8.37714 74.2374 8.40403 74.3425 8.40403 74.3425C8.40403 74.3425 8.47125 74.7279 8.6057 75.3935C8.65948 75.7263 8.74014 76.1292 8.82081 76.6022C8.87459 76.8299 8.94181 77.0751 8.99559 77.3379C9.04937 77.6006 9.11659 77.8634 9.18381 78.1437C9.65437 80.4033 10.4879 83.3462 11.5097 86.2014C11.6307 86.5517 11.7652 86.9196 11.8996 87.2699C11.9668 87.4451 12.0206 87.6203 12.0878 87.7954C12.155 87.9706 12.2357 88.1458 12.3029 88.3034C12.5853 88.9866 12.8542 89.6522 13.123 90.3179C13.4054 90.9485 13.6877 91.5615 13.9566 92.1396C14.091 92.4199 14.212 92.7177 14.3465 92.9804C14.4809 93.2432 14.6154 93.5059 14.7364 93.7511C14.9918 94.2416 15.2204 94.6971 15.422 95.0999C15.6237 95.5028 15.8254 95.8356 15.9867 96.1159C16.3094 96.6765 16.4842 96.9918 16.4842 96.9918C16.4842 96.9918 16.5379 97.0793 16.6186 97.2195C16.6993 97.3596 16.8203 97.5873 16.9951 97.8501C17.1564 98.1128 17.3715 98.4457 17.6001 98.8135C17.7211 99.0062 17.8421 99.1989 17.9765 99.4091C18.1109 99.6193 18.2319 99.847 18.3933 100.057C19.5898 101.861 21.2838 104.139 23.1392 106.241C24.9811 108.343 26.9977 110.182 28.5304 111.513C29.3236 112.144 29.969 112.687 30.4395 113.037C30.9101 113.37 31.179 113.563 31.179 113.563C31.179 113.563 31.4479 113.755 31.9184 114.106C32.0394 114.193 32.1739 114.281 32.3083 114.386C32.4562 114.474 32.6175 114.579 32.7789 114.684C33.115 114.894 33.4914 115.139 33.9082 115.419C35.5888 116.435 37.8609 117.714 40.2406 118.643C40.8321 118.905 41.4237 119.098 42.0152 119.308C42.311 119.413 42.6068 119.518 42.8891 119.623C43.1714 119.729 43.4672 119.799 43.7496 119.886C44.3142 120.044 44.8654 120.202 45.3898 120.359C45.9141 120.482 46.4116 120.587 46.8687 120.692C47.0972 120.745 47.3123 120.797 47.5275 120.832C47.7426 120.885 47.9442 120.902 48.1325 120.937C48.5089 120.99 48.8316 121.042 49.1139 121.095C49.6517 121.182 49.9609 121.235 49.9609 121.235L50.0147 120.639C50.0012 120.657 49.7055 120.604 49.1677 120.517Z" fill="#DBDBDB"/>
</svg>
