<svg width="53" height="132" viewBox="0 0 53 132" fill="none" xmlns="http://www.w3.org/2000/svg">
<path d="M11.1154 124.887C11.409 124.887 11.7306 124.905 12.0662 124.96C12.1501 124.979 12.234 124.997 12.3178 125.015C12.4017 125.034 12.4856 125.052 12.5835 125.07C12.7513 125.107 12.9331 125.162 13.1148 125.236C13.8559 125.493 14.6529 125.915 15.4639 126.41C16.2469 126.869 17.0438 127.383 17.7569 127.861C18.47 128.338 19.0992 128.797 19.5467 129.109C19.9941 129.421 20.2598 129.623 20.2598 129.623C20.2598 129.623 20.1899 129.66 20.05 129.733C19.9102 129.788 19.7145 129.898 19.4768 129.99C18.9734 130.174 18.2743 130.412 17.4773 130.633C17.2815 130.688 17.0718 130.743 16.8621 130.78C16.6523 130.816 16.4286 130.853 16.2189 130.89C15.7854 130.945 15.338 131 14.8906 131.018C14.0097 131.073 13.1009 130.926 12.3318 130.651C10.7938 130.1 9.74511 128.852 9.10192 127.824C8.44476 126.778 8.1791 125.915 8.1791 125.915C8.1791 125.915 8.71042 125.474 9.57732 125.199C9.99679 125.034 10.5141 124.887 11.1154 124.887Z" fill="#DBDBDB"/>
<path d="M8.7546 116.865C9.11813 116.112 9.59353 115.451 10.0829 114.809C10.3206 114.497 10.5863 114.203 10.838 113.928C10.9638 113.781 11.0896 113.652 11.2155 113.542C11.3413 113.414 11.4532 113.285 11.579 113.157C12.0544 112.679 12.4879 112.294 12.7955 112.037C13.1031 111.761 13.2988 111.596 13.2988 111.596C13.2988 111.596 13.2988 111.963 13.2848 112.551C13.2709 113.157 13.2289 113.964 13.131 114.901C13.0332 115.818 12.8794 116.865 12.6556 117.874C12.4179 118.847 12.1103 119.802 11.7328 120.591C11.6489 120.793 11.5371 120.977 11.4392 121.161C11.3972 121.252 11.3413 121.326 11.2854 121.418C11.2295 121.491 11.1875 121.564 11.1316 121.638C10.9079 121.932 10.6841 122.17 10.4464 122.39C10.2227 122.611 9.98504 122.776 9.76132 122.923C9.5376 123.07 9.31389 123.198 9.10415 123.272C8.26522 123.584 7.66398 123.529 7.66398 123.529C7.66398 123.529 7.56611 122.592 7.66398 121.307C7.71991 120.665 7.8038 119.931 7.98557 119.178C8.02752 118.994 8.08345 118.792 8.13938 118.609C8.19531 118.407 8.25123 118.223 8.30716 118.021C8.433 117.617 8.57283 117.232 8.7546 116.865Z" fill="#DBDBDB"/>
<path d="M20.654 119.086C20.7099 119.012 20.7798 118.939 20.8777 118.829C21.0734 118.608 21.3671 118.296 21.7586 118.021C21.9543 117.874 22.1641 117.727 22.4157 117.599C22.6534 117.47 22.9331 117.36 23.1987 117.232C23.758 117.011 24.4292 116.883 25.1982 116.901C25.5897 116.92 25.9812 116.938 26.4007 116.993C26.8202 117.048 27.2536 117.121 27.6871 117.213C28.1205 117.305 28.5679 117.415 28.9874 117.525C29.4069 117.635 29.8263 117.746 30.2178 117.856C31.0008 118.076 31.7 118.278 32.1893 118.443C32.6927 118.608 32.9863 118.7 32.9863 118.7C32.9863 118.7 32.7346 118.939 32.2872 119.288C32.0775 119.471 31.8118 119.673 31.5042 119.893C31.3644 120.004 31.1966 120.132 31.0288 120.242C30.861 120.352 30.6793 120.463 30.4975 120.591C30.1339 120.811 29.7424 121.05 29.337 121.252C29.1272 121.362 28.9315 121.454 28.7217 121.564C28.6239 121.619 28.512 121.674 28.4141 121.711C28.3023 121.748 28.2044 121.784 28.0925 121.839C27.2256 122.151 26.3587 122.353 25.5618 122.353C23.9398 122.298 22.6954 121.491 21.8425 120.72C21.423 120.334 21.0874 119.949 20.8777 119.655C20.654 119.361 20.5421 119.177 20.5421 119.177C20.5421 119.177 20.612 119.141 20.654 119.086Z" fill="#DBDBDB"/>
<path d="M22.8906 112.881C22.6948 113.744 22.3732 114.46 22.0237 115.047C21.8559 115.341 21.6601 115.58 21.4784 115.782C21.2826 115.983 21.1009 116.167 20.9191 116.314C20.5556 116.608 20.22 116.81 19.9823 116.92C19.8704 116.975 19.7586 117.012 19.6887 117.03C19.6187 117.048 19.5768 117.067 19.5768 117.067C19.5768 117.067 19.5069 116.846 19.409 116.479C19.3111 116.112 19.1993 115.58 19.1154 114.919C18.9336 113.634 18.8497 111.926 19.2272 110.274C19.409 109.43 19.7166 108.604 20.0662 107.851C20.4017 107.08 20.7932 106.346 21.1568 105.74C21.3386 105.446 21.5063 105.134 21.6601 104.895C21.814 104.638 21.9538 104.418 22.0796 104.235C22.3173 103.867 22.4851 103.666 22.4851 103.666C22.4851 103.666 22.569 104.014 22.6669 104.583C22.7787 105.152 22.9046 105.979 23.0024 106.896C23.0584 107.374 23.1003 107.869 23.1283 108.383C23.1562 108.879 23.1562 109.393 23.1562 109.925C23.1562 110.439 23.1283 110.954 23.0863 111.468C23.0724 111.963 23.0024 112.459 22.8906 112.881Z" fill="#DBDBDB"/>
<path d="M31.7694 107.466C31.9092 107.19 32.119 106.786 32.4406 106.382C32.7482 105.96 33.1536 105.538 33.657 105.134C34.1464 104.73 34.7476 104.363 35.5027 104.106C35.7543 104.014 36.02 103.941 36.2857 103.886C36.5513 103.812 36.831 103.757 37.1106 103.702C38.5088 103.427 40.1028 103.317 41.3053 103.225C42.5218 103.133 43.3887 103.115 43.3887 103.115C43.3887 103.115 43.095 103.61 42.5917 104.326C42.1023 105.061 41.3472 105.96 40.5083 106.823C40.3825 106.951 40.2426 107.08 40.1168 107.209C40.0469 107.282 39.977 107.337 39.9071 107.41C39.8372 107.466 39.7673 107.521 39.6973 107.594C39.4177 107.833 39.1241 108.053 38.8304 108.273C38.5368 108.475 38.2432 108.677 37.9496 108.824C37.6559 108.989 37.3623 109.136 37.0687 109.228C35.5027 109.742 34.1324 109.43 33.1536 108.971C32.1609 108.512 31.5597 107.943 31.5597 107.943C31.5597 107.943 31.6296 107.759 31.7694 107.466Z" fill="#DBDBDB"/>
<path d="M31.2538 105.079C30.9742 105.501 30.6946 105.814 30.4848 105.997C30.2751 106.181 30.1353 106.272 30.1353 106.272C30.1353 106.272 29.6599 105.538 29.2124 104.382C28.751 103.207 28.2896 101.591 28.3036 99.8657C28.3036 99.2232 28.3455 98.5623 28.4434 97.9381C28.4854 97.6261 28.5553 97.314 28.6252 97.0019C28.6951 96.7082 28.751 96.3777 28.8209 96.084C28.9468 95.57 29.0726 95.0743 29.2124 94.6338C29.2544 94.5236 29.2823 94.4135 29.3103 94.3033C29.3523 94.1932 29.3662 94.1014 29.4082 93.9912C29.4641 93.7893 29.52 93.6057 29.576 93.4405C29.7997 92.7613 29.9675 92.3574 29.9675 92.3574C29.9675 92.3574 30.4009 93.2019 30.9043 94.5053C31.0301 94.8357 31.156 95.1845 31.2958 95.5516C31.3657 95.7352 31.4216 95.9372 31.4915 96.1207C31.5615 96.3043 31.6034 96.5062 31.6733 96.7082C31.897 97.4976 32.0928 98.3604 32.2326 99.2048C32.2885 99.5353 32.3305 99.8473 32.3584 100.159C32.3864 100.471 32.4004 100.784 32.4004 101.077C32.4004 101.995 32.2606 102.785 32.0508 103.464C31.8271 104.125 31.5335 104.657 31.2538 105.079Z" fill="#DBDBDB"/>
<path d="M42.228 93.6974C41.9204 93.7157 41.6408 93.7157 41.3751 93.679C40.3265 93.5872 39.6273 93.2568 39.6273 93.2568C39.6273 93.2568 39.6413 93.0732 39.7252 92.7428C39.7672 92.5775 39.8231 92.394 39.893 92.1737C39.9489 91.9534 40.0328 91.7147 40.1307 91.4577C40.3404 90.9437 40.6201 90.393 41.0256 89.8239C41.1234 89.6954 41.2213 89.5669 41.3332 89.4017C41.445 89.2548 41.5569 89.1263 41.6827 88.9794C41.9344 88.7041 42.228 88.4287 42.5496 88.1717C42.8852 87.9331 43.2487 87.6944 43.6402 87.4558C44.0038 87.2171 44.4093 86.9968 44.8008 86.7765C45.5978 86.3359 46.4507 85.9504 47.2197 85.6016C47.9747 85.2528 48.6319 84.9591 49.1213 84.7572C49.6107 84.5553 49.9043 84.4268 49.9043 84.4268C49.9043 84.4268 49.7924 84.7939 49.5827 85.3997C49.4708 85.6934 49.345 86.0606 49.1912 86.4461C49.0234 86.8316 48.8416 87.2538 48.6319 87.6944C48.4222 88.135 48.1845 88.5939 47.9468 89.0529C47.8909 89.163 47.8209 89.2732 47.751 89.3833C47.6811 89.4935 47.6252 89.6036 47.5413 89.7137C47.4015 89.934 47.2617 90.1543 47.1078 90.3563C46.8142 90.7785 46.5066 91.1824 46.185 91.5495C46.0312 91.7331 45.8634 91.9167 45.6956 92.0635C45.5279 92.2104 45.3601 92.3572 45.1783 92.5041C44.4932 93.0365 43.7941 93.3302 43.1509 93.4954C42.8293 93.6239 42.5217 93.679 42.228 93.6974Z" fill="#DBDBDB"/>
<path d="M39.095 88.7957C39.0251 89.5117 38.8713 90.1175 38.7035 90.6315C38.6196 90.8885 38.5217 91.1088 38.4379 91.2924C38.354 91.4943 38.2421 91.6412 38.1722 91.7697C38.0184 92.0267 37.8925 92.1552 37.8925 92.1552C37.8925 92.1552 37.2773 91.6228 36.5922 90.6682C36.4244 90.4296 36.2426 90.1726 36.0749 89.8788C35.8931 89.5851 35.7113 89.273 35.5435 88.9242C35.208 88.245 34.9143 87.4923 34.7186 86.6662C34.6626 86.4643 34.6347 86.244 34.5927 86.0237C34.5508 85.8034 34.5228 85.5831 34.4949 85.3629C34.4389 84.9223 34.411 84.4817 34.397 84.0411C34.383 83.1599 34.369 82.2971 34.4249 81.5261C34.4529 81.1406 34.4809 80.7918 34.5088 80.4614C34.5228 80.1309 34.5508 79.8556 34.5788 79.6169C34.6207 79.1396 34.6626 78.8643 34.6626 78.8643C34.6626 78.8643 34.8724 79.1029 35.208 79.5251C35.5435 79.9474 36.0049 80.5348 36.4943 81.2507C36.9697 81.9667 37.4591 82.7928 37.8925 83.674C38.1163 84.1145 38.312 84.5735 38.4938 85.0324C38.6616 85.473 38.8014 85.9319 38.8993 86.3725C38.9971 86.8131 39.0531 87.2353 39.095 87.6392C39.109 87.8411 39.123 88.0431 39.123 88.2266C39.123 88.3184 39.123 88.4102 39.123 88.502C39.109 88.6122 39.109 88.7039 39.095 88.7957Z" fill="#DBDBDB"/>
<path d="M48.338 75.4865C48.0444 75.7619 47.7368 75.9822 47.4431 76.1841C46.8419 76.5696 46.2686 76.7899 45.7513 76.9368C44.7306 77.2121 43.9895 77.1387 43.9895 77.1387C43.9895 77.1387 43.9056 76.3493 44.1014 75.2295C44.1433 74.9541 44.2272 74.6604 44.2971 74.33C44.3671 74.0179 44.4649 73.6875 44.6048 73.3387C44.7306 73.0082 44.8844 72.6411 45.0801 72.2923C45.178 72.1087 45.2759 71.9435 45.3878 71.7599C45.4437 71.6681 45.4996 71.5763 45.5695 71.4845C45.6255 71.3928 45.6814 71.301 45.7513 71.2092C46.758 69.7773 48.38 68.327 49.6663 67.1338C50.3235 66.5464 50.9107 66.0323 51.3302 65.6652C51.7637 65.3347 52.0293 65.1328 52.0293 65.1328C52.0293 65.1328 51.9874 65.5367 51.9035 66.1792C51.8196 66.8217 51.6938 67.7212 51.484 68.7126C51.2603 69.7039 50.9527 70.787 50.5892 71.815C50.5053 72.072 50.3934 72.329 50.2815 72.5676C50.1697 72.8063 50.0578 73.0449 49.946 73.2836C49.7083 73.7425 49.4566 74.1648 49.1909 74.5319C48.9113 74.8991 48.6456 75.2295 48.338 75.4865Z" fill="#DBDBDB"/>
<path d="M42.0875 76.6615C42.0875 76.6615 41.3744 76.3494 40.5075 75.6702C40.0601 75.3214 39.5847 74.8808 39.1233 74.3484C38.8995 74.0731 38.6758 73.7977 38.4661 73.4673C38.2424 73.1552 38.0326 72.8064 37.8509 72.4392C37.6691 72.0721 37.5013 71.6682 37.3615 71.2643C37.2217 70.8605 37.1238 70.4382 36.998 70.016C36.7603 69.1716 36.6065 68.3271 36.4946 67.5745C36.3548 66.8218 36.2709 66.1609 36.215 65.6836C36.173 65.2063 36.159 64.9126 36.159 64.9126C36.159 64.9126 36.4107 65.0778 36.8162 65.3532C37.2217 65.6469 37.781 66.0691 38.4102 66.5831C39.0254 67.1155 39.7105 67.758 40.2978 68.4556C40.899 69.1532 41.4443 69.9242 41.8358 70.7136C42.0456 71.0991 42.1714 71.4846 42.2833 71.8701C42.3951 72.2556 42.465 72.6228 42.5209 72.9716C42.5769 73.3204 42.5909 73.6692 42.6048 73.9813C42.6188 74.2933 42.5769 74.6054 42.5489 74.8624C42.3951 75.9822 42.0875 76.6615 42.0875 76.6615Z" fill="#DBDBDB"/>
<path d="M49.9607 51.4014C49.9188 51.8237 49.8489 52.2459 49.779 52.6681C49.6252 53.4942 49.4574 54.2836 49.1638 54.9628C48.7862 55.8807 48.3388 56.5966 47.8494 57.1657C47.36 57.7348 46.8707 58.157 46.3953 58.4691C45.4585 59.0933 44.7314 59.2769 44.7314 59.2769C44.7314 59.2769 44.6754 59.0933 44.6055 58.7628C44.5496 58.4324 44.4517 57.9735 44.4098 57.4044C44.3678 56.8353 44.3818 56.1744 44.4937 55.4218C44.5916 54.6874 44.7733 53.8614 45.1229 52.9985C45.2347 52.7048 45.3746 52.4111 45.5144 52.1174C45.5843 51.9705 45.6542 51.8237 45.7381 51.6584C45.808 51.5116 45.8919 51.3464 45.9618 51.1995C46.3533 50.4468 46.7868 49.6758 47.2342 48.9599C47.6676 48.2256 48.1151 47.528 48.4926 46.9405C49.2476 45.7473 49.8209 44.9028 49.8209 44.9028C49.8209 44.9028 49.9048 45.5086 50.0027 46.4632C50.0586 46.9405 50.0726 47.5096 50.0866 48.1338C50.1006 48.7579 50.1006 49.4188 50.0726 50.1164C50.0446 50.5386 50.0027 50.9792 49.9607 51.4014Z" fill="#DBDBDB"/>
<path d="M37.8084 56.9454C37.7105 56.8352 37.6266 56.7251 37.5427 56.6149C37.4588 56.5048 37.361 56.3763 37.2771 56.2661C37.0953 56.0275 36.9275 55.7705 36.7737 55.5135C36.6199 55.2565 36.4801 54.9811 36.3403 54.7241C36.2004 54.4304 36.0606 54.1734 35.9348 53.9164C35.7111 53.4574 35.5153 52.9985 35.3475 52.5763C35.2636 52.356 35.1797 52.154 35.1098 51.9704C35.0399 51.7685 34.97 51.6033 34.9001 51.4381C34.6484 50.7772 34.5226 50.355 34.5226 50.355C34.5226 50.355 35.3056 50.5202 36.4102 50.9057C36.6758 50.9975 36.9834 51.1076 37.2771 51.2361C37.5707 51.3646 37.8783 51.5115 38.1999 51.6767C38.8291 51.9888 39.4583 52.3743 40.0456 52.8149C40.507 53.1453 40.8985 53.5309 41.248 53.9164C41.7794 54.5222 42.1709 55.183 42.4225 55.8439C42.6602 56.4864 42.7861 57.1289 42.842 57.6613C42.8979 58.212 42.9119 58.671 42.87 59.0014C42.842 59.3319 42.8001 59.5154 42.8001 59.5154C42.8001 59.5154 42.059 59.4604 41.0802 59.1116C40.0875 58.7444 38.8151 58.1019 37.8084 56.9454Z" fill="#DBDBDB"/>
<path d="M44.0176 38.7717C43.668 39.4876 43.2765 40.0934 42.899 40.5524C42.1439 41.4702 41.4868 41.9108 41.4868 41.9108C41.4868 41.9108 41.3889 41.7456 41.2491 41.4702C41.1092 41.1765 40.9415 40.7543 40.7737 40.2219C40.6059 39.6895 40.4661 39.047 40.3962 38.2944C40.3682 37.9272 40.3682 37.5233 40.3682 37.1011C40.3682 36.6789 40.3962 36.2383 40.4661 35.761C40.536 35.2837 40.6339 34.7881 40.7457 34.274C40.8016 34.017 40.8715 33.76 40.9415 33.4847C41.0114 33.2277 41.0673 32.9707 41.1372 32.6953C41.4169 31.6489 41.7384 30.6025 42.0461 29.6479C42.1999 29.1706 42.3537 28.73 42.4795 28.3262C42.6053 27.9223 42.7312 27.5735 42.8291 27.2798C43.0248 26.674 43.1507 26.3252 43.1507 26.3252C43.1507 26.3252 43.3045 26.674 43.5142 27.2798C43.64 27.5735 43.7519 27.9407 43.8638 28.3629C43.9896 28.7851 44.1154 29.2441 44.2413 29.7214C44.2972 29.96 44.3671 30.217 44.423 30.474C44.479 30.731 44.5349 30.988 44.5768 31.2818C44.6607 31.8325 44.7446 32.3832 44.8006 32.9523C44.8565 33.5214 44.8984 34.0721 44.8984 34.6045C44.8984 35.1552 44.8565 35.6876 44.7866 36.1832C44.6328 37.1929 44.3671 38.0374 44.0176 38.7717Z" fill="#DBDBDB"/>
<path d="M33.4338 41.4513C33.1402 41.2127 32.8466 40.9373 32.5669 40.6619C32.3013 40.3866 32.0496 40.0928 31.7979 39.7991C31.5602 39.5054 31.3085 39.23 31.0988 38.9547C30.8891 38.6793 30.6933 38.4039 30.5255 38.1653C30.4416 38.0368 30.3577 37.9266 30.2878 37.8165C30.2179 37.7064 30.148 37.6146 30.0781 37.5228C29.8264 37.1556 29.6866 36.9353 29.6866 36.9353C29.6866 36.9353 29.9662 36.8986 30.4416 36.8435C30.917 36.8068 31.5742 36.7518 32.3153 36.7885C33.0423 36.8252 33.8813 36.917 34.6922 37.0822C34.902 37.1373 35.0977 37.174 35.3075 37.2291C35.5032 37.2841 35.699 37.3576 35.8807 37.431C36.2583 37.5779 36.6218 37.7431 36.9434 37.945C37.265 38.1469 37.5586 38.3672 37.8243 38.6059C38.0899 38.8445 38.2997 39.1199 38.4954 39.3769C38.8729 39.9093 39.1386 40.4784 39.3204 40.974C39.5021 41.4697 39.572 41.9286 39.614 42.2407C39.6559 42.5711 39.6699 42.7547 39.6699 42.7547C39.6699 42.7547 38.9428 42.975 37.9221 42.975C37.4048 42.975 36.8175 42.9383 36.2023 42.7914C35.5731 42.6629 34.9299 42.4243 34.3007 42.0571C34.0211 41.9286 33.7275 41.7083 33.4338 41.4513Z" fill="#DBDBDB"/>
<path d="M36.6764 23.1306C36.4946 23.9384 36.2429 24.6359 35.9773 25.2234C35.4599 26.3616 34.9146 27.0041 34.9146 27.0041C34.9146 27.0041 34.3833 26.5451 33.8519 25.6273C33.7121 25.3886 33.5863 25.1316 33.4604 24.8379C33.3346 24.5625 33.1948 24.2321 33.0829 23.9016C32.8592 23.2041 32.6914 22.378 32.6215 21.405C32.5376 20.4504 32.5516 19.3673 32.6215 18.2475C32.6914 17.1277 32.7613 16.0262 32.8592 14.9982C32.9571 13.9885 33.055 13.089 33.1249 12.4465C33.2088 11.804 33.2507 11.4185 33.2507 11.4185C33.2507 11.4185 33.3066 11.4919 33.4045 11.6204C33.4884 11.7673 33.6282 11.9692 33.796 12.2262C34.1176 12.7402 34.565 13.4745 35.0125 14.319C35.4459 15.2001 35.8794 16.2098 36.2289 17.2378C36.5645 18.2842 36.8022 19.3673 36.8861 20.377C36.9001 20.634 36.9141 20.8726 36.9141 21.1113C36.9141 21.3499 36.9001 21.5886 36.8861 21.8272C36.8302 22.2862 36.7603 22.7268 36.6764 23.1306Z" fill="#DBDBDB"/>
<path d="M27.0429 29.2988C26.8751 29.2254 26.7213 29.152 26.5535 29.0602C26.4696 29.0235 26.3997 28.9867 26.3158 28.9317C26.2319 28.8949 26.148 28.8399 26.0641 28.8032C25.4069 28.4544 24.8197 28.0321 24.3023 27.6466C23.771 27.2795 23.3236 26.9123 23.016 26.637C22.8622 26.4901 22.7363 26.38 22.6524 26.3065C22.5685 26.2331 22.5126 26.1964 22.5126 26.1964C22.5126 26.1964 22.5825 26.1597 22.7084 26.1046C22.8342 26.0495 23.016 25.9577 23.2257 25.8659C23.6592 25.6824 24.2884 25.4254 25.0154 25.2051C25.379 25.0949 25.7565 24.9848 26.162 24.893C26.3577 24.8563 26.5675 24.8012 26.7632 24.7645C26.959 24.7278 27.1687 24.7094 27.3645 24.6911C28.1754 24.5993 29.0004 24.5993 29.7275 24.7645C30.4406 24.9297 31.0278 25.2601 31.5172 25.6273C31.7689 25.8109 31.9786 26.0128 32.1744 26.2331C32.3561 26.4534 32.5099 26.6737 32.6497 26.894C33.1951 27.7568 33.3908 28.4911 33.3908 28.4911C33.3908 28.4911 32.7336 28.95 31.7409 29.3172C31.2515 29.5008 30.6643 29.666 30.0351 29.7394C29.4059 29.8128 28.7627 29.7945 28.0636 29.666C27.714 29.5558 27.3645 29.4457 27.0429 29.2988Z" fill="#DBDBDB"/>
<path d="M25.1414 13.8049C25.0155 14.1721 24.9176 14.374 24.9176 14.374C24.9176 14.374 24.8757 14.3557 24.8058 14.3189C24.7359 14.2822 24.638 14.2272 24.5261 14.1537C24.2884 14.0069 23.9529 13.7682 23.6033 13.4194C22.9042 12.7035 22.0373 11.6387 21.492 9.80297C21.3102 9.19717 21.1284 8.53629 20.9886 7.83871C20.8069 6.95754 20.653 6.0213 20.5272 5.12178C20.3874 4.24061 20.2615 3.3778 20.1777 2.60678C19.9819 1.10146 19.87 0 19.87 0C19.87 0 20.2895 0.330437 20.9047 0.899524C21.2123 1.17489 21.5619 1.52368 21.9534 1.90919C22.3309 2.31306 22.7084 2.772 23.0999 3.26766C23.3376 3.56138 23.5614 3.87346 23.7851 4.2039C23.841 4.27733 23.8969 4.36911 23.9529 4.44254C24.0088 4.51598 24.0507 4.60776 24.1067 4.69955C24.2045 4.86477 24.3024 5.04835 24.4143 5.21356C24.8058 5.91115 25.1274 6.6271 25.3511 7.34305C25.5049 7.80199 25.6028 8.29765 25.6587 8.73823C25.7146 9.17881 25.7566 9.61939 25.7566 10.0416C25.7706 10.8861 25.6727 11.6387 25.5468 12.2812C25.421 12.9238 25.2672 13.4378 25.1414 13.8049Z" fill="#DBDBDB"/>
<path d="M15.8699 19.0371C15.4504 18.927 15.0589 18.7985 14.6954 18.67C14.3318 18.5598 13.9962 18.4497 13.7166 18.3395C13.1713 18.1192 12.8217 17.954 12.8217 17.954C12.8217 17.954 13.4509 17.3299 14.4157 16.5772C14.8911 16.1917 15.4644 15.7878 16.0796 15.4023C16.6808 15.0352 17.324 14.7047 17.9812 14.4477C18.4706 14.2458 18.9599 14.0989 19.4353 14.0255C20.8615 13.8603 21.9941 14.3926 22.7072 15.0535C23.0707 15.3656 23.3364 15.696 23.5042 15.9163C23.5881 16.0265 23.658 16.1366 23.6999 16.21C23.7419 16.2835 23.7559 16.3202 23.7559 16.3202C23.7559 16.3202 23.63 16.4854 23.3923 16.7424C23.1546 16.9994 22.8051 17.3299 22.3576 17.6787C21.9242 18.0274 21.3929 18.3946 20.8196 18.6883C20.526 18.8352 20.2183 18.9637 19.8968 19.0555C19.5752 19.1656 19.2536 19.2391 18.904 19.2941C17.8973 19.4593 16.8486 19.2574 15.8699 19.0371Z" fill="#DBDBDB"/>
<path d="M0.895737 126.3C1.17538 126.264 1.51096 126.209 1.90246 126.135C2.09821 126.098 2.30795 126.08 2.51768 126.025C2.72741 125.97 2.96511 125.915 3.18883 125.86C3.66422 125.75 4.16758 125.639 4.71289 125.511C5.24422 125.346 5.81749 125.181 6.40474 125.015C6.69837 124.924 7.00599 124.85 7.29961 124.74C7.59324 124.63 7.90084 124.52 8.20845 124.41C8.80969 124.189 9.4389 123.987 10.0401 123.712C12.487 122.757 14.836 121.417 16.5559 120.352C16.9753 120.077 17.3808 119.82 17.7164 119.6C17.8982 119.49 18.052 119.38 18.2058 119.288C18.3596 119.196 18.4854 119.086 18.6113 118.994C19.1006 118.645 19.3663 118.443 19.3663 118.443C19.3663 118.443 19.6459 118.241 20.1353 117.893C20.6107 117.525 21.2819 116.956 22.0928 116.314C23.6728 114.937 25.7562 113.028 27.6438 110.843C29.5454 108.677 31.2932 106.291 32.5236 104.436C32.6914 104.216 32.8172 103.978 32.957 103.757C33.0969 103.537 33.2227 103.335 33.3346 103.133C33.5723 102.748 33.782 102.417 33.9638 102.123C34.1455 101.848 34.2574 101.609 34.3413 101.463C34.4252 101.297 34.4811 101.224 34.4811 101.224C34.4811 101.224 34.6629 100.893 34.9845 100.324C35.1383 100.031 35.348 99.7002 35.5577 99.2779C35.7675 98.8557 36.0052 98.3968 36.2708 97.8828C36.3967 97.6258 36.5365 97.3688 36.6763 97.0934C36.8162 96.818 36.942 96.5243 37.0818 96.2122C37.3615 95.6064 37.6411 94.9639 37.9487 94.3214C38.2144 93.6422 38.508 92.9446 38.7876 92.247C38.8576 92.0634 38.9275 91.8982 39.0114 91.7146C39.0813 91.531 39.1372 91.3475 39.2071 91.1639C39.333 90.7967 39.4728 90.4296 39.5986 90.0624C40.6333 87.1068 41.5002 84.0411 41.9896 81.6913C42.0595 81.3976 42.1154 81.1223 42.1853 80.8469C42.2413 80.5899 42.3112 80.3329 42.3391 80.0942C42.423 79.6169 42.5069 79.1947 42.5629 78.8459C42.6887 78.1483 42.7586 77.7628 42.7586 77.7628C42.7586 77.7628 42.7726 77.671 42.8145 77.4874C42.8425 77.3039 42.8844 77.0285 42.9264 76.6797C42.9823 76.3309 43.0383 75.9087 43.0942 75.4314C43.1641 74.9541 43.262 74.4034 43.3039 73.7976C43.3598 73.1918 43.4298 72.5492 43.4997 71.8517C43.5136 71.6864 43.5416 71.5029 43.5556 71.3376C43.5696 71.1541 43.5836 70.9889 43.5975 70.7869C43.6115 70.4198 43.6395 70.0526 43.6675 69.6671C43.7933 68.1618 43.7933 66.528 43.8213 64.9125C43.7793 63.297 43.7793 61.6815 43.6675 60.1578C43.6535 59.7907 43.6255 59.4052 43.5975 59.038C43.5836 58.8545 43.5836 58.6709 43.5556 58.5057C43.5416 58.3221 43.5136 58.1569 43.4997 57.9733C43.4298 57.2941 43.3598 56.6332 43.3039 56.0274C43.248 55.4216 43.1641 54.8892 43.0942 54.3936C43.0243 53.9163 42.9683 53.494 42.9264 53.1452C42.8705 52.7964 42.8425 52.5211 42.8145 52.3375C42.7726 52.1539 42.7586 52.0438 42.7586 52.0438C42.7586 52.0438 42.6887 51.6583 42.5629 50.9607C42.5069 50.6119 42.423 50.1897 42.3391 49.7124C42.2972 49.4737 42.2413 49.2167 42.1853 48.9597C42.1294 48.6843 42.0595 48.409 41.9896 48.1152C41.5002 45.7655 40.6333 42.7181 39.5986 39.7442C39.4588 39.377 39.333 39.0099 39.2071 38.6427C39.1372 38.4591 39.0813 38.2756 39.0114 38.092C38.9415 37.9084 38.8715 37.7432 38.7876 37.5596C38.494 36.8437 38.2144 36.1461 37.9487 35.4852C37.6551 34.8243 37.3615 34.1818 37.0818 33.5944C36.942 33.3006 36.8162 32.9886 36.6763 32.7132C36.5365 32.4378 36.3967 32.1808 36.2708 31.9238C36.0192 31.4098 35.7675 30.9509 35.5577 30.5286C35.348 30.1064 35.1383 29.776 34.9845 29.4823C34.6629 28.8948 34.4811 28.5827 34.4811 28.5827C34.4811 28.5827 34.4252 28.491 34.3413 28.3441C34.2574 28.1972 34.1316 27.9586 33.9638 27.6832C33.796 27.4079 33.5723 27.0591 33.3346 26.6735C33.2087 26.4716 33.0829 26.2697 32.957 26.0494C32.8172 25.8291 32.6774 25.6088 32.5236 25.3702C31.2932 23.516 29.5454 21.1295 27.6438 18.9633C25.7422 16.7788 23.6728 14.8696 22.0928 13.4928C21.2819 12.8503 20.6107 12.2812 20.1353 11.914C19.6459 11.5652 19.3663 11.3633 19.3663 11.3633C19.3663 11.3633 19.0867 11.1614 18.6113 10.8126C18.4854 10.7208 18.3596 10.629 18.2058 10.5188C18.052 10.4271 17.8982 10.3169 17.7164 10.2068C17.6045 10.1333 17.4787 10.0599 17.3529 9.96811C17.3389 9.96811 17.3389 9.96811 17.3249 9.96811C17.0173 10.0048 16.5838 10.0232 16.0665 9.98647C15.0318 9.9314 13.6895 9.63767 12.515 8.79322C11.8998 8.38935 11.3265 7.82027 10.8231 7.21447C10.5854 6.90239 10.3198 6.60867 10.0821 6.29659C9.84438 6.00286 9.63465 5.69078 9.4389 5.39706C9.06137 4.80962 8.71182 4.29561 8.4881 3.9101C8.26439 3.52459 8.13855 3.28594 8.13855 3.28594C8.13855 3.28594 8.41819 3.26758 8.89359 3.26758C9.36898 3.26758 10.0261 3.28594 10.7672 3.35937C10.949 3.37772 11.1447 3.39608 11.3405 3.4328C11.5362 3.46951 11.732 3.50623 11.9277 3.54294C12.3192 3.61637 12.7247 3.72652 13.1162 3.83666C13.9132 4.09367 14.7102 4.40575 15.3254 4.86469C15.9546 5.30527 16.444 5.856 16.8075 6.40673C17.1571 6.97582 17.3808 7.5449 17.5486 8.07728C17.7024 8.59129 17.7723 9.05023 17.8003 9.36231C17.8143 9.41738 17.8143 9.49081 17.8143 9.54588C17.8562 9.5826 17.9121 9.60096 17.9541 9.63767C18.1219 9.74782 18.2897 9.85796 18.4435 9.94975C18.5973 10.0599 18.7231 10.1517 18.849 10.2435C19.3383 10.5923 19.618 10.8126 19.618 10.8126C19.618 10.8126 19.8976 11.0145 20.387 11.3633C20.8624 11.7304 21.5475 12.2995 22.3725 12.9604C23.9665 14.3372 26.0638 16.2831 27.9794 18.486C29.8949 20.689 31.6567 23.0755 32.9151 24.9663C33.0829 25.1866 33.2087 25.4252 33.3486 25.6455C33.4884 25.8658 33.6142 26.0677 33.7401 26.2697C33.9917 26.6552 34.2015 27.004 34.3693 27.2793C34.551 27.5547 34.6629 27.7934 34.7608 27.9402C34.8447 28.0871 34.9006 28.1789 34.9006 28.1789C34.9006 28.1789 35.0823 28.5093 35.4179 29.0968C35.5857 29.3905 35.7815 29.7393 36.0052 30.1615C36.2149 30.5837 36.4526 31.061 36.7183 31.575C36.8581 31.832 36.9839 32.1074 37.1238 32.3828C37.2636 32.6581 37.3894 32.9702 37.5292 33.2639C37.8089 33.8697 38.1025 34.5123 38.3961 35.1731C38.6758 35.8524 38.9554 36.5499 39.2491 37.2843C39.319 37.4678 39.3889 37.6514 39.4728 37.8166C39.5427 38.0002 39.5986 38.1838 39.6685 38.3674C39.8084 38.7345 39.9342 39.12 40.074 39.4872C41.1227 42.4795 42.0036 45.5635 42.4929 47.9317C42.5629 48.2254 42.6188 48.5008 42.6887 48.7761C42.7446 49.0515 42.8145 49.2901 42.8565 49.5471C42.9404 50.0244 43.0243 50.465 43.0802 50.8138C43.206 51.5114 43.2899 51.9153 43.2899 51.9153C43.2899 51.9153 43.3039 52.0254 43.3459 52.209C43.3878 52.3926 43.4158 52.6679 43.4717 53.0351C43.5136 53.3839 43.5836 53.8245 43.6535 54.3018C43.7234 54.7974 43.8073 55.3482 43.8632 55.954C43.9191 56.5598 43.989 57.2206 44.059 57.9182C44.0729 58.1018 44.1009 58.267 44.1149 58.4506C44.1289 58.6342 44.1429 58.8177 44.1568 59.0013C44.1708 59.3685 44.1988 59.7356 44.2267 60.1395C44.3526 61.6632 44.3526 63.297 44.3945 64.9308C44.3526 66.5647 44.3526 68.1985 44.2267 69.7222C44.1988 70.1077 44.1848 70.4748 44.1568 70.842C44.1429 71.0256 44.1429 71.2091 44.1149 71.3744C44.1009 71.5579 44.0729 71.7415 44.059 71.9067C43.989 72.6043 43.9191 73.2652 43.8632 73.871C43.8073 74.4768 43.7094 75.0275 43.6535 75.5232C43.5836 76.0188 43.5276 76.4411 43.4717 76.7899C43.4158 77.1387 43.3878 77.414 43.3459 77.616C43.3179 77.7995 43.2899 77.9097 43.2899 77.9097C43.2899 77.9097 43.22 78.3135 43.0802 79.0111C43.0243 79.3599 42.9404 79.7822 42.8565 80.2778C42.8006 80.5165 42.7306 80.7735 42.6747 81.0488C42.6188 81.3242 42.5489 81.5996 42.479 81.8933C41.9896 84.2614 41.1227 87.3455 40.06 90.3378C39.9342 90.7049 39.7944 91.0904 39.6545 91.4576C39.5846 91.6412 39.5287 91.8248 39.4588 92.0083C39.3889 92.1919 39.305 92.3755 39.2351 92.5407C38.9415 93.2566 38.6618 93.9542 38.3822 94.6518C38.0885 95.3127 37.7949 95.9552 37.5153 96.561C37.3754 96.8547 37.2496 97.1668 37.1098 97.4422C36.97 97.7176 36.8301 97.9929 36.7043 98.2499C36.4386 98.7639 36.2009 99.2412 35.9912 99.6635C35.7815 100.086 35.5717 100.434 35.4039 100.728C35.0684 101.316 34.8866 101.646 34.8866 101.646C34.8866 101.646 34.8307 101.738 34.7468 101.885C34.6629 102.032 34.537 102.27 34.3553 102.546C34.1875 102.821 33.9638 103.17 33.7261 103.555C33.6002 103.757 33.4744 103.959 33.3346 104.179C33.1947 104.4 33.0689 104.638 32.9011 104.859C31.6567 106.749 29.8949 109.136 27.9654 111.339C26.0498 113.542 23.9525 115.469 22.3585 116.865C21.5335 117.525 20.8624 118.095 20.373 118.462C19.8836 118.81 19.604 119.012 19.604 119.012C19.604 119.012 19.3244 119.214 18.835 119.581C18.7091 119.673 18.5693 119.765 18.4295 119.875C18.2757 119.967 18.1079 120.077 17.9401 120.187C17.5906 120.408 17.199 120.665 16.7656 120.958C15.0178 122.023 12.6548 123.363 10.18 124.336C9.56474 124.611 8.94952 124.813 8.3343 125.034C8.02669 125.144 7.71908 125.254 7.42545 125.364C7.13182 125.474 6.82421 125.548 6.53058 125.639C5.94333 125.805 5.37006 125.97 4.82475 126.135C4.27945 126.264 3.7621 126.374 3.2867 126.484C3.049 126.539 2.82529 126.594 2.60157 126.631C2.37786 126.686 2.16812 126.704 1.97237 126.741C1.58087 126.796 1.2453 126.851 0.951668 126.906C0.392376 126.998 0.0707855 127.053 0.0707855 127.053L0.0148544 126.429C0.0288353 126.447 0.336449 126.392 0.895737 126.3Z" fill="#DBDBDB"/>
</svg>
