<svg xmlns="http://www.w3.org/2000/svg" xmlns:xlink="http://www.w3.org/1999/xlink" viewBox="0 0 146.49 79.03"><defs><style>.cls-1{stroke:#fff;stroke-miterlimit:10;stroke-width:0.99px;fill:url(#Dégradé_sans_nom_2);}.cls-2{fill:url(#Dégradé_sans_nom_3);}.cls-3{fill:url(#Dégradé_sans_nom_4);}.cls-4{fill:none;stroke:#e9e8e8;stroke-width:0.86px;}.cls-5{fill:url(#Dégradé_sans_nom_4-2);}.cls-6{fill:url(#Dégradé_sans_nom_6);}.cls-7{fill:url(#Dégradé_sans_nom_6-2);}.cls-8{fill:#ee7375;}.cls-9{fill:#f9be41;}.cls-10{fill:#6dbb7e;}</style><linearGradient id="Dégradé_sans_nom_2" x1="128.49" y1="27.88" x2="6.09" y2="53.66" gradientUnits="userSpaceOnUse"><stop offset="0" stop-color="#f4f3f4"/><stop offset="0.42" stop-color="#f4f3f4"/><stop offset="1" stop-color="#fff"/></linearGradient><linearGradient id="Dégradé_sans_nom_3" x1="333.02" y1="142.43" x2="353.06" y2="94.54" gradientTransform="matrix(1, 0, 0, -1, -269.45, 163.29)" gradientUnits="userSpaceOnUse"><stop offset="0" stop-color="#f18da3"/><stop offset="1" stop-color="#e43640"/></linearGradient><linearGradient id="Dégradé_sans_nom_4" x1="366.62" y1="148.74" x2="376.85" y2="113.08" gradientTransform="matrix(1, 0, 0, -1, -279.47, 183.02)" gradientUnits="userSpaceOnUse"><stop offset="0" stop-color="#8ed1e9"/><stop offset="1" stop-color="#52c2e6"/></linearGradient><linearGradient id="Dégradé_sans_nom_4-2" x1="321.04" y1="94.91" x2="331.28" y2="59.25" gradientTransform="matrix(1, 0, 0, -1, -291.02, 130.73)" xlink:href="#Dégradé_sans_nom_4"/><linearGradient id="Dégradé_sans_nom_6" x1="398.18" y1="154.06" x2="401.58" y2="132.96" gradientTransform="matrix(1, 0, 0, -1, -288.94, 202.65)" gradientUnits="userSpaceOnUse"><stop offset="0" stop-color="#50504f"/><stop offset="1" stop-color="#363636"/></linearGradient><linearGradient id="Dégradé_sans_nom_6-2" x1="352.61" y1="100.23" x2="356" y2="79.14" gradientTransform="matrix(1, 0, 0, -1, -300.49, 150.35)" xlink:href="#Dégradé_sans_nom_6"/></defs><g id="Calque_2" data-name="Calque 2"><g id="Calque_1-2" data-name="Calque 1"><rect class="cls-1" x="0.5" y="0.5" width="145.49" height="78.03" rx="13.16"/><path class="cls-2" d="M73.08,20.59h0a6.34,6.34,0,0,1,6.36,6.31l.14,33.3a6.35,6.35,0,0,1-6.31,6.37h0a6.33,6.33,0,0,1-6.36-6.31L66.77,27A6.35,6.35,0,0,1,73.08,20.59Z"/><path class="cls-3" d="M91.7,35h0a6.34,6.34,0,0,1,6.37,6.31l.07,18.86a6.33,6.33,0,0,1-6.31,6.36h0a6.34,6.34,0,0,1-6.36-6.31l-.08-18.86A6.34,6.34,0,0,1,91.7,35Z"/><circle class="cls-4" cx="34.88" cy="43.14" r="5.82"/><circle class="cls-4" cx="34.88" cy="43.14" r="12.6"/><circle class="cls-4" cx="34.88" cy="43.14" r="18.33"/><path class="cls-5" d="M34.8,36.68h0A6.33,6.33,0,0,1,41.16,43l.08,18.86a6.34,6.34,0,0,1-6.31,6.36h0a6.33,6.33,0,0,1-6.36-6.31L28.49,43A6.33,6.33,0,0,1,34.8,36.68Z"/><path class="cls-6" d="M110.33,48.73h0A6.34,6.34,0,0,1,116.69,55l0,5a6.33,6.33,0,0,1-6.31,6.36h0A6.33,6.33,0,0,1,104,60.1l0-5A6.33,6.33,0,0,1,110.33,48.73Z"/><path class="cls-7" d="M53.42,50.45h0a6.33,6.33,0,0,1,6.36,6.31l0,5a6.33,6.33,0,0,1-6.31,6.36h0a6.33,6.33,0,0,1-6.36-6.31l0-5A6.33,6.33,0,0,1,53.42,50.45Z"/><circle class="cls-8" cx="132.87" cy="12.33" r="3.5"/><circle class="cls-9" cx="122.79" cy="12.31" r="3.5"/><circle class="cls-10" cx="112.71" cy="12.29" r="3.5"/></g></g></svg>