<svg width="159" height="38" viewBox="0 0 159 38" fill="none" xmlns="http://www.w3.org/2000/svg">
<path d="M80.3084 30.549C80.3084 30.5678 80.3084 30.6054 80.3084 30.6618C80.3084 30.6994 80.299 30.737 80.2802 30.7745C80.205 30.9249 80.0546 31.0001 79.829 31.0001C79.4155 31.0001 79.0019 31.0001 78.5884 31.0001C78.1936 31.0001 77.7894 31.0001 77.3759 31.0001H75.5713C75.045 31.0001 74.6502 30.9155 74.387 30.7464C74.1427 30.5772 73.8795 30.2858 73.5975 29.8723C72.5261 28.3308 71.4546 26.7988 70.3831 25.2762C69.3116 23.7348 68.2308 22.1933 67.1405 20.6519L66.7739 20.9339C66.7927 22.3437 66.8021 23.7536 66.8021 25.1634C66.8021 26.5732 66.8021 27.9737 66.8021 29.3647C66.8021 29.5339 66.8397 29.7031 66.9149 29.8723C67.0089 30.0226 67.1499 30.0978 67.3379 30.0978C67.5822 30.0978 67.8266 30.0884 68.071 30.0696C68.3153 30.0508 68.5597 30.0414 68.8041 30.0414C68.9357 30.0414 69.0297 30.0978 69.0861 30.2106C69.1612 30.3234 69.1988 30.4362 69.1988 30.549C69.1988 30.643 69.1612 30.7558 69.0861 30.8873C69.0109 31.0001 68.9169 31.0565 68.8041 31.0565C68.3529 31.0565 67.9018 31.0377 67.4506 31.0001C67.0183 30.9813 66.5859 30.9719 66.1536 30.9719C65.5145 30.9719 64.8753 30.9719 64.2362 30.9719C63.6159 30.9531 62.9956 30.9625 62.3752 31.0001C62.1309 31.0189 61.8865 31.0283 61.6421 31.0283C61.3978 31.0471 61.144 31.0565 60.8808 31.0565C60.7116 31.0565 60.5894 31.0001 60.5143 30.8873C60.4391 30.7745 60.4015 30.643 60.4015 30.4926C60.4015 30.1918 60.5612 30.0414 60.8808 30.0414C61.1064 30.0414 61.3226 30.0508 61.5293 30.0696C61.7549 30.0884 61.9711 30.0978 62.1779 30.0978C62.5538 30.0978 62.7794 29.9944 62.8546 29.7877C62.9298 29.5809 62.9674 29.3271 62.9674 29.0264V12.8132C62.9674 12.1741 62.911 11.7512 62.7982 11.5444C62.7042 11.3188 62.5162 11.206 62.2343 11.206C61.9523 11.1872 61.5387 11.1778 60.9936 11.1778C60.8808 11.1778 60.7586 11.1496 60.627 11.0932C60.5143 11.018 60.4579 10.9147 60.4579 10.7831C60.4579 10.6515 60.4861 10.5293 60.5425 10.4165C60.5988 10.3037 60.7022 10.2473 60.8526 10.2473C61.2662 10.2473 61.6703 10.2661 62.0651 10.3037C62.4786 10.3225 62.8922 10.3319 63.3057 10.3319C63.9637 10.3319 64.6216 10.3319 65.2795 10.3319C65.9374 10.3319 66.5859 10.3319 67.2251 10.3319C67.4882 10.3319 67.7514 10.3225 68.0146 10.3037C68.2965 10.2661 68.5691 10.2473 68.8323 10.2473C68.9451 10.2473 69.0297 10.3037 69.0861 10.4165C69.1612 10.5105 69.1988 10.6045 69.1988 10.6985C69.1988 10.7925 69.1612 10.8959 69.0861 11.0086C69.0297 11.1214 68.9451 11.1778 68.8323 11.1778C68.5879 11.1778 68.3435 11.1778 68.0992 11.1778C67.8548 11.159 67.6104 11.1496 67.3661 11.1496C67.1781 11.1496 67.0371 11.2248 66.9431 11.3752C66.8491 11.5256 66.8021 11.6854 66.8021 11.8545C66.8021 12.5313 66.7927 13.2174 66.7739 13.9129C66.7739 14.5896 66.7739 15.2664 66.7739 15.9431V19.7496C68.1086 18.4714 69.3962 17.1743 70.6369 15.8585C71.8963 14.5426 73.09 13.161 74.2179 11.7136C74.4246 11.4692 74.5656 11.1778 74.6408 10.8395C74.716 10.5763 74.7912 10.4165 74.8664 10.3601C74.9416 10.3037 75.1108 10.2755 75.3739 10.2755L76.2198 10.3037C76.6522 10.3037 77.0845 10.2943 77.5169 10.2755C77.9492 10.2567 78.3816 10.2473 78.8139 10.2473C79.1335 10.2473 79.2933 10.4071 79.2933 10.7267C79.2933 10.9711 79.2181 11.1214 79.0677 11.1778C78.9173 11.2154 78.7481 11.2342 78.5602 11.2342C78.1842 11.2342 77.8176 11.3188 77.4605 11.488C77.1221 11.6384 76.812 11.8451 76.53 12.1083L69.8192 18.509C71.1538 20.3888 72.5167 22.2403 73.9077 24.0637C75.3175 25.8871 76.7368 27.6917 78.1654 29.4775C78.4286 29.7971 78.7293 29.9944 79.0677 30.0696C79.4061 30.1448 79.6974 30.2012 79.9418 30.2388C80.1862 30.2576 80.3084 30.361 80.3084 30.549ZM92.7059 23.5844C92.7059 22.9641 92.6589 22.2591 92.5649 21.4696C92.4897 20.6613 92.3205 19.8812 92.0574 19.1293C91.7942 18.3774 91.4088 17.7571 90.9013 17.2683C90.4125 16.7608 89.7452 16.507 88.8993 16.507C88.1286 16.507 87.5083 16.7514 87.0383 17.2401C86.5684 17.7289 86.2018 18.3398 85.9387 19.0729C85.6943 19.806 85.5251 20.5673 85.4311 21.3568C85.3371 22.1276 85.2901 22.7949 85.2901 23.3588C85.2901 23.9791 85.3277 24.6935 85.4029 25.5018C85.4969 26.2913 85.6755 27.062 85.9387 27.8139C86.2018 28.5658 86.5872 29.1861 87.0947 29.6749C87.6023 30.1636 88.279 30.408 89.1249 30.408C89.9144 30.408 90.5441 30.173 91.0141 29.7031C91.5028 29.2143 91.8694 28.6128 92.1137 27.8985C92.3581 27.1654 92.5179 26.4135 92.5931 25.6427C92.6683 24.8532 92.7059 24.1671 92.7059 23.5844ZM96.5406 23.7254C96.5406 25.1728 96.2117 26.4604 95.5537 27.5883C94.8958 28.6974 93.9935 29.5715 92.8469 30.2106C91.719 30.8497 90.4313 31.1693 88.9839 31.1693C87.5365 31.1693 86.2582 30.8309 85.1492 30.1542C84.0401 29.4775 83.166 28.5658 82.5269 27.4191C81.9065 26.2725 81.5964 24.9848 81.5964 23.5562C81.5964 22.0712 81.9065 20.7459 82.5269 19.5804C83.1472 18.3962 84.0213 17.4657 85.1492 16.789C86.277 16.0935 87.5929 15.7457 89.0967 15.7457C90.7509 15.7457 92.1231 16.0841 93.2134 16.7608C94.3225 17.4187 95.1496 18.3492 95.6947 19.5523C96.2587 20.7365 96.5406 22.1276 96.5406 23.7254ZM108.274 29.6467C108.274 29.9098 108.133 30.1448 107.851 30.3516C107.588 30.5396 107.249 30.6994 106.836 30.8309C106.441 30.9437 106.037 31.0283 105.623 31.0847C105.21 31.1411 104.862 31.1693 104.58 31.1693C103.17 31.1693 102.193 30.8873 101.648 30.3234C101.102 29.7407 100.83 28.782 100.83 27.4473C100.83 25.8307 100.839 24.2141 100.858 22.5975C100.877 20.9809 100.886 19.3643 100.886 17.7477H99.5892C99.4012 17.7477 99.2414 17.8135 99.1098 17.945C98.9783 18.0578 98.8561 18.1142 98.7433 18.1142C98.5553 18.1142 98.4613 18.0202 98.4613 17.8323C98.4613 17.7571 98.4989 17.6161 98.5741 17.4093C98.6493 17.2025 98.7057 17.0709 98.7433 17.0145C98.7997 16.9018 98.8561 16.836 98.9125 16.8172C98.9689 16.7984 99.0534 16.789 99.1662 16.789H100.914V13.7719C101.384 13.5088 101.901 13.1234 102.465 12.6159C103.029 12.1083 103.462 11.6384 103.762 11.206C103.819 11.112 103.894 11.018 103.988 10.9241C104.082 10.8113 104.195 10.7549 104.326 10.7549C104.627 10.7549 104.768 10.8865 104.749 11.1496L104.665 16.789H107.569C107.719 16.789 107.851 16.8266 107.964 16.9018C108.095 16.9582 108.161 17.0709 108.161 17.2401C108.161 17.5973 107.964 17.7759 107.569 17.7759H104.665L104.608 28.6598C104.608 28.9606 104.665 29.2519 104.777 29.5339C104.909 29.7971 105.153 29.9286 105.51 29.9286C105.83 29.9286 106.15 29.9004 106.469 29.8441C106.808 29.7877 107.118 29.6937 107.4 29.5621C107.494 29.5245 107.578 29.4869 107.653 29.4493C107.747 29.3929 107.841 29.3647 107.935 29.3647C108.161 29.3647 108.274 29.4587 108.274 29.6467ZM117.722 28.0113C117.665 27.1278 117.628 26.2443 117.609 25.3608C117.59 24.4585 117.59 23.5562 117.609 22.6539C116.838 22.7855 116.086 23.0298 115.353 23.387C114.639 23.7254 114.047 24.1859 113.577 24.7686C113.107 25.3514 112.872 26.0939 112.872 26.9962C112.872 27.3721 112.919 27.7763 113.013 28.2086C113.126 28.641 113.314 29.0076 113.577 29.3083C113.859 29.5903 114.235 29.7313 114.705 29.7313C115.043 29.7313 115.4 29.6373 115.776 29.4493C116.152 29.2425 116.509 29.0076 116.848 28.7444C117.205 28.4812 117.496 28.2368 117.722 28.0113ZM123.53 29.6749C123.53 29.7501 123.493 29.8347 123.417 29.9286C123.361 30.0226 123.305 30.0978 123.248 30.1542C122.665 30.8309 121.914 31.1693 120.992 31.1693C120.184 31.1693 119.536 30.9907 119.047 30.6336C118.558 30.2764 118.182 29.7219 117.919 28.97C117.318 29.6091 116.669 30.1166 115.973 30.4926C115.297 30.8685 114.498 31.0565 113.577 31.0565C112.919 31.0565 112.251 30.9155 111.575 30.6336C110.917 30.3328 110.362 29.9098 109.911 29.3647C109.479 28.8196 109.263 28.1898 109.263 27.4755C109.263 26.7612 109.441 26.1315 109.798 25.5864C110.174 25.0224 110.644 24.5431 111.208 24.1483C111.772 23.7348 112.345 23.3964 112.928 23.1332C113.68 22.8137 114.451 22.5693 115.24 22.4001C116.03 22.2121 116.819 22.0242 117.609 21.8362V21.7234C117.609 21.385 117.599 20.9339 117.581 20.37C117.581 19.7872 117.524 19.2139 117.411 18.65C117.299 18.0672 117.111 17.5785 116.848 17.1837C116.584 16.7702 116.199 16.5634 115.691 16.5634C115.109 16.5634 114.582 16.7326 114.112 17.0709C113.661 17.4093 113.342 17.8605 113.154 18.4244C113.116 18.5936 113.088 18.7627 113.069 18.9319C113.05 19.0823 113.022 19.2421 112.985 19.4113C112.947 19.712 112.768 19.9188 112.449 20.0316C112.148 20.1256 111.866 20.1726 111.603 20.1726C111.283 20.1726 110.973 20.1068 110.672 19.9752C110.372 19.8248 110.221 19.5523 110.221 19.1575C110.221 19.0071 110.24 18.8755 110.278 18.7627C110.334 18.6312 110.391 18.4996 110.447 18.368C110.748 17.6537 111.199 17.1273 111.8 16.789C112.402 16.4506 113.06 16.225 113.774 16.1123C114.507 15.9995 115.203 15.9431 115.861 15.9431C117.402 15.9431 118.671 16.3566 119.667 17.1837C120.664 18.0108 121.162 19.2327 121.162 20.8493V25.107C121.143 25.6333 121.133 26.1785 121.133 26.7424C121.152 27.2876 121.18 27.8327 121.218 28.3778C121.256 28.6974 121.331 29.0076 121.444 29.3083C121.556 29.5903 121.81 29.7313 122.205 29.7313C122.468 29.7313 122.684 29.6749 122.853 29.5621C123.041 29.4493 123.211 29.3929 123.361 29.3929C123.436 29.3929 123.483 29.4305 123.502 29.5057C123.521 29.5809 123.53 29.6373 123.53 29.6749ZM140.418 30.5772C140.418 30.7276 140.362 30.8309 140.249 30.8873C140.155 30.9249 140.052 30.9531 139.939 30.9719C139.488 31.0095 139.037 31.0283 138.586 31.0283C138.135 31.0471 137.693 31.0565 137.26 31.0565C137.016 31.0565 136.753 31.0471 136.471 31.0283C136.208 31.0095 135.963 30.9625 135.738 30.8873C135.493 30.8121 135.287 30.6712 135.117 30.4644C134.948 30.2576 134.798 30.0414 134.666 29.8159C133.971 28.594 133.266 27.3815 132.552 26.1785C131.837 24.9754 131.151 23.7536 130.493 22.5129L129.788 22.9923V29.4775C129.788 29.8159 129.854 30.032 129.986 30.126C130.136 30.22 130.324 30.2576 130.55 30.2388C130.794 30.2012 131.057 30.1824 131.339 30.1824C131.602 30.1824 131.734 30.3328 131.734 30.6336C131.734 30.9343 131.584 31.0847 131.283 31.0847C130.738 31.0847 130.192 31.0659 129.647 31.0283C129.121 30.9907 128.585 30.9719 128.04 30.9719C127.495 30.9719 126.95 30.9907 126.405 31.0283C125.86 31.0847 125.314 31.1129 124.769 31.1129C124.657 31.1129 124.563 31.0659 124.487 30.9719C124.431 30.8591 124.403 30.7464 124.403 30.6336C124.403 30.3516 124.553 30.2106 124.854 30.2106C125.042 30.2106 125.22 30.22 125.39 30.2388C125.559 30.2388 125.737 30.2388 125.925 30.2388C126.151 30.2388 126.283 30.1636 126.32 30.0132C126.358 29.8629 126.377 29.6937 126.377 29.5057C126.395 29.2425 126.405 28.9794 126.405 28.7162C126.424 28.453 126.433 28.1992 126.433 27.9549V14.2795C126.433 13.8659 126.424 13.4618 126.405 13.067C126.405 12.6723 126.395 12.2681 126.377 11.8545C126.358 11.6478 126.32 11.4222 126.264 11.1778C126.226 10.9335 126.066 10.8113 125.784 10.8113C125.596 10.8113 125.408 10.8207 125.22 10.8395C125.051 10.8583 124.873 10.8677 124.685 10.8677C124.384 10.8677 124.234 10.7361 124.234 10.4729C124.234 10.2849 124.337 10.1627 124.544 10.1064C124.769 10.05 125.004 10.0124 125.249 9.99356C125.493 9.97477 125.728 9.94657 125.954 9.90897C126.48 9.81499 126.997 9.7022 127.504 9.57061C128.031 9.43903 128.557 9.30744 129.083 9.17586C129.14 9.15706 129.187 9.14766 129.224 9.14766C129.281 9.12887 129.337 9.11947 129.394 9.11947C129.676 9.11947 129.817 9.24165 129.817 9.48602C129.817 11.5914 129.807 13.6967 129.788 15.8021C129.77 17.8886 129.76 19.9752 129.76 22.0618C130.418 21.5542 131.085 21.0467 131.762 20.5391C132.439 20.0128 133.078 19.4583 133.679 18.8755C133.961 18.5936 134.253 18.3116 134.554 18.0296C134.854 17.7289 135.117 17.4187 135.343 17.0991C135.493 16.8924 135.578 16.695 135.597 16.507C135.634 16.3002 135.681 16.1311 135.738 15.9995C135.813 15.8679 135.973 15.8021 136.217 15.8021C136.706 15.8021 137.195 15.8115 137.683 15.8303C138.172 15.8303 138.651 15.8303 139.121 15.8303C139.403 15.8303 139.544 15.9525 139.544 16.1968C139.544 16.4036 139.479 16.5258 139.347 16.5634C139.215 16.601 139.074 16.6198 138.924 16.6198C138.642 16.6198 138.341 16.6762 138.022 16.789C137.721 16.9018 137.467 17.0333 137.26 17.1837C136.546 17.7289 135.841 18.3022 135.146 18.9037C134.469 19.4865 133.783 20.0786 133.087 20.6801C133.275 20.9997 133.557 21.4884 133.933 22.1464C134.328 22.8043 134.77 23.5374 135.258 24.3457C135.747 25.154 136.245 25.9435 136.753 26.7142C137.26 27.4849 137.721 28.1617 138.135 28.7444C138.567 29.3083 138.905 29.6843 139.15 29.8723C139.319 30.0038 139.479 30.0884 139.629 30.126C139.779 30.1636 139.949 30.2106 140.137 30.267C140.324 30.3234 140.418 30.4268 140.418 30.5772Z" fill="#303030"/>
<path d="M52.9894 18.6669L44.5278 4.00012H34.9196L31.8283 9.35915H41.433L46.8026 18.6669L41.433 27.9747H31.8283L34.9196 33.3338H44.5278L52.9894 18.6669Z" fill="#49CEA6"/>
<path d="M30.6997 27.9747L25.3294 18.6669L30.6997 9.35915L33.7911 4.00012H27.6042L19.1426 18.6669L27.6042 33.3338H33.7911L30.6997 27.9747Z" fill="#9BF1D7"/>
</svg>
