<svg width="159" height="46" viewBox="0 0 159 46" fill="none" xmlns="http://www.w3.org/2000/svg">
<path d="M65.3631 36.348C62.7891 36.348 60.7484 35.6523 59.241 34.2609C57.7569 32.8695 57.0148 30.9679 57.0148 28.5562V10.6073H62.2325V28.5214C62.2325 29.5882 62.4992 30.4114 63.0326 30.9911C63.5891 31.5477 64.366 31.826 65.3631 31.826C66.3371 31.826 67.1024 31.5477 67.6589 30.9911C68.2155 30.4114 68.4937 29.5882 68.4937 28.5214V10.6073H73.7114V28.5562C73.7114 30.9448 72.9578 32.8463 71.4504 34.2609C69.9663 35.6523 67.9372 36.348 65.3631 36.348ZM77.872 36.0001V10.6073H83.9593L90.5336 30.2607C90.464 29.4026 90.3829 28.4171 90.2901 27.304C90.1973 26.1677 90.1162 25.043 90.0466 23.9299C90.0002 22.7936 89.977 21.8312 89.977 21.0427V10.6073H94.5686V36.0001H88.4813L81.9766 16.3468C82.0461 17.0889 82.1157 17.9701 82.1853 18.9904C82.2549 20.0108 82.3128 21.0427 82.3592 22.0863C82.4288 23.1298 82.4636 24.0574 82.4636 24.869V36.0001H77.872ZM99.2509 36.0001V31.1303L108.573 15.4772H99.5292V10.6073H114.521V15.4772L105.164 31.1303H114.904V36.0001H99.2509ZM127.935 36.348C126.242 36.348 124.769 36.0349 123.517 35.4088C122.265 34.7595 121.291 33.8667 120.595 32.7304C119.923 31.5709 119.586 30.2259 119.586 28.6954V17.9121C119.586 16.3816 119.923 15.0482 120.595 13.9119C121.291 12.7524 122.265 11.8596 123.517 11.2335C124.769 10.5842 126.242 10.2595 127.935 10.2595C129.651 10.2595 131.123 10.5842 132.352 11.2335C133.605 11.8596 134.567 12.7524 135.239 13.9119C135.935 15.0482 136.283 16.3816 136.283 17.9121V28.6954C136.283 30.2259 135.935 31.5709 135.239 32.7304C134.567 33.8667 133.605 34.7595 132.352 35.4088C131.123 36.0349 129.651 36.348 127.935 36.348ZM127.935 31.826C128.978 31.826 129.755 31.5593 130.265 31.0259C130.799 30.4694 131.065 29.6925 131.065 28.6954V17.9121C131.065 16.8918 130.81 16.1149 130.3 15.5816C129.79 15.0482 129.001 14.7815 127.935 14.7815C126.868 14.7815 126.079 15.0482 125.569 15.5816C125.059 16.1149 124.804 16.8918 124.804 17.9121V28.6954C124.804 29.6925 125.059 30.4694 125.569 31.0259C126.103 31.5593 126.891 31.826 127.935 31.826Z" fill="#303030"/>
<path d="M35.7038 16.2947L32.1097 10.0697H26.9651L35.7038 25.2058L44.4426 10.0697H39.2979L35.7038 16.2947Z" fill="#FF6B62"/>
<path d="M45.6399 10.0698L35.7042 27.2785L25.7685 10.0698H20.1426L35.7042 37.0245L51.2658 10.0698H45.6399Z" fill="#5282FF"/>
</svg>
