<svg width="159" height="52" viewBox="0 0 159 52" fill="none" xmlns="http://www.w3.org/2000/svg">
<path d="M79.1826 41.9454C80.0485 41.9454 80.4814 41.2342 80.4814 39.8116C80.4814 39.3663 80.4567 38.9272 80.4072 38.4943C80.3454 37.9376 80.3145 36.0698 80.3145 32.8907C80.3145 30.0457 80.2897 27.2068 80.2402 24.3741C80.1908 21.5291 80.0547 18.684 79.832 15.839C79.8197 15.7648 79.8135 15.6844 79.8135 15.5978C79.8135 15.3133 79.7702 15.0411 79.6836 14.7814C79.4609 14.2742 79.096 14.0206 78.5889 14.0206C78.3786 14.0206 78.0755 14.1505 77.6797 14.4103C76.987 14.7814 76.3932 15.2762 75.8984 15.8947C75.5768 16.34 75.2367 16.7667 74.8779 17.1749L74.2285 17.9913C74.1172 18.1398 74.012 18.214 73.9131 18.214C73.8141 18.214 73.7028 18.1521 73.5791 18.0284L73.0596 17.5089C72.54 17.0389 72.0947 16.5008 71.7236 15.8947C71.3896 15.3628 70.9567 14.9298 70.4248 14.5958C70.1032 14.3855 69.7939 14.2804 69.4971 14.2804C68.7673 14.2804 68.359 14.7257 68.2725 15.6163C68.2106 17.1007 68.1797 18.8263 68.1797 20.7931C68.1797 27.0275 68.3838 32.1486 68.792 36.1564L69.2373 40.3126C69.3115 41.0795 69.7383 41.4692 70.5176 41.4816C71.2598 41.395 71.6494 40.9682 71.6865 40.2013C71.6865 39.657 71.4453 36.8553 70.9629 31.796C70.8145 29.5942 70.7402 26.9594 70.7402 23.8917C70.7402 21.9497 70.734 20.49 70.7217 19.5128C70.7093 19.4757 70.7031 19.3335 70.7031 19.0861C70.7155 19.0242 70.7773 18.9624 70.8887 18.9005C71.6432 19.6056 72.1689 20.1808 72.4658 20.6261C72.8864 21.1951 73.3255 21.4796 73.7832 21.4796C74.2038 21.4796 74.6367 21.2384 75.082 20.756C75.9232 19.8035 76.6777 18.9314 77.3457 18.1398C77.6549 21.7765 77.8096 25.0545 77.8096 27.9738C77.7601 29.6437 77.7354 31.3136 77.7354 32.9835C77.7354 35.408 77.791 37.8325 77.9023 40.257C77.9766 41.3084 78.4033 41.8712 79.1826 41.9454ZM85.7324 41.6115C86.4993 41.5867 86.9199 41.0981 86.9941 40.1456L87.0127 39.6818C87.0127 39.3107 86.988 38.9334 86.9385 38.5499C86.6169 34.5792 86.4561 26.9532 86.4561 15.672L86.4746 15.5421C86.4746 15.3442 86.4437 15.1401 86.3818 14.9298C86.2334 14.3113 85.8623 14.0021 85.2686 14.0021C84.749 14.0021 84.3717 14.2433 84.1367 14.7257C83.9017 15.27 83.7842 17.9666 83.7842 22.8156C83.7842 27.8624 84.0192 33.6453 84.4893 40.1642C84.6006 41.0672 85.015 41.5496 85.7324 41.6115ZM93.3398 41.5558L93.5996 41.5372C94.2428 41.3764 94.5645 40.9559 94.5645 40.2755L94.5273 39.9044C94.1934 37.9253 94.0016 35.9337 93.9521 33.9298C93.9274 33.1258 93.8903 32.3217 93.8408 31.5177C93.7542 30.2065 93.7109 28.8953 93.7109 27.5841L93.748 25.3761C93.748 24.337 93.68 22.5929 93.5439 20.1437C93.5439 19.9458 93.5872 19.785 93.6738 19.6613L94.6572 20.9601C95.82 22.531 97.0322 24.034 98.2939 25.4689C98.6898 25.9266 98.8877 26.4585 98.8877 27.0646L98.9805 31.2765C99.0547 33.1814 99.0918 35.0802 99.0918 36.9728C99.0918 38.4943 99.0794 39.4282 99.0547 39.7745C99.0547 40.0467 99.098 40.3188 99.1846 40.5909C99.3949 41.1723 99.7907 41.463 100.372 41.463C101.176 41.3888 101.578 40.894 101.578 39.9786C101.578 36.0079 101.541 32.6001 101.467 29.755C101.393 26.91 101.201 24.0711 100.892 21.2384C100.892 21.2013 100.885 21.1704 100.873 21.1456C100.675 19.5128 100.576 18.2511 100.576 17.3605C100.576 17.0636 100.619 16.3956 100.706 15.3566C100.706 15.0226 100.595 14.7319 100.372 14.4845C100.162 14.2247 99.8587 14.0948 99.4629 14.0948C99.1536 14.0948 98.8877 14.2062 98.665 14.4288C98.2692 14.8247 98.0713 15.7833 98.0713 17.3048C98.0713 17.7501 98.1455 18.7706 98.2939 20.3663L98.3682 21.4054L98.2197 21.4796L93.2285 14.9113C92.9811 14.5896 92.6781 14.4288 92.3193 14.4288C92.1833 14.4288 92.041 14.4474 91.8926 14.4845C91.373 14.67 91.07 15.035 90.9834 15.5792C90.9463 15.9503 90.9277 16.3709 90.9277 16.8409C91.1009 19.7107 91.1875 22.8527 91.1875 26.2667C91.1999 29.755 91.3359 33.2371 91.5957 36.713C91.5957 37.9005 91.7565 39.1375 92.0781 40.424C92.3132 41.1785 92.7337 41.5558 93.3398 41.5558ZM111.152 41.463C112.006 41.3517 112.433 40.7023 112.433 39.5148L112.414 38.8468C112.303 37.8201 112.247 36.7872 112.247 35.7482L112.284 32.6866C112.284 31.9939 112.229 29.4643 112.117 25.0978C112.055 24.0092 112.024 22.9269 112.024 21.8507C112.024 20.3169 112.086 18.783 112.21 17.2491C112.259 16.7791 112.426 16.5441 112.711 16.5441C113.911 16.5441 115.018 16.4637 116.032 16.3029C116.638 16.0307 116.941 15.6287 116.941 15.0968C116.941 14.9236 116.904 14.7443 116.83 14.5587C116.546 13.9897 116.137 13.7052 115.605 13.7052C115.457 13.7052 115.296 13.7299 115.123 13.7794C113.28 13.965 111.369 14.0577 109.39 14.0577C108.549 14.0577 107.689 14.0392 106.811 14.0021C105.71 14.0021 105.11 14.4165 105.011 15.2452C105.011 16.1359 105.561 16.643 106.662 16.7667C107.281 16.7915 107.8 16.8038 108.221 16.8038L108.981 16.7853C109.291 16.7853 109.445 16.9213 109.445 17.1935L109.427 17.3419C109.315 18.9871 109.26 20.5457 109.26 22.0177C109.26 22.9949 109.285 23.935 109.334 24.838C109.458 27.8934 109.52 30.8868 109.52 33.8185C109.507 35.0184 109.495 35.7296 109.482 35.9523C109.495 37.2882 109.557 38.6303 109.668 39.9786C109.717 40.4611 109.872 40.8322 110.132 41.0919C110.392 41.3393 110.732 41.463 111.152 41.463ZM122.062 41.6115C122.829 41.5867 123.25 41.0981 123.324 40.1456L123.343 39.6818C123.343 39.3107 123.318 38.9334 123.269 38.5499C122.947 34.5792 122.786 26.9532 122.786 15.672L122.805 15.5421C122.805 15.3442 122.774 15.1401 122.712 14.9298C122.563 14.3113 122.192 14.0021 121.599 14.0021C121.079 14.0021 120.702 14.2433 120.467 14.7257C120.232 15.27 120.114 17.9666 120.114 22.8156C120.114 27.8624 120.349 33.6453 120.819 40.1642C120.931 41.0672 121.345 41.5496 122.062 41.6115Z" fill="#303030"/>
<path d="M39.1605 25.5757C39.2609 25.4691 39.3814 25.3832 39.515 25.3231C39.6486 25.263 39.7928 25.2297 39.9392 25.2253C40.0857 25.2209 40.2316 25.2454 40.3686 25.2974C40.5056 25.3494 40.631 25.4279 40.7376 25.5283C45.8713 30.3643 51.0225 33.3066 57.0842 34.8064C57.9021 32.5752 57.9746 30.1196 57.2683 27.7239C56.3312 24.5452 54.1489 21.7758 50.959 19.7155C48.1115 17.8762 45.2654 17.3972 42.5121 16.9343C39.0385 16.35 35.7573 15.7978 32.626 12.4824C32.2774 12.1157 31.8026 11.9686 31.3487 12.0878C30.83 12.2273 30.4821 12.6372 30.3154 13.3149C29.925 14.9011 30.176 19.3467 31.2741 24.0397C33.0374 31.5796 35.8514 35.3948 37.902 37.2683C40.5515 39.687 44.0111 41.0264 47.4492 41.0264C48.0972 41.0274 48.7444 40.9799 49.3854 40.8841C52.2935 40.4435 54.7143 38.9828 56.0788 36.8576C49.8393 35.2345 44.5089 32.1478 39.2058 27.155C39.099 27.0544 39.013 26.9337 38.9529 26.7998C38.8928 26.6659 38.8596 26.5215 38.8554 26.3748C38.8512 26.2281 38.876 26.082 38.9283 25.9449C38.9807 25.8077 39.0596 25.6823 39.1605 25.5757ZM60.5013 35.4897C59.3279 35.3091 58.1914 35.0825 57.0849 34.8085C56.8574 35.4295 56.5744 36.0288 56.2392 36.599C56.1883 36.6861 56.1346 36.7726 56.0795 36.8576C57.4253 37.206 58.7881 37.4853 60.1625 37.6943C60.3087 37.72 60.4586 37.7163 60.6034 37.6833C60.7482 37.6503 60.8849 37.5887 61.0056 37.5022C61.1263 37.4157 61.2285 37.306 61.3062 37.1794C61.3839 37.0529 61.4356 36.9122 61.4582 36.7654C61.4808 36.6186 61.4738 36.4689 61.4378 36.3248C61.4018 36.1808 61.3373 36.0454 61.2483 35.9265C61.1592 35.8077 61.0473 35.7079 60.9192 35.6329C60.7911 35.5578 60.6492 35.5092 60.502 35.4897H60.5013Z" fill="#FF69B1"/>
</svg>
