<svg width="160" height="39" viewBox="0 0 160 39" fill="none" xmlns="http://www.w3.org/2000/svg">
<path d="M36.9726 31.2701C35.8326 31.2701 34.6926 31.2301 33.5526 31.1501C32.4326 31.0901 31.2626 30.9301 30.0426 30.6701V10.5101C31.0026 10.3301 32.0526 10.2001 33.1926 10.1201C34.3326 10.0201 35.3926 9.97012 36.3726 9.97012C37.6926 9.97012 38.9026 10.0701 40.0026 10.2701C41.1226 10.4501 42.0826 10.7701 42.8826 11.2301C43.6826 11.6901 44.3026 12.3001 44.7426 13.0601C45.2026 13.8001 45.4326 14.7201 45.4326 15.8201C45.4326 17.4801 44.6326 18.7901 43.0326 19.7501C44.3526 20.2501 45.2526 20.9301 45.7326 21.7901C46.2126 22.6501 46.4526 23.6201 46.4526 24.7001C46.4526 26.8801 45.6526 28.5201 44.0526 29.6201C42.4726 30.7201 40.1126 31.2701 36.9726 31.2701ZM34.6026 21.9401V27.3101C34.9426 27.3501 35.3126 27.3801 35.7126 27.4001C36.1126 27.4201 36.5526 27.4301 37.0326 27.4301C38.4326 27.4301 39.5626 27.2301 40.4226 26.8301C41.2826 26.4301 41.7126 25.6901 41.7126 24.6101C41.7126 23.6501 41.3526 22.9701 40.6326 22.5701C39.9126 22.1501 38.8826 21.9401 37.5426 21.9401H34.6026ZM34.6026 18.3701H36.8826C38.3226 18.3701 39.3526 18.1901 39.9726 17.8301C40.5926 17.4501 40.9026 16.8501 40.9026 16.0301C40.9026 15.1901 40.5826 14.6001 39.9426 14.2601C39.3026 13.9201 38.3626 13.7501 37.1226 13.7501C36.7226 13.7501 36.2926 13.7601 35.8326 13.7801C35.3726 13.7801 34.9626 13.8001 34.6026 13.8401V18.3701ZM54.3688 31.0001H49.8988V15.2201H54.3688V31.0001ZM54.7888 10.6601C54.7888 11.4801 54.5188 12.1301 53.9788 12.6101C53.4588 13.0701 52.8388 13.3001 52.1188 13.3001C51.3988 13.3001 50.7688 13.0701 50.2288 12.6101C49.7088 12.1301 49.4488 11.4801 49.4488 10.6601C49.4488 9.84012 49.7088 9.20012 50.2288 8.74012C50.7688 8.26012 51.3988 8.02012 52.1188 8.02012C52.8388 8.02012 53.4588 8.26012 53.9788 8.74012C54.5188 9.20012 54.7888 9.84012 54.7888 10.6601ZM58.4207 11.2901L62.8907 10.5701V15.2201H68.2607V18.9401H62.8907V24.4901C62.8907 25.4301 63.0507 26.1801 63.3707 26.7401C63.7107 27.3001 64.3807 27.5801 65.3807 27.5801C65.8607 27.5801 66.3507 27.5401 66.8507 27.4601C67.3707 27.3601 67.8407 27.2301 68.2607 27.0701L68.8907 30.5501C68.3507 30.7701 67.7507 30.9601 67.0907 31.1201C66.4307 31.2801 65.6207 31.3601 64.6607 31.3601C63.4407 31.3601 62.4307 31.2001 61.6307 30.8801C60.8307 30.5401 60.1907 30.0801 59.7107 29.5001C59.2307 28.9001 58.8907 28.1801 58.6907 27.3401C58.5107 26.5001 58.4207 25.5701 58.4207 24.5501V11.2901Z" fill="#263238"/>
<path d="M109.773 27.8801C110.213 27.8801 110.633 27.8701 111.033 27.8501C111.433 27.8301 111.753 27.8001 111.993 27.7601V24.3701C111.813 24.3301 111.543 24.2901 111.183 24.2501C110.823 24.2101 110.493 24.1901 110.193 24.1901C109.773 24.1901 109.373 24.2201 108.993 24.2801C108.633 24.3201 108.313 24.4101 108.033 24.5501C107.753 24.6901 107.533 24.8801 107.373 25.1201C107.213 25.3601 107.133 25.6601 107.133 26.0201C107.133 26.7201 107.363 27.2101 107.823 27.4901C108.303 27.7501 108.953 27.8801 109.773 27.8801ZM109.413 14.8001C110.733 14.8001 111.833 14.9501 112.713 15.2501C113.593 15.5501 114.293 15.9801 114.813 16.5401C115.353 17.1001 115.733 17.7801 115.953 18.5801C116.173 19.3801 116.283 20.2701 116.283 21.2501V30.5501C115.643 30.6901 114.753 30.8501 113.613 31.0301C112.473 31.2301 111.093 31.3301 109.473 31.3301C108.453 31.3301 107.523 31.2401 106.683 31.0601C105.863 30.8801 105.153 30.5901 104.553 30.1901C103.953 29.7701 103.493 29.2301 103.173 28.5701C102.853 27.9101 102.693 27.1001 102.693 26.1401C102.693 25.2201 102.873 24.4401 103.233 23.8001C103.613 23.1601 104.113 22.6501 104.733 22.2701C105.353 21.8901 106.063 21.6201 106.863 21.4601C107.663 21.2801 108.493 21.1901 109.353 21.1901C109.933 21.1901 110.443 21.2201 110.883 21.2801C111.343 21.3201 111.713 21.3801 111.993 21.4601V21.0401C111.993 20.2801 111.763 19.6701 111.303 19.2101C110.843 18.7501 110.043 18.5201 108.903 18.5201C108.143 18.5201 107.393 18.5801 106.653 18.7001C105.913 18.8001 105.273 18.9501 104.733 19.1501L104.163 15.5501C104.423 15.4701 104.743 15.3901 105.123 15.3101C105.523 15.2101 105.953 15.1301 106.413 15.0701C106.873 14.9901 107.353 14.9301 107.853 14.8901C108.373 14.8301 108.893 14.8001 109.413 14.8001ZM126.595 20.0201L129.715 15.2201H134.335L128.935 22.8101C130.135 24.3101 131.225 25.7701 132.205 27.1901C133.185 28.6101 133.965 29.8801 134.545 31.0001H129.745C129.585 30.7001 129.385 30.3301 129.145 29.8901C128.905 29.4301 128.635 28.9601 128.335 28.4801C128.035 27.9801 127.715 27.4901 127.375 27.0101C127.055 26.5101 126.735 26.0601 126.415 25.6601C126.115 26.0401 125.805 26.4601 125.485 26.9201C125.185 27.3801 124.895 27.8501 124.615 28.3301C124.335 28.7901 124.055 29.2501 123.775 29.7101C123.515 30.1701 123.285 30.6001 123.085 31.0001H118.525C118.765 30.5001 119.095 29.9101 119.515 29.2301C119.935 28.5501 120.385 27.8501 120.865 27.1301C121.365 26.3901 121.885 25.6601 122.425 24.9401C122.965 24.2001 123.495 23.5101 124.015 22.8701C123.115 21.6101 122.215 20.3401 121.315 19.0601C120.415 17.7601 119.525 16.4801 118.645 15.2201H123.475L126.595 20.0201Z" fill="#263238"/>
<path d="M80.1426 11.0001L88.3698 29.7501H71.9153L80.1426 11.0001Z" fill="#FEBA66"/>
<path d="M90.1426 11.0001L98.3698 29.7501H81.9153L90.1426 11.0001Z" fill="#EDA54C"/>
</svg>
