<svg width="93" height="37" viewBox="0 0 93 37" fill="none" xmlns="http://www.w3.org/2000/svg">
<path d="M0.6427 22.7436V0.00012207H14.1729V22.7325H0.6427V22.7436ZM12.5336 17.4524L12.8817 14.9401L11.624 14.8179L11.2423 16.7521C10.4563 17.1411 9.49067 17.3301 8.33414 17.3301C6.76217 17.3301 5.51581 16.841 4.60631 15.8517C3.68559 14.8623 3.23645 13.5618 3.23645 11.9388C3.23645 10.3603 3.68559 9.05974 4.57263 8.03706C5.45967 7.01438 6.62745 6.50304 8.07591 6.50304C8.81699 6.50304 9.44576 6.59196 9.95103 6.7587C10.4563 6.92545 10.9167 7.14777 11.3546 7.43679L11.7251 9.34875L13.0052 9.22648L12.6346 6.71424C12.0957 6.25848 11.4556 5.89165 10.7146 5.60263C9.97348 5.32473 9.05277 5.18022 7.96362 5.18022C6.67236 5.18022 5.56075 5.49147 4.62879 6.12509C3.69684 6.75871 2.96699 7.59241 2.45049 8.62621C1.93398 9.67112 1.67573 10.7938 1.67573 11.9944C1.67573 13.8952 2.27083 15.4848 3.46103 16.7521C4.65124 18.0193 6.20075 18.6529 8.1208 18.6529C10.0072 18.6529 11.4781 18.2527 12.5336 17.4524Z" fill="#263238"/>
<path d="M18.7655 22.7436V0.00012207H24.5818V22.7325H18.7655V22.7436ZM19.3831 18.4528H23.9755V17.3079H22.3923V4.6133H19.3606V5.75826H20.9663V17.3079H19.3831V18.4528Z" fill="#263238"/>
<path d="M29.174 22.7436V0.00012207H39.3918V22.7325H29.174V22.7436ZM31.0266 10.1825L30.701 12.2501L31.88 12.3946L32.2281 10.8494C32.7333 10.6049 33.306 10.4826 33.9797 10.4826C34.7881 10.4826 35.3384 10.6827 35.6191 11.0829C35.8998 11.483 36.0345 12.0055 36.0345 12.6502V13.4506C35.7875 13.4284 35.5292 13.4061 35.2485 13.395C34.9678 13.3839 34.6983 13.3728 34.4289 13.3728C33.4183 13.3728 32.4526 13.5506 31.5544 13.9064C30.6561 14.2621 30.207 15.0068 30.207 16.1296C30.207 17.0856 30.5101 17.7414 31.1277 18.0971C31.7453 18.4639 32.3516 18.6418 32.9467 18.6418C33.6765 18.6418 34.3053 18.4528 34.8218 18.0749C35.3383 17.6969 35.7426 17.2745 36.0345 16.7854V16.8299C36.057 18.0415 36.6072 18.6418 37.6851 18.6418C38.1005 18.6418 38.4935 18.5418 38.864 18.3417L38.8416 17.419C38.6619 17.4968 38.4598 17.5413 38.2353 17.5413C37.7188 17.5413 37.4605 17.2189 37.4605 16.5742V12.3167C37.4605 10.3159 36.3826 9.31541 34.2267 9.31541C33.6316 9.31541 33.0702 9.3821 32.5425 9.5155C32.0035 9.66001 31.4982 9.88233 31.0266 10.1825ZM36.0233 15.0958C35.9671 15.8294 35.664 16.4186 35.1138 16.841C34.5636 17.2745 33.9797 17.4857 33.3509 17.4857C32.9579 17.4857 32.5762 17.3746 32.2169 17.1634C31.8463 16.9522 31.6667 16.552 31.6667 15.9739C31.6667 15.2736 31.9474 14.829 32.4863 14.6178C33.0365 14.4066 33.6428 14.3065 34.3278 14.3065C34.6309 14.3065 34.9229 14.3176 35.2036 14.351C35.4843 14.3732 35.765 14.3955 36.012 14.4066V15.0958H36.0233Z" fill="#263238"/>
<path d="M43.9962 22.7436V0.00012207H53.2821V22.7325H43.9962V22.7436ZM52.3052 15.8628C52.3052 15.1514 52.1143 14.6289 51.7325 14.2843C51.3508 13.9397 50.8904 13.7063 50.329 13.5729C49.7676 13.4395 49.2174 13.3283 48.6672 13.2394C48.117 13.1505 47.6454 13.0059 47.2637 12.817C46.8819 12.628 46.691 12.2945 46.691 11.8165C46.691 11.3608 46.8707 11.0273 47.2412 10.805C47.6117 10.5826 48.0721 10.4826 48.6447 10.4826C49.3072 10.4826 49.9248 10.6271 50.4975 10.9272L50.722 12.3723L51.901 12.2278L51.6764 10.138C51.2947 9.90456 50.8343 9.71558 50.2841 9.55996C49.7339 9.40433 49.15 9.31541 48.5212 9.31541C47.6903 9.31541 46.9268 9.51549 46.2194 9.90456C45.5121 10.2936 45.164 10.9606 45.164 11.9166C45.164 12.6169 45.3548 13.1282 45.7366 13.4506C46.1184 13.7841 46.59 14.0064 47.1626 14.1398C47.7353 14.2732 48.2967 14.3843 48.8581 14.4844C49.4195 14.5733 49.8911 14.7289 50.2729 14.929C50.6546 15.1291 50.8455 15.4737 50.8455 15.9739C50.8455 16.4853 50.5985 16.8632 50.1044 17.1078C49.6104 17.3523 49.049 17.4746 48.409 17.4746C47.6903 17.4746 47.0166 17.3301 46.3991 17.03L46.4552 15.8406L45.3212 15.7183L45.0404 17.7525C45.4334 18.0082 45.9499 18.2194 46.5787 18.3861C47.2075 18.5529 47.8363 18.6418 48.4763 18.6418C49.5655 18.6418 50.475 18.3973 51.2048 17.897C51.9347 17.419 52.3052 16.7298 52.3052 15.8628Z" fill="#263238"/>
<path d="M57.8732 22.7436V0.00012207H67.159V22.7325H57.8732V22.7436ZM66.1821 15.8628C66.1821 15.1514 65.9912 14.6289 65.6095 14.2843C65.2277 13.9397 64.7673 13.7063 64.2059 13.5729C63.6445 13.4395 63.0943 13.3283 62.5441 13.2394C61.994 13.1505 61.5224 13.0059 61.1406 12.817C60.7588 12.628 60.5679 12.2945 60.5679 11.8165C60.5679 11.3608 60.7476 11.0273 61.1181 10.805C61.4887 10.5826 61.949 10.4826 62.5217 10.4826C63.1841 10.4826 63.8017 10.6271 64.3744 10.9272L64.599 12.3723L65.7779 12.2278L65.5533 10.138C65.1716 9.90456 64.7112 9.71558 64.161 9.55996C63.6108 9.40433 63.027 9.31541 62.3982 9.31541C61.5673 9.31541 60.8038 9.51549 60.0964 9.90456C59.389 10.2936 59.0409 10.9606 59.0409 11.9166C59.0409 12.6169 59.2318 13.1282 59.6136 13.4506C59.9953 13.7841 60.4669 14.0064 61.0396 14.1398C61.6122 14.2732 62.1736 14.3843 62.735 14.4844C63.2964 14.5733 63.768 14.7289 64.1498 14.929C64.5316 15.1291 64.7224 15.4737 64.7224 15.9739C64.7224 16.4853 64.4755 16.8632 63.9814 17.1078C63.4874 17.3523 62.9259 17.4746 62.2859 17.4746C61.5673 17.4746 60.8935 17.3301 60.276 17.03L60.3322 15.8406L59.1981 15.7183L58.9174 17.7525C59.3104 18.0082 59.8269 18.2194 60.4557 18.3861C61.0845 18.5529 61.7133 18.6418 62.3533 18.6418C63.4424 18.6418 64.3519 18.3973 65.0818 17.897C65.8116 17.419 66.1821 16.7298 66.1821 15.8628Z" fill="#263238"/>
<path d="M71.7522 22.7436V0.00012207H77.8717V22.7325H71.7522V22.7436ZM72.6505 18.4528H77.2429V17.3079H75.6597V9.50438H72.6168V10.6493H74.2449V17.3079H72.6617V18.4528H72.6505ZM74.0877 5.35808V7.19223H75.6373V5.35808H74.0877Z" fill="#263238"/>
<path d="M82.463 22.7436V0.00012207H92.243V22.7325H82.463V22.7436ZM91.3671 15.4404L90.1432 15.1736C89.8738 16.6854 89.0541 17.4413 87.7067 17.4413C86.8084 17.4413 86.1235 17.1411 85.6519 16.5409C85.1803 15.9406 84.9445 15.0958 84.9445 14.0286C84.9445 13.0615 85.1578 12.2389 85.5733 11.5497C85.9887 10.8605 86.6849 10.5271 87.6505 10.5271C88.3916 10.5271 89.0429 10.6938 89.5818 11.0273L89.9299 12.5391L91.1089 12.3946L90.7608 10.238C90.3004 9.89344 89.8176 9.64889 89.3124 9.5155C88.8071 9.3821 88.2569 9.31541 87.6618 9.31541C86.2582 9.31541 85.1915 9.80451 84.4953 10.7827C83.788 11.7609 83.4399 12.8726 83.4399 14.1064C83.4399 15.5404 83.8104 16.6631 84.5627 17.4524C85.3038 18.2527 86.3031 18.6529 87.5495 18.6529C88.7958 18.6529 89.7166 18.3083 90.3005 17.6302C90.8843 16.941 91.2436 16.2185 91.3671 15.4404Z" fill="#263238"/>
<path d="M6.49331 35.1603C6.23505 35.6272 5.85328 35.994 5.35923 36.2497C4.85395 36.5053 4.25884 36.6387 3.56268 36.6387H1.5528V30.3693H3.56268C4.25884 30.3693 4.86518 30.4915 5.35923 30.7472C5.85328 31.0029 6.23505 31.3586 6.49331 31.8366C6.75156 32.3146 6.87507 32.8593 6.87507 33.504C6.87507 34.1376 6.75156 34.6934 6.49331 35.1603ZM5.38167 35.2826C5.81958 34.8602 6.03294 34.271 6.03294 33.504C6.03294 32.737 5.81958 32.1478 5.38167 31.7254C4.94377 31.303 4.31498 31.0918 3.48408 31.0918H2.35003V35.9162H3.48408C4.31498 35.9162 4.94377 35.705 5.38167 35.2826Z" fill="#FF5196"/>
<path d="M11.0405 31.0251V33.1705H13.4434V33.793H11.0405V35.9829H13.7129V36.6387H10.2208V30.3693H13.7129V31.0251H11.0405Z" fill="#FF5196"/>
<path d="M20.8097 35.8384C20.6638 36.0941 20.4504 36.3053 20.1585 36.4609C19.8665 36.6166 19.5072 36.7055 19.0693 36.7055C18.6539 36.7055 18.2721 36.6277 17.9465 36.4832C17.6209 36.3275 17.3626 36.1274 17.1605 35.8607C16.9696 35.5939 16.8573 35.2937 16.8236 34.9603H17.6995C17.7219 35.1381 17.7781 35.316 17.8791 35.4827C17.9802 35.6495 18.1374 35.794 18.3282 35.9051C18.5191 36.0163 18.7549 36.0719 19.0356 36.0719C19.3949 36.0719 19.6757 35.9829 19.8666 35.7828C20.0574 35.5828 20.1585 35.3493 20.1585 35.0492C20.1585 34.7935 20.0911 34.5823 19.9564 34.4267C19.8216 34.2711 19.6532 34.1377 19.4623 34.0487C19.2714 33.9598 18.9907 33.8598 18.6539 33.7486C18.2497 33.6152 17.9353 33.4929 17.6883 33.3818C17.4412 33.2706 17.2391 33.0928 17.0707 32.8593C16.9022 32.6259 16.8124 32.3257 16.8124 31.9478C16.8124 31.6254 16.891 31.3364 17.0482 31.0807C17.2054 30.8362 17.43 30.6361 17.7331 30.5027C18.0251 30.3693 18.3844 30.3026 18.7774 30.3026C19.395 30.3026 19.9002 30.4471 20.2595 30.7473C20.6301 31.0474 20.8322 31.4253 20.8995 31.8922H20.0237C19.9788 31.6477 19.8441 31.4253 19.642 31.2364C19.4286 31.0474 19.1479 30.9473 18.7886 30.9473C18.463 30.9473 18.1935 31.0363 18.0026 31.203C17.8005 31.3698 17.7107 31.6143 17.7107 31.9144C17.7107 32.159 17.7781 32.3591 17.9016 32.5036C18.0363 32.6592 18.1935 32.7704 18.3844 32.8593C18.5753 32.9482 18.8447 33.0372 19.1704 33.1483C19.5746 33.2817 19.9002 33.404 20.1585 33.5263C20.4055 33.6486 20.6188 33.8264 20.7873 34.0599C20.9557 34.2933 21.0455 34.6157 21.0455 35.0158C21.0231 35.3049 20.9557 35.5828 20.8097 35.8384Z" fill="#FF5196"/>
<path d="M25.1889 30.3693V36.6387H24.3693V30.3693H25.1889Z" fill="#FF5196"/>
<path d="M33.4743 30.8473C33.9796 31.2141 34.3164 31.7032 34.4849 32.3257H33.6203C33.4743 31.9478 33.2161 31.6365 32.868 31.4142C32.5199 31.1808 32.1045 31.0696 31.6216 31.0696C31.195 31.0696 30.8019 31.1697 30.4651 31.3698C30.1282 31.5698 29.8588 31.8478 29.6567 32.2146C29.4658 32.5814 29.3647 33.0149 29.3647 33.5152C29.3647 34.0265 29.4658 34.4712 29.6567 34.838C29.8476 35.2048 30.1282 35.4938 30.4763 35.6939C30.8244 35.894 31.2286 35.9941 31.689 35.9941C32.082 35.9941 32.4301 35.9051 32.7557 35.7495C33.0813 35.5828 33.3396 35.3382 33.5529 35.027C33.7662 34.7157 33.8785 34.3378 33.9234 33.9153H31.4307V33.3151H34.6084V34.0599C34.5522 34.5601 34.395 35.0047 34.1368 35.416C33.8785 35.8273 33.5305 36.1386 33.0926 36.372C32.6547 36.6054 32.1606 36.7277 31.5992 36.7277C30.9928 36.7277 30.4539 36.5943 29.9823 36.3275C29.5107 36.0608 29.1514 35.6828 28.8931 35.1937C28.6349 34.7157 28.5001 34.1599 28.5001 33.5374C28.5001 32.9149 28.6349 32.3591 28.8931 31.8811C29.1514 31.4031 29.5219 31.014 29.9823 30.7473C30.4426 30.4805 30.9816 30.336 31.5879 30.336C32.3515 30.3137 32.969 30.4916 33.4743 30.8473Z" fill="#FF5196"/>
<path d="M42.8962 36.6387H42.0765L38.7866 31.681V36.6387H37.9669V30.3693H38.7866L42.0765 35.327V30.3693H42.8962V36.6387Z" fill="#FF5196"/>
<path d="M54.7084 35.8387C54.5624 36.0943 54.349 36.3055 54.0571 36.4612C53.7652 36.6168 53.4059 36.7057 52.968 36.7057C52.5525 36.7057 52.1708 36.6279 51.8451 36.4834C51.5195 36.3278 51.2612 36.1277 51.0591 35.8609C50.8683 35.5941 50.756 35.294 50.7223 34.9605H51.5981C51.6205 35.1384 51.6767 35.3162 51.7778 35.483C51.8788 35.6497 52.036 35.7942 52.2269 35.9054C52.4177 36.0165 52.6535 36.0721 52.9343 36.0721C53.2936 36.0721 53.5743 35.9832 53.7651 35.7831C53.956 35.583 54.0571 35.3496 54.0571 35.0494C54.0571 34.7938 53.9897 34.5826 53.855 34.4269C53.7203 34.2713 53.5518 34.1379 53.3609 34.049C53.1701 33.96 52.8894 33.86 52.5525 33.7488C52.1483 33.6155 51.8339 33.4932 51.5868 33.382C51.3398 33.2709 51.1377 33.093 50.9693 32.8596C50.8009 32.6261 50.7111 32.326 50.7111 31.948C50.7111 31.6257 50.7896 31.3367 50.9468 31.081C51.104 30.8364 51.3286 30.6363 51.6318 30.5029C51.9237 30.3696 52.283 30.3029 52.676 30.3029C53.2936 30.3029 53.7989 30.4474 54.1582 30.7475C54.5287 31.0476 54.7308 31.4256 54.7982 31.8925H53.9224C53.8774 31.6479 53.7427 31.4256 53.5406 31.2366C53.3272 31.0476 53.0466 30.9476 52.6873 30.9476C52.3616 30.9476 52.0921 31.0365 51.9013 31.2033C51.6992 31.37 51.6093 31.6146 51.6093 31.9147C51.6093 32.1592 51.6767 32.3593 51.8002 32.5038C51.9349 32.6595 52.0921 32.7706 52.283 32.8596C52.4739 32.9485 52.7434 33.0374 53.069 33.1486C53.4732 33.282 53.7988 33.4042 54.0571 33.5265C54.3041 33.6488 54.5175 33.8267 54.6859 34.0601C54.8543 34.2935 54.9441 34.6159 54.9441 35.0161C54.9217 35.3051 54.8543 35.583 54.7084 35.8387Z" fill="#FF5196"/>
<path d="M62.1517 30.3693V31.0251H60.3664V36.6387H59.5355V31.0251H57.7501V30.3693H62.1517Z" fill="#FF5196"/>
<path d="M65.9711 30.3693V34.1265C65.9711 34.7379 66.1059 35.1936 66.3866 35.4938C66.6673 35.7828 67.0378 35.9384 67.5319 35.9384C68.0147 35.9384 68.3852 35.7939 68.6547 35.4938C68.9242 35.1936 69.0589 34.749 69.0589 34.1376V30.3804H69.8786V34.1376C69.8786 34.9936 69.6653 35.6383 69.2386 36.0607C68.8119 36.4942 68.2393 36.7054 67.5206 36.7054C66.8133 36.7054 66.2407 36.4942 65.814 36.0607C65.3873 35.6272 65.174 34.9936 65.174 34.1376V30.3804H65.9711V30.3693Z" fill="#FF5196"/>
<path d="M78.3331 35.1603C78.0749 35.6272 77.6931 35.994 77.1991 36.2497C76.6938 36.5053 76.0987 36.6387 75.4026 36.6387H73.3927V30.3693H75.4026C76.0987 30.3693 76.705 30.4915 77.1991 30.7472C77.6931 31.0029 78.0749 31.3586 78.3331 31.8366C78.5914 32.3146 78.7149 32.8593 78.7149 33.504C78.7149 34.1376 78.5914 34.6934 78.3331 35.1603ZM77.2328 35.2826C77.6707 34.8602 77.884 34.271 77.884 33.504C77.884 32.737 77.6707 32.1478 77.2328 31.7254C76.7949 31.303 76.1661 31.0918 75.3352 31.0918H74.2011V35.9162H75.3352C76.1549 35.9162 76.7949 35.705 77.2328 35.2826Z" fill="#FF5196"/>
<path d="M82.8901 30.3693V36.6387H82.0704V30.3693H82.8901Z" fill="#FF5196"/>
<path d="M90.9314 30.7029C91.403 30.9808 91.7735 31.3588 92.043 31.8479C92.3125 32.337 92.4472 32.8928 92.4472 33.5042C92.4472 34.1156 92.3125 34.6714 92.043 35.1605C91.7735 35.6496 91.403 36.0275 90.9314 36.3054C90.4598 36.5833 89.932 36.7167 89.3481 36.7167C88.7643 36.7167 88.2253 36.5833 87.7537 36.3054C87.2821 36.0275 86.9004 35.6496 86.6309 35.1605C86.3614 34.6714 86.2267 34.1156 86.2267 33.5042C86.2267 32.8928 86.3614 32.337 86.6309 31.8479C86.9004 31.3588 87.2709 30.9808 87.7537 30.7029C88.2365 30.425 88.7643 30.2916 89.3481 30.2916C89.932 30.2916 90.4598 30.425 90.9314 30.7029ZM88.1692 31.3477C87.8211 31.5477 87.5516 31.8256 87.3608 32.2036C87.1699 32.5704 87.0688 33.004 87.0688 33.5042C87.0688 33.9933 87.1699 34.4268 87.3608 34.8048C87.5516 35.1827 87.8211 35.4606 88.1692 35.6607C88.5173 35.8608 88.899 35.9608 89.3369 35.9608C89.7636 35.9608 90.1566 35.8608 90.5047 35.6607C90.8528 35.4606 91.1222 35.1716 91.3131 34.8048C91.504 34.4379 91.6051 34.0044 91.6051 33.5153C91.6051 33.0151 91.504 32.5815 91.3131 32.2147C91.1222 31.8479 90.8528 31.5589 90.5047 31.3588C90.1566 31.1587 89.7748 31.0586 89.3369 31.0586C88.9102 31.0475 88.5173 31.1476 88.1692 31.3477Z" fill="#FF5196"/>
</svg>
