<svg width="159" height="36" viewBox="0 0 159 36" fill="none" xmlns="http://www.w3.org/2000/svg">
<path d="M49.149 17.78C50.247 18.014 51.129 18.563 51.795 19.427C52.461 20.273 52.794 21.245 52.794 22.343C52.794 23.927 52.236 25.187 51.12 26.123C50.022 27.041 48.483 27.5 46.503 27.5H37.674V8.546H46.206C48.132 8.546 49.635 8.987 50.715 9.869C51.813 10.751 52.362 11.948 52.362 13.46C52.362 14.576 52.065 15.503 51.471 16.241C50.895 16.979 50.121 17.492 49.149 17.78ZM42.291 16.214H45.315C46.071 16.214 46.647 16.052 47.043 15.728C47.457 15.386 47.664 14.891 47.664 14.243C47.664 13.595 47.457 13.1 47.043 12.758C46.647 12.416 46.071 12.245 45.315 12.245H42.291V16.214ZM45.693 23.774C46.467 23.774 47.061 23.603 47.475 23.261C47.907 22.901 48.123 22.388 48.123 21.722C48.123 21.056 47.898 20.534 47.448 20.156C47.016 19.778 46.413 19.589 45.639 19.589H42.291V23.774H45.693ZM57.7939 10.868C56.9839 10.868 56.3179 10.634 55.7959 10.166C55.2919 9.68 55.0399 9.086 55.0399 8.384C55.0399 7.664 55.2919 7.07 55.7959 6.602C56.3179 6.116 56.9839 5.873 57.7939 5.873C58.5859 5.873 59.2339 6.116 59.7379 6.602C60.2599 7.07 60.5209 7.664 60.5209 8.384C60.5209 9.086 60.2599 9.68 59.7379 10.166C59.2339 10.634 58.5859 10.868 57.7939 10.868ZM60.0889 12.434V27.5H55.4719V12.434H60.0889ZM71.8317 23.585V27.5H69.4827C67.8087 27.5 66.5037 27.095 65.5677 26.285C64.6317 25.457 64.1637 24.116 64.1637 22.262V16.268H62.3277V12.434H64.1637V8.762H68.7807V12.434H71.8047V16.268H68.7807V22.316C68.7807 22.766 68.8887 23.09 69.1047 23.288C69.3207 23.486 69.6807 23.585 70.1847 23.585H71.8317ZM82.8005 23.585V27.5H80.4515C78.7775 27.5 77.4725 27.095 76.5365 26.285C75.6005 25.457 75.1325 24.116 75.1325 22.262V16.268H73.2965V12.434H75.1325V8.762H79.7495V12.434H82.7735V16.268H79.7495V22.316C79.7495 22.766 79.8575 23.09 80.0735 23.288C80.2895 23.486 80.6495 23.585 81.1535 23.585H82.8005ZM92.2302 27.716C90.7542 27.716 89.4222 27.401 88.2342 26.771C87.0642 26.141 86.1372 25.241 85.4532 24.071C84.7872 22.901 84.4542 21.533 84.4542 19.967C84.4542 18.419 84.7962 17.06 85.4802 15.89C86.1642 14.702 87.1002 13.793 88.2882 13.163C89.4762 12.533 90.8082 12.218 92.2842 12.218C93.7602 12.218 95.0922 12.533 96.2802 13.163C97.4682 13.793 98.4042 14.702 99.0882 15.89C99.7722 17.06 100.114 18.419 100.114 19.967C100.114 21.515 99.7632 22.883 99.0612 24.071C98.3772 25.241 97.4322 26.141 96.2262 26.771C95.0382 27.401 93.7062 27.716 92.2302 27.716ZM92.2302 23.72C93.1122 23.72 93.8592 23.396 94.4712 22.748C95.1012 22.1 95.4162 21.173 95.4162 19.967C95.4162 18.761 95.1102 17.834 94.4982 17.186C93.9042 16.538 93.1662 16.214 92.2842 16.214C91.3842 16.214 90.6372 16.538 90.0432 17.186C89.4492 17.816 89.1522 18.743 89.1522 19.967C89.1522 21.173 89.4402 22.1 90.0162 22.748C90.6102 23.396 91.3482 23.72 92.2302 23.72ZM107.181 14.945C107.721 14.117 108.396 13.469 109.206 13.001C110.016 12.515 110.916 12.272 111.906 12.272V17.159H110.637C109.485 17.159 108.621 17.411 108.045 17.915C107.469 18.401 107.181 19.265 107.181 20.507V27.5H102.564V12.434H107.181V14.945ZM128.314 19.724C128.314 20.156 128.287 20.606 128.233 21.074H117.784C117.856 22.01 118.153 22.73 118.675 23.234C119.215 23.72 119.872 23.963 120.646 23.963C121.798 23.963 122.599 23.477 123.049 22.505H127.963C127.711 23.495 127.252 24.386 126.586 25.178C125.938 25.97 125.119 26.591 124.129 27.041C123.139 27.491 122.032 27.716 120.808 27.716C119.332 27.716 118.018 27.401 116.866 26.771C115.714 26.141 114.814 25.241 114.166 24.071C113.518 22.901 113.194 21.533 113.194 19.967C113.194 18.401 113.509 17.033 114.139 15.863C114.787 14.693 115.687 13.793 116.839 13.163C117.991 12.533 119.314 12.218 120.808 12.218C122.266 12.218 123.562 12.524 124.696 13.136C125.83 13.748 126.712 14.621 127.342 15.755C127.99 16.889 128.314 18.212 128.314 19.724ZM123.589 18.509C123.589 17.717 123.319 17.087 122.779 16.619C122.239 16.151 121.564 15.917 120.754 15.917C119.98 15.917 119.323 16.142 118.783 16.592C118.261 17.042 117.937 17.681 117.811 18.509H123.589ZM139.93 12.272C141.694 12.272 143.098 12.848 144.142 14C145.204 15.134 145.735 16.7 145.735 18.698V27.5H141.145V19.319C141.145 18.311 140.884 17.528 140.362 16.97C139.84 16.412 139.138 16.133 138.256 16.133C137.374 16.133 136.672 16.412 136.15 16.97C135.628 17.528 135.367 18.311 135.367 19.319V27.5H130.75V12.434H135.367V14.432C135.835 13.766 136.465 13.244 137.257 12.866C138.049 12.47 138.94 12.272 139.93 12.272ZM157.341 23.585V27.5H154.992C153.318 27.5 152.013 27.095 151.077 26.285C150.141 25.457 149.673 24.116 149.673 22.262V16.268H147.837V12.434H149.673V8.762H154.29V12.434H157.314V16.268H154.29V22.316C154.29 22.766 154.398 23.09 154.614 23.288C154.83 23.486 155.19 23.585 155.694 23.585H157.341Z" fill="#263238"/>
<rect y="3.5" width="9" height="9" fill="#3EBA59"/>
<rect y="12.5" width="9" height="10" fill="#83EBFF"/>
<rect y="22.5" width="9" height="9" fill="#20C1E1"/>
<rect x="9" y="3.5" width="10" height="9" fill="#83EBFF"/>
<rect x="9" y="22.5" width="10" height="9" fill="#83EBFF"/>
<rect x="19" y="3.5" width="9" height="9" fill="#20C1E1"/>
<rect x="19" y="12.5" width="9" height="10" fill="#83EBFF"/>
<rect x="19" y="22.5" width="9" height="9" fill="#3EBA59"/>
<rect x="5" y="8.5" width="18" height="18" fill="white"/>
</svg>
