<svg width="129" height="34" viewBox="0 0 129 34" fill="none" xmlns="http://www.w3.org/2000/svg">
<path d="M27.514 33.8112H6.41875C2.95207 33.8112 0.142548 31.0298 0.142548 27.5978V6.71345C0.142548 3.28144 2.95207 0.5 6.41875 0.5H27.514C30.9807 0.5 33.7902 3.28144 33.7902 6.71345V27.5978C33.7902 31.0298 30.9807 33.8112 27.514 33.8112Z" fill="#7782FF"/>
<path d="M23.029 17.4621C23.629 18.207 23.9337 19.0744 23.9337 20.055C23.9337 21.4975 23.448 22.629 22.4766 23.4304C21.5052 24.2318 20.1147 24.6467 18.3052 24.6467H10.4004V7.81665H18.1147C19.848 7.81665 21.1814 8.1938 22.1242 8.93866C23.0671 9.68351 23.5433 10.7489 23.5433 12.1255C23.5433 13.1438 23.2671 13.983 22.7242 14.6618C22.1814 15.3407 21.4671 15.7744 20.5814 15.9818C21.6195 16.227 22.429 16.7172 23.029 17.4621ZM14.5052 14.6995H17.2004C18.629 14.6995 19.3433 14.0961 19.3433 12.8892C19.3433 11.6824 18.6099 11.0789 17.1528 11.0789H14.5052V14.6995ZM19.7242 19.4893C19.7242 18.8858 19.5242 18.4144 19.1242 18.075C18.7242 17.7355 18.1528 17.5658 17.4194 17.5658H14.5147V21.3467H17.448C18.9623 21.3373 19.7242 20.7244 19.7242 19.4893Z" fill="white"/>
<path d="M53.2863 24.6467L49.6101 18.2918H48.6768V24.6467H44.5625V7.81665H51.5816C52.9244 7.81665 54.0673 8.04294 54.9911 8.50494C55.9244 8.96694 56.6197 9.59865 57.0863 10.4001C57.553 11.2015 57.7816 12.1161 57.7816 13.1532C57.7816 14.379 57.4387 15.4161 56.7625 16.2741C56.0768 17.1321 55.0959 17.7167 53.7911 18.0372L57.8292 24.6561H53.2863V24.6467ZM48.6768 15.5104H51.2196C52.0387 15.5104 52.6387 15.3312 53.0197 14.973C53.4006 14.6147 53.6006 14.0867 53.6006 13.389C53.6006 12.7195 53.4006 12.2009 53.0101 11.8144C52.6197 11.4372 52.0196 11.2392 51.2196 11.2392H48.6768V15.5104Z" fill="#263238"/>
<path d="M76.3913 21.5825H70.0199L68.9627 24.6562H64.6389L70.8675 7.94873H75.6008L81.8294 24.6562H77.458L76.3913 21.5825ZM75.3342 18.4805L73.2199 12.2953L71.077 18.4805H75.3342Z" fill="#263238"/>
<path d="M104.525 24.6467H100.41L93.5341 14.3129V24.6467H89.4198V7.81665H93.5341L100.41 18.2447V7.81665H104.525V24.6467Z" fill="#263238"/>
<path d="M127.592 20.5925C126.878 21.8653 125.849 22.8648 124.516 23.5813C123.173 24.2979 121.602 24.6562 119.792 24.6562H113.373V7.82617H119.792C121.621 7.82617 123.202 8.17503 124.525 8.87275C125.859 9.57046 126.878 10.551 127.592 11.8239C128.306 13.0968 128.659 14.5488 128.659 16.2082C128.659 17.8488 128.297 19.3102 127.592 20.5925ZM123.164 19.7439C124.049 18.9048 124.497 17.7168 124.497 16.1988C124.497 14.6713 124.049 13.4928 123.164 12.6536C122.278 11.8145 121.03 11.3902 119.421 11.3902H117.478V21.0073H119.421C121.03 21.0073 122.278 20.5925 123.164 19.7439Z" fill="#263238"/>
</svg>
