<svg width="127" height="40" viewBox="0 0 127 40" fill="none" xmlns="http://www.w3.org/2000/svg">
<path d="M12.0226 31.92C8.64258 31.92 6.06258 30.98 4.28258 29.1C2.52258 27.22 1.64258 24.55 1.64258 21.09C1.64258 19.37 1.91258 17.84 2.45258 16.5C2.99258 15.14 3.73258 14 4.67258 13.08C5.61258 12.14 6.73258 11.43 8.03258 10.95C9.33258 10.47 10.7426 10.23 12.2626 10.23C13.1426 10.23 13.9426 10.3 14.6626 10.44C15.3826 10.56 16.0126 10.71 16.5526 10.89C17.0926 11.05 17.5426 11.22 17.9026 11.4C18.2626 11.58 18.5226 11.72 18.6826 11.82L17.3326 15.6C16.6926 15.26 15.9426 14.97 15.0826 14.73C14.2426 14.49 13.2826 14.37 12.2026 14.37C11.4826 14.37 10.7726 14.49 10.0726 14.73C9.39258 14.97 8.78258 15.36 8.24258 15.9C7.72258 16.42 7.30258 17.1 6.98258 17.94C6.66258 18.78 6.50258 19.8 6.50258 21C6.50258 21.96 6.60258 22.86 6.80258 23.7C7.02258 24.52 7.36258 25.23 7.82258 25.83C8.30258 26.43 8.92258 26.91 9.68258 27.27C10.4426 27.61 11.3626 27.78 12.4426 27.78C13.1226 27.78 13.7326 27.74 14.2726 27.66C14.8126 27.58 15.2926 27.49 15.7126 27.39C16.1326 27.27 16.5026 27.14 16.8226 27C17.1426 26.86 17.4326 26.73 17.6926 26.61L18.9826 30.36C18.3226 30.76 17.3926 31.12 16.1926 31.44C14.9926 31.76 13.6026 31.92 12.0226 31.92ZM31.2057 19.68C30.8057 19.58 30.3357 19.48 29.7957 19.38C29.2557 19.26 28.6757 19.2 28.0557 19.2C27.7757 19.2 27.4357 19.23 27.0357 19.29C26.6557 19.33 26.3657 19.38 26.1657 19.44V31.5H21.6957V16.56C22.4957 16.28 23.4357 16.02 24.5157 15.78C25.6157 15.52 26.8357 15.39 28.1757 15.39C28.4157 15.39 28.7057 15.41 29.0457 15.45C29.3857 15.47 29.7257 15.51 30.0657 15.57C30.4057 15.61 30.7457 15.67 31.0857 15.75C31.4257 15.81 31.7157 15.89 31.9557 15.99L31.2057 19.68ZM48.819 23.58C48.819 24.82 48.639 25.96 48.279 27C47.919 28.02 47.399 28.9 46.719 29.64C46.039 30.36 45.219 30.92 44.259 31.32C43.319 31.72 42.259 31.92 41.079 31.92C39.919 31.92 38.859 31.72 37.899 31.32C36.959 30.92 36.149 30.36 35.469 29.64C34.789 28.9 34.259 28.02 33.879 27C33.499 25.96 33.309 24.82 33.309 23.58C33.309 22.34 33.499 21.21 33.879 20.19C34.279 19.17 34.819 18.3 35.499 17.58C36.199 16.86 37.019 16.3 37.959 15.9C38.919 15.5 39.959 15.3 41.079 15.3C42.219 15.3 43.259 15.5 44.199 15.9C45.159 16.3 45.979 16.86 46.659 17.58C47.339 18.3 47.869 19.17 48.249 20.19C48.629 21.21 48.819 22.34 48.819 23.58ZM44.259 23.58C44.259 22.2 43.979 21.12 43.419 20.34C42.879 19.54 42.099 19.14 41.079 19.14C40.059 19.14 39.269 19.54 38.709 20.34C38.149 21.12 37.869 22.2 37.869 23.58C37.869 24.96 38.149 26.06 38.709 26.88C39.269 27.68 40.059 28.08 41.079 28.08C42.099 28.08 42.879 27.68 43.419 26.88C43.979 26.06 44.259 24.96 44.259 23.58ZM56.8116 28.29C57.6316 28.29 58.2116 28.21 58.5516 28.05C58.8916 27.89 59.0616 27.58 59.0616 27.12C59.0616 26.76 58.8416 26.45 58.4016 26.19C57.9616 25.91 57.2916 25.6 56.3916 25.26C55.6916 25 55.0516 24.73 54.4716 24.45C53.9116 24.17 53.4316 23.84 53.0316 23.46C52.6316 23.06 52.3216 22.59 52.1016 22.05C51.8816 21.51 51.7716 20.86 51.7716 20.1C51.7716 18.62 52.3216 17.45 53.4216 16.59C54.5216 15.73 56.0316 15.3 57.9516 15.3C58.9116 15.3 59.8316 15.39 60.7116 15.57C61.5916 15.73 62.2916 15.91 62.8116 16.11L62.0316 19.59C61.5116 19.41 60.9416 19.25 60.3216 19.11C59.7216 18.97 59.0416 18.9 58.2816 18.9C56.8816 18.9 56.1816 19.29 56.1816 20.07C56.1816 20.25 56.2116 20.41 56.2716 20.55C56.3316 20.69 56.4516 20.83 56.6316 20.97C56.8116 21.09 57.0516 21.23 57.3516 21.39C57.6716 21.53 58.0716 21.69 58.5516 21.87C59.5316 22.23 60.3416 22.59 60.9816 22.95C61.6216 23.29 62.1216 23.67 62.4816 24.09C62.8616 24.49 63.1216 24.94 63.2616 25.44C63.4216 25.94 63.5016 26.52 63.5016 27.18C63.5016 28.74 62.9116 29.92 61.7316 30.72C60.5716 31.52 58.9216 31.92 56.7816 31.92C55.3816 31.92 54.2116 31.8 53.2716 31.56C52.3516 31.32 51.7116 31.12 51.3516 30.96L52.1016 27.33C52.8616 27.63 53.6416 27.87 54.4416 28.05C55.2416 28.21 56.0316 28.29 56.8116 28.29ZM71.3722 28.29C72.1922 28.29 72.7722 28.21 73.1122 28.05C73.4522 27.89 73.6222 27.58 73.6222 27.12C73.6222 26.76 73.4022 26.45 72.9622 26.19C72.5222 25.91 71.8522 25.6 70.9522 25.26C70.2522 25 69.6122 24.73 69.0322 24.45C68.4722 24.17 67.9922 23.84 67.5922 23.46C67.1922 23.06 66.8822 22.59 66.6622 22.05C66.4422 21.51 66.3322 20.86 66.3322 20.1C66.3322 18.62 66.8822 17.45 67.9822 16.59C69.0822 15.73 70.5922 15.3 72.5122 15.3C73.4722 15.3 74.3922 15.39 75.2722 15.57C76.1522 15.73 76.8522 15.91 77.3722 16.11L76.5922 19.59C76.0722 19.41 75.5022 19.25 74.8822 19.11C74.2822 18.97 73.6022 18.9 72.8422 18.9C71.4422 18.9 70.7422 19.29 70.7422 20.07C70.7422 20.25 70.7722 20.41 70.8322 20.55C70.8922 20.69 71.0122 20.83 71.1922 20.97C71.3722 21.09 71.6122 21.23 71.9122 21.39C72.2322 21.53 72.6322 21.69 73.1122 21.87C74.0922 22.23 74.9022 22.59 75.5422 22.95C76.1822 23.29 76.6822 23.67 77.0422 24.09C77.4222 24.49 77.6822 24.94 77.8222 25.44C77.9822 25.94 78.0622 26.52 78.0622 27.18C78.0622 28.74 77.4722 29.92 76.2922 30.72C75.1322 31.52 73.4822 31.92 71.3422 31.92C69.9422 31.92 68.7722 31.8 67.8322 31.56C66.9122 31.32 66.2722 31.12 65.9122 30.96L66.6622 27.33C67.4222 27.63 68.2022 27.87 69.0022 28.05C69.8022 28.21 70.5922 28.29 71.3722 28.29ZM80.0527 20.52H88.7527V24.57H80.0527V20.52Z" fill="#263238"/>
<path d="M103.838 31.5C103.258 30.34 102.618 29.17 101.918 27.99C101.238 26.79 100.448 25.57 99.548 24.33C99.268 24.69 98.908 25.19 98.468 25.83C98.048 26.47 97.618 27.15 97.178 27.87C96.758 28.59 96.358 29.28 95.978 29.94C95.598 30.6 95.318 31.12 95.138 31.5H89.798C90.678 29.88 91.698 28.18 92.858 26.4C94.038 24.62 95.348 22.73 96.788 20.73L90.098 10.71H95.768L99.818 17.19L103.778 10.71H109.118L102.518 20.79C104.198 22.97 105.608 24.99 106.748 26.85C107.888 28.69 108.788 30.24 109.448 31.5H103.838ZM125.12 15.72C124.22 18.76 123.28 21.61 122.3 24.27C121.32 26.93 120.25 29.51 119.09 32.01C118.67 32.91 118.25 33.67 117.83 34.29C117.41 34.93 116.95 35.45 116.45 35.85C115.95 36.27 115.38 36.57 114.74 36.75C114.12 36.95 113.39 37.05 112.55 37.05C111.85 37.05 111.2 36.98 110.6 36.84C110.02 36.72 109.54 36.58 109.16 36.42L109.94 32.85C110.4 33.01 110.81 33.12 111.17 33.18C111.53 33.24 111.91 33.27 112.31 33.27C113.11 33.27 113.72 33.05 114.14 32.61C114.58 32.19 114.95 31.6 115.25 30.84C114.23 28.84 113.21 26.6 112.19 24.12C111.17 21.62 110.21 18.82 109.31 15.72H114.05C114.25 16.5 114.48 17.35 114.74 18.27C115.02 19.17 115.31 20.09 115.61 21.03C115.91 21.95 116.21 22.85 116.51 23.73C116.83 24.61 117.13 25.41 117.41 26.13C117.67 25.41 117.94 24.61 118.22 23.73C118.5 22.85 118.77 21.95 119.03 21.03C119.31 20.09 119.57 19.17 119.81 18.27C120.07 17.35 120.3 16.5 120.5 15.72H125.12Z" fill="#7782FF"/>
</svg>
