<svg width="14" height="18" viewBox="0 0 14 18" fill="none" xmlns="http://www.w3.org/2000/svg">
<path d="M13.029 10.4621C13.629 11.207 13.9337 12.0744 13.9337 13.055C13.9337 14.4975 13.448 15.629 12.4766 16.4304C11.5052 17.2318 10.1147 17.6467 8.30516 17.6467H0.400391V0.81665H8.11468C9.84802 0.81665 11.1814 1.1938 12.1242 1.93866C13.0671 2.68351 13.5433 3.74894 13.5433 5.12552C13.5433 6.1438 13.2671 6.98295 12.7242 7.66181C12.1814 8.34067 11.4671 8.77439 10.5814 8.98181C11.6195 9.22696 12.429 9.71724 13.029 10.4621ZM4.50516 7.69953H7.2004C8.62898 7.69953 9.34325 7.0961 9.34325 5.88924C9.34325 4.68238 8.60993 4.07894 7.15278 4.07894H4.50516V7.69953ZM9.7242 12.4893C9.7242 11.8858 9.52422 11.4144 9.12422 11.075C8.72422 10.7355 8.15278 10.5658 7.41945 10.5658H4.51468V14.3467H7.44802C8.96231 14.3373 9.7242 13.7244 9.7242 12.4893Z" fill="white"/>
</svg>
