<svg width="58" height="57" viewBox="0 0 58 57" fill="none" xmlns="http://www.w3.org/2000/svg">
<circle cx="28.9707" cy="28.5" r="28.5" fill="#303030"/>
<path d="M32.6424 32.7458L29.8677 40.3762C29.7997 40.5593 29.6773 40.7172 29.517 40.8287C29.3567 40.9402 29.166 41 28.9707 41C28.7754 41 28.5848 40.9402 28.4244 40.8287C28.2641 40.7172 28.1417 40.5593 28.0737 40.3762L25.299 32.7458C25.2506 32.6142 25.1741 32.4948 25.075 32.3957C24.9759 32.2966 24.8565 32.2201 24.7249 32.1717L17.0945 29.397C16.9114 29.329 16.7535 29.2066 16.642 29.0463C16.5305 28.886 16.4707 28.6953 16.4707 28.5C16.4707 28.3047 16.5305 28.114 16.642 27.9537C16.7535 27.7934 16.9114 27.671 17.0945 27.603L24.7249 24.8283C24.8565 24.7799 24.9759 24.7034 25.075 24.6043C25.1741 24.5052 25.2506 24.3858 25.299 24.2542L28.0737 16.6238C28.1417 16.4407 28.2641 16.2828 28.4244 16.1713C28.5848 16.0598 28.7754 16 28.9707 16C29.166 16 29.3567 16.0598 29.517 16.1713C29.6773 16.2828 29.7997 16.4407 29.8677 16.6238L32.6424 24.2542C32.6908 24.3858 32.7673 24.5052 32.8664 24.6043C32.9655 24.7034 33.0849 24.7799 33.2165 24.8283L40.8469 27.603C41.03 27.671 41.1879 27.7934 41.2994 27.9537C41.4109 28.114 41.4707 28.3047 41.4707 28.5C41.4707 28.6953 41.4109 28.886 41.2994 29.0463C41.1879 29.2066 41.03 29.329 40.8469 29.397L33.2165 32.1717C33.0849 32.2201 32.9655 32.2966 32.8664 32.3957C32.7673 32.4948 32.6908 32.6142 32.6424 32.7458V32.7458Z" stroke="white" stroke-width="2" stroke-linecap="round" stroke-linejoin="round"/>
</svg>
