<svg width="51" height="52" viewBox="0 0 51 52" fill="none" xmlns="http://www.w3.org/2000/svg">
<rect x="0.26358" y="0.981117" width="50.4981" height="50.4981" rx="16.8327" fill="#56EAFF"/>
<path fill-rule="evenodd" clip-rule="evenodd" d="M31.3452 39.6967H19.8113C15.5746 39.6967 12.3243 38.1664 13.2475 32.0074L14.3225 23.6605C14.8916 20.5873 16.8519 19.4111 18.5719 19.4111H32.6352C34.3805 19.4111 36.2269 20.6758 36.8845 23.6605L37.9595 32.0074C38.7436 37.4709 35.5819 39.6967 31.3452 39.6967Z" stroke="white" stroke-width="1.68327" stroke-linecap="round" stroke-linejoin="round"/>
<path opacity="0.4" d="M31.5363 19.1078C31.5363 15.811 28.8637 13.1384 25.567 13.1384C23.9794 13.1317 22.4546 13.7577 21.3297 14.8779C20.2047 15.9981 19.5724 17.5202 19.5724 19.1078" stroke="white" stroke-width="1.68327" stroke-linecap="round" stroke-linejoin="round"/>
<path d="M29.6646 25.3299H29.6015" stroke="white" stroke-width="1.68327" stroke-linecap="round" stroke-linejoin="round"/>
<path d="M21.6079 25.3298H21.5448" stroke="white" stroke-width="1.68327" stroke-linecap="round" stroke-linejoin="round"/>
</svg>
