<svg width="51" height="51" viewBox="0 0 51 51" fill="none" xmlns="http://www.w3.org/2000/svg">
<rect x="0.263824" y="0.319305" width="50.4981" height="50.4981" rx="16.8327" fill="#625FFB"/>
<path d="M21.8242 23.8739V28.7593" stroke="white" stroke-width="1.68327" stroke-linecap="round" stroke-linejoin="round"/>
<path d="M24.315 26.3169H19.3302" stroke="white" stroke-width="1.68327" stroke-linecap="round" stroke-linejoin="round"/>
<path d="M30.3252 24.0224H30.1857" stroke="white" stroke-width="1.68327" stroke-linecap="round" stroke-linejoin="round"/>
<path d="M32.6924 28.686H32.5529" stroke="white" stroke-width="1.68327" stroke-linecap="round" stroke-linejoin="round"/>
<path opacity="0.4" d="M20.8109 10.4189C20.8109 11.3849 21.6099 12.168 22.5955 12.168H23.9737C25.4943 12.1734 26.726 13.3805 26.7329 14.8708V15.7515" stroke="white" stroke-width="1.68327" stroke-linecap="round" stroke-linejoin="round"/>
<path fill-rule="evenodd" clip-rule="evenodd" d="M31.711 36.4606C27.7907 36.527 23.9422 36.5243 20.1587 36.4606C15.959 36.4606 12.8888 33.4651 12.8888 29.3492V23.2837C12.8888 19.1678 15.959 16.1723 20.1587 16.1723C23.9629 16.1072 27.8142 16.1086 31.711 16.1723C35.9106 16.1723 38.9795 19.1691 38.9795 23.2837V29.3492C38.9795 33.4651 35.9106 36.4606 31.711 36.4606Z" stroke="white" stroke-width="1.68327" stroke-linecap="round" stroke-linejoin="round"/>
</svg>
