<svg width="58" height="57" viewBox="0 0 58 57" fill="none" xmlns="http://www.w3.org/2000/svg">
<circle cx="28.8282" cy="28.5" r="28.5" fill="white"/>
<path d="M31.8344 34.6802L29.1344 42.0068C29.0545 42.2221 28.9106 42.4077 28.7221 42.5389C28.5335 42.67 28.3094 42.7403 28.0797 42.7403C27.8501 42.7403 27.6259 42.67 27.4374 42.5389C27.2489 42.4077 27.105 42.2221 27.025 42.0068L24.325 34.6802C24.2681 34.5256 24.1782 34.3851 24.0617 34.2686C23.9451 34.152 23.8047 34.0622 23.65 34.0052L16.3235 31.3052C16.1082 31.2253 15.9225 31.0814 15.7914 30.8929C15.6602 30.7043 15.59 30.4802 15.59 30.2505C15.59 30.0209 15.6602 29.7967 15.7914 29.6082C15.9225 29.4196 16.1082 29.2757 16.3235 29.1958L23.65 26.4958C23.8047 26.4388 23.9451 26.349 24.0617 26.2324C24.1782 26.1159 24.2681 25.9755 24.325 25.8208L27.025 18.4943C27.105 18.279 27.2489 18.0933 27.4374 17.9622C27.6259 17.831 27.8501 17.7607 28.0797 17.7607C28.3094 17.7607 28.5335 17.831 28.7221 17.9622C28.9106 18.0933 29.0545 18.279 29.1344 18.4943L31.8344 25.8208C31.8914 25.9755 31.9813 26.1159 32.0978 26.2324C32.2143 26.349 32.3548 26.4388 32.5094 26.4958L39.836 29.1958C40.0513 29.2757 40.237 29.4196 40.3681 29.6082C40.4992 29.7967 40.5695 30.0209 40.5695 30.2505C40.5695 30.4802 40.4992 30.7043 40.3681 30.8929C40.237 31.0814 40.0513 31.2253 39.836 31.3052L32.5094 34.0052C32.3548 34.0622 32.2143 34.152 32.0978 34.2686C31.9813 34.3851 31.8914 34.5256 31.8344 34.6802V34.6802Z" stroke="#303030" stroke-width="2" stroke-linecap="round" stroke-linejoin="round"/>
<path d="M37.0782 12.25V19" stroke="#303030" stroke-width="2" stroke-linecap="round" stroke-linejoin="round"/>
<path d="M40.4532 15.625H33.7032" stroke="#303030" stroke-width="2" stroke-linecap="round" stroke-linejoin="round"/>
<path d="M43.8282 20.125V24.625" stroke="#303030" stroke-width="2" stroke-linecap="round" stroke-linejoin="round"/>
<path d="M46.0782 22.375H41.5782" stroke="#303030" stroke-width="2" stroke-linecap="round" stroke-linejoin="round"/>
</svg>
