<svg width="58" height="51" viewBox="0 0 58 51" fill="none" xmlns="http://www.w3.org/2000/svg">
<circle cx="16.5" cy="16.5" r="16.5" fill="#F0E4D1"/>
<path d="M12.2412 30.1666C10.2514 26.8143 9.55397 22.8509 10.2799 19.0207C11.0058 15.1905 13.105 11.7571 16.1834 9.36536C19.2618 6.97358 23.1075 5.78796 26.9983 6.03119C30.889 6.27442 34.5571 7.92975 37.3137 10.6863C40.0702 13.4429 41.7256 17.111 41.9688 21.0017C42.212 24.8925 41.0264 28.7382 38.6346 31.8166C36.2429 34.895 32.8095 36.9942 28.9793 37.7201C25.1491 38.446 21.1857 37.7486 17.8334 35.7588L12.3077 37.3344C12.0801 37.3984 11.8395 37.4006 11.6107 37.3408C11.3819 37.281 11.1731 37.1614 11.0059 36.9941C10.8386 36.8269 10.719 36.6181 10.6592 36.3893C10.5994 36.1605 10.6016 35.9199 10.6656 35.6923L12.2412 30.1666Z" stroke="#FFB545" stroke-width="3" stroke-linecap="round" stroke-linejoin="round"/>
<path d="M25 38.3032C25.7808 40.5378 27.0463 42.5703 28.7051 44.254C30.364 45.9377 32.3747 47.2305 34.592 48.0391C36.8093 48.8476 39.1778 49.1517 41.5265 48.9294C43.8752 48.707 46.1453 47.9638 48.1729 46.7534V46.7534L53.6892 48.3322C53.9165 48.3964 54.1567 48.3986 54.3851 48.3387C54.6135 48.2787 54.8219 48.1588 54.9889 47.9912C55.1558 47.8237 55.2753 47.6145 55.335 47.3852C55.3947 47.1559 55.3925 46.9148 55.3286 46.6867L53.7557 41.1496C55.1599 38.7836 55.9315 36.0936 55.9957 33.3403C56.0598 30.587 55.4143 27.8638 54.1217 25.4345C52.8292 23.0052 50.9334 20.9522 48.6181 19.4744C46.3027 17.9967 43.6464 17.1444 40.9065 17" stroke="#FFB545" stroke-width="3" stroke-linecap="round" stroke-linejoin="round"/>
</svg>
