<svg width="24" height="23" viewBox="0 0 24 23" fill="none" xmlns="http://www.w3.org/2000/svg">
<path d="M16.6235 2.48344C17.8522 2.48698 19.0297 2.95826 19.8986 3.79438C20.7675 4.6305 21.2572 5.7635 21.2609 6.94594V15.87C21.2572 17.0524 20.7675 18.1854 19.8986 19.0216C19.0297 19.8577 17.8522 20.329 16.6235 20.3325H7.34955C6.12075 20.329 4.94333 19.8577 4.07443 19.0216C3.20554 18.1854 2.71577 17.0524 2.7121 15.87V6.94594C2.71577 5.7635 3.20554 4.6305 4.07443 3.79438C4.94333 2.95826 6.12075 2.48698 7.34955 2.48344H16.6235ZM16.6235 0.69873H7.34955C3.7788 0.69873 0.857422 3.50991 0.857422 6.94594V15.87C0.857422 19.306 3.7788 22.1172 7.34955 22.1172H16.6235C20.1942 22.1172 23.1156 19.306 23.1156 15.87V6.94594C23.1156 3.50991 20.1942 0.69873 16.6235 0.69873Z" fill="white"/>
<path d="M18.0146 6.94635C17.7395 6.94635 17.4705 6.86784 17.2418 6.72075C17.013 6.57366 16.8347 6.36459 16.7294 6.11998C16.6241 5.87537 16.5965 5.60621 16.6502 5.34654C16.7039 5.08687 16.8364 4.84834 17.0309 4.66113C17.2255 4.47391 17.4734 4.34642 17.7432 4.29477C18.0131 4.24311 18.2928 4.26962 18.547 4.37094C18.8012 4.47226 19.0184 4.64384 19.1713 4.86398C19.3242 5.08412 19.4058 5.34294 19.4058 5.6077C19.4061 5.7836 19.3704 5.95784 19.3007 6.12043C19.2309 6.28301 19.1284 6.43073 18.9992 6.55511C18.8699 6.67949 18.7164 6.77808 18.5475 6.84522C18.3785 6.91236 18.1974 6.94673 18.0146 6.94635ZM11.9865 7.83847C12.7203 7.83847 13.4375 8.04784 14.0476 8.44011C14.6577 8.83237 15.1332 9.38992 15.414 10.0422C15.6948 10.6945 15.7683 11.4123 15.6251 12.1048C15.482 12.7973 15.1286 13.4334 14.6098 13.9327C14.091 14.4319 13.4299 14.7719 12.7103 14.9097C11.9907 15.0474 11.2447 14.9767 10.5668 14.7065C9.88895 14.4363 9.30955 13.9788 8.9019 13.3917C8.49426 12.8046 8.27668 12.1144 8.27668 11.4084C8.27773 10.4619 8.66893 9.55446 9.36443 8.88519C10.0599 8.21592 11.0029 7.83948 11.9865 7.83847ZM11.9865 6.05376C10.886 6.05376 9.81013 6.3678 8.89505 6.95617C7.97996 7.54455 7.26674 8.38082 6.84557 9.35925C6.42441 10.3377 6.31421 11.4143 6.52892 12.453C6.74363 13.4917 7.2736 14.4458 8.05182 15.1947C8.83003 15.9435 9.82154 16.4535 10.901 16.6601C11.9804 16.8667 13.0992 16.7607 14.116 16.3554C15.1328 15.9501 16.0018 15.2638 16.6133 14.3832C17.2247 13.5027 17.5511 12.4674 17.5511 11.4084C17.5511 9.98824 16.9648 8.62627 15.9213 7.62209C14.8777 6.6179 13.4623 6.05376 11.9865 6.05376Z" fill="white"/>
</svg>
