<svg width="127" height="49" viewBox="0 0 127 49" fill="none" xmlns="http://www.w3.org/2000/svg">
<path d="M9.20064 13.1561C9.10731 12.9321 8.98131 12.6475 8.82264 12.3021C8.67331 11.9568 8.50997 11.5835 8.33264 11.1821C8.15531 10.7808 7.96397 10.3701 7.75864 9.95012C7.56264 9.52079 7.37597 9.11946 7.19864 8.74612C7.02131 8.36346 6.85331 8.02279 6.69464 7.72412C6.54531 7.42545 6.42397 7.19679 6.33064 7.03812C6.22797 8.13945 6.14397 9.33412 6.07864 10.6221C6.01331 11.9008 5.95731 13.1935 5.91064 14.5001H4.58064C4.61797 13.6601 4.65997 12.8155 4.70664 11.9661C4.75331 11.1075 4.80464 10.2675 4.86064 9.44612C4.92597 8.61546 4.99131 7.80812 5.05664 7.02412C5.13131 6.24012 5.21064 5.49812 5.29464 4.79812H6.48464C6.73664 5.20879 7.00731 5.69412 7.29664 6.25412C7.58597 6.81412 7.87531 7.40212 8.16464 8.01812C8.45397 8.62479 8.73397 9.23612 9.00464 9.85212C9.27531 10.4588 9.52264 11.0141 9.74664 11.5181C9.97064 11.0141 10.218 10.4588 10.4886 9.85212C10.7593 9.23612 11.0393 8.62479 11.3286 8.01812C11.618 7.40212 11.9073 6.81412 12.1966 6.25412C12.486 5.69412 12.7566 5.20879 13.0086 4.79812H14.1986C14.516 7.92479 14.754 11.1588 14.9126 14.5001H13.5826C13.536 13.1935 13.48 11.9008 13.4146 10.6221C13.3493 9.33412 13.2653 8.13945 13.1626 7.03812C13.0693 7.19679 12.9433 7.42545 12.7846 7.72412C12.6353 8.02279 12.472 8.36346 12.2946 8.74612C12.1173 9.11946 11.926 9.52079 11.7206 9.95012C11.5246 10.3701 11.338 10.7808 11.1606 11.1821C10.9833 11.5835 10.8153 11.9568 10.6566 12.3021C10.5073 12.6475 10.386 12.9321 10.2926 13.1561H9.20064ZM23.384 10.8601C23.384 11.4388 23.3 11.9615 23.132 12.4281C22.964 12.8948 22.726 13.2961 22.418 13.6321C22.1193 13.9681 21.76 14.2295 21.34 14.4161C20.92 14.5935 20.4626 14.6821 19.968 14.6821C19.4733 14.6821 19.016 14.5935 18.596 14.4161C18.176 14.2295 17.812 13.9681 17.504 13.6321C17.2053 13.2961 16.972 12.8948 16.804 12.4281C16.636 11.9615 16.552 11.4388 16.552 10.8601C16.552 10.2908 16.636 9.77279 16.804 9.30612C16.972 8.83012 17.2053 8.42412 17.504 8.08812C17.812 7.75212 18.176 7.49546 18.596 7.31812C19.016 7.13145 19.4733 7.03812 19.968 7.03812C20.4626 7.03812 20.92 7.13145 21.34 7.31812C21.76 7.49546 22.1193 7.75212 22.418 8.08812C22.726 8.42412 22.964 8.83012 23.132 9.30612C23.3 9.77279 23.384 10.2908 23.384 10.8601ZM22.026 10.8601C22.026 10.0388 21.8393 9.39012 21.466 8.91412C21.102 8.42879 20.6026 8.18612 19.968 8.18612C19.3333 8.18612 18.8293 8.42879 18.456 8.91412C18.092 9.39012 17.91 10.0388 17.91 10.8601C17.91 11.6815 18.092 12.3348 18.456 12.8201C18.8293 13.2961 19.3333 13.5341 19.968 13.5341C20.6026 13.5341 21.102 13.2961 21.466 12.8201C21.8393 12.3348 22.026 11.6815 22.026 10.8601ZM29.9198 8.76012C29.7611 8.62946 29.5324 8.50346 29.2338 8.38212C28.9351 8.26079 28.6084 8.20012 28.2538 8.20012C27.8804 8.20012 27.5584 8.27012 27.2878 8.41012C27.0264 8.54079 26.8118 8.72746 26.6438 8.97012C26.4758 9.20346 26.3544 9.48346 26.2798 9.81012C26.2051 10.1368 26.1678 10.4868 26.1678 10.8601C26.1678 11.7095 26.3778 12.3675 26.7978 12.8341C27.2178 13.2915 27.7778 13.5201 28.4778 13.5201C28.8324 13.5201 29.1264 13.5061 29.3598 13.4781C29.6024 13.4408 29.7891 13.4035 29.9198 13.3661V8.76012ZM29.9198 3.86012L31.2218 3.63612V14.2901C30.9231 14.3741 30.5404 14.4581 30.0738 14.5421C29.6071 14.6261 29.0704 14.6681 28.4638 14.6681C27.9038 14.6681 27.3998 14.5795 26.9518 14.4021C26.5038 14.2248 26.1211 13.9728 25.8038 13.6461C25.4864 13.3195 25.2391 12.9228 25.0618 12.4561C24.8938 11.9801 24.8098 11.4481 24.8098 10.8601C24.8098 10.3001 24.8798 9.78679 25.0198 9.32012C25.1691 8.85346 25.3838 8.45212 25.6638 8.11612C25.9438 7.78012 26.2844 7.51879 26.6858 7.33212C27.0964 7.14546 27.5631 7.05212 28.0858 7.05212C28.5058 7.05212 28.8744 7.10812 29.1918 7.22012C29.5184 7.33212 29.7611 7.43946 29.9198 7.54212V3.86012ZM33.0539 10.8741C33.0539 10.2301 33.1472 9.67012 33.3339 9.19412C33.5206 8.70879 33.7679 8.30746 34.0759 7.99012C34.3839 7.67279 34.7386 7.43479 35.1399 7.27612C35.5412 7.11745 35.9519 7.03812 36.3719 7.03812C37.3519 7.03812 38.1032 7.34612 38.6259 7.96212C39.1486 8.56879 39.4099 9.49746 39.4099 10.7481C39.4099 10.8041 39.4099 10.8788 39.4099 10.9721C39.4099 11.0561 39.4052 11.1355 39.3959 11.2101H34.4119C34.4679 11.9661 34.6872 12.5401 35.0699 12.9321C35.4526 13.3241 36.0499 13.5201 36.8619 13.5201C37.3192 13.5201 37.7019 13.4828 38.0099 13.4081C38.3272 13.3241 38.5652 13.2448 38.7239 13.1701L38.9059 14.2621C38.7472 14.3461 38.4672 14.4348 38.0659 14.5281C37.6739 14.6215 37.2259 14.6681 36.7219 14.6681C36.0872 14.6681 35.5366 14.5748 35.0699 14.3881C34.6126 14.1921 34.2346 13.9261 33.9359 13.5901C33.6372 13.2541 33.4132 12.8575 33.2639 12.4001C33.1239 11.9335 33.0539 11.4248 33.0539 10.8741ZM38.0519 10.1601C38.0612 9.57212 37.9119 9.09146 37.6039 8.71812C37.3052 8.33546 36.8899 8.14412 36.3579 8.14412C36.0592 8.14412 35.7932 8.20479 35.5599 8.32612C35.3359 8.43812 35.1446 8.58746 34.9859 8.77412C34.8272 8.96079 34.7012 9.17546 34.6079 9.41812C34.5239 9.66079 34.4679 9.90812 34.4399 10.1601H38.0519ZM43.9682 7.06612C44.0802 7.06612 44.2062 7.07546 44.3462 7.09412C44.4956 7.10346 44.6402 7.12212 44.7802 7.15012C44.9202 7.16879 45.0462 7.19212 45.1582 7.22012C45.2796 7.23879 45.3682 7.25746 45.4242 7.27612L45.2002 8.41012C45.0976 8.37279 44.9249 8.33079 44.6822 8.28412C44.4489 8.22812 44.1456 8.20012 43.7722 8.20012C43.5296 8.20012 43.2869 8.22812 43.0442 8.28412C42.8109 8.33079 42.6569 8.36346 42.5822 8.38212V14.5001H41.2802V7.52812C41.5882 7.41612 41.9709 7.31345 42.4282 7.22012C42.8856 7.11746 43.3989 7.06612 43.9682 7.06612ZM46.6806 7.43012C46.9793 7.35546 47.3759 7.27612 47.8706 7.19212C48.3653 7.10812 48.9346 7.06612 49.5786 7.06612C50.1573 7.06612 50.6379 7.15012 51.0206 7.31812C51.4033 7.47679 51.7066 7.70546 51.9306 8.00412C52.1639 8.29346 52.3273 8.64346 52.4206 9.05412C52.5139 9.46479 52.5606 9.91746 52.5606 10.4121V14.5001H51.2586V10.6921C51.2586 10.2441 51.2259 9.86146 51.1606 9.54412C51.1046 9.22679 51.0066 8.97012 50.8666 8.77412C50.7266 8.57812 50.5399 8.43812 50.3066 8.35412C50.0733 8.26079 49.7839 8.21412 49.4386 8.21412C49.2986 8.21412 49.1539 8.21879 49.0046 8.22812C48.8553 8.23746 48.7106 8.25146 48.5706 8.27012C48.4399 8.27945 48.3186 8.29345 48.2066 8.31212C48.1039 8.33079 48.0293 8.34479 47.9826 8.35412V14.5001H46.6806V7.43012Z" fill="#263238"/>
<path d="M12.5226 40.9201C9.14264 40.9201 6.56264 39.9801 4.78264 38.1001C3.02264 36.2201 2.14264 33.5501 2.14264 30.0901C2.14264 28.3701 2.41264 26.8401 2.95264 25.5001C3.49264 24.1401 4.23264 23.0001 5.17264 22.0801C6.11264 21.1401 7.23264 20.4301 8.53264 19.9501C9.83264 19.4701 11.2426 19.2301 12.7626 19.2301C13.6426 19.2301 14.4426 19.3001 15.1626 19.4401C15.8826 19.5601 16.5126 19.7101 17.0526 19.8901C17.5926 20.0501 18.0426 20.2201 18.4026 20.4001C18.7626 20.5801 19.0226 20.7201 19.1826 20.8201L17.8326 24.6001C17.1926 24.2601 16.4426 23.9701 15.5826 23.7301C14.7426 23.4901 13.7826 23.3701 12.7026 23.3701C11.9826 23.3701 11.2726 23.4901 10.5726 23.7301C9.89264 23.9701 9.28264 24.3601 8.74264 24.9001C8.22264 25.4201 7.80264 26.1001 7.48264 26.9401C7.16264 27.7801 7.00264 28.8001 7.00264 30.0001C7.00264 30.9601 7.10264 31.8601 7.30264 32.7001C7.52264 33.5201 7.86264 34.2301 8.32264 34.8301C8.80264 35.4301 9.42264 35.9101 10.1826 36.2701C10.9426 36.6101 11.8626 36.7801 12.9426 36.7801C13.6226 36.7801 14.2326 36.7401 14.7726 36.6601C15.3126 36.5801 15.7926 36.4901 16.2126 36.3901C16.6326 36.2701 17.0026 36.1401 17.3226 36.0001C17.6426 35.8601 17.9326 35.7301 18.1926 35.6101L19.4826 39.3601C18.8226 39.7601 17.8926 40.1201 16.6926 40.4401C15.4926 40.7601 14.1026 40.9201 12.5226 40.9201ZM31.7058 28.6801C31.3058 28.5801 30.8358 28.4801 30.2958 28.3801C29.7558 28.2601 29.1758 28.2001 28.5558 28.2001C28.2758 28.2001 27.9358 28.2301 27.5358 28.2901C27.1558 28.3301 26.8658 28.3801 26.6658 28.4401V40.5001H22.1958V25.5601C22.9958 25.2801 23.9358 25.0201 25.0158 24.7801C26.1158 24.5201 27.3358 24.3901 28.6758 24.3901C28.9158 24.3901 29.2058 24.4101 29.5458 24.4501C29.8858 24.4701 30.2258 24.5101 30.5658 24.5701C30.9058 24.6101 31.2458 24.6701 31.5858 24.7501C31.9258 24.8101 32.2158 24.8901 32.4558 24.9901L31.7058 28.6801ZM49.7995 24.7201C48.8995 27.7601 47.9595 30.6101 46.9795 33.2701C45.9995 35.9301 44.9295 38.5101 43.7695 41.0101C43.3495 41.9101 42.9295 42.6701 42.5095 43.2901C42.0895 43.9301 41.6295 44.4501 41.1295 44.8501C40.6295 45.2701 40.0595 45.5701 39.4195 45.7501C38.7995 45.9501 38.0695 46.0501 37.2295 46.0501C36.5295 46.0501 35.8795 45.9801 35.2795 45.8401C34.6995 45.7201 34.2195 45.5801 33.8395 45.4201L34.6195 41.8501C35.0795 42.0101 35.4895 42.1201 35.8495 42.1801C36.2095 42.2401 36.5895 42.2701 36.9895 42.2701C37.7895 42.2701 38.3995 42.0501 38.8195 41.6101C39.2595 41.1901 39.6295 40.6001 39.9295 39.8401C38.9095 37.8401 37.8895 35.6001 36.8695 33.1201C35.8495 30.6201 34.8895 27.8201 33.9895 24.7201H38.7295C38.9295 25.5001 39.1595 26.3501 39.4195 27.2701C39.6995 28.1701 39.9895 29.0901 40.2895 30.0301C40.5895 30.9501 40.8895 31.8501 41.1895 32.7301C41.5095 33.6101 41.8095 34.4101 42.0895 35.1301C42.3495 34.4101 42.6195 33.6101 42.8995 32.7301C43.1795 31.8501 43.4495 30.9501 43.7095 30.0301C43.9895 29.0901 44.2495 28.1701 44.4895 27.2701C44.7495 26.3501 44.9795 25.5001 45.1795 24.7201H49.7995ZM62.3058 32.7301C62.3058 31.3501 61.9958 30.2501 61.3758 29.4301C60.7558 28.5901 59.8358 28.1701 58.6158 28.1701C58.2158 28.1701 57.8458 28.1901 57.5058 28.2301C57.1658 28.2501 56.8858 28.2801 56.6658 28.3201V36.3901C56.9458 36.5701 57.3058 36.7201 57.7458 36.8401C58.2058 36.9601 58.6658 37.0201 59.1258 37.0201C61.2458 37.0201 62.3058 35.5901 62.3058 32.7301ZM66.8658 32.6101C66.8658 33.8301 66.7158 34.9401 66.4158 35.9401C66.1158 36.9401 65.6758 37.8001 65.0958 38.5201C64.5158 39.2401 63.7958 39.8001 62.9358 40.2001C62.0758 40.6001 61.0858 40.8001 59.9658 40.8001C59.3458 40.8001 58.7658 40.7401 58.2258 40.6201C57.6858 40.5001 57.1658 40.3301 56.6658 40.1101V46.0501H52.1958V25.2601C52.5958 25.1401 53.0558 25.0301 53.5758 24.9301C54.0958 24.8101 54.6358 24.7101 55.1958 24.6301C55.7758 24.5501 56.3558 24.4901 56.9358 24.4501C57.5358 24.3901 58.1058 24.3601 58.6458 24.3601C59.9458 24.3601 61.1058 24.5601 62.1258 24.9601C63.1458 25.3401 64.0058 25.8901 64.7058 26.6101C65.4058 27.3101 65.9358 28.1701 66.2958 29.1901C66.6758 30.2101 66.8658 31.3501 66.8658 32.6101ZM70.1512 20.7901L74.6212 20.0701V24.7201H79.9912V28.4401H74.6212V33.9901C74.6212 34.9301 74.7812 35.6801 75.1012 36.2401C75.4412 36.8001 76.1112 37.0801 77.1112 37.0801C77.5912 37.0801 78.0812 37.0401 78.5812 36.9601C79.1012 36.8601 79.5712 36.7301 79.9912 36.5701L80.6212 40.0501C80.0812 40.2701 79.4812 40.4601 78.8212 40.6201C78.1612 40.7801 77.3512 40.8601 76.3912 40.8601C75.1712 40.8601 74.1612 40.7001 73.3612 40.3801C72.5612 40.0401 71.9212 39.5801 71.4412 39.0001C70.9612 38.4001 70.6212 37.6801 70.4212 36.8401C70.2412 36.0001 70.1512 35.0701 70.1512 34.0501V20.7901ZM97.8054 32.5801C97.8054 33.8201 97.6254 34.9601 97.2654 36.0001C96.9054 37.0201 96.3854 37.9001 95.7054 38.6401C95.0254 39.3601 94.2054 39.9201 93.2454 40.3201C92.3054 40.7201 91.2454 40.9201 90.0654 40.9201C88.9054 40.9201 87.8454 40.7201 86.8854 40.3201C85.9454 39.9201 85.1354 39.3601 84.4554 38.6401C83.7754 37.9001 83.2454 37.0201 82.8654 36.0001C82.4854 34.9601 82.2954 33.8201 82.2954 32.5801C82.2954 31.3401 82.4854 30.2101 82.8654 29.1901C83.2654 28.1701 83.8054 27.3001 84.4854 26.5801C85.1854 25.8601 86.0054 25.3001 86.9454 24.9001C87.9054 24.5001 88.9454 24.3001 90.0654 24.3001C91.2054 24.3001 92.2454 24.5001 93.1854 24.9001C94.1454 25.3001 94.9654 25.8601 95.6454 26.5801C96.3254 27.3001 96.8554 28.1701 97.2354 29.1901C97.6154 30.2101 97.8054 31.3401 97.8054 32.5801ZM93.2454 32.5801C93.2454 31.2001 92.9654 30.1201 92.4054 29.3401C91.8654 28.5401 91.0854 28.1401 90.0654 28.1401C89.0454 28.1401 88.2554 28.5401 87.6954 29.3401C87.1354 30.1201 86.8554 31.2001 86.8554 32.5801C86.8554 33.9601 87.1354 35.0601 87.6954 35.8801C88.2554 36.6801 89.0454 37.0801 90.0654 37.0801C91.0854 37.0801 91.8654 36.6801 92.4054 35.8801C92.9654 35.0601 93.2454 33.9601 93.2454 32.5801Z" fill="#263238"/>
<path d="M114.643 43.5001V30.5566L104.643 21.5001V43.5001H114.643Z" fill="#27CAEA"/>
<path d="M126.594 43.1863V30.4274L116.938 21.5001V43.1863H126.594Z" fill="#FFB04E"/>
</svg>
