<svg width="68" height="68" viewBox="0 0 68 68" fill="none" xmlns="http://www.w3.org/2000/svg">
<path d="M31.0428 7.46272C32.0486 4.94842 35.6077 4.94842 36.6136 7.46272L37.7146 10.2149C38.4585 12.0745 40.781 12.6968 42.355 11.4583L44.6846 9.62534C46.8128 7.95081 49.8951 9.73037 49.509 12.4107L49.0864 15.3447C48.8009 17.3271 50.5011 19.0273 52.4835 18.7417L55.4175 18.3191C58.0978 17.9331 59.8774 21.0154 58.2028 23.1436L56.3699 25.4732C55.1314 27.0472 55.7537 29.3697 57.6133 30.1136L60.3655 31.2146C62.8798 32.2204 62.8798 35.7796 60.3655 36.7854L57.6133 37.8864C55.7537 38.6303 55.1314 40.9528 56.3699 42.5268L58.2028 44.8564C59.8774 46.9846 58.0978 50.0669 55.4175 49.6809L52.4835 49.2583C50.5011 48.9727 48.8009 50.6729 49.0864 52.6553L49.509 55.5893C49.8951 58.2696 46.8128 60.0492 44.6846 58.3747L42.355 56.5417C40.781 55.3032 38.4585 55.9255 37.7146 57.7851L36.6136 60.5373C35.6077 63.0516 32.0486 63.0516 31.0428 60.5373L29.9418 57.7851C29.1979 55.9255 26.8754 55.3032 25.3013 56.5417L22.9718 58.3747C20.8435 60.0492 17.7613 58.2696 18.1473 55.5893L18.5699 52.6553C18.8555 50.6729 17.1553 48.9727 15.1729 49.2583L12.2389 49.6809C9.55856 50.0669 7.779 46.9846 9.45353 44.8564L11.2865 42.5268C12.525 40.9528 11.9027 38.6303 10.0431 37.8864L7.2909 36.7854C4.7766 35.7796 4.7766 32.2204 7.2909 31.2146L10.0431 30.1136C11.9027 29.3697 12.525 27.0472 11.2865 25.4732L9.45353 23.1436C7.779 21.0154 9.55856 17.9331 12.2389 18.3191L15.1729 18.7417C17.1553 19.0273 18.8555 17.3271 18.5699 15.3447L18.1473 12.4107C17.7613 9.73037 20.8435 7.95081 22.9718 9.62534L25.3013 11.4583C26.8754 12.6968 29.1979 12.0745 29.9418 10.2149L31.0428 7.46272Z" fill="#39DD49"/>
<path d="M44.3282 23.5L24.3282 43.5" stroke="#303030" stroke-width="3" stroke-linecap="round" stroke-linejoin="round"/>
<path d="M27.3282 30.5C29.5373 30.5 31.3282 28.7091 31.3282 26.5C31.3282 24.2909 29.5373 22.5 27.3282 22.5C25.119 22.5 23.3282 24.2909 23.3282 26.5C23.3282 28.7091 25.119 30.5 27.3282 30.5Z" stroke="#303030" stroke-width="3" stroke-linecap="round" stroke-linejoin="round"/>
<path d="M41.3282 44.5C43.5373 44.5 45.3282 42.7091 45.3282 40.5C45.3282 38.2909 43.5373 36.5 41.3282 36.5C39.119 36.5 37.3282 38.2909 37.3282 40.5C37.3282 42.7091 39.119 44.5 41.3282 44.5Z" stroke="#303030" stroke-width="3" stroke-linecap="round" stroke-linejoin="round"/>
</svg>
