<svg width="159" height="38" viewBox="0 0 159 38" fill="none" xmlns="http://www.w3.org/2000/svg">
<path d="M41.3274 9.08035C41.1364 8.88294 40.9092 8.72639 40.6588 8.61975C40.4085 8.51312 40.14 8.45853 39.8689 8.45914H35.7479V7.40176C35.7479 5.43872 34.988 3.55609 33.6356 2.16801C32.2831 0.779935 30.4487 0.00012207 28.536 0.00012207C26.6233 0.00012207 24.789 0.779935 23.4365 2.16801C22.084 3.55609 21.3242 5.43872 21.3242 7.40176V8.45914H17.2031C16.6566 8.45914 16.1325 8.68194 15.7461 9.07854C15.3597 9.47513 15.1426 10.013 15.1426 10.5739V24.8485C15.1426 27.4258 17.2675 29.6067 19.7788 29.6067H37.2933C38.508 29.6071 39.6747 29.1196 40.5437 28.2486C40.9811 27.8204 41.3294 27.3056 41.5675 26.7355C41.8057 26.1653 41.9288 25.5515 41.9295 24.9311V10.5739C41.9303 10.2965 41.8775 10.0216 41.7742 9.76523C41.6708 9.50887 41.519 9.27608 41.3274 9.08035ZM33.4613 15.993L27.6918 23.3946C27.5971 23.5161 27.4774 23.6146 27.3413 23.6832C27.2051 23.7517 27.0559 23.7886 26.9043 23.7911H26.8876C26.7388 23.7911 26.5917 23.758 26.4566 23.6942C26.3214 23.6303 26.2013 23.5371 26.1046 23.421L23.632 20.4551C23.544 20.3496 23.4772 20.2273 23.4353 20.0952C23.3934 19.9632 23.3772 19.824 23.3878 19.6855C23.3983 19.5471 23.4353 19.4121 23.4966 19.2884C23.558 19.1646 23.6425 19.0544 23.7453 18.9642C23.8481 18.8739 23.9673 18.8053 24.0959 18.7623C24.2246 18.7193 24.3602 18.7028 24.4951 18.7136C24.63 18.7244 24.7615 18.7623 24.8821 18.8253C25.0027 18.8882 25.11 18.975 25.198 19.0805L26.8618 21.0756L31.8528 14.6712C32.0236 14.4521 32.2722 14.3117 32.5439 14.2807C32.8156 14.2497 33.0882 14.3307 33.3016 14.506C33.5151 14.6813 33.652 14.9364 33.6822 15.2153C33.7124 15.4941 33.6334 15.7739 33.4626 15.993H33.4613ZM33.6873 8.45914H23.3847V7.40176C23.3847 5.99959 23.9274 4.65485 24.8935 3.66337C25.8595 2.67189 27.1698 2.11488 28.536 2.11488C29.9022 2.11488 31.2125 2.67189 32.1785 3.66337C33.1446 4.65485 33.6873 5.99959 33.6873 7.40176V8.45914Z" fill="#6AD368"/>
<path d="M52.8416 22.3739L49.9655 24.4041C50.3979 25.3251 50.9994 26.1804 51.7701 26.97C52.5408 27.7595 53.4431 28.3892 54.477 28.8591C55.5297 29.3103 56.6575 29.5359 57.8606 29.5359C58.7629 29.5359 59.6182 29.3949 60.4265 29.1129C61.2536 28.8497 61.9961 28.4644 62.654 27.9568C63.312 27.4305 63.8289 26.7914 64.2049 26.0395C64.5808 25.2876 64.7688 24.4323 64.7688 23.4736C64.7688 22.6277 64.6278 21.8851 64.3459 21.246C64.0827 20.5881 63.7067 20.0242 63.218 19.5542C62.748 19.0655 62.2123 18.6519 61.6108 18.3136C61.028 17.9752 60.4171 17.6932 59.778 17.4677C58.7817 17.1293 57.9546 16.8003 57.2967 16.4808C56.6387 16.1424 56.15 15.7947 55.8304 15.4375C55.5109 15.0615 55.3511 14.6292 55.3511 14.1405C55.3511 13.6517 55.5485 13.2288 55.9432 12.8716C56.338 12.4956 56.9301 12.3077 57.7196 12.3077C58.3212 12.3077 58.8569 12.4298 59.3268 12.6742C59.7968 12.8998 60.2103 13.21 60.5675 13.6047C60.9434 13.9807 61.263 14.4036 61.5262 14.8736L64.6842 13.1254C64.3459 12.4298 63.8665 11.7625 63.2462 11.1234C62.6446 10.4655 61.8833 9.92974 60.9622 9.51619C60.0599 9.08384 58.9791 8.86766 57.7196 8.86766C56.4978 8.86766 55.3887 9.09324 54.3924 9.54438C53.4149 9.97673 52.6348 10.6065 52.0521 11.4336C51.4881 12.2419 51.2062 13.21 51.2062 14.3378C51.2062 15.2777 51.3848 16.086 51.7419 16.7627C52.0991 17.4207 52.5502 17.9846 53.0954 18.4545C53.6405 18.9057 54.2138 19.2817 54.8154 19.5824C55.4357 19.8644 55.9808 20.09 56.4508 20.2591C57.3343 20.5975 58.0768 20.9171 58.6783 21.2178C59.2986 21.4998 59.7592 21.8288 60.0599 22.2047C60.3795 22.5807 60.5393 23.0788 60.5393 23.6991C60.5393 24.4135 60.2855 24.9774 59.778 25.3909C59.2704 25.8045 58.6125 26.0113 57.8042 26.0113C57.1087 26.0113 56.4602 25.8609 55.8586 25.5601C55.2571 25.2594 54.7026 24.8364 54.195 24.2913C53.7063 23.7461 53.2551 23.107 52.8416 22.3739ZM70.3119 24.968C70.3119 24.592 70.3965 24.2819 70.5656 24.0375C70.7348 23.7743 70.998 23.577 71.3552 23.4454C71.7123 23.295 72.1729 23.2198 72.7368 23.2198C73.4323 23.2198 74.0902 23.3138 74.7106 23.5018C75.3497 23.6897 75.923 23.9717 76.4306 24.3477V22.6559C76.2426 22.4303 75.9324 22.1953 75.5001 21.9509C75.0677 21.7066 74.532 21.4998 73.8929 21.3306C73.2725 21.1614 72.5488 21.0768 71.7217 21.0768C70.1051 21.0768 68.855 21.4434 67.9716 22.1765C67.0881 22.9096 66.6463 23.9059 66.6463 25.1654C66.6463 26.0489 66.8531 26.8008 67.2666 27.4211C67.699 28.0226 68.2629 28.4832 68.9584 28.8027C69.654 29.1223 70.4059 29.2821 71.2142 29.2821C72.0037 29.2821 72.7556 29.1411 73.4699 28.8591C74.203 28.5772 74.7952 28.1542 75.2463 27.5903C75.7163 27.0264 75.9512 26.3308 75.9512 25.5037L75.5001 23.8119C75.5001 24.4323 75.3591 24.968 75.0771 25.4191C74.7952 25.8515 74.4286 26.1898 73.9775 26.4342C73.5263 26.6598 73.0188 26.7726 72.4548 26.7726C72.0601 26.7726 71.6935 26.7068 71.3552 26.5752C71.0356 26.4248 70.7818 26.218 70.5938 25.9549C70.4059 25.6729 70.3119 25.3439 70.3119 24.968ZM68.902 19.6952C69.09 19.5636 69.3814 19.4038 69.7761 19.2159C70.1709 19.0279 70.6408 18.8681 71.186 18.7365C71.7311 18.6049 72.3044 18.5391 72.906 18.5391C73.3007 18.5391 73.6579 18.5767 73.9775 18.6519C74.297 18.7271 74.5696 18.8493 74.7952 19.0185C75.0395 19.1877 75.2181 19.4038 75.3309 19.667C75.4437 19.9114 75.5001 20.2121 75.5001 20.5693V29.0001H79.0247V19.808C79.0247 18.9245 78.7803 18.182 78.2916 17.5804C77.8028 16.9601 77.1261 16.4902 76.2614 16.1706C75.3967 15.8511 74.4098 15.6913 73.3007 15.6913C72.0977 15.6913 71.0074 15.8604 70.0299 16.1988C69.0524 16.5184 68.2253 16.8567 67.5486 17.2139L68.902 19.6952ZM82.4219 7.00668V29.0001H86.0875V7.00668H82.4219ZM95.8101 29.2821C97.3703 29.2821 98.7049 28.9813 99.814 28.3798C100.942 27.7595 101.844 26.8384 102.521 25.6165L99.3347 24.6296C98.9587 25.25 98.4794 25.7199 97.8966 26.0395C97.3327 26.3402 96.6466 26.4906 95.8383 26.4906C95.124 26.4906 94.513 26.3308 94.0055 26.0113C93.498 25.6917 93.1126 25.2312 92.8494 24.6296C92.6051 24.0281 92.4829 23.295 92.4829 22.4303C92.5017 21.528 92.6333 20.7761 92.8776 20.1745C93.1408 19.5542 93.5074 19.0937 93.9773 18.7929C94.466 18.4733 95.0676 18.3136 95.7819 18.3136C96.3646 18.3136 96.8722 18.4451 97.3045 18.7083C97.7369 18.9715 98.0658 19.3286 98.2914 19.7798C98.5358 20.2309 98.658 20.7761 98.658 21.4152C98.658 21.5468 98.6204 21.716 98.5452 21.9227C98.4888 22.1107 98.423 22.2611 98.3478 22.3739L99.3347 21.0768H90.9039V23.3326H102.521C102.54 23.2198 102.549 23.0694 102.549 22.8814C102.568 22.6935 102.577 22.5149 102.577 22.3457C102.577 20.9547 102.314 19.7704 101.788 18.7929C101.261 17.7966 100.491 17.0447 99.4757 16.5372C98.4794 16.0108 97.2669 15.7477 95.8383 15.7477C94.4096 15.7477 93.169 16.0296 92.1163 16.5936C91.0636 17.1387 90.2459 17.9188 89.6632 18.9339C89.0993 19.9302 88.8173 21.1238 88.8173 22.5149C88.8173 23.8871 89.0993 25.0808 89.6632 26.0959C90.2459 27.0921 91.0636 27.8723 92.1163 28.4362C93.169 29.0001 94.4002 29.2821 95.8101 29.2821ZM108.913 7.00668H105.247V29.0001H108.913V7.00668ZM119.571 22.5149C119.571 21.0674 119.28 19.8456 118.697 18.8493C118.114 17.8342 117.344 17.0635 116.385 16.5372C115.445 16.0108 114.43 15.7477 113.34 15.7477C112.268 15.7477 111.309 16.0202 110.464 16.5654C109.636 17.1105 108.979 17.8906 108.49 18.9057C108.001 19.902 107.757 21.105 107.757 22.5149C107.757 23.9059 108.001 25.109 108.49 26.1241C108.979 27.1391 109.636 27.9192 110.464 28.4644C111.309 29.0095 112.268 29.2821 113.34 29.2821C114.43 29.2821 115.445 29.0189 116.385 28.4926C117.344 27.9662 118.114 27.1955 118.697 26.1805C119.28 25.1654 119.571 23.9435 119.571 22.5149ZM115.793 22.5149C115.793 23.2856 115.633 23.9529 115.313 24.5168C114.994 25.0808 114.561 25.5131 114.016 25.8139C113.49 26.1147 112.907 26.265 112.268 26.265C111.723 26.265 111.187 26.1241 110.661 25.8421C110.153 25.5413 109.73 25.109 109.392 24.545C109.073 23.9811 108.913 23.3044 108.913 22.5149C108.913 21.7254 109.073 21.0486 109.392 20.4847C109.73 19.9208 110.153 19.4978 110.661 19.2159C111.187 18.9151 111.723 18.7647 112.268 18.7647C112.907 18.7647 113.49 18.9151 114.016 19.2159C114.561 19.5166 114.994 19.949 115.313 20.5129C115.633 21.0768 115.793 21.7442 115.793 22.5149ZM122.125 11.0106C122.125 11.5933 122.341 12.0821 122.773 12.4768C123.206 12.8716 123.722 13.069 124.324 13.069C124.926 13.069 125.433 12.8716 125.847 12.4768C126.279 12.0821 126.495 11.5933 126.495 11.0106C126.495 10.4091 126.279 9.92034 125.847 9.54438C125.433 9.14963 124.926 8.95225 124.324 8.95225C123.722 8.95225 123.206 9.14963 122.773 9.54438C122.341 9.92034 122.125 10.4091 122.125 11.0106ZM122.519 16.0296V29.0001H126.072V16.0296H122.519ZM138.323 21.105V29.0001H142.102V20.7103C142.102 19.1501 141.726 17.9376 140.974 17.0729C140.222 16.1894 139.075 15.7477 137.534 15.7477C136.613 15.7477 135.823 15.945 135.165 16.3398C134.526 16.7158 134.009 17.2703 133.614 18.0034V16.0296H129.949V29.0001H133.614V21.105C133.614 20.5599 133.718 20.09 133.925 19.6952C134.131 19.3005 134.432 18.9997 134.827 18.7929C135.222 18.5673 135.673 18.4545 136.18 18.4545C136.932 18.4545 137.477 18.6801 137.816 19.1313C138.154 19.5824 138.323 20.2403 138.323 21.105Z" fill="#303030"/>
</svg>
