<svg width="681" height="608" viewBox="0 0 681 608" fill="none" xmlns="http://www.w3.org/2000/svg">
<path d="M278.736 20.1617C276.063 10.1851 265.78 4.20146 256.015 7.56609C200.304 26.7616 152.321 63.9292 119.793 113.482C83.8342 168.263 69.2759 234.354 78.89 299.173C88.504 363.992 121.619 423.012 171.93 464.997C222.242 506.982 286.236 528.999 351.729 526.857C417.222 524.715 479.641 498.563 527.101 453.38C574.561 408.197 603.749 347.139 609.107 281.831C614.464 216.522 595.618 151.523 556.157 99.2094C520.461 51.8879 470.151 17.9355 413.304 2.42142C403.34 -0.297908 393.471 6.34493 391.455 16.4749C389.44 26.6047 396.048 36.3759 405.98 39.2087C453.827 52.8556 496.13 81.7432 526.297 121.734C560.23 166.719 576.436 222.612 571.829 278.772C567.222 334.932 542.123 387.437 501.311 426.29C460.5 465.144 406.825 487.632 350.506 489.474C294.188 491.316 239.158 472.383 195.895 436.28C152.631 400.177 124.155 349.424 115.888 293.685C107.621 237.946 120.14 181.114 151.061 134.007C178.55 92.1307 218.875 60.5405 265.728 43.7962C275.454 40.3203 281.409 30.1382 278.736 20.1617Z" fill="#DFDFDF"/>
<g filter="url(#filter0_bdi_0_1)">
<path d="M450.653 81.9301C450.292 45.1346 479.829 15.0136 516.624 14.653C553.42 14.2923 583.541 43.8287 583.901 80.6242C584.262 117.42 554.726 147.541 517.93 147.901C481.135 148.262 451.014 118.726 450.653 81.9301Z" fill="url(#paint0_linear_0_1)" fill-opacity="0.93" shape-rendering="crispEdges"/>
</g>
<circle cx="503.609" cy="96.6091" r="16.5" fill="#E0D9FF"/>
<path d="M501.109 84.1091V97.5384C501.109 97.955 501.278 98.3545 501.578 98.6491C501.878 98.9436 502.285 99.1091 502.709 99.1091H531.509C531.934 99.1091 532.341 98.9436 532.641 98.6491C532.941 98.3545 533.109 97.955 533.109 97.5384V84.1091" stroke="#6B49F1" stroke-width="3" stroke-linecap="round" stroke-linejoin="round"/>
<path d="M501.693 63.1091H532.526C532.888 63.1122 533.239 63.2346 533.527 63.4584C533.816 63.6821 534.028 63.9954 534.13 64.352L537.109 75.1091H497.109L500.089 64.352C500.191 63.9954 500.402 63.6821 500.691 63.4584C500.98 63.2346 501.331 63.1122 501.693 63.1091V63.1091Z" stroke="#6B49F1" stroke-width="3" stroke-linecap="round" stroke-linejoin="round"/>
<path d="M511.109 75.1091V78.4425C511.109 80.2106 510.372 81.9063 509.059 83.1565C507.746 84.4068 505.966 85.1091 504.109 85.1091C502.253 85.1091 500.472 84.4068 499.16 83.1565C497.847 81.9063 497.109 80.2106 497.109 78.4425V75.1091" stroke="#6B49F1" stroke-width="3" stroke-linecap="round" stroke-linejoin="round"/>
<path d="M523.109 75.1091V78.4425C523.109 80.2106 522.477 81.9063 521.352 83.1565C520.227 84.4068 518.701 85.1091 517.109 85.1091C515.518 85.1091 513.992 84.4068 512.867 83.1565C511.742 81.9063 511.109 80.2106 511.109 78.4425V75.1091" stroke="#6B49F1" stroke-width="3" stroke-linecap="round" stroke-linejoin="round"/>
<path d="M537.109 75.1091V78.4425C537.109 80.2106 536.372 81.9063 535.059 83.1565C533.746 84.4068 531.966 85.1091 530.109 85.1091C528.253 85.1091 526.472 84.4068 525.16 83.1565C523.847 81.9063 523.109 80.2106 523.109 78.4425V75.1091" stroke="#6B49F1" stroke-width="3" stroke-linecap="round" stroke-linejoin="round"/>
<g filter="url(#filter1_bdi_0_1)">
<rect x="519" y="186.306" width="133.255" height="133.255" rx="66.6274" transform="rotate(-0.561514 519 186.306)" fill="url(#paint1_linear_0_1)" fill-opacity="0.93" shape-rendering="crispEdges"/>
</g>
<circle cx="598.5" cy="230.5" r="16.5" fill="#F9DCEF"/>
<path d="M573 234.231L573 269.769C573 271.554 574.455 273 576.25 273L595.75 273C597.545 273 599 271.554 599 269.769L599 234.231C599 232.446 597.545 231 595.75 231L576.25 231C574.455 231 573 232.446 573 234.231Z" stroke="#FF65CB" stroke-width="3" stroke-linecap="round" stroke-linejoin="round"/>
<path d="M586 263C584.895 263 584 263.895 584 265C584 266.105 584.895 267 586 267C587.105 267 588 266.105 588 265C588 263.895 587.105 263 586 263Z" fill="#FF65CB"/>
<g filter="url(#filter2_bdi_0_1)">
<rect x="450" y="352.306" width="133.255" height="133.255" rx="66.6274" transform="rotate(-0.561514 450 352.306)" fill="url(#paint2_linear_0_1)" fill-opacity="0.93" shape-rendering="crispEdges"/>
</g>
<circle cx="534.5" cy="431.5" r="16.5" fill="#C8E7CB"/>
<path d="M498 404H536V430.444C536 430.857 535.833 431.253 535.536 431.544C535.239 431.836 534.837 432 534.417 432H499.583C499.163 432 498.761 431.836 498.464 431.544C498.167 431.253 498 430.857 498 430.444V404Z" stroke="#54CC60" stroke-width="3" stroke-linecap="round" stroke-linejoin="round"/>
<path d="M536 404L517 421L498 404" stroke="#54CC60" stroke-width="3" stroke-linecap="round" stroke-linejoin="round"/>
<g filter="url(#filter3_bdi_0_1)">
<rect x="277" y="433.306" width="133.255" height="133.255" rx="66.6274" transform="rotate(-0.561514 277 433.306)" fill="url(#paint3_linear_0_1)" fill-opacity="0.93" shape-rendering="crispEdges"/>
</g>
<circle cx="326.5" cy="491.5" r="16.5" fill="#F0E4D1"/>
<path d="M322.241 505.167C320.251 501.814 319.554 497.851 320.28 494.021C321.006 490.191 323.105 486.757 326.183 484.365C329.262 481.974 333.108 480.788 336.998 481.031C340.889 481.274 344.557 482.93 347.314 485.686C350.07 488.443 351.726 492.111 351.969 496.002C352.212 499.892 351.026 503.738 348.635 506.817C346.243 509.895 342.809 511.994 338.979 512.72C335.149 513.446 331.186 512.749 327.833 510.759L322.308 512.334C322.08 512.398 321.839 512.401 321.611 512.341C321.382 512.281 321.173 512.161 321.006 511.994C320.839 511.827 320.719 511.618 320.659 511.389C320.599 511.161 320.602 510.92 320.666 510.692L322.241 505.167Z" stroke="#FFB545" stroke-width="3" stroke-linecap="round" stroke-linejoin="round"/>
<path d="M335 513.303C335.781 515.538 337.046 517.57 338.705 519.254C340.364 520.938 342.375 522.231 344.592 523.039C346.809 523.848 349.178 524.152 351.526 523.929C353.875 523.707 356.145 522.964 358.173 521.753V521.753L363.689 523.332C363.916 523.396 364.157 523.399 364.385 523.339C364.614 523.279 364.822 523.159 364.989 522.991C365.156 522.824 365.275 522.614 365.335 522.385C365.395 522.156 365.392 521.915 365.329 521.687L363.756 516.15C365.16 513.784 365.932 511.094 365.996 508.34C366.06 505.587 365.414 502.864 364.122 500.434C362.829 498.005 360.933 495.952 358.618 494.474C356.303 492.997 353.646 492.144 350.906 492" stroke="#FFB545" stroke-width="3" stroke-linecap="round" stroke-linejoin="round"/>
<g filter="url(#filter4_bdi_0_1)">
<rect x="107" y="352.306" width="133.255" height="133.255" rx="66.6274" transform="rotate(-0.561514 107 352.306)" fill="url(#paint4_linear_0_1)" fill-opacity="0.93" shape-rendering="crispEdges"/>
</g>
<circle cx="158.5" cy="401.5" r="16.5" fill="#FFDEDE"/>
<path d="M157 440C156.997 439.348 157.127 438.703 157.383 438.1C157.638 437.497 158.013 436.95 158.488 436.489C158.962 436.028 159.525 435.663 160.145 435.415C160.765 435.167 161.43 435.041 162.1 435.043H191V402H162.1C161.43 401.997 160.765 402.124 160.145 402.372C159.525 402.62 158.962 402.985 158.488 403.446C158.013 403.906 157.638 404.454 157.383 405.057C157.127 405.659 156.997 406.305 157 406.957V440Z" stroke="#FF5F5F" stroke-width="3" stroke-linecap="round" stroke-linejoin="round"/>
<path d="M157 440V442H187" stroke="#FF5F5F" stroke-width="3" stroke-linecap="round" stroke-linejoin="round"/>
<g filter="url(#filter5_bdi_0_1)">
<rect x="28" y="185.306" width="133.255" height="133.255" rx="66.6274" transform="rotate(-0.561514 28 185.306)" fill="url(#paint5_linear_0_1)" fill-opacity="0.93" shape-rendering="crispEdges"/>
</g>
<path d="M92 252.875C96.1421 252.875 99.5 249.517 99.5 245.375C99.5 241.233 96.1421 237.875 92 237.875C87.8579 237.875 84.5 241.233 84.5 245.375C84.5 249.517 87.8579 252.875 92 252.875Z" stroke="#1ACCB7" stroke-width="3" stroke-linecap="round" stroke-linejoin="round"/>
<circle cx="103.5" cy="269.5" r="16.5" fill="#C6ECE6"/>
<path d="M110.75 245.375C110.75 262.25 92 275.375 92 275.375C92 275.375 73.25 262.25 73.25 245.375C73.25 240.402 75.2254 235.633 78.7417 232.117C82.2581 228.6 87.0272 226.625 92 226.625C96.9728 226.625 101.742 228.6 105.258 232.117C108.775 235.633 110.75 240.402 110.75 245.375V245.375Z" stroke="#1ACCB7" stroke-width="3" stroke-linecap="round" stroke-linejoin="round"/>
<g filter="url(#filter6_bdi_0_1)">
<rect x="107" y="15.3059" width="133.255" height="133.255" rx="66.6274" transform="rotate(-0.561514 107 15.3059)" fill="url(#paint6_linear_0_1)" fill-opacity="0.93" shape-rendering="crispEdges"/>
</g>
<circle cx="190.5" cy="94.5" r="16.5" fill="#D1EAF2"/>
<path d="M182.812 92.8125H158.723L152.838 60.4547C152.769 60.0672 152.567 59.7159 152.267 59.4617C151.966 59.2075 151.587 59.0663 151.193 59.0625H147.375" stroke="#37C4F0" stroke-width="3" stroke-linecap="round" stroke-linejoin="round"/>
<path d="M160.875 101.25C163.205 101.25 165.094 99.3612 165.094 97.0312C165.094 94.7013 163.205 92.8125 160.875 92.8125C158.545 92.8125 156.656 94.7013 156.656 97.0312C156.656 99.3612 158.545 101.25 160.875 101.25Z" stroke="#37C4F0" stroke-width="3" stroke-linecap="round" stroke-linejoin="round"/>
<path d="M182.812 101.25C185.142 101.25 187.031 99.3612 187.031 97.0312C187.031 94.7013 185.142 92.8125 182.812 92.8125C180.483 92.8125 178.594 94.7013 178.594 97.0312C178.594 99.3612 180.483 101.25 182.812 101.25Z" stroke="#37C4F0" stroke-width="3" stroke-linecap="round" stroke-linejoin="round"/>
<path d="M157.184 84.375H183.677C184.466 84.3774 185.231 84.1017 185.836 83.5963C186.442 83.0909 186.85 82.3882 186.989 81.6117L189.562 67.5H154.125" stroke="#37C4F0" stroke-width="3" stroke-linecap="round" stroke-linejoin="round"/>
<defs>
<filter id="filter0_bdi_0_1" x="422.65" y="-6.78882" width="189.255" height="196.693" filterUnits="userSpaceOnUse" color-interpolation-filters="sRGB">
<feFlood flood-opacity="0" result="BackgroundImageFix"/>
<feGaussianBlur in="BackgroundImageFix" stdDeviation="10.7192"/>
<feComposite in2="SourceAlpha" operator="in" result="effect1_backgroundBlur_0_1"/>
<feColorMatrix in="SourceAlpha" type="matrix" values="0 0 0 0 0 0 0 0 0 0 0 0 0 0 0 0 0 0 127 0" result="hardAlpha"/>
<feOffset dy="14"/>
<feGaussianBlur stdDeviation="14"/>
<feComposite in2="hardAlpha" operator="out"/>
<feColorMatrix type="matrix" values="0 0 0 0 0.804167 0 0 0 0 0.804167 0 0 0 0 0.804167 0 0 0 0.25 0"/>
<feBlend mode="normal" in2="effect1_backgroundBlur_0_1" result="effect2_dropShadow_0_1"/>
<feBlend mode="normal" in="SourceGraphic" in2="effect2_dropShadow_0_1" result="shape"/>
<feColorMatrix in="SourceAlpha" type="matrix" values="0 0 0 0 0 0 0 0 0 0 0 0 0 0 0 0 0 0 127 0" result="hardAlpha"/>
<feOffset dx="-2.57262" dy="2.57262"/>
<feComposite in2="hardAlpha" operator="arithmetic" k2="-1" k3="1"/>
<feColorMatrix type="matrix" values="0 0 0 0 1 0 0 0 0 1 0 0 0 0 1 0 0 0 1 0"/>
<feBlend mode="normal" in2="shape" result="effect3_innerShadow_0_1"/>
</filter>
<filter id="filter1_bdi_0_1" x="491.65" y="164.211" width="189.255" height="196.693" filterUnits="userSpaceOnUse" color-interpolation-filters="sRGB">
<feFlood flood-opacity="0" result="BackgroundImageFix"/>
<feGaussianBlur in="BackgroundImageFix" stdDeviation="10.7192"/>
<feComposite in2="SourceAlpha" operator="in" result="effect1_backgroundBlur_0_1"/>
<feColorMatrix in="SourceAlpha" type="matrix" values="0 0 0 0 0 0 0 0 0 0 0 0 0 0 0 0 0 0 127 0" result="hardAlpha"/>
<feOffset dy="14"/>
<feGaussianBlur stdDeviation="14"/>
<feComposite in2="hardAlpha" operator="out"/>
<feColorMatrix type="matrix" values="0 0 0 0 0.804167 0 0 0 0 0.804167 0 0 0 0 0.804167 0 0 0 0.25 0"/>
<feBlend mode="normal" in2="effect1_backgroundBlur_0_1" result="effect2_dropShadow_0_1"/>
<feBlend mode="normal" in="SourceGraphic" in2="effect2_dropShadow_0_1" result="shape"/>
<feColorMatrix in="SourceAlpha" type="matrix" values="0 0 0 0 0 0 0 0 0 0 0 0 0 0 0 0 0 0 127 0" result="hardAlpha"/>
<feOffset dx="-2.57262" dy="2.57262"/>
<feComposite in2="hardAlpha" operator="arithmetic" k2="-1" k3="1"/>
<feColorMatrix type="matrix" values="0 0 0 0 1 0 0 0 0 1 0 0 0 0 1 0 0 0 1 0"/>
<feBlend mode="normal" in2="shape" result="effect3_innerShadow_0_1"/>
</filter>
<filter id="filter2_bdi_0_1" x="422.65" y="330.211" width="189.255" height="196.693" filterUnits="userSpaceOnUse" color-interpolation-filters="sRGB">
<feFlood flood-opacity="0" result="BackgroundImageFix"/>
<feGaussianBlur in="BackgroundImageFix" stdDeviation="10.7192"/>
<feComposite in2="SourceAlpha" operator="in" result="effect1_backgroundBlur_0_1"/>
<feColorMatrix in="SourceAlpha" type="matrix" values="0 0 0 0 0 0 0 0 0 0 0 0 0 0 0 0 0 0 127 0" result="hardAlpha"/>
<feOffset dy="14"/>
<feGaussianBlur stdDeviation="14"/>
<feComposite in2="hardAlpha" operator="out"/>
<feColorMatrix type="matrix" values="0 0 0 0 0.804167 0 0 0 0 0.804167 0 0 0 0 0.804167 0 0 0 0.25 0"/>
<feBlend mode="normal" in2="effect1_backgroundBlur_0_1" result="effect2_dropShadow_0_1"/>
<feBlend mode="normal" in="SourceGraphic" in2="effect2_dropShadow_0_1" result="shape"/>
<feColorMatrix in="SourceAlpha" type="matrix" values="0 0 0 0 0 0 0 0 0 0 0 0 0 0 0 0 0 0 127 0" result="hardAlpha"/>
<feOffset dx="-2.57262" dy="2.57262"/>
<feComposite in2="hardAlpha" operator="arithmetic" k2="-1" k3="1"/>
<feColorMatrix type="matrix" values="0 0 0 0 1 0 0 0 0 1 0 0 0 0 1 0 0 0 1 0"/>
<feBlend mode="normal" in2="shape" result="effect3_innerShadow_0_1"/>
</filter>
<filter id="filter3_bdi_0_1" x="249.65" y="411.211" width="189.255" height="196.693" filterUnits="userSpaceOnUse" color-interpolation-filters="sRGB">
<feFlood flood-opacity="0" result="BackgroundImageFix"/>
<feGaussianBlur in="BackgroundImageFix" stdDeviation="10.7192"/>
<feComposite in2="SourceAlpha" operator="in" result="effect1_backgroundBlur_0_1"/>
<feColorMatrix in="SourceAlpha" type="matrix" values="0 0 0 0 0 0 0 0 0 0 0 0 0 0 0 0 0 0 127 0" result="hardAlpha"/>
<feOffset dy="14"/>
<feGaussianBlur stdDeviation="14"/>
<feComposite in2="hardAlpha" operator="out"/>
<feColorMatrix type="matrix" values="0 0 0 0 0.804167 0 0 0 0 0.804167 0 0 0 0 0.804167 0 0 0 0.25 0"/>
<feBlend mode="normal" in2="effect1_backgroundBlur_0_1" result="effect2_dropShadow_0_1"/>
<feBlend mode="normal" in="SourceGraphic" in2="effect2_dropShadow_0_1" result="shape"/>
<feColorMatrix in="SourceAlpha" type="matrix" values="0 0 0 0 0 0 0 0 0 0 0 0 0 0 0 0 0 0 127 0" result="hardAlpha"/>
<feOffset dx="-2.57262" dy="2.57262"/>
<feComposite in2="hardAlpha" operator="arithmetic" k2="-1" k3="1"/>
<feColorMatrix type="matrix" values="0 0 0 0 1 0 0 0 0 1 0 0 0 0 1 0 0 0 1 0"/>
<feBlend mode="normal" in2="shape" result="effect3_innerShadow_0_1"/>
</filter>
<filter id="filter4_bdi_0_1" x="79.6497" y="330.211" width="189.255" height="196.693" filterUnits="userSpaceOnUse" color-interpolation-filters="sRGB">
<feFlood flood-opacity="0" result="BackgroundImageFix"/>
<feGaussianBlur in="BackgroundImageFix" stdDeviation="10.7192"/>
<feComposite in2="SourceAlpha" operator="in" result="effect1_backgroundBlur_0_1"/>
<feColorMatrix in="SourceAlpha" type="matrix" values="0 0 0 0 0 0 0 0 0 0 0 0 0 0 0 0 0 0 127 0" result="hardAlpha"/>
<feOffset dy="14"/>
<feGaussianBlur stdDeviation="14"/>
<feComposite in2="hardAlpha" operator="out"/>
<feColorMatrix type="matrix" values="0 0 0 0 0.804167 0 0 0 0 0.804167 0 0 0 0 0.804167 0 0 0 0.25 0"/>
<feBlend mode="normal" in2="effect1_backgroundBlur_0_1" result="effect2_dropShadow_0_1"/>
<feBlend mode="normal" in="SourceGraphic" in2="effect2_dropShadow_0_1" result="shape"/>
<feColorMatrix in="SourceAlpha" type="matrix" values="0 0 0 0 0 0 0 0 0 0 0 0 0 0 0 0 0 0 127 0" result="hardAlpha"/>
<feOffset dx="-2.57262" dy="2.57262"/>
<feComposite in2="hardAlpha" operator="arithmetic" k2="-1" k3="1"/>
<feColorMatrix type="matrix" values="0 0 0 0 1 0 0 0 0 1 0 0 0 0 1 0 0 0 1 0"/>
<feBlend mode="normal" in2="shape" result="effect3_innerShadow_0_1"/>
</filter>
<filter id="filter5_bdi_0_1" x="0.649693" y="163.211" width="189.255" height="196.693" filterUnits="userSpaceOnUse" color-interpolation-filters="sRGB">
<feFlood flood-opacity="0" result="BackgroundImageFix"/>
<feGaussianBlur in="BackgroundImageFix" stdDeviation="10.7192"/>
<feComposite in2="SourceAlpha" operator="in" result="effect1_backgroundBlur_0_1"/>
<feColorMatrix in="SourceAlpha" type="matrix" values="0 0 0 0 0 0 0 0 0 0 0 0 0 0 0 0 0 0 127 0" result="hardAlpha"/>
<feOffset dy="14"/>
<feGaussianBlur stdDeviation="14"/>
<feComposite in2="hardAlpha" operator="out"/>
<feColorMatrix type="matrix" values="0 0 0 0 0.804167 0 0 0 0 0.804167 0 0 0 0 0.804167 0 0 0 0.25 0"/>
<feBlend mode="normal" in2="effect1_backgroundBlur_0_1" result="effect2_dropShadow_0_1"/>
<feBlend mode="normal" in="SourceGraphic" in2="effect2_dropShadow_0_1" result="shape"/>
<feColorMatrix in="SourceAlpha" type="matrix" values="0 0 0 0 0 0 0 0 0 0 0 0 0 0 0 0 0 0 127 0" result="hardAlpha"/>
<feOffset dx="-2.57262" dy="2.57262"/>
<feComposite in2="hardAlpha" operator="arithmetic" k2="-1" k3="1"/>
<feColorMatrix type="matrix" values="0 0 0 0 1 0 0 0 0 1 0 0 0 0 1 0 0 0 1 0"/>
<feBlend mode="normal" in2="shape" result="effect3_innerShadow_0_1"/>
</filter>
<filter id="filter6_bdi_0_1" x="79.6497" y="-6.78882" width="189.255" height="196.693" filterUnits="userSpaceOnUse" color-interpolation-filters="sRGB">
<feFlood flood-opacity="0" result="BackgroundImageFix"/>
<feGaussianBlur in="BackgroundImageFix" stdDeviation="10.7192"/>
<feComposite in2="SourceAlpha" operator="in" result="effect1_backgroundBlur_0_1"/>
<feColorMatrix in="SourceAlpha" type="matrix" values="0 0 0 0 0 0 0 0 0 0 0 0 0 0 0 0 0 0 127 0" result="hardAlpha"/>
<feOffset dy="14"/>
<feGaussianBlur stdDeviation="14"/>
<feComposite in2="hardAlpha" operator="out"/>
<feColorMatrix type="matrix" values="0 0 0 0 0.804167 0 0 0 0 0.804167 0 0 0 0 0.804167 0 0 0 0.25 0"/>
<feBlend mode="normal" in2="effect1_backgroundBlur_0_1" result="effect2_dropShadow_0_1"/>
<feBlend mode="normal" in="SourceGraphic" in2="effect2_dropShadow_0_1" result="shape"/>
<feColorMatrix in="SourceAlpha" type="matrix" values="0 0 0 0 0 0 0 0 0 0 0 0 0 0 0 0 0 0 127 0" result="hardAlpha"/>
<feOffset dx="-2.57262" dy="2.57262"/>
<feComposite in2="hardAlpha" operator="arithmetic" k2="-1" k3="1"/>
<feColorMatrix type="matrix" values="0 0 0 0 1 0 0 0 0 1 0 0 0 0 1 0 0 0 1 0"/>
<feBlend mode="normal" in2="shape" result="effect3_innerShadow_0_1"/>
</filter>
<linearGradient id="paint0_linear_0_1" x1="571.967" y1="62.7058" x2="456.31" y2="50.7076" gradientUnits="userSpaceOnUse">
<stop stop-color="#F4F4F4"/>
<stop offset="0.421875" stop-color="#F4F4F4"/>
<stop offset="1" stop-color="white"/>
</linearGradient>
<linearGradient id="paint1_linear_0_1" x1="640.497" y1="234.899" x2="524.963" y2="221.768" gradientUnits="userSpaceOnUse">
<stop stop-color="#F4F4F4"/>
<stop offset="0.421875" stop-color="#F4F4F4"/>
<stop offset="1" stop-color="white"/>
</linearGradient>
<linearGradient id="paint2_linear_0_1" x1="571.497" y1="400.899" x2="455.963" y2="387.768" gradientUnits="userSpaceOnUse">
<stop stop-color="#F4F4F4"/>
<stop offset="0.421875" stop-color="#F4F4F4"/>
<stop offset="1" stop-color="white"/>
</linearGradient>
<linearGradient id="paint3_linear_0_1" x1="398.497" y1="481.899" x2="282.963" y2="468.768" gradientUnits="userSpaceOnUse">
<stop stop-color="#F4F4F4"/>
<stop offset="0.421875" stop-color="#F4F4F4"/>
<stop offset="1" stop-color="white"/>
</linearGradient>
<linearGradient id="paint4_linear_0_1" x1="228.497" y1="400.899" x2="112.963" y2="387.768" gradientUnits="userSpaceOnUse">
<stop stop-color="#F4F4F4"/>
<stop offset="0.421875" stop-color="#F4F4F4"/>
<stop offset="1" stop-color="white"/>
</linearGradient>
<linearGradient id="paint5_linear_0_1" x1="149.497" y1="233.899" x2="33.9626" y2="220.768" gradientUnits="userSpaceOnUse">
<stop stop-color="#F4F4F4"/>
<stop offset="0.421875" stop-color="#F4F4F4"/>
<stop offset="1" stop-color="white"/>
</linearGradient>
<linearGradient id="paint6_linear_0_1" x1="228.497" y1="63.8988" x2="112.963" y2="50.7678" gradientUnits="userSpaceOnUse">
<stop stop-color="#F4F4F4"/>
<stop offset="0.421875" stop-color="#F4F4F4"/>
<stop offset="1" stop-color="white"/>
</linearGradient>
</defs>
</svg>
