<svg width="30" height="30" viewBox="0 0 30 30" fill="none" xmlns="http://www.w3.org/2000/svg">
<path d="M13.3354 2.0584C13.8527 0.466231 16.1052 0.466231 16.6225 2.0584L18.9203 9.13033C19.1517 9.84237 19.8152 10.3245 20.5639 10.3245L27.9998 10.3245C29.6739 10.3245 30.3699 12.4667 29.0156 13.4507L22.9998 17.8214C22.3941 18.2615 22.1407 19.0415 22.372 19.7535L24.6698 26.8255C25.1872 28.4177 23.3649 29.7416 22.0105 28.7576L15.9947 24.3869C15.389 23.9469 14.5689 23.9469 13.9632 24.3869L7.94742 28.7576C6.59304 29.7416 4.77074 28.4177 5.28807 26.8255L7.58588 19.7535C7.81723 19.0415 7.56378 18.2615 6.95809 17.8214L0.942342 13.4507C-0.412037 12.4667 0.284022 10.3245 1.95813 10.3245L9.394 10.3245C10.1427 10.3245 10.8062 9.84237 11.0376 9.13033L13.3354 2.0584Z" fill="#FFB545"/>
</svg>
