<svg width="115" height="35" viewBox="0 0 115 35" fill="none" xmlns="http://www.w3.org/2000/svg">
<path d="M49.9766 9.88412C49.9046 10.8021 49.8506 11.6841 49.8146 12.5301C49.7966 13.3761 49.7876 14.0241 49.7876 14.4741C49.7876 14.8701 49.7966 15.2481 49.8146 15.6081C49.8326 15.9681 49.8506 16.2741 49.8686 16.5261H49.2476C48.9596 15.0141 48.5906 13.8171 48.1406 12.9351C47.7086 12.0531 47.1866 11.4321 46.5746 11.0721C45.9626 10.6941 45.2426 10.5051 44.4146 10.5051H43.7936V25.9221C43.7936 26.6421 43.8656 27.1821 44.0096 27.5421C44.1716 27.9021 44.4596 28.1451 44.8736 28.2711C45.2876 28.3791 45.8906 28.4421 46.6826 28.4601V29.0001C46.1246 28.9821 45.3776 28.9641 44.4416 28.9461C43.5236 28.9281 42.5606 28.9191 41.5526 28.9191C40.5626 28.9191 39.6266 28.9281 38.7446 28.9461C37.8626 28.9641 37.1516 28.9821 36.6116 29.0001V28.4601C37.4216 28.4421 38.0336 28.3791 38.4476 28.2711C38.8616 28.1451 39.1406 27.9021 39.2846 27.5421C39.4286 27.1821 39.5006 26.6421 39.5006 25.9221V10.5051H38.9066C38.0786 10.5051 37.3586 10.6941 36.7466 11.0721C36.1346 11.4321 35.6126 12.0531 35.1806 12.9351C34.7486 13.7991 34.3706 14.9961 34.0466 16.5261H33.4256C33.4616 16.2741 33.4796 15.9681 33.4796 15.6081C33.4976 15.2481 33.5066 14.8701 33.5066 14.4741C33.5066 14.0241 33.4886 13.3761 33.4526 12.5301C33.4346 11.6841 33.3896 10.8021 33.3176 9.88412C34.1456 9.90212 35.0456 9.92012 36.0176 9.93812C37.0076 9.95612 37.9976 9.96512 38.9876 9.96512C39.9776 9.96512 40.8686 9.96512 41.6606 9.96512C42.4706 9.96512 43.3616 9.96512 44.3336 9.96512C45.3236 9.96512 46.3136 9.95612 47.3036 9.93812C48.2936 9.92012 49.1846 9.90212 49.9766 9.88412ZM54.3662 29.1891C53.5562 29.1891 52.8812 29.0361 52.3412 28.7301C51.8012 28.4241 51.4052 28.0191 51.1532 27.5151C50.9012 26.9931 50.7752 26.4261 50.7752 25.8141C50.7752 25.0401 50.9462 24.4101 51.2882 23.9241C51.6482 23.4381 52.1072 23.0421 52.6652 22.7361C53.2232 22.4301 53.8082 22.1781 54.4202 21.9801C55.0502 21.7821 55.6442 21.5931 56.2022 21.4131C56.7782 21.2151 57.2372 20.9901 57.5792 20.7381C57.9392 20.4681 58.1192 20.1261 58.1192 19.7121V17.6061C58.1192 17.1381 58.0382 16.7241 57.8762 16.3641C57.7322 15.9861 57.4982 15.6981 57.1742 15.5001C56.8682 15.3021 56.4632 15.2031 55.9592 15.2031C55.5992 15.2031 55.2392 15.2571 54.8792 15.3651C54.5192 15.4551 54.2222 15.6171 53.9882 15.8511C54.4922 16.0311 54.8792 16.3101 55.1492 16.6881C55.4372 17.0481 55.5812 17.4621 55.5812 17.9301C55.5812 18.5421 55.3652 19.0281 54.9332 19.3881C54.5192 19.7481 54.0242 19.9281 53.4482 19.9281C52.8002 19.9281 52.3052 19.7301 51.9632 19.3341C51.6392 18.9201 51.4772 18.4251 51.4772 17.8491C51.4772 17.3271 51.6032 16.8951 51.8552 16.5531C52.1252 16.2111 52.4942 15.8871 52.9622 15.5811C53.4662 15.2931 54.0692 15.0681 54.7712 14.9061C55.4912 14.7441 56.2652 14.6631 57.0932 14.6631C57.9212 14.6631 58.6682 14.7531 59.3342 14.9331C60.0002 15.0951 60.5582 15.4011 61.0082 15.8511C61.4222 16.2651 61.6922 16.7781 61.8182 17.3901C61.9442 17.9841 62.0072 18.7401 62.0072 19.6581V27.0021C62.0072 27.4521 62.0522 27.7671 62.1422 27.9471C62.2322 28.1091 62.3852 28.1901 62.6012 28.1901C62.7632 28.1901 62.9162 28.1451 63.0602 28.0551C63.2222 27.9651 63.3932 27.8571 63.5732 27.7311L63.8432 28.1901C63.4652 28.5141 63.0242 28.7661 62.5202 28.9461C62.0342 29.1081 61.4852 29.1891 60.8732 29.1891C60.2072 29.1891 59.6762 29.0991 59.2802 28.9191C58.8842 28.7211 58.5962 28.4601 58.4162 28.1361C58.2542 27.8121 58.1732 27.4341 58.1732 27.0021C57.7412 27.6861 57.2192 28.2261 56.6072 28.6221C55.9952 29.0001 55.2482 29.1891 54.3662 29.1891ZM56.2832 27.4611C56.6432 27.4611 56.9672 27.3801 57.2552 27.2181C57.5612 27.0381 57.8492 26.7501 58.1192 26.3541V20.8191C57.9572 21.0891 57.7322 21.3321 57.4442 21.5481C57.1562 21.7641 56.8502 21.9891 56.5262 22.2231C56.2022 22.4391 55.8872 22.6821 55.5812 22.9521C55.2932 23.2221 55.0592 23.5551 54.8792 23.9511C54.6992 24.3471 54.6092 24.8241 54.6092 25.3821C54.6092 26.0841 54.7622 26.6061 55.0682 26.9481C55.3742 27.2901 55.7792 27.4611 56.2832 27.4611ZM73.9028 14.6631C74.4788 14.6631 74.9468 14.7891 75.3068 15.0411C75.6668 15.2751 75.9278 15.5811 76.0898 15.9591C76.2698 16.3371 76.3598 16.7331 76.3598 17.1471C76.3598 17.8131 76.1618 18.3621 75.7658 18.7941C75.3878 19.2081 74.8838 19.4151 74.2538 19.4151C73.6238 19.4151 73.1288 19.2621 72.7688 18.9561C72.4268 18.6321 72.2558 18.2091 72.2558 17.6871C72.2558 17.1831 72.3638 16.7691 72.5798 16.4451C72.8138 16.1031 73.1018 15.8151 73.4438 15.5811C73.1918 15.5091 72.9398 15.5181 72.6878 15.6081C72.3458 15.6621 72.0218 15.8061 71.7158 16.0401C71.4098 16.2561 71.1488 16.5351 70.9328 16.8771C70.7168 17.2011 70.5458 17.5611 70.4198 17.9571C70.2938 18.3351 70.2308 18.7041 70.2308 19.0641V26.2191C70.2308 27.0831 70.4378 27.6681 70.8518 27.9741C71.2838 28.2801 71.9228 28.4331 72.7688 28.4331V29.0001C72.3548 28.9821 71.7518 28.9641 70.9598 28.9461C70.1678 28.9101 69.3398 28.8921 68.4758 28.8921C67.7558 28.8921 67.0268 28.9101 66.2888 28.9461C65.5508 28.9641 64.9928 28.9821 64.6148 29.0001V28.4331C65.2448 28.4331 65.6858 28.2981 65.9378 28.0281C66.2078 27.7581 66.3428 27.2451 66.3428 26.4891V17.9841C66.3428 17.1741 66.2168 16.5801 65.9648 16.2021C65.7308 15.8061 65.2808 15.6081 64.6148 15.6081V15.0411C65.1908 15.0951 65.7488 15.1221 66.2888 15.1221C67.0448 15.1221 67.7468 15.0951 68.3948 15.0411C69.0608 14.9691 69.6728 14.8701 70.2308 14.7441V17.2551C70.4468 16.7691 70.7348 16.3281 71.0948 15.9321C71.4548 15.5361 71.8688 15.2301 72.3368 15.0141C72.8048 14.7801 73.3268 14.6631 73.9028 14.6631ZM82.4563 34.0761C81.3403 34.0761 80.3413 33.9771 79.4593 33.7791C78.5953 33.5991 77.9113 33.3111 77.4073 32.9151C76.9213 32.5371 76.6783 32.0691 76.6783 31.5111C76.6783 30.9531 76.9303 30.4491 77.4343 29.9991C77.9383 29.5671 78.6853 29.2251 79.6753 28.9731L79.9183 29.4051C79.5763 29.6751 79.3243 29.9631 79.1623 30.2691C79.0183 30.5931 78.9463 30.9261 78.9463 31.2681C78.9463 32.0241 79.2883 32.6001 79.9723 32.9961C80.6743 33.4101 81.6193 33.6171 82.8073 33.6171C83.6173 33.6171 84.3373 33.5091 84.9673 33.2931C85.6153 33.0771 86.1193 32.7531 86.4793 32.3211C86.8573 31.8891 87.0463 31.3581 87.0463 30.7281C87.0463 30.1881 86.8483 29.7291 86.4523 29.3511C86.0563 28.9911 85.2643 28.8111 84.0763 28.8111H82.4023C81.6643 28.8111 81.0163 28.7301 80.4583 28.5681C79.9183 28.4061 79.4953 28.1541 79.1893 27.8121C78.8833 27.4521 78.7303 27.0021 78.7303 26.4621C78.7303 25.7061 79.0273 25.0401 79.6213 24.4641C80.2153 23.8881 81.0973 23.3481 82.2673 22.8441L82.5373 23.0601C82.1953 23.2761 81.8713 23.5101 81.5653 23.7621C81.2773 23.9961 81.1333 24.3021 81.1333 24.6801C81.1333 25.2561 81.4933 25.5441 82.2133 25.5441H85.1563C86.1463 25.5441 87.0283 25.6611 87.8023 25.8951C88.5943 26.1291 89.2153 26.5161 89.6653 27.0561C90.1333 27.5781 90.3673 28.2621 90.3673 29.1081C90.3673 29.9901 90.0793 30.8091 89.5033 31.5651C88.9453 32.3211 88.0813 32.9241 86.9113 33.3741C85.7413 33.8421 84.2563 34.0761 82.4563 34.0761ZM82.7263 23.2491C81.7003 23.2491 80.7823 23.0961 79.9723 22.7901C79.1623 22.4841 78.5233 22.0161 78.0553 21.3861C77.5873 20.7561 77.3533 19.9461 77.3533 18.9561C77.3533 17.9661 77.5873 17.1561 78.0553 16.5261C78.5233 15.8781 79.1623 15.4101 79.9723 15.1221C80.7823 14.8161 81.7003 14.6631 82.7263 14.6631C83.7523 14.6631 84.6703 14.8161 85.4803 15.1221C86.2903 15.4101 86.9293 15.8781 87.3973 16.5261C87.8653 17.1561 88.0993 17.9661 88.0993 18.9561C88.0993 19.9461 87.8653 20.7561 87.3973 21.3861C86.9293 22.0161 86.2903 22.4841 85.4803 22.7901C84.6703 23.0961 83.7523 23.2491 82.7263 23.2491ZM82.7263 22.7631C83.2123 22.7631 83.5903 22.4931 83.8603 21.9531C84.1303 21.3951 84.2653 20.3961 84.2653 18.9561C84.2653 17.5161 84.1303 16.5261 83.8603 15.9861C83.5903 15.4281 83.2123 15.1491 82.7263 15.1491C82.2583 15.1491 81.8803 15.4281 81.5923 15.9861C81.3223 16.5261 81.1873 17.5161 81.1873 18.9561C81.1873 20.3961 81.3223 21.3951 81.5923 21.9531C81.8803 22.4931 82.2583 22.7631 82.7263 22.7631ZM86.9383 16.9851L86.3983 16.7961C86.6683 16.0941 87.1003 15.5091 87.6943 15.0411C88.3063 14.5731 88.9633 14.3391 89.6653 14.3391C90.2413 14.3391 90.6733 14.5011 90.9613 14.8251C91.2673 15.1311 91.4203 15.5361 91.4203 16.0401C91.4203 16.5801 91.2763 16.9851 90.9883 17.2551C90.7003 17.5071 90.3763 17.6331 90.0163 17.6331C89.7103 17.6331 89.4223 17.5251 89.1523 17.3091C88.9003 17.0931 88.7563 16.7691 88.7203 16.3371C88.6843 15.8871 88.8373 15.3111 89.1793 14.6091L89.3683 14.7711C88.6843 15.0231 88.1713 15.3201 87.8293 15.6621C87.4873 15.9861 87.1903 16.4271 86.9383 16.9851ZM98.6863 14.6631C100.27 14.6631 101.512 15.1311 102.412 16.0671C103.312 17.0031 103.762 18.5331 103.762 20.6571H94.8793L94.8253 20.1441H100.36C100.378 19.2621 100.324 18.4521 100.198 17.7141C100.072 16.9581 99.8743 16.3551 99.6043 15.9051C99.3343 15.4551 98.9743 15.2301 98.5243 15.2301C97.8943 15.2301 97.3543 15.6261 96.9043 16.4181C96.4723 17.2101 96.2113 18.5241 96.1213 20.3601L96.2023 20.5221C96.1843 20.7381 96.1663 20.9631 96.1483 21.1971C96.1483 21.4311 96.1483 21.6741 96.1483 21.9261C96.1483 23.1681 96.3193 24.1761 96.6613 24.9501C97.0213 25.7241 97.4713 26.2911 98.0113 26.6511C98.5513 26.9931 99.1003 27.1641 99.6583 27.1641C100.036 27.1641 100.423 27.1101 100.819 27.0021C101.233 26.8761 101.647 26.6601 102.061 26.3541C102.475 26.0301 102.862 25.5801 103.222 25.0041L103.708 25.1661C103.492 25.8501 103.15 26.5161 102.682 27.1641C102.214 27.8121 101.62 28.3431 100.9 28.7571C100.18 29.1711 99.3163 29.3781 98.3083 29.3781C97.0843 29.3781 96.0043 29.1171 95.0683 28.5951C94.1323 28.0731 93.3943 27.2811 92.8543 26.2191C92.3323 25.1571 92.0713 23.8071 92.0713 22.1691C92.0713 20.4951 92.3503 19.1001 92.9083 17.9841C93.4843 16.8681 94.2673 16.0401 95.2573 15.5001C96.2653 14.9421 97.4083 14.6631 98.6863 14.6631ZM110.807 10.6131V15.0411H113.993V15.5811H110.807V26.4891C110.807 27.0291 110.906 27.4161 111.104 27.6501C111.302 27.8661 111.599 27.9741 111.995 27.9741C112.319 27.9741 112.643 27.8571 112.967 27.6231C113.291 27.3711 113.579 26.9481 113.831 26.3541L114.29 26.5971C114.002 27.4071 113.561 28.0731 112.967 28.5951C112.391 29.1171 111.599 29.3781 110.591 29.3781C109.997 29.3781 109.475 29.2971 109.025 29.1351C108.575 28.9911 108.197 28.7661 107.891 28.4601C107.495 28.0641 107.234 27.5781 107.108 27.0021C106.982 26.4081 106.919 25.6431 106.919 24.7071V15.5811H104.651V15.0411H106.919V11.4771C107.675 11.4771 108.368 11.4141 108.998 11.2881C109.646 11.1441 110.249 10.9191 110.807 10.6131Z" fill="#263238"/>
<rect x="0.642609" y="4.00012" width="28" height="28" rx="5" fill="#FFB6D3"/>
<circle cx="14.6426" cy="18.0001" r="5" fill="#FF5196"/>
<path d="M14.6426 11.6001V10.0001M14.6426 26.0001V24.4001M21.0426 18.0001H22.6426M6.64261 18.0001H8.24261M14.6426 12.2401C13.5034 12.2401 12.3898 12.5779 11.4425 13.2109C10.4953 13.8438 9.75702 14.7434 9.32106 15.7959C8.8851 16.8484 8.77103 18.0065 8.99329 19.1238C9.21554 20.2412 9.76412 21.2675 10.5697 22.0731C11.3752 22.8786 12.4016 23.4272 13.5189 23.6494C14.6362 23.8717 15.7944 23.7576 16.8469 23.3217C17.8994 22.8857 18.799 22.1474 19.4319 21.2002C20.0648 20.253 20.4026 19.1393 20.4026 18.0001C20.4026 16.4725 19.7958 15.0074 18.7155 13.9272C17.6353 12.847 16.1703 12.2401 14.6426 12.2401Z" stroke="white" stroke-width="2" stroke-linecap="square" stroke-linejoin="round"/>
</svg>
