<svg width="22" height="18" viewBox="0 0 22 18" fill="none" xmlns="http://www.w3.org/2000/svg">
<path d="M21.5867 2.85951C20.7812 3.20922 19.9291 3.43962 19.0571 3.54342C19.9735 3.00719 20.6627 2.1553 20.9953 1.14753C20.1289 1.65379 19.1826 2.00901 18.1969 2.19796C17.7819 1.76327 17.2827 1.41747 16.7297 1.18156C16.1767 0.945658 15.5815 0.824581 14.9803 0.825691C12.546 0.825691 10.576 2.76565 10.576 5.15706C10.5743 5.4897 10.6124 5.82135 10.6896 6.14492C8.94409 6.06315 7.23483 5.61818 5.67123 4.83847C4.10762 4.05877 2.7241 2.9615 1.60918 1.61687C1.21804 2.27579 1.01118 3.0276 1.01023 3.79373C1.01023 5.29563 1.79437 6.6232 2.97841 7.40097C2.2769 7.38434 1.58976 7.1988 0.975338 6.86011V6.91375C0.975338 9.01462 2.4962 10.7624 4.50912 11.1602C4.13059 11.261 3.74053 11.3121 3.34878 11.3122C3.07081 11.3127 2.79348 11.2857 2.52081 11.2317C3.0804 12.9526 4.70907 14.2042 6.63833 14.24C5.07066 15.4473 3.14598 16.0998 1.16679 16.095C0.815476 16.0945 0.46449 16.0736 0.115601 16.0324C2.12904 17.3172 4.4695 17.9968 6.85841 17.9903C14.9709 17.9903 19.4029 11.3882 19.4029 5.66217C19.4029 5.47443 19.398 5.28669 19.389 5.10342C20.2492 4.49196 20.9934 3.7321 21.5867 2.85951Z" fill="white"/>
</svg>
