<svg width="116" height="63" viewBox="0 0 116 63" fill="none" xmlns="http://www.w3.org/2000/svg">
<path d="M30.5699 14.5001L1.6427 28.5001V35.5001H113.643V0.500122L65.4308 22.5001L30.5699 14.5001Z" fill="url(#paint0_linear_1_807)"/>
<path d="M0.6427 28.5001L30.0864 14.2545L65.5699 22.1142L114.643 0.500122" stroke="#4C56CC" stroke-linecap="round"/>
<path d="M21.0372 51.7296C21.0372 53.63 21.5704 55.0314 22.6368 55.9337C23.7101 56.8361 25.0499 57.2872 26.6564 57.2872C28.256 57.2872 29.589 56.8361 30.6554 55.9337C31.7218 55.0314 32.255 53.63 32.255 51.7296V42.0704H29.5377V51.8834C29.5377 53.0524 29.2745 53.8898 28.7482 54.3956C28.2218 54.8947 27.528 55.1442 26.6666 55.1442C25.7985 55.1442 25.1012 54.8947 24.5748 54.3956C24.0553 53.8898 23.7955 53.0524 23.7955 51.8834V42.0704H21.0372V51.7296ZM34.9723 61.2965H37.6486V55.8722C37.9357 56.2823 38.3424 56.6071 38.8688 56.8463C39.402 57.0856 40.0172 57.2052 40.7145 57.2052C42.0475 57.2052 43.1207 56.7164 43.9342 55.7389C44.7477 54.7545 45.1544 53.4625 45.1544 51.8629V51.5348C45.1544 49.9283 44.7443 48.6398 43.924 47.6691C43.1036 46.6915 42.0167 46.2028 40.6632 46.2028C39.9659 46.2028 39.3405 46.3463 38.7867 46.6334C38.233 46.9137 37.8331 47.2657 37.587 47.6896H37.5358L37.4742 46.4181H34.9723V61.2965ZM37.6486 53.5958V49.7916C37.8263 49.3815 38.1134 49.0226 38.5099 48.715C38.9132 48.4005 39.4054 48.2433 39.9865 48.2433C40.8204 48.2433 41.4357 48.5338 41.8322 49.1149C42.2286 49.6891 42.4269 50.4615 42.4269 51.4323V51.9655C42.4269 52.9362 42.2286 53.7155 41.8322 54.3033C41.4357 54.8844 40.8239 55.1749 39.9967 55.1749C39.4293 55.1749 38.9371 55.0177 38.5201 54.7032C38.11 54.382 37.8195 54.0128 37.6486 53.5958ZM51.6964 52.8473C51.6964 54.276 52.2159 55.3732 53.255 56.1388C54.3009 56.9044 55.6613 57.2872 57.3361 57.2872C59.0177 57.2872 60.361 56.8976 61.3658 56.1183C62.3776 55.3322 62.8834 54.2623 62.8834 52.9088C62.8834 51.6168 62.4904 50.6188 61.7042 49.9147C60.9181 49.2037 59.756 48.6295 58.2179 48.192C56.7687 47.7887 55.8219 47.4332 55.3776 47.1256C54.9332 46.818 54.7111 46.3839 54.7111 45.8234C54.7111 45.2355 54.9161 44.7706 55.3263 44.4288C55.7365 44.087 56.3756 43.9161 57.2438 43.9161C58.1119 43.9161 58.7648 44.1246 59.2023 44.5416C59.6466 44.9518 59.8688 45.5021 59.8688 46.1925V46.4181H62.5861V46.1412C62.5861 44.8287 62.0973 43.776 61.1198 42.983C60.149 42.1832 58.8536 41.7833 57.2335 41.7833C55.6066 41.7833 54.318 42.173 53.3678 42.9523C52.4176 43.7247 51.9425 44.7433 51.9425 46.0079C51.9493 47.2111 52.3287 48.151 53.0807 48.8278C53.8395 49.5045 55.0016 50.0651 56.567 50.5094C58.0094 50.9127 58.963 51.2887 59.4279 51.6373C59.8927 51.986 60.1251 52.4679 60.1251 53.0831C60.1251 53.712 59.8824 54.2179 59.3971 54.6007C58.9186 54.9835 58.2281 55.1749 57.3258 55.1749C56.4235 55.1749 55.7194 54.9767 55.2135 54.5802C54.7076 54.1837 54.4547 53.589 54.4547 52.796V52.5397H51.6964V52.8473ZM64.8932 57.0001H67.5695V49.8531C67.7677 49.3746 68.0514 48.9952 68.4205 48.715C68.7897 48.4347 69.2272 48.2946 69.733 48.2946C70.3141 48.2946 70.7687 48.4518 71.0968 48.7662C71.4249 49.0807 71.589 49.6071 71.589 50.3453V57.0001H74.255V50.1813C74.255 48.7662 73.9337 47.7511 73.2911 47.1359C72.6554 46.5138 71.8351 46.2028 70.8302 46.2028C70.0782 46.2028 69.4288 46.3497 68.882 46.6437C68.3351 46.9376 67.8976 47.3204 67.5695 47.7921V41.4039H64.8932V57.0001ZM76.2648 51.8629C76.2648 53.5035 76.7535 54.8195 77.7311 55.8107C78.7155 56.8019 80.0074 57.2975 81.6071 57.2975C83.2067 57.2975 84.4952 56.8019 85.4728 55.8107C86.4503 54.8195 86.9391 53.5035 86.9391 51.8629V51.5348C86.9391 49.901 86.4503 48.5885 85.4728 47.5973C84.4952 46.6061 83.2067 46.1105 81.6071 46.1105C80.0074 46.1105 78.7155 46.6061 77.7311 47.5973C76.7535 48.5885 76.2648 49.901 76.2648 51.5348V51.8629ZM78.9923 51.4323C78.9923 50.4274 79.2179 49.631 79.6691 49.0431C80.1202 48.4552 80.7662 48.1613 81.6071 48.1613C82.441 48.1613 83.0836 48.4552 83.5348 49.0431C83.986 49.631 84.2115 50.4274 84.2115 51.4323V51.9757C84.2115 52.9806 83.9894 53.777 83.545 54.3649C83.1007 54.9528 82.4547 55.2467 81.6071 55.2467C80.7594 55.2467 80.11 54.9528 79.6588 54.3649C79.2145 53.777 78.9923 52.9806 78.9923 51.9757V51.4323ZM87.6979 48.3868H94.1681V46.4181H87.6979V48.3868ZM89.3898 53.9957C89.3898 55.1373 89.6666 55.9713 90.2203 56.4977C90.774 57.024 91.5192 57.2872 92.4557 57.2872C92.818 57.2872 93.1461 57.2565 93.4401 57.1949C93.7408 57.1334 93.9733 57.0651 94.1373 56.9899V55.0211C93.9801 55.0826 93.816 55.1339 93.6451 55.1749C93.4811 55.2091 93.317 55.2262 93.153 55.2262C92.7906 55.2262 92.5138 55.1305 92.3224 54.9391C92.1378 54.7477 92.0455 54.3888 92.0455 53.8624V43.7111H89.4103V47.1051L89.3898 47.382V53.9957Z" fill="#263238"/>
<defs>
<linearGradient id="paint0_linear_1_807" x1="57.6427" y1="0.500122" x2="57.4742" y2="35.0011" gradientUnits="userSpaceOnUse">
<stop stop-color="#7782FF"/>
<stop offset="1" stop-color="#7782FF" stop-opacity="0"/>
</linearGradient>
</defs>
</svg>
