<svg width="23" height="23" viewBox="0 0 23 23" fill="none" xmlns="http://www.w3.org/2000/svg">
<path d="M20.5971 0.533203H2.44512C1.45327 0.533203 0.58667 1.24687 0.58667 2.22708V20.4193C0.58667 21.4049 1.45327 22.2831 2.44512 22.2831H20.5918C21.5889 22.2831 22.3366 21.3991 22.3366 20.4193V2.22708C22.3424 1.24687 21.5889 0.533203 20.5971 0.533203ZM7.32866 18.6628H4.21279V8.9749H7.32866V18.6628ZM5.87851 7.50192H5.85617C4.85898 7.50192 4.21328 6.75961 4.21328 5.83038C4.21328 4.88416 4.87597 4.15932 5.8955 4.15932C6.91503 4.15932 7.53888 4.87882 7.56121 5.83038C7.56073 6.75961 6.91503 7.50192 5.87851 7.50192ZM18.7163 18.6628H15.6004V13.3657C15.6004 12.0966 15.147 11.2295 14.0197 11.2295C13.1584 11.2295 12.6487 11.8121 12.4219 12.3796C12.337 12.5835 12.3142 12.8612 12.3142 13.1448V18.6628H9.19828V8.9749H12.3142V10.3231C12.7676 9.6774 13.4759 8.74817 15.1242 8.74817C17.1695 8.74817 18.7168 10.0964 18.7168 13.003L18.7163 18.6628Z" fill="white"/>
</svg>
