<svg width="28" height="30" viewBox="0 0 28 30" fill="none" xmlns="http://www.w3.org/2000/svg">
<path d="M25.6667 0H2.33333C1.71449 0 1.121 0.253233 0.683417 0.70399C0.245833 1.15475 0 1.76611 0 2.40357V11.2217C0 24.6517 11.0542 29.1133 13.2708 29.8644C13.7411 30.0452 14.2589 30.0452 14.7292 29.8644C16.9458 29.1133 28 24.6517 28 11.2217V2.40357C28 1.76611 27.7542 1.15475 27.3166 0.70399C26.879 0.253233 26.2855 0 25.6667 0ZM19.9062 13.7004L15.8812 15.0524L18.375 18.5826C18.465 18.7095 18.5297 18.8535 18.5652 19.0064C18.6008 19.1592 18.6065 19.3178 18.5821 19.4729C18.5577 19.628 18.5036 19.7766 18.423 19.91C18.3424 20.0434 18.2368 20.159 18.1125 20.2501C17.9166 20.407 17.6752 20.4916 17.4271 20.4905C17.2427 20.4887 17.0611 20.4431 16.8967 20.3571C16.7323 20.2711 16.5894 20.1471 16.4792 19.9947L14 16.4645L11.5208 19.9947C11.4106 20.1471 11.2677 20.2711 11.1033 20.3571C10.9389 20.4431 10.7573 20.4887 10.5729 20.4905C10.3248 20.4916 10.0834 20.407 9.8875 20.2501C9.76317 20.159 9.65763 20.0434 9.57702 19.91C9.4964 19.7766 9.44232 19.628 9.4179 19.4729C9.39347 19.3178 9.39921 19.1592 9.43476 19.0064C9.47031 18.8535 9.53498 18.7095 9.625 18.5826L12.1187 15.0524L8.09375 13.7004C7.80049 13.6037 7.5562 13.3916 7.41415 13.1102C7.2721 12.8288 7.2438 12.5009 7.33542 12.1981C7.43237 11.8949 7.64112 11.6431 7.91665 11.497C8.19218 11.3509 8.51242 11.3221 8.80833 11.417L12.8333 12.769V8.41251C12.8333 8.09377 12.9562 7.7881 13.175 7.56272C13.3938 7.33734 13.6906 7.21072 14 7.21072C14.3094 7.21072 14.6062 7.33734 14.825 7.56272C15.0438 7.7881 15.1667 8.09377 15.1667 8.41251V12.769L19.1917 11.417C19.4876 11.3221 19.8078 11.3509 20.0833 11.497C20.3589 11.6431 20.5676 11.8949 20.6646 12.1981C20.7562 12.5009 20.7279 12.8288 20.5858 13.1102C20.4438 13.3916 20.1995 13.6037 19.9062 13.7004Z" fill="#47CFFF"/>
</svg>
