<svg width="81" height="80" viewBox="0 0 81 80" fill="none" xmlns="http://www.w3.org/2000/svg">
<g style="mix-blend-mode:multiply">
<path d="M40.3842 79.1244C62.2994 79.1244 80.0653 61.5363 80.0653 39.8402C80.0653 18.1441 62.2994 0.555908 40.3842 0.555908C18.4689 0.555908 0.703125 18.1441 0.703125 39.8402C0.703125 61.5363 18.4689 79.1244 40.3842 79.1244Z" fill="white"/>
<path d="M40.3851 79.6801C18.1978 79.6801 0.142578 61.8055 0.142578 39.8401C0.142578 17.8747 18.1978 0 40.3851 0C62.5723 0 80.6276 17.8747 80.6276 39.8401C80.6276 61.8055 62.5723 79.6801 40.3851 79.6801ZM40.3851 1.11161C18.8154 1.11161 1.26542 18.4861 1.26542 39.8401C1.26542 61.1941 18.8154 78.5685 40.3851 78.5685C61.9548 78.5685 79.5047 61.1941 79.5047 39.8401C79.5047 18.4861 61.9548 1.11161 40.3851 1.11161Z" fill="#263238"/>
<path d="M46.0439 4.5465C46.3134 4.56873 46.5492 4.57984 46.74 4.57984L46.7176 4.7577C46.4032 4.80217 46.1337 5.0356 45.9204 5.48025L43.248 10.7715L43.1694 10.7604L43.1021 10.7493L41.4066 4.84663C41.2943 4.45757 41.1034 4.24636 40.8339 4.21301L40.8564 4.03516C41.1034 4.07962 41.429 4.11297 41.8332 4.15743C42.361 4.2019 42.754 4.23525 43.0122 4.23525L42.9898 4.4131C42.754 4.40199 42.5855 4.4131 42.4845 4.44645C42.3834 4.4798 42.3273 4.56873 42.3161 4.67989C42.3048 4.77993 42.3273 4.92444 42.3834 5.11342L43.6298 9.62655L45.4825 5.93601C45.6397 5.63587 45.7183 5.39132 45.7407 5.21346C45.7632 5.02449 45.707 4.87998 45.5835 4.77993C45.46 4.67989 45.2579 4.62431 44.9884 4.59096L45.0109 4.4131C45.3365 4.46868 45.6846 4.51315 46.0439 4.5465Z" fill="#263238"/>
<path d="M53.5896 6.89197C53.4773 6.89197 53.3875 6.93644 53.3201 7.02537C53.2528 7.11429 53.1742 7.2588 53.0956 7.47001L51.4899 11.6941C51.4113 11.9053 51.3664 12.0721 51.3664 12.1832C51.3664 12.2944 51.4001 12.3833 51.4787 12.45C51.5573 12.5167 51.7032 12.5945 51.9054 12.6835L51.838 12.8502C51.5797 12.739 51.2204 12.5945 50.7601 12.4167C50.266 12.2277 49.8955 12.1054 49.6485 12.0276L49.7158 11.8609C49.9292 11.9276 50.0864 11.9609 50.1874 11.9609C50.2885 11.9609 50.3895 11.9164 50.4569 11.8275C50.5243 11.7386 50.6029 11.5941 50.6815 11.3829L52.2871 7.15876C52.3657 6.94755 52.4106 6.78081 52.4106 6.66965C52.4106 6.55849 52.3769 6.46956 52.2983 6.40286C52.2198 6.33617 52.0738 6.25836 51.8717 6.16943L51.939 6.00269C52.1748 6.10273 52.5341 6.24724 53.0282 6.43621C53.4886 6.61407 53.8591 6.73635 54.1286 6.81416L54.0612 6.9809C53.8591 6.91421 53.7019 6.88086 53.5896 6.89197Z" fill="#263238"/>
<path d="M63.5835 12.7723C63.4712 12.7501 63.3589 12.7834 63.2578 12.8501C63.1568 12.9168 63.0333 13.0502 62.8985 13.2392L59.6423 17.6078L59.4739 17.4855L59.9118 10.4602L57.0261 14.3286C56.8914 14.5176 56.8015 14.6732 56.7566 14.7955C56.7117 14.9177 56.7342 15.0289 56.7903 15.1401C56.8464 15.2512 56.9812 15.3735 57.1721 15.5291L57.0598 15.6736C56.8914 15.5291 56.6443 15.3401 56.3187 15.0956C56.0268 14.8844 55.791 14.7176 55.6113 14.6176L55.7236 14.4731C55.9033 14.5954 56.0492 14.6621 56.1615 14.6732C56.2738 14.6954 56.3861 14.6621 56.4871 14.5954C56.5882 14.5176 56.7117 14.3953 56.8464 14.2063L59.4963 10.6492C59.6311 10.4602 59.7209 10.3157 59.7546 10.2156C59.7883 10.1156 59.7771 10.0155 59.7209 9.92661C59.6648 9.83768 59.5525 9.72652 59.3728 9.58201L59.4851 9.4375C59.6311 9.57089 59.8557 9.74875 60.1588 9.95996C60.3834 10.1267 60.5743 10.2601 60.7539 10.3601L60.3946 16.2517L62.7301 13.1169C62.8649 12.928 62.9659 12.7723 62.9996 12.6501C63.0333 12.5278 63.0221 12.4166 62.9659 12.3055C62.9098 12.1943 62.775 12.0609 62.5841 11.9164L62.6964 11.7719C62.8649 11.9164 63.1119 12.1054 63.4375 12.3499C63.7294 12.5611 63.9652 12.7279 64.1449 12.8279L64.0326 12.9724C63.8417 12.8613 63.6958 12.7834 63.5835 12.7723Z" fill="#263238"/>
<path d="M67.3441 17.7858C67.6361 17.5746 67.9393 17.3411 68.2649 17.0521C68.5456 17.4745 69.0396 18.1748 69.747 19.1642C70.4544 20.1424 70.9597 20.8316 71.2629 21.2318C70.8811 21.4541 70.5555 21.6542 70.2635 21.8543C70.0165 22.0321 69.8144 22.1878 69.6684 22.31L69.5449 22.1433C69.9042 21.832 70.1512 21.5764 70.2972 21.3874C70.4432 21.1984 70.4993 20.9983 70.4881 20.7871C70.4769 20.5759 70.3421 20.3203 70.1288 20.009L69.8368 19.6088L65.5813 22.6102C65.3792 22.7547 65.2332 22.8881 65.1658 22.9881C65.0985 23.0882 65.076 23.2104 65.1209 23.3438C65.1546 23.4661 65.2557 23.644 65.4016 23.8663L65.2557 23.9774C65.0872 23.7107 64.829 23.3327 64.4921 22.877C64.1328 22.3767 63.8634 22.021 63.6837 21.7987L63.8297 21.6875C63.9981 21.8987 64.1328 22.0432 64.2451 22.1211C64.3574 22.1989 64.4697 22.2211 64.5932 22.1878C64.7167 22.1544 64.8851 22.0655 65.0872 21.921L69.3428 18.9196L69.0509 18.5194C68.8263 18.2082 68.6242 18.0192 68.4333 17.9303C68.2424 17.8414 68.0291 17.8303 67.8045 17.9081C67.5799 17.9859 67.2543 18.1304 66.8389 18.3638L66.7154 18.1971C66.8838 18.1082 67.0859 17.9748 67.3441 17.7858Z" fill="#263238"/>
<path d="M69.5006 33.2149L69.3209 33.2705C69.2536 33.0259 69.1637 32.7147 69.029 32.3367C68.8606 31.8476 68.7258 31.4808 68.6248 31.2362L68.8044 31.1807C68.883 31.3919 68.9729 31.5475 69.0402 31.6253C69.1188 31.7031 69.2199 31.7253 69.3322 31.6809C69.4332 31.6475 69.5567 31.5697 69.7027 31.4474L70.949 30.4359L70.2417 28.3572L69.1974 28.3127C68.8606 28.2905 68.6023 28.3127 68.4227 28.3794C68.243 28.4461 68.1307 28.5461 68.0858 28.6906C68.0521 28.8352 68.0746 29.0464 68.1532 29.302L67.9735 29.3576C67.8837 29.0241 67.7714 28.6906 67.6591 28.3572C67.5693 28.1015 67.4907 27.8903 67.4121 27.7236L67.5918 27.668C67.749 27.9348 68.0858 28.0793 68.5799 28.0904L74.5534 28.3572L74.5983 28.4906L69.8374 32.4145C69.5455 32.6924 69.4332 32.9481 69.5006 33.2149ZM73.3968 28.4906L70.455 28.3683L71.1175 30.3247L73.3968 28.4906Z" fill="#263238"/>
<path d="M70.3199 41.7189C70.4322 41.6744 70.4884 41.6188 70.4884 41.541C70.4884 41.4966 70.4771 41.4632 70.4547 41.4299C70.4322 41.3965 70.3873 41.3298 70.3199 41.2409C70.1515 41.0297 70.028 40.8074 69.9382 40.585C69.8483 40.3627 69.8034 40.1071 69.8034 39.8292C69.7922 39.2067 69.9157 38.6731 70.1627 38.2173C70.421 37.7616 70.7803 37.417 71.2744 37.1724C71.7572 36.9279 72.3411 36.8056 73.026 36.7945C73.7334 36.7833 74.3509 36.8945 74.8787 37.1391C75.4064 37.3836 75.8218 37.7171 76.1138 38.1617C76.4057 38.6064 76.5629 39.1066 76.5629 39.6624C76.5629 39.907 76.5405 40.1293 76.4955 40.3183C76.4506 40.5072 76.3833 40.674 76.3047 40.8185C76.2261 40.963 76.125 41.1297 75.9903 41.3076C75.9341 41.3854 75.9004 41.4521 75.9004 41.4966C75.9004 41.6077 76.0913 41.6855 76.4619 41.7189V41.9301C76.0689 41.9079 75.3615 41.9079 74.3509 41.9301V41.7189C74.6765 41.6633 74.946 41.5966 75.1594 41.5299C75.3727 41.4632 75.5524 41.3632 75.7096 41.2409C75.9229 41.063 76.1026 40.8296 76.2261 40.5406C76.3496 40.2516 76.4057 39.9625 76.4057 39.6513C76.3945 39.2511 76.2598 38.9065 75.9903 38.6064C75.7208 38.3062 75.339 38.0839 74.8562 37.9172C74.3622 37.7616 73.8007 37.6837 73.1495 37.6949C72.4084 37.706 71.8133 37.7949 71.3417 37.9617C70.8701 38.1284 70.5333 38.3729 70.3087 38.6953C70.0841 39.0177 69.9831 39.429 69.9943 39.9292C70.0055 40.296 70.1066 40.6073 70.2975 40.8741C70.3761 40.9852 70.4435 41.0519 70.5221 41.0853C70.5894 41.1186 70.6905 41.1297 70.814 41.1297L71.701 41.1186C71.9593 41.1186 72.1389 41.0853 72.2625 41.0408C72.3747 40.9963 72.4646 40.9074 72.4982 40.774C72.5432 40.6517 72.5656 40.4517 72.5656 40.1849H72.7453C72.734 40.485 72.7228 40.9074 72.734 41.4743C72.7453 41.8967 72.7565 42.2191 72.779 42.4192H72.5993C72.5881 42.2747 72.5544 42.1746 72.5207 42.1191C72.487 42.0635 72.4084 42.019 72.3074 41.9968C72.2063 41.9746 72.0379 41.9634 71.8021 41.9746L69.9831 42.0079V41.83C70.0841 41.7856 70.2077 41.7634 70.3199 41.7189Z" fill="#263238"/>
<path d="M68.9832 51.1785C68.6576 51.0784 68.2758 50.9784 67.8379 50.8895C67.9839 50.5004 68.1972 49.8446 68.5004 48.9108C68.8597 47.7992 69.1179 46.9544 69.2751 46.3875L69.4548 46.443C69.3986 46.6542 69.3762 46.8099 69.3762 46.921C69.3874 47.0322 69.4323 47.11 69.5221 47.1767C69.612 47.2434 69.7692 47.3101 69.9825 47.3768L74.3279 48.7329C74.5525 48.7996 74.7097 48.833 74.8219 48.833C74.9342 48.833 75.024 48.7885 75.0914 48.6996C75.1588 48.6107 75.2262 48.4662 75.3048 48.2661L75.4844 48.3217C75.2823 48.8886 75.0128 49.7223 74.6535 50.8339C74.384 51.6787 74.1932 52.2901 74.1033 52.6569C73.7328 52.5013 73.3959 52.3679 73.0815 52.279C72.857 52.2123 72.6661 52.1567 72.5314 52.1345L72.5987 51.9344C72.9917 52.0122 73.2949 52.0455 73.497 52.0455C73.6991 52.0455 73.8675 51.9788 74.0023 51.8455C74.137 51.7232 74.2493 51.5009 74.3503 51.2007L74.5749 50.4782C74.6423 50.267 74.676 50.1113 74.6647 50.0113C74.6535 49.9113 74.6198 49.8223 74.53 49.7556C74.4402 49.6889 74.2942 49.6222 74.0696 49.5555L72.0036 48.9108L71.824 49.4888C71.7341 49.7779 71.7566 50.0002 71.9026 50.1558C72.0485 50.3114 72.2057 50.4226 72.3854 50.5004C72.565 50.5782 72.6773 50.6338 72.7222 50.656L72.6549 50.8561C72.3742 50.745 72.1047 50.6449 71.8352 50.5671L71.4197 50.4448C71.1278 50.3559 70.7011 50.2336 70.1622 50.1113L70.2295 49.9113C70.2744 49.9224 70.4204 49.9446 70.6674 50.0002C70.9145 50.0446 71.1278 50.0224 71.2962 49.9335C71.4647 49.8446 71.5769 49.6778 71.6555 49.4444L71.8352 48.8663L69.7243 48.2105C69.4997 48.1438 69.3425 48.1104 69.2302 48.1104C69.1179 48.1104 69.0281 48.1549 68.972 48.2438C68.9046 48.3328 68.8372 48.4773 68.7698 48.6885L68.5677 49.3221C68.4554 49.6889 68.4105 49.978 68.4555 50.1892C68.4891 50.4115 68.6014 50.5893 68.7923 50.745C68.9832 50.8895 69.2751 51.0562 69.6681 51.2341L69.6007 51.4342C69.466 51.3341 69.2527 51.2674 68.9832 51.1785Z" fill="#263238"/>
<path d="M65.7838 64.8181C65.8287 64.718 65.8174 64.618 65.7725 64.518C65.7276 64.4179 65.6153 64.2956 65.4469 64.1289L62.1458 61.0053C61.9773 60.8496 61.8426 60.7496 61.7415 60.7051C61.6405 60.6607 61.5394 60.6607 61.4384 60.7051C61.3373 60.7496 61.2138 60.8496 61.0566 61.0053L60.9219 60.883C61.1352 60.694 61.4047 60.4161 61.7528 60.0715C62.1121 59.6936 62.3816 59.4045 62.55 59.2156L62.6847 59.3379C62.5388 59.5046 62.4489 59.638 62.404 59.7269C62.3591 59.827 62.3703 59.927 62.4152 60.0271C62.4602 60.1271 62.5724 60.2494 62.7409 60.4161L66.042 63.5397C66.2104 63.6954 66.3452 63.7954 66.4462 63.8399C66.5473 63.8843 66.6483 63.8843 66.7494 63.8399C66.8505 63.7954 66.974 63.6954 67.1312 63.5397L67.2659 63.662C67.075 63.8288 66.7943 64.1067 66.435 64.4846C66.0869 64.8403 65.8287 65.1293 65.649 65.3405L65.5143 65.2183C65.649 65.0515 65.7388 64.9181 65.7838 64.8181Z" fill="#263238"/>
<path d="M56.4296 71.5988C56.497 71.4987 56.5082 71.3987 56.4858 71.2764C56.4633 71.1541 56.3847 70.9985 56.2612 70.7873L53.4766 66.1074L53.6562 65.9963L60.0115 69.1421L57.5525 65.0069C57.429 64.8069 57.3279 64.6623 57.2268 64.5845C57.1258 64.5067 57.0135 64.4734 56.89 64.4845C56.7665 64.4956 56.5981 64.5623 56.3847 64.6735L56.2837 64.5178C56.4858 64.4289 56.7552 64.2733 57.1033 64.0732C57.4177 63.8842 57.6535 63.7397 57.8219 63.6174L57.9118 63.7731C57.7321 63.8842 57.6086 63.9954 57.5525 64.0954C57.4851 64.1955 57.4739 64.2955 57.4963 64.4178C57.5188 64.5401 57.5974 64.6957 57.7209 64.9069L59.989 68.7197C60.1013 68.9198 60.2024 69.0532 60.2922 69.1199C60.382 69.1866 60.4718 69.2199 60.5841 69.1977C60.6852 69.1755 60.8424 69.1199 61.0333 69.0199L61.1231 69.1755C60.9434 69.2644 60.6964 69.3978 60.3708 69.5868C60.135 69.7202 59.9329 69.8536 59.7644 69.9647L54.431 67.3302L56.4296 70.6873C56.5531 70.8874 56.6542 71.0319 56.7552 71.1097C56.8451 71.1875 56.9574 71.2208 57.0921 71.2097C57.2268 71.1986 57.3953 71.1319 57.6086 71.0207L57.6984 71.1764C57.4963 71.2653 57.2268 71.4209 56.8788 71.621C56.5644 71.81 56.3286 71.9545 56.1601 72.0768L56.0703 71.9211C56.2387 71.7989 56.3623 71.6877 56.4296 71.5988Z" fill="#263238"/>
<path d="M50.2549 73.055C50.3335 73.3996 50.4346 73.7776 50.5693 74.1778C50.064 74.2667 49.2219 74.4445 48.0317 74.6891C46.8415 74.9448 46.0106 75.1337 45.5165 75.256C45.4604 74.8225 45.4042 74.4445 45.3257 74.0999C45.2583 73.7998 45.2021 73.5553 45.1348 73.3774L45.3369 73.3329C45.4828 73.7887 45.6176 74.1111 45.7411 74.3223C45.8646 74.5335 46.0218 74.6669 46.2239 74.7336C46.426 74.8003 46.718 74.7891 47.0885 74.7113L47.5713 74.6113L46.4709 69.5535C46.4148 69.3089 46.3587 69.131 46.2801 69.031C46.2015 68.931 46.1116 68.8643 45.9769 68.8531C45.8422 68.8309 45.64 68.8531 45.3706 68.8976L45.3369 68.7198C45.6513 68.6753 46.1004 68.5864 46.6618 68.4641C47.2569 68.3307 47.7061 68.2306 47.9868 68.1528L48.0205 68.3307C47.751 68.3974 47.5713 68.4641 47.459 68.5308C47.3468 68.5975 47.2794 68.6975 47.2569 68.8198C47.2345 68.9421 47.2457 69.131 47.3018 69.3756L48.4022 74.4334L48.885 74.3334C49.2556 74.2556 49.5251 74.1444 49.6823 73.9999C49.8395 73.8554 49.9293 73.6664 49.9517 73.433C49.9742 73.1995 49.963 72.8438 49.9068 72.3769L50.1089 72.3325C50.1426 72.5103 50.1875 72.7549 50.2549 73.055Z" fill="#263238"/>
<path d="M35.3549 69.9313C35.3886 69.5867 35.3998 69.1977 35.3998 68.7642C35.8153 68.8197 36.5114 68.8864 37.4995 68.9754C38.6673 69.0754 39.5543 69.1532 40.1607 69.1866L40.1494 69.3644C39.9249 69.3533 39.7677 69.3644 39.6666 69.3978C39.5656 69.4311 39.487 69.4867 39.442 69.5867C39.3971 69.6868 39.3634 69.8535 39.341 70.0759L38.9368 74.5779C38.9143 74.8002 38.9255 74.9669 38.948 75.0781C38.9705 75.1893 39.0378 75.2671 39.1389 75.3115C39.2399 75.356 39.3971 75.4005 39.6105 75.4227L39.5992 75.6006C39.0041 75.5339 38.1171 75.4449 36.9493 75.3449C36.0511 75.2671 35.4111 75.2226 35.0293 75.2004C35.1079 74.8113 35.164 74.4556 35.1865 74.1332C35.209 73.8998 35.2202 73.7108 35.209 73.5663L35.4223 73.5885C35.4335 73.9887 35.456 74.2777 35.5121 74.4778C35.557 74.6779 35.6581 74.8224 35.8153 74.9225C35.9613 75.0225 36.2083 75.0892 36.5227 75.1114L37.2862 75.1781C37.5108 75.2004 37.668 75.1893 37.769 75.167C37.8701 75.1448 37.9487 75.0781 37.9936 74.9781C38.0385 74.878 38.0722 74.7113 38.0946 74.4889L38.2855 72.3547L37.6792 72.2991C37.376 72.2768 37.1627 72.3435 37.0392 72.5214C36.9269 72.6993 36.8371 72.8771 36.8034 73.0661C36.7585 73.2551 36.736 73.3773 36.7248 73.4329L36.5114 73.4107C36.5564 73.1106 36.59 72.8326 36.6237 72.5547L36.6574 72.1212C36.6799 71.81 36.7023 71.3876 36.7248 70.8318L36.9381 70.854C36.9381 70.8985 36.9493 71.043 36.9493 71.2986C36.9606 71.5543 37.0167 71.7544 37.1515 71.8878C37.275 72.0323 37.4659 72.1101 37.7129 72.1323L38.3192 72.1879L38.5101 70.0092C38.5325 69.7868 38.5213 69.6201 38.4989 69.5089C38.4764 69.4089 38.409 69.3311 38.308 69.2866C38.2069 69.2422 38.0497 69.2088 37.8364 69.1866L37.1627 69.131C36.7809 69.0976 36.489 69.1199 36.2756 69.2088C36.0735 69.2866 35.9163 69.4422 35.8041 69.6534C35.6918 69.8647 35.6019 70.187 35.5121 70.6094L35.2988 70.5872C35.2988 70.4205 35.3212 70.1981 35.3549 69.9313Z" fill="#263238"/>
<path d="M26.5187 65.8074C26.6871 65.774 26.878 65.8074 27.0801 65.8963C27.3159 65.9963 27.4731 66.1408 27.5629 66.3298C27.6528 66.5299 27.664 66.8078 27.6079 67.1746L27.4394 68.0862C27.3833 68.4085 27.3496 68.6531 27.3384 68.8421C27.3271 69.0199 27.3721 69.1867 27.4507 69.3312C27.5293 69.4757 27.6752 69.5868 27.8886 69.6758L28.697 70.0092L29.5167 68.075C29.6065 67.8638 29.6514 67.7082 29.6626 67.5971C29.6739 67.4859 29.629 67.397 29.5504 67.3192C29.4718 67.2413 29.337 67.1635 29.1349 67.0746L29.2023 66.9079C29.4605 67.0301 29.8086 67.1858 30.269 67.3747C30.7518 67.5748 31.1223 67.7193 31.3694 67.7971L31.302 67.9639C31.0886 67.8861 30.9315 67.8527 30.8304 67.8416C30.7181 67.8416 30.6283 67.875 30.5609 67.9639C30.4823 68.0417 30.4037 68.1862 30.3139 68.3974L28.551 72.5659C28.4612 72.7771 28.4163 72.9328 28.4051 73.0439C28.3938 73.1551 28.4388 73.244 28.5174 73.3218C28.596 73.3997 28.7307 73.4775 28.9328 73.5775L28.8654 73.7442C28.6296 73.6331 28.2928 73.4775 27.8436 73.2885C27.6191 73.1996 27.3833 73.0995 27.1138 72.9884C26.8443 72.8772 26.6647 72.8105 26.5636 72.766C26.1257 72.5771 25.7776 72.3659 25.5194 72.1102C25.2611 71.8545 25.1152 71.5877 25.0478 71.2987C24.9804 71.0097 25.0141 70.7318 25.1376 70.4539C25.2274 70.2316 25.3734 70.0315 25.5755 69.8536C25.7776 69.6758 26.0359 69.5424 26.3503 69.4757C26.6647 69.409 27.0464 69.4201 27.4619 69.5201L27.3608 69.4646C27.125 69.32 26.9454 69.1755 26.8331 69.0199C26.7208 68.8754 26.6422 68.7087 26.6198 68.5308C26.5861 68.3529 26.5973 68.1306 26.6422 67.8638L26.7994 66.919C26.8331 66.73 26.8556 66.5855 26.8556 66.4743C26.8556 66.3632 26.8443 66.2742 26.8106 66.2075C26.777 66.1408 26.7208 66.0853 26.6422 66.063C26.5524 66.0186 26.4626 66.0186 26.384 66.0408C26.3054 66.063 26.1931 66.1186 26.0471 66.1964L25.9573 66.0519C26.1594 65.9296 26.3503 65.8407 26.5187 65.8074ZM27.0801 69.7647C26.8106 69.798 26.5973 69.8981 26.4289 70.0648C26.2604 70.2316 26.1145 70.4539 25.991 70.7429C25.8001 71.1987 25.7552 71.5988 25.8787 71.9212C26.0022 72.2436 26.3054 72.5104 26.8106 72.7216C26.9903 72.7994 27.125 72.8327 27.2373 72.8216C27.3384 72.8216 27.4282 72.7771 27.5068 72.6882C27.5854 72.5993 27.664 72.4548 27.7426 72.2547L28.6184 70.1871L28.0458 69.9537C27.6752 69.798 27.3496 69.7313 27.0801 69.7647Z" fill="#263238"/>
<path d="M17.7597 67.3191C17.8607 67.3525 17.9618 67.3302 18.0516 67.2747C18.1414 67.2191 18.2649 67.0968 18.4109 66.919L21.2292 63.3618C21.3752 63.1839 21.465 63.0394 21.4987 62.9394C21.5324 62.8393 21.5212 62.7393 21.465 62.6504C21.4089 62.5614 21.2966 62.4392 21.1282 62.2947L21.2405 62.1501C21.4538 62.3391 21.7457 62.5837 22.1387 62.8838C22.5542 63.2062 22.8686 63.4396 23.0819 63.5841L22.9696 63.7286C22.79 63.5952 22.644 63.5174 22.543 63.4952C22.4419 63.4618 22.3408 63.473 22.251 63.5397C22.1612 63.5952 22.0377 63.7175 21.8917 63.8954L19.0734 67.4525C18.9274 67.6304 18.8376 67.7749 18.8039 67.8749C18.7702 67.975 18.7814 68.075 18.8376 68.164C18.8937 68.2529 19.006 68.3752 19.1744 68.5197L19.0622 68.6642C18.8713 68.4974 18.5681 68.2529 18.1527 67.9194C17.7597 67.6193 17.4453 67.3858 17.2207 67.2302L17.333 67.0857C17.5239 67.208 17.6586 67.2858 17.7597 67.3191Z" fill="#263238"/>
<path d="M10.5058 59.4045C10.4608 58.9043 10.5731 58.4041 10.8314 57.9261C11.1009 57.437 11.5051 57.0035 12.0665 56.5922C12.6167 56.2031 13.1669 55.9474 13.7395 55.8474C14.3122 55.7473 14.8399 55.7807 15.334 55.9697C15.828 56.1586 16.2435 56.481 16.5691 56.9368C16.9172 57.4036 17.108 57.8927 17.1529 58.393C17.1979 58.8932 17.0856 59.3934 16.8273 59.8714C16.5578 60.3605 16.1536 60.7941 15.5922 61.2053C15.042 61.5944 14.4918 61.8501 13.9192 61.9501C13.3578 62.0502 12.8188 62.0168 12.3247 61.8278C11.8307 61.6389 11.4152 61.3165 11.0896 60.8719C10.7415 60.3939 10.5507 59.9048 10.5058 59.4045ZM12.19 61.3832C12.583 61.461 13.0321 61.4277 13.5262 61.272C14.0202 61.1164 14.5143 60.8607 15.0308 60.4828C15.5473 60.116 15.9515 59.7158 16.2322 59.2934C16.5242 58.871 16.6814 58.4486 16.7038 58.0484C16.7375 57.6482 16.6364 57.2925 16.4231 56.9923C16.1873 56.6811 15.8841 56.481 15.4799 56.4032C15.0869 56.3254 14.6378 56.3587 14.1437 56.5144C13.6497 56.67 13.1556 56.9257 12.6391 57.2925C12.1226 57.6593 11.7184 58.0595 11.4377 58.493C11.1458 58.9154 10.9886 59.3267 10.9549 59.738C10.9212 60.1382 11.0223 60.4939 11.2356 60.794C11.4714 61.1053 11.7858 61.3054 12.19 61.3832Z" fill="#263238"/>
<path d="M11.3706 46.0207C11.5053 46.1207 11.6064 46.2875 11.6737 46.5098C11.7523 46.7432 11.7411 46.9656 11.6513 47.1545C11.5615 47.3546 11.3481 47.5436 11.0225 47.7326L10.2028 48.1883C9.92212 48.3551 9.70878 48.4885 9.56281 48.5996C9.41685 48.7108 9.31579 48.8442 9.25965 48.9998C9.20351 49.1554 9.20351 49.3333 9.27088 49.5556L9.52913 50.3893L11.5502 49.7668C11.7748 49.7001 11.9208 49.6334 12.0106 49.5667C12.1004 49.5 12.1453 49.4111 12.1566 49.3111C12.1678 49.211 12.1341 49.0443 12.078 48.8331L12.2576 48.7775C12.325 49.0443 12.426 49.4222 12.5832 49.8891C12.7404 50.3893 12.864 50.7561 12.9538 50.9896L12.7741 51.0452C12.6955 50.834 12.6282 50.6894 12.5608 50.6116C12.4934 50.5338 12.4036 50.4782 12.2913 50.4782C12.179 50.4782 12.0106 50.5005 11.7973 50.5783L7.44065 51.9122C7.21608 51.9789 7.07012 52.0456 6.98029 52.1123C6.89046 52.179 6.84555 52.2679 6.83432 52.368C6.82309 52.4791 6.85678 52.6348 6.91292 52.846L6.73326 52.9016C6.67712 52.657 6.57607 52.3013 6.4301 51.8344C6.36273 51.6121 6.2729 51.3564 6.18307 51.0896C6.09325 50.8228 6.02588 50.6339 5.99219 50.5338C5.84622 50.0781 5.80131 49.6779 5.83499 49.3222C5.86868 48.9665 5.98096 48.6774 6.16062 48.444C6.34027 48.2106 6.57607 48.0549 6.868 47.966C7.09257 47.8993 7.3396 47.8771 7.60908 47.9104C7.87856 47.9438 8.13681 48.0549 8.40629 48.255C8.67577 48.4551 8.90034 48.7441 9.09122 49.1332L9.07999 49.022C9.04631 48.7441 9.03508 48.5218 9.07999 48.3328C9.12491 48.1439 9.20351 47.9882 9.31579 47.8548C9.4393 47.7215 9.61896 47.5769 9.85475 47.4436L10.6857 46.9544C10.8541 46.8655 10.9888 46.7766 11.0674 46.7099C11.146 46.6432 11.2134 46.5765 11.2471 46.5098C11.2808 46.4431 11.2808 46.3653 11.2583 46.2875C11.2246 46.1874 11.1797 46.1207 11.1123 46.0763C11.045 46.0318 10.9327 45.9762 10.7755 45.9206L10.8316 45.7539C11.0562 45.8317 11.2471 45.9206 11.3706 46.0207ZM8.687 48.9998C8.49612 48.8219 8.27155 48.7219 8.03576 48.6997C7.79996 48.6774 7.53048 48.7108 7.22731 48.8108C6.74449 48.9553 6.41887 49.1888 6.23922 49.4889C6.05956 49.789 6.05956 50.2003 6.21676 50.7006C6.2729 50.8784 6.34027 51.0118 6.40764 51.0896C6.47501 51.1674 6.57607 51.2119 6.68835 51.2119C6.80063 51.2119 6.96906 51.1786 7.17117 51.123L9.32702 50.456L9.14737 49.8669C9.03508 49.4667 8.87788 49.1777 8.687 48.9998Z" fill="#263238"/>
<path d="M10.5061 35.4716C10.9327 35.2826 11.191 34.9269 11.3033 34.3933C11.337 34.1932 11.337 33.9931 11.2808 33.8042C11.2247 33.6152 11.1236 33.4484 10.9664 33.3039C10.8092 33.1594 10.5959 33.0594 10.3152 33.0149C10.0794 32.9705 9.86605 32.9927 9.66394 33.0705C9.46183 33.1483 9.25972 33.2706 9.06884 33.4373C8.87796 33.6041 8.65339 33.8264 8.40637 34.1043C8.12566 34.4155 7.87863 34.6712 7.66529 34.8491C7.45195 35.038 7.21616 35.1714 6.95791 35.2715C6.69965 35.3715 6.40772 35.3826 6.08209 35.3271C5.74524 35.2604 5.46453 35.1381 5.26242 34.938C5.06031 34.7379 4.91434 34.5045 4.84697 34.2266C4.7796 33.9487 4.7796 33.6596 4.83574 33.3484C4.86943 33.1594 4.91434 33.0149 4.97048 32.8815C5.02663 32.7481 5.08277 32.6481 5.15014 32.5703C5.21751 32.4925 5.28488 32.4035 5.37471 32.3146C5.48699 32.1923 5.54313 32.1034 5.56559 32.0367C5.57682 31.9811 5.55436 31.9367 5.49822 31.8922C5.44208 31.8477 5.34102 31.8144 5.20628 31.7699L5.23996 31.5698C5.58804 31.6588 6.19438 31.7921 7.08142 31.9589L7.04773 32.159C6.73334 32.1256 6.4414 32.1367 6.14946 32.2034C5.86875 32.259 5.62173 32.3813 5.41962 32.5703C5.21751 32.7481 5.08277 33.0038 5.02663 33.3151C4.98171 33.5263 4.99294 33.7152 5.04908 33.9042C5.10522 34.0932 5.20628 34.2377 5.34102 34.36C5.48699 34.4822 5.65541 34.5601 5.85753 34.6045C6.18315 34.6601 6.46386 34.6156 6.69965 34.46C6.93545 34.3044 7.16002 34.1043 7.37336 33.8709C7.58669 33.6374 7.72144 33.4818 7.80003 33.404C8.11443 33.0705 8.37268 32.8148 8.58602 32.6259C8.79936 32.4369 9.03515 32.3035 9.29341 32.2146C9.55166 32.1256 9.83237 32.1145 10.1355 32.1701C10.5061 32.2368 10.8092 32.3813 11.0338 32.5925C11.2584 32.8148 11.4043 33.0705 11.4829 33.3817C11.5615 33.693 11.5615 34.0265 11.4942 34.3822C11.438 34.6712 11.3707 34.8935 11.2696 35.0714C11.1798 35.2492 11.0563 35.4049 10.9215 35.5494C10.8092 35.6717 10.7531 35.7606 10.7306 35.8273C10.7194 35.8829 10.7419 35.9273 10.798 35.9718C10.8542 36.0163 10.9552 36.0607 11.0899 36.0941L11.0563 36.2942C10.7306 36.2052 10.012 36.0607 8.90041 35.8606L8.9341 35.6605C9.56289 35.7161 10.0794 35.6605 10.5061 35.4716Z" fill="#263238"/>
<path d="M8.28286 26.1006C7.96846 25.9339 7.60915 25.7783 7.20493 25.6227C7.45196 25.1891 7.86741 24.4332 8.42883 23.355C8.99024 22.2878 9.38324 21.5319 9.59658 21.0762C9.96711 21.3096 10.304 21.5097 10.6071 21.6653C10.8766 21.8098 11.1124 21.9099 11.2921 21.9877L11.191 22.1767C10.7419 21.9988 10.405 21.8876 10.1692 21.8543C9.93343 21.8098 9.72009 21.8543 9.54043 21.9655C9.36078 22.0766 9.18113 22.2989 9.0127 22.6324L8.78813 23.0771L13.4255 25.467C13.65 25.5893 13.8297 25.6449 13.9532 25.656C14.0767 25.6671 14.189 25.6338 14.29 25.5448C14.3911 25.4559 14.5034 25.2892 14.6381 25.0557L14.8065 25.1447C14.6381 25.4226 14.4248 25.8116 14.1553 26.323C13.8746 26.8565 13.6725 27.2678 13.549 27.5235L13.3805 27.4346C13.4928 27.19 13.5714 27.001 13.5826 26.8788C13.6051 26.7454 13.5714 26.6342 13.4816 26.5342C13.3918 26.4341 13.2458 26.3341 13.0212 26.2118L8.38391 23.8107L8.14812 24.2443C7.96846 24.5777 7.88986 24.8445 7.90109 25.0557C7.91232 25.2669 8.00215 25.4559 8.17057 25.6227C8.339 25.7894 8.61971 26.0117 9.02393 26.2674L8.92287 26.4564C8.77691 26.3674 8.55234 26.2452 8.28286 26.1006Z" fill="#263238"/>
<path d="M16.2108 13.3283C16.4017 13.1394 16.5589 12.9615 16.6712 12.8281L16.8059 12.9615C16.7385 13.0616 16.7048 13.2061 16.7161 13.3728C16.7273 13.5396 16.7722 13.773 16.862 14.0509L17.8838 17.0634L19.074 18.2305C19.2425 18.3862 19.366 18.4973 19.467 18.5418C19.5681 18.5863 19.6691 18.5863 19.7702 18.5418C19.8712 18.4973 19.9948 18.3973 20.1632 18.2528L20.2979 18.3862C20.0846 18.5751 19.8039 18.8419 19.4558 19.1865C19.0853 19.5534 18.8158 19.8424 18.6474 20.0314L18.5126 19.898C18.6586 19.7312 18.7596 19.6089 18.8046 19.5089C18.8495 19.4088 18.8495 19.3088 18.7933 19.2088C18.7484 19.1087 18.6361 18.9753 18.4789 18.8197L17.4908 17.8526L13.7406 16.7632C13.516 16.6965 13.3476 16.6743 13.2353 16.6854C13.123 16.6965 13.0444 16.7299 12.9883 16.7855L12.8535 16.6521C13.0332 16.4964 13.2353 16.3186 13.4374 16.1074C13.8528 15.685 14.156 15.3848 14.3244 15.1847L14.4592 15.3181C14.156 15.6183 14.0886 15.8517 14.2571 16.0184C14.3244 16.0851 14.4143 16.1296 14.549 16.1741L17.7042 17.1412L16.8733 14.6845C16.7498 14.3288 16.6263 14.0842 16.4915 13.962C16.368 13.8397 16.2333 13.8063 16.0873 13.8508C15.9413 13.8953 15.7729 14.0064 15.5708 14.1954L15.436 14.062C15.7055 13.8175 15.9525 13.5729 16.2108 13.3283Z" fill="#263238"/>
<path d="M23.0034 8.84845C22.936 8.92626 22.9023 9.02631 22.9248 9.13747C22.9473 9.24863 23.0034 9.40426 23.1157 9.60435L25.2828 13.5839C25.395 13.784 25.4849 13.9174 25.5747 13.9952C25.6533 14.073 25.7543 14.0952 25.8554 14.0841C25.9565 14.073 26.1137 14.0063 26.3045 13.9063L26.8996 13.5839C27.2365 13.406 27.4723 13.2171 27.5958 13.0281C27.7193 12.8391 27.7642 12.6279 27.7305 12.3723C27.6969 12.1166 27.5958 11.7942 27.4161 11.3718L27.607 11.2718C27.6856 11.4496 27.7979 11.6719 27.9439 11.9387C28.1123 12.2389 28.3144 12.5723 28.5614 12.9392C28.1909 13.117 27.5621 13.4394 26.6975 13.9063C25.6645 14.4621 24.8785 14.8845 24.362 15.1846L24.2722 15.029C24.4631 14.9178 24.5978 14.8178 24.6652 14.74C24.7326 14.6622 24.7663 14.5621 24.7438 14.451C24.7213 14.3398 24.6652 14.1842 24.5529 13.9841L22.3634 10.0045C22.2511 9.80444 22.1613 9.67104 22.0714 9.59323C21.9928 9.51542 21.8918 9.49319 21.7907 9.5043C21.6784 9.51542 21.5325 9.571 21.3304 9.67104L21.2518 9.5043C21.4876 9.40426 21.8356 9.2264 22.296 8.97073C22.7339 8.73729 23.0708 8.54832 23.3066 8.40381L23.3964 8.55943C23.2055 8.67059 23.082 8.77064 23.0034 8.84845Z" fill="#263238"/>
<path d="M36.6791 9.55984C36.7465 9.89332 36.8475 10.2713 36.9711 10.6937C36.5556 10.7604 35.8707 10.8826 34.905 11.0716C33.7485 11.2939 32.8839 11.4718 32.2888 11.6052L32.2551 11.4273C32.4685 11.3718 32.6257 11.3273 32.7155 11.2606C32.8053 11.205 32.8615 11.1161 32.8727 11.016C32.8839 10.9049 32.8727 10.7381 32.8278 10.5158L31.952 6.0805C31.9071 5.85818 31.8622 5.70255 31.7948 5.60251C31.7274 5.50246 31.66 5.44688 31.5478 5.43577C31.4467 5.41353 31.2783 5.42465 31.0649 5.458L31.0312 5.28014C31.6264 5.1801 32.5022 5.02447 33.6475 4.80215C34.5345 4.62429 35.1633 4.50201 35.5226 4.41309C35.5563 4.81327 35.6124 5.16898 35.6686 5.48023C35.7135 5.71367 35.7584 5.89153 35.8033 6.02492L35.6012 6.06938C35.4777 5.69144 35.3654 5.41353 35.2643 5.23568C35.1633 5.05782 35.0173 4.94666 34.8489 4.89108C34.6692 4.8355 34.4334 4.8355 34.1078 4.90219L33.3555 5.0467C33.1422 5.09117 32.985 5.13563 32.8952 5.19121C32.8053 5.24679 32.7492 5.32461 32.7267 5.43577C32.7155 5.54693 32.7267 5.71367 32.7716 5.93599L33.1871 8.04805L33.7822 7.92577C34.0854 7.87019 34.265 7.7368 34.3324 7.53671C34.3998 7.33662 34.4222 7.14764 34.411 6.95867C34.3998 6.7697 34.3885 6.64742 34.3885 6.59184L34.5906 6.54737C34.6243 6.84751 34.6692 7.12541 34.7254 7.3922L34.8152 7.81461C34.8714 8.11474 34.9724 8.53715 35.1184 9.07073L34.9163 9.11519C34.905 9.07073 34.8601 8.93733 34.7815 8.69278C34.7029 8.44823 34.5906 8.28149 34.4222 8.18144C34.2538 8.0814 34.0629 8.05916 33.8159 8.10363L33.2208 8.21479L33.6475 10.3602C33.6924 10.5825 33.7373 10.7381 33.7934 10.8382C33.8496 10.9271 33.9282 10.9827 34.0405 11.0049C34.1415 11.016 34.3099 11.0049 34.5233 10.9605L35.1857 10.8271C35.5563 10.7493 35.837 10.6492 36.0166 10.5158C36.1963 10.3824 36.2974 10.1935 36.3423 9.96001C36.3872 9.72658 36.3872 9.39309 36.3535 8.95957L36.5556 8.9151C36.5893 9.08184 36.623 9.29305 36.6791 9.55984Z" fill="#263238"/>
<path d="M29.1114 52.0123C28.5949 51.3231 28.1458 50.5672 27.7528 49.7335C27.3598 48.8998 27.0454 48.055 26.8096 47.1879C26.2931 43.3751 26.2819 39.6734 26.7647 36.0829C27.2475 32.4924 28.0335 28.9575 29.1114 25.4671C29.2911 25.078 29.6841 24.889 30.2904 24.889C30.8967 24.889 31.4918 25.0224 32.0982 25.2892C32.7045 25.556 33.1986 25.9117 33.5915 26.3563C33.9845 26.801 34.0744 27.2679 33.861 27.7459C33.5242 28.4573 33.1986 29.4244 32.8729 30.6249C32.5473 31.8366 32.2217 33.1705 31.9297 34.6267C31.6266 36.0829 31.3683 37.6169 31.1438 39.2065C30.9192 40.7961 30.7508 42.3302 30.6497 43.7864C30.5487 45.2426 30.5262 46.5654 30.5823 47.7437C30.6385 48.922 30.8181 49.8558 31.1213 50.5338C32.5361 48.6552 33.8273 46.7099 35.0063 44.6979C36.1853 42.6859 37.2857 40.6516 38.3187 38.5729C39.3517 36.5053 40.3398 34.4155 41.2718 32.2923C42.2037 30.1803 43.1244 28.0905 44.0227 26.034C44.4718 24.9891 44.921 23.8886 45.3589 22.7325C45.7968 21.5653 46.3694 20.576 47.0993 19.7423C47.4024 19.4755 47.6382 19.3866 47.7954 19.4755C47.9639 19.5644 48.0762 19.7312 48.1323 19.9868C48.1884 20.2425 48.2221 20.5093 48.2221 20.7872C48.2221 21.0651 48.2221 21.2874 48.2221 21.4319C48.0088 22.7992 47.8291 24.1554 47.6832 25.5004C47.5372 26.8455 47.2116 28.1349 46.74 29.391C45.954 31.3586 45.1568 33.3039 44.3259 35.2492C43.495 37.1834 42.6079 39.0954 41.6647 40.974C40.7216 42.8526 39.6886 44.6757 38.5994 46.4431C37.499 48.2217 36.3088 49.9113 35.0063 51.5121C33.9845 52.7904 32.9628 53.4685 31.9634 53.5463C30.9192 53.6352 29.9872 53.1128 29.1114 52.0123Z" fill="#FF5196" stroke="white" stroke-miterlimit="10"/>
<path d="M47.7057 46.9656C47.0994 46.1319 46.5043 45.2871 45.9204 44.42C45.3365 43.553 45.0446 42.6081 45.0446 41.5632C45.0446 40.4071 45.3815 39.3066 46.0552 38.2728C46.7289 37.2501 47.5036 36.4164 48.3794 35.7939C48.7387 35.5605 49.1093 35.3604 49.4798 35.2159C49.8503 35.0714 50.2546 35.0825 50.6812 35.2604C50.8609 35.3493 51.0518 35.416 51.2427 35.4604C51.4335 35.5049 51.6132 35.5605 51.7592 35.6161C51.9051 35.6716 52.0736 35.7606 52.2532 35.8829C52.4329 36.0051 52.5227 36.1608 52.5227 36.372C52.5227 37.2057 52.5452 37.8837 52.5901 38.4062C52.635 38.9287 52.7024 39.3733 52.7922 39.7513C52.882 40.1292 52.9718 40.4516 53.0617 40.7295C53.1515 41.0185 53.2413 41.3186 53.3311 41.641C53.3873 41.9411 53.3761 42.1968 53.2862 42.3969C53.1964 42.6081 52.9718 42.6303 52.6125 42.4858C51.9501 42.2524 51.456 41.7744 51.1416 41.0518C50.8272 40.3293 50.5914 39.6846 50.4454 39.0843C50.4118 38.962 50.3444 38.7619 50.2209 38.4618C50.0974 38.1616 50.03 37.9504 49.9963 37.8393C49.7605 37.7837 49.4686 37.8615 49.143 38.0838C48.8173 38.3062 48.5142 38.6174 48.2671 38.9954C48.0089 39.3844 47.8405 39.8291 47.7731 40.3404C47.6945 40.8517 47.7956 41.352 48.065 41.8633C48.1885 42.0412 48.357 42.2635 48.5815 42.508C48.8061 42.7637 49.0307 43.0194 49.2552 43.2862C49.4798 43.553 49.7044 43.8197 49.9289 44.0643C50.1535 44.3088 50.3444 44.5201 50.4904 44.6646C50.67 44.8424 50.7935 44.9425 50.8497 44.9536C50.9058 44.9647 51.063 44.9314 51.2988 44.8424C51.602 44.6979 52.0623 44.4978 52.6799 44.2644C53.2975 44.0309 53.9487 43.7864 54.6224 43.553C55.2961 43.3195 55.9474 43.1194 56.5649 42.9527C57.1825 42.7859 57.6541 42.7081 57.9909 42.7081C58.2043 42.7081 58.3502 42.7859 58.4401 42.9305C58.5299 43.0194 58.5187 43.1417 58.3951 43.2862C58.2716 43.4307 58.1144 43.5863 57.9235 43.7308C57.7327 43.8753 57.5193 44.0087 57.3172 44.131C57.1039 44.2533 56.9691 44.32 56.913 44.3533C56.3965 44.6535 55.7565 44.9869 54.9705 45.3649C54.1845 45.7317 53.5108 46.0985 52.9381 46.4543C52.882 46.5098 52.7697 46.5765 52.6013 46.6321C52.4329 46.6877 52.3094 46.7544 52.2195 46.81C52.5788 47.6103 52.8371 48.3106 52.9831 48.8887C53.129 49.4667 53.1852 50.0225 53.1403 50.5672C53.0953 51.1008 52.9831 51.6455 52.8034 52.2013C52.6238 52.7571 52.3767 53.3907 52.0848 54.1021C51.6581 54.7913 51.2314 55.4472 50.7935 56.0697C50.3556 56.6922 49.8728 57.2591 49.3226 57.7704C48.7836 58.2818 48.1885 58.682 47.5598 58.971C46.931 59.2711 46.2348 59.4156 45.4825 59.4156C45.0558 59.4156 44.6516 59.36 44.2586 59.26C43.8656 59.1599 43.54 58.9376 43.2705 58.6153C42.5744 57.8705 42.1926 57.059 42.1028 56.1808C42.0129 55.3027 42.0915 54.4356 42.3273 53.5686C42.507 53.035 42.7316 52.5459 43.001 52.0901C43.6635 50.9563 44.3934 50.0003 45.1906 49.211C45.999 48.4329 46.8299 47.677 47.7057 46.9656ZM49.244 48.9776C48.9072 49.3111 48.458 49.778 47.8854 50.3894C47.3127 51.0007 46.785 51.6677 46.2797 52.3791C45.7857 53.0906 45.3815 53.802 45.0671 54.5023C44.7527 55.2026 44.6741 55.8029 44.82 56.3142C45.4264 56.0474 46.0439 55.6028 46.6727 54.9914C47.3015 54.38 47.8629 53.7131 48.3457 52.9794C48.8286 52.2457 49.1654 51.5232 49.3563 50.8118C49.5472 50.0892 49.5135 49.4778 49.244 48.9776Z" fill="#FF5196" stroke="white" stroke-miterlimit="10"/>
<path d="M40.3854 65.0625C26.3387 65.0625 14.9082 53.7463 14.9082 39.8401C14.9082 25.9339 26.3387 14.6177 40.3854 14.6177C54.4321 14.6177 65.8626 25.9339 65.8626 39.8401C65.8626 53.7463 54.4321 65.0625 40.3854 65.0625ZM40.3854 15.7293C26.9562 15.7293 16.031 26.5452 16.031 39.8401C16.031 53.1349 26.9562 63.9509 40.3854 63.9509C53.8145 63.9509 64.7397 53.1349 64.7397 39.8401C64.7397 26.5452 53.8145 15.7293 40.3854 15.7293Z" fill="#263238"/>
</g>
</svg>
