<svg width="27" height="20" viewBox="0 0 27 20" fill="none" xmlns="http://www.w3.org/2000/svg">
<path d="M26.1696 5.10343C26.1696 2.87693 24.4885 1.08583 22.4113 1.08583C19.5976 0.957681 16.7281 0.908203 13.7956 0.908203H12.8815C9.9561 0.908203 7.08152 0.957681 4.26788 1.08632C2.19575 1.08632 0.514675 2.88732 0.514675 5.11382C0.387705 6.87473 0.33387 8.63614 0.336918 10.3976C0.331839 12.159 0.389398 13.922 0.509596 15.6867C0.509596 17.9132 2.19067 19.7192 4.2628 19.7192C7.21865 19.8528 10.2507 19.9121 13.3335 19.9072C16.4214 19.9171 19.4449 19.8544 22.4042 19.7192C24.4814 19.7192 26.1624 17.9132 26.1624 15.6867C26.2843 13.9204 26.3402 12.159 26.3351 10.3926C26.3466 8.6312 26.2914 6.86814 26.1696 5.10343ZM10.85 15.2513V5.52894L18.2142 10.3877L10.85 15.2513Z" fill="white"/>
</svg>
